<?xml version="1.0" encoding="UTF-8"?>
<svg id="Layer_1" xmlns="http://www.w3.org/2000/svg" version="1.1" viewBox="0 0 700.08 400.08">
  <!-- Generator: Adobe Illustrator 30.4.0, SVG Export Plug-In . SVG Version: 2.1.4 Build 226)  -->
  <path d="M463.54,251.63c-1.43,63.94-56.34,112.44-118.03,110.79-62.74-1.69-113.18-53.59-112.32-117.13l-.03-92.97c-1.18-63.68,48.71-115.97,111.77-118.03,62.04-2.03,117.09,46.75,118.61,110.66v106.69h0ZM346.38,360.14c60.89,1.32,113.35-47.07,114.9-108.22v-107.08c-1.45-59.14-50.5-106.23-108.59-108.25-65.08-2.27-117.61,50.06-117.56,114.92l.06,94.62c.04,61.77,48.64,112.66,111.18,114.02h.01Z"/>
  <path d="M456.96,252.49c-1.61,58.61-51.55,103.35-108.19,103.31-57.12-.04-106.72-45.33-108.16-103.88v-107.07c1.38-58.3,50.61-103.57,107.48-103.96s107.2,44.59,108.88,103.16c1.03,35.92,1.01,71.72,0,108.44h-.01ZM349.54,350.69c56.85-.42,102.96-46.48,102.96-102.88v-98.79c0-59.23-50.26-106.04-109.22-102.9-53.62,2.86-98,46.85-97.99,101.16v102.19c.95,56.37,47.73,101.64,104.25,101.22Z"/>
  <path d="M269.13,227.21c-.82,1.34-5.12,1.15-6.21.2-8.19-7.19-6.96-31.66-3.2-44.83,1.41-4.94,7.13-8.02,11.67-5.51,3.53,9.41-.31,22.34,3.43,31.89l1.85-27.89c20.08-7.65,39.54-15.24,60.28-21.33l79.33-23.3-5.5,68.64-.54,20.58c.79,6.35-2.21,12.91,2.65,19.18l2.26-52.23c.93-21.6,2.15-42.51,5.02-63.81.58-4.3,6.71-4.97,9.85-5.1,4.88-.2,7.88,1.99,8.76,6.68,1.79,9.55,1.74,19.18,1.48,29.21-.63,24.25-1.54,47.82-4.08,71.9-.95,8.97-2.22,17.48-4.86,25.77-2,6.28-8.36,8.88-14.14,6.17-3.56-1.67-6.22-4.83-8.32-8.32l-49.11-11.65-9.26,14.87-49.71-13.01c-.85-1.59-1.32-4.59-.84-5.9l3.51-9.67-30.68-10.94c-.96,2.66-1.93,5.69-3.62,8.42l-.02-.02ZM349.16,165.79c20.31-4.98,38.62-10.29,57.35-18.4-12.63.91-24.56,5.1-36.85,8.48-7.13,3.02-14.69,4.78-20.49,9.92h-.01ZM312.17,179.98l20.74-7.16c.72-.25,1.99-2.07,2.14-2.57-17.92,3.7-36.92,7.52-52.81,16.23,11.13.77,19.66-3.74,29.93-6.49h0ZM348.97,244.99c-.08-4.95-21.38-8.93-31.32-10.29-1.4-.19-4.07.68-5.29,1.35,2.77,4.51,6.28,6.27,10.62,7.6,9.23,2.82,26.1,7.54,25.99,1.34h0Z"/>
  <path d="M341.45,300.12c-1.25-5.35-2.73-9.33-5.23-13.78l-21.04-.11c7.53,5.47,13.79,12.65,9.67,21.13-1.05,2.16-5.52,2.15-7.94,1.56-1.9-.46-4.2-2.77-5.18-5.27l-5.6-14.28c-1.87-4.75-7.15-8.03-11.43-6.5,4.38,14.42,12.26,27.25,24.31,35.19,8.1-3.68,18.99-9.14,22.1-4.83.86,1.19,1.64,4.62.62,5.7l-5.12,5.39,16.66-.97c9.14-.53,18.93-1.54,22.43,5.22.8,1.54.73,5.99-1.35,6.42-8.47,1.72-16.4-2.31-22.79-7.71l-15.63.13,9.53,6.21c1.41.92,2.38,4.23,2.11,5.74-.37,2.03-3.39,3.53-5.82,3.17-7.48-1.11-12.51-6.73-13.35-14.16-.24-2.11-2.23-3.75-4.25-4.19-7.43-1.63-12.25-6.82-18.53-12.19.17,5.74,2.89,12.02.34,17.72-3.15.84-6.61-1.89-8.01-3.9-2.02-2.91-2.5-6.65-1.51-9.88l3.19-10.35c.94-3.06-2.23-7.46-4.04-9.96l-2.6,14.46c-.22,1.2-2.07,3.07-3.19,3.38s-3.7-.55-4.7-1.38c-3.81-3.1-4.87-8.02-2.38-12.37l5.4-9.43c2.97-5.17.78-10.4-3.74-13.93l-8.08-6.3c.21,8.15.05,16.12-6.07,16.31-6.77.22-5.84-13.27-4.72-23.58.46-4.24-.36-7.55-2.54-11.36-4.46-7.79-4.34-13.13-2.54-12.31.51.23,1.75.96,2.08,1.51l10.47,17.25c2.89,4.76,7.74,6.66,12.77,4.36l10.69-4.89c3.82-1.75,7.81-.67,10.46,2.44,1.17,1.37,2.19,4.03,1.86,5.74-1.04,5.37-10.18,6.63-17.76,7.63,8.53,4.57,18.46,6.35,28.21,4.59,3.39-9.26,5.88-21.25,14.37-18.64,3.75,1.15,5.57,4.75,5.07,8.77-.64,5.11-4.35,8.13-8.85,10.5l17.73.77c4.06.18,6.97-1.34,9-4.84l5.49-9.43c1.45-2.5,4.6-3.86,7.27-3.53,2.42.3,6.52,2.27,6.01,5.66-.93,6.26-6.68,11.42-12.79,12.83,3.23.39,6.94,1.02,10.18,2.49l13.11,5.95c3.34,1.52,7.01-.3,9.13-2.7,2.73-3.1,7.2-3.38,10.18-.93,1.09.9,2.05,3.57,1.8,4.79-1.08,5.22-8.2,4.63-15.26,4.18,6.01,6.36,13.61,8.1,20,14.3,2.51,2.44,4.21,7.93,1.3,10.32-2.39,1.96-6.34-.85-7.72-3.04l-7.74-12.25c-3.63-5.74-10.45-9.07-16.94-11.37,6.25,7.57,7.96,20.35,2.89,22.76-2.67,1.26-6.38.17-8.51-1.55-5.92-4.78-1.09-15.49-5.13-25.23l-23.7-2.08c3.99,3.64,7.26,5.85,9.32,10.02,1.73,3.51,1.99,10.22-1.57,12.39-5.4,3.3-11.08-2.25-12.36-7.76h-.04ZM269.48,261.76c-1.47,3.44,1.15,6.53-.85,14.39-.18.69.34,2.12.62,2.62.83,1.5,5.93-9.5.23-17.01ZM292.5,266.28l8.95-2.19-.72-1.96c-.2-.54-2.46-.61-3.07-.37l-10.53,4.22c1.51,1.02,3.42.78,5.38.3h-.01ZM325.5,274.79c5.98-1.23,6.29-5.25,5.34-9.86-1.27.67-3,2.16-3.54,3.16l-1.8,6.71h0ZM368.62,269.95l-1.15-2.27c-3.72,1.89-7.28,3.72-6.68,9.28l7.83-7.02h0ZM349.13,299.24c-.29-4.64-2.49-7.36-6-9.33.73,4.11,2.49,7.81,6,9.33ZM311.95,291.58c1.42,3.74,3.5,6.56,6.67,8.91-.77-6.2-3.82-11.11-6.67-8.91ZM378.88,307.88c2.48-4.72,2.03-9.8-1.95-13.41-1.17,4.52-1.39,9.8,1.95,13.41ZM290.61,296.29c-5.89,1.46-5.68,7.63-3.01,11.42,1.31-3.54,2.35-7.22,3.01-11.42ZM302.51,321.71c.76-4.44.13-7.19-1.78-9.55-2.65,3.54-.98,7.81,1.78,9.55ZM336.05,317.25c-4.59-1.55-7.66-.56-9.34,2.77,3.68.34,7.43-.6,9.34-2.77ZM342.33,338.18c-1.54-4.24-4.57-6.75-8.19-7.21,2.07,3.69,4.88,6.15,8.19,7.21Z"/>
  <path d="M391.08,112.5c-2.94-3.51-5.84-4.4-9.73-2.49l-9.43,4.63c10.17,1.36,14.85,9.96,12.04,12.49-4.93,4.43-10.94,1.85-14.17-3.13l-4.96-7.63c-5.68.09-10.61.82-16.22,2.64,4.63,2.49,8.86,6.69,7.25,11.87-1.27,4.08-7.91,4-10.28.91l-5.04-6.58c-3.36-4.39-7.93-7.26-13.76-6.45l-9.21,1.29c4,1.14,7.62,3.38,9,7.45.41,1.21-.18,3.92-1,4.72-.93.91-3.57,1.67-5.17,1.42-7.9-1.24-10.21-13.84-17.41-11.24-5.5,1.99-10.1,5.71-14.56,9.95l11.9-1.69c4.03-.57,6.36,2.46,6.72,5.39,1.05,8.67-10.85,6.41-22.4,5.06-2.55-.3-5.37.36-6.82,2.5l-11.78,17.43c-6.95-4.17,3-7.83.37-16.2s-6.32-18.39-.98-21.52c2.2-1.29,6.23-1.61,7.8.43,2.41,3.12,2.24,7,2.38,11.12,3.32-3.06,6.49-5.61,9.57-8.88,4.08-4.34,2.05-16.51,7.7-21.05,1.34-1.08,4.38-1.55,5.72-1.08,2.06.72,3.02,2.55,4.11,5.8l7.6-9.94-3.36-14.64c-.73-3.17-.87-7.67,1.46-10.06,2.51-2.57,8.25-2.03,10.07,1.07s1.62,6.86,1.74,11.45l13.71-10.89c7.18-5.7,2.46-13.13,8.81-18.39,1.74-1.44,6.01-1.78,7.54-.06,3.08,3.47.68,6.92-1.65,10.9l16.29-5.47c5.74-1.93,12.56-1.48,13.09,2.28.63,4.47-7.22,7.56-16.34,5.74-7.16-1.43-13.94-.8-19.38,4.45l8.3.36c1.76.08,4.28,2.76,4.51,4.33.3,2.1-1.02,5.22-2.94,6.51-8.16,5.49-16.99-2.62-23.77,1.01-4.87,2.61-8.92,6.61-12.15,10.99l-12.69,17.19,15.99-1.22,8.85-16.97c1.86-3.56,7.75-4.88,10.29-1.88,5.03,5.94-2.3,14.13-11.29,19.15,5.27.34,10.86.13,16.35-.94,7.07-1.37,3.33-8.79,6.47-14.2,1.99-3.43,5.41-4.57,8.98-3.37,2.37.79,5.51,4.29,4.5,7.61-1.22,4.01-4.71,6.19-8.09,8.6,5.58-.18,11.14-.65,15.84-3.5,3.86-2.34-1.81-10.46,2.34-14.28,1.11-1.03,4.48-1.43,5.6-.25,3.14,3.31,2.46,7.77.58,11.5,2.85-1.06,6.63-2.95,8-6.07,1.57-3.59-5.72-8.15-3.13-13.28.9-1.8,4.04-3.14,5.99-1.45,1.33,1.15,2.4,4.61,3.07,6.77,4.19-7.2,11.15-13.34,18-9.96.91.45,1.89,2.62,1.61,3.49-.33,1.01-1.94,2.86-3.03,3.22l-12.51,4.09-5.63,8.83c3.63.42,5.89.93,7.72,2.59s2.69,5.2,1.09,7.46c-2.05,2.87-7.84,2.76-10.05.13l-.02-.06ZM312.98,91.92c3.85-4.66,2.9-10.02-.2-13.86-.4,5.14-.42,9.62.2,13.86ZM346.96,84.21c.53.13,2.68-.76,2.45-1.2-1.91-3.73-8.32-3.95-13.49-1.48l11.04,2.67h0ZM326.84,110.78c5.56-1.43,7.85-5.97,8-11.14l-8,11.14ZM352.24,111.58c5.3-1.97,5.69-7.16,4.78-11.69-2.08,3.63-3.66,7.44-4.78,11.69ZM351.93,129.44c-1.09-5.33-4.96-6.7-8.52-7.92,2.34,3.38,4.81,7.43,8.52,7.92ZM302.57,134.12c-4.79.02-8.56.98-12.41,2.78,4.49.88,8.62.57,12.41-2.78Z"/>
  <path d="M426.28,105.3c1.13,2.21-.79,5.24-2.33,6.35-1.87,1.35-4.94,2.07-7.02.76-3.07-1.94-3.4-7.42-.6-9.7s8.03-1.16,9.95,2.59h0Z"/>
  <path d="M431.16,286.95c.72,3.69-4.49,8.73-7.99,7.52-3.25-1.13-3.79-7.43-1.79-9.72,2.38-2.72,8.97-1.94,9.78,2.2Z"/>
  <path d="M287.03,236.3c2.68,3.18-1.38,9.51-5.28,8.6-2.78-.65-4.4-6.31-2.94-8.63s6.27-2.28,8.22.03Z"/>
  <path d="M394.76,324.48c-.82,1.52-2.18,2.73-3.11,3s-3.29-.82-3.68-1.76c-.83-2.02-1.19-6.45.28-7.78,1.13-1.02,4.74-.38,5.8.47,1.19.96,1.75,4.14.71,6.07Z"/>
  <path d="M310.31,151.36c1.41.3.73,4.65-.22,5.76s-3.73,3.01-4.99,2.25c-3.66-2.22-3.45-6.46-2.19-9.59l7.4,1.58Z"/>
  <path d="M283.95,100.5c-.14,1.96-1.79,4.08-3.15,4.3-1.55.25-3.9-1.09-4.74-2.81-.74-1.52-.85-4.71-.02-6,.77-1.2,3.77-1.41,5.56-.87,1.36.41,2.53,2.69,2.34,5.38h0Z"/>
  <path d="M396.9,267.88c-.61,3.05-2.98,4.54-5.21,4.26-1.87-.23-3.76-2.58-3.89-4.76-.12-1.92,2.26-3.9,4.65-4.15,1.01-.11,2.66.14,3.3.59.78.54,1.37,2.95,1.15,4.06h0Z"/>
  <path d="M374.64,81.2c.59.74.87,3.03.58,3.92-.34,1.05-2.46,2.48-3.58,2.39-3.45-.26-5.78-4.31-3.83-7.13,1.04-1.5,5.45-.91,6.82.82h0Z"/>
</svg>