<?xml version="1.0" encoding="UTF-8"?>
<svg xmlns="http://www.w3.org/2000/svg" viewBox="0 0 1355 1847.71">
  <g fill="#6b85a6">
    <path d="M1306.69,1214.38c-7.54,341.79-297.49,604.41-628.55,602.42-335.19-1.99-617.29-271.25-622.84-612.42v-559.32C60.43,304.68,339.6,35.94,673.9,31.54c331.48-4.35,623,257.38,632.53,597.76l.26,585.08h0ZM619.91,1801.14c349.65,35.61,664.73-232.82,674.79-585.55l.37-577.65c-6.13-322.52-270.99-580.37-588.02-593.41C359.81,30.23,66.35,307.51,66.4,656.32l.1,537.43c0,312.68,240.36,575.55,553.4,607.39h0Z"/>
    <path d="M1222.38,1413.11c-121.02,302.05-461.34,428.61-758.73,316.92-145.89-54.83-260.21-165.37-319.48-309.27-27.54-66.87-44.77-134.16-49.01-207.26-11.15-192.18-12.25-381.69.16-573.98,7.49-115.83,47.23-223.6,112.27-317.49,103.89-149.98,268.69-235.75,450.19-243.4,201.87-8.54,389.24,81.95,502.03,250.2,65.88,98.29,103.47,210.51,109.44,330.74,8.85,178.57,9.69,352.68.63,530.73-3.98,78.13-18.59,150.55-47.5,222.66v.16ZM133.9,689.15c-1.89,12.36-1.99,21.84,1.73,22.62l14.51,3.19c81.74,8.48,157.67-44.25,184.69-123.85-37.55-28.28-53.05-74.2-38.17-113.9l15.81.79c-5.24,28.59,4.14,53.41,23.25,71.79,39.43,38.02,97.45,39.33,139.35,2.57,50.38-44.25,82.48-108.08,87.08-175.53,4.08-60.27-30.22-71.27-44.25-106.41,29.01-1.73,46.76,14.82,64.78,32.57,23.83,23.56,54.98,33.93,86.35,15.81,44.46-25.71,72.79-85.25,51.37-135.99-17.23-40.79-63.73-67.97-108.66-67.6,2.88,3.88,13.41,11.68,18.75,13.72,31.52,12.15,46.4,38.49,45.03,72.89-.99,24.45-16.6,56.35-31.63,73-37.91,3.14,8.85-37.13-4.82-84.1-7.65-26.34-45.66-68.23-79.96-61.48-215.64,42.68-396.15,238.05-420.03,457.94,23.56,12.62,51.21,8.48,74.05.89,3.77.89,10.21,10.79,8.64,14.71-1.57,3.93-6.44,12.2-9.37,15.4-21.42,23.36-48.65,19.43-79.02,2.57-1.47,7.75.63,22.26,5.29,31.84,35.24,10.42,76.14,7.17,103.95-17.28,10.32-9.06,15.24-23.62,33.72-23.72-11.78,65.67-83.26,101.22-142.38,77.45l-.05.1ZM278.17,722.45c-44.51,30.48-96.2,39.59-147.36,22.2l1.36,237.69L965.79,193.04c-71.58-44.67-149.45-67.97-233.87-74.57,43.78,45.66,50.22,104.94,24.09,158.3-27.28,56.56-84.99,87.45-147.46,74.25-.31,139.87-113.58,293.62-253.24,248.95-7.12,51.79-34.04,93-77.13,122.48h0ZM772.98,610.18c23.77-67.29,79.44-111.8,152.18-112.38-20.48-40.37-19.27-83.79,2.25-122.38,30.63-54.88,84.36-87.71,145.84-95.72l-72.42-61.16c-24.87,24.61-40.85,43.73-58.86,68.97l-170.19,238.53c-67.71,94.94-129.4,187.68-188.73,292.78l256.38-10.16c-68.29-39.54-93.53-121.7-66.4-198.47h-.05ZM1094.29,615.47c5.92,34.56,33.51,55.98,66.4,52.37,27.96-3.04,52.89-17.44,71.58-39.01-7.8-77.87-26.71-152.33-63.21-219.88-39.59-7.8-91.74,4.45-113.11,40.79l-33.67,78.71c-22.99-67.76,12.57-144.58,81.32-155.06,11.94-1.83,23.3-5.18,34.82-11.57-35.98-9.32-69.8,0-100.39,16.55-41.84,22.62-60.53,67.92-47.18,117.35-37.86-8.17-38.28-73.21-15.87-103.42,28.75-38.75,71.11-60.33,119.18-67.87-19.38-6.91-40.11-3.77-60.8,3.93-55.61,20.68-94.57,68.29-94.99,128.77-.42,60.8,60.12,52.26,45.92,99.65-25.35-17.28-51.21-24.87-79.12-19.01-66.61,13.88-114.68,71.32-117.67,139.29,6.44,35.09,22.52,64.62,44.62,91.85,35.29,11.36,71.01,17.65,106.77,10.68,55.51-20.79,89.02-65.09,110.75-122.27,26.18,17.39,30.63,68.81,80.96,69.18,22.99.16,46.66-10.68,63.52-25.92-27.18,5.55-49.59,11.68-74.83-.21-39.27-18.54-52.05-65.82-36.81-108.76,6.07,7.12,10.53,15.4,11.99,23.98l-.21-.1ZM581.63,635.42c52.42-51.84,101.33-100.28,139.29-161.65l-466.47,464.22c118.82-93.53,220.46-197.1,327.18-302.57ZM964.95,804.72l264.97-16.44.52-68.28c-25.55,18.22-42.94,32.83-68.39,42.73-43.83,17.07-87.71,4.82-114.89-42.63-19.32,40.48-44.04,63.21-82.21,84.62h0ZM951.49,1197.62c34.61-66.3,95.93-110.86,168.93-119.6,39.59-3.25,75.2,3.61,110.96,28.12l-1.36-275.6-381.43,416.47c33.41,3.25,60.95,11.78,87.5,25.55,1.41-26.81,5.86-49.75,15.34-74.99l.05.05ZM931.54,864.21l108.14-4.08,45.09-2.57c17.91-1.05,32.26-.73,50.11-7.65-23.83-2.93-47.08.47-72.37,1.36l-101.8,3.56-124.89,4.87-119.81,2.83,2.51,3.82,213.02-2.09v-.05ZM502.45,1406.56c-24.56,67.45-85.09,110.39-150.29,128.82-35.61,7.28-64.46,1.89-103.42-8.48,43.41,52.26,93,94,148.35,132.59,36.45-79.7,74.88-151.86,117.46-226.17l139.76-224.49,131.8-217.37-294.61,1.68-360.33,24.4,1.1,58.7c58.91-30.22,123.06-24.93,176.42,15.08,62.11-67.55,167.47-77.5,241.98-23.88,33.3,23.98,52.73,60.06,55.3,99.97-5.39,63.57-35.98,119.39-84.62,160.5-7.54,25.66-9.43,52.47-18.96,78.65h.05ZM237.9,1246.43c-8.27.47-17.33-9.27-24.56-16.39-20.68-20.32-52.84-18.96-80.8-10.63,4.14,52.52,12.83,100.54,29.38,152.02,23.98,74.36,94.68,134.06,176.84,128.35,80.64-5.6,139.45-83.16,136.99-160.55-1.99-62.73-61.53-90.75-123.06-89.44,45.56-40.58,121.7-11.15,158.98,44.09,16.97-21.84,32.36-46.29,41.89-73.57,21.42-61.63-10.58-122.69-73.1-141.91-52.31-16.08-107.82-6.23-156.36,22.15,21.78,24.77,35.45,54.51,24.66,87.87-2.78,8.59-17.59,18.28-27.6,23.2-18.01-26.03,8.9-53.36-36.13-84.88-40.79-28.54-88.55-42.68-136.1-23.2-13.14,5.34-22.52,18.17-16.97,33.46,43.88-30.37,98.19-19.22,134.11,17.8,23.72,24.45,37.49,59.23,20.79,90.8l-23.83-61.01c-26.29-32.05-74.88-39.01-111.8-25.55-13.93,5.08-22.99,17.12-19.22,34.4,23.09-16.13,48.33-21.57,72.58-6.91,17.59,10.63,37.86,31,33.3,59.91h0ZM612.32,1352.83c63.99-89.6,125.15-177.15,176.26-279.63-68.39,84.05-127.25,178.52-176.26,279.63ZM889.44,1579.84c-3.93-9.11.58-28.23,7.49-36.71,19.01,28.38,36.34,54.04,64.78,70.9,25.29,14.98,55.51,11.42,75.04-10.11-51.16-3.67-98.92-33.62-99.76-89.55,48.33,40.22,132.8,74.31,170.97,21.99,37.65-50.74,69.96-103.89,93.42-163.01,8.59-21.57,4.87-46.82-7.33-65.46-26.71-40.9-108.66-26.92-163.9,4.45,6.65-32.99,33.99-49.28,63.41-59.49,40.9-14.24,81.06-10.42,117.51,16.97-6.02-40.37-39.85-60.8-76.14-56.87-65.3,7.07-125.68,60.95-136.52,126.41-10.42-14.56-13.3-32.1-8.69-47.5,14.82-49.75,50.95-92.9,100.86-108.87,49.9-15.97,100.39,4.61,141.7,37.13.05-29.06-3.14-53.62-17.12-76.09-23.41-37.6-135.89-27.81-189.35,13.88-34.88,27.18-54.3,68.55-73.05,107.87-5.92,12.41-.73,29.48,6.55,40.32,23.2,34.56,7.38,63.26-1.94,58.6-2.09-1.05-8.01-6.18-8.8-8.38l-14.56-41.74c-29.17-31.94-69.07-45.87-113.11-42.68l-261.83,278.01c-8.06,39.27-8.22,76.04,2.57,113.21,10.79,37.18,57.08,88.13,88.13,68.81-33.3-31.68-69.75-91.27-45.19-117.09,12.57,24.35,20,43.41,36.55,64.62,26.86,34.46,80.75,56.35,122.06,34.25,33.88-18.12,63.52-40.69,96.93-61.48.63,28.54-19.69,42.84-36.6,65.51,39.12-15.08,64.57-47.91,91.12-79.02l-25.35-58.91h.16ZM528.53,1711.02c-14.14-41.74-21.26-63.94-25.5-100.33-21.99,21.99-42.21,42.78-63.26,71.69l88.76,28.64h0Z"/>
    <path d="M642.06,1564.03c5.34,29.22,19.58,53.36,47.71,66.5,32.41,15.13,68.39,18.43,101.48,3.25,44.04-20.16,34.46-59.75,63.41-75.2,7.85,74.25-55.09,137.46-128.87,128.77-60.85-7.17-118.14-78.81-83.73-123.32h0Z"/>
    <path d="M884.57,1441.75c-2.36-37.39-32.47-64.04-69.91-63.36-23.98.42-45.77,12.62-69.7,21.26,19.95-41.58,68.08-60.95,107.93-48.91,28.23,8.54,45.3,34.46,51.06,58.44,6.7,27.96,1.2,58.13-22.83,79.39l3.51-46.76-.05-.05Z"/>
    <path d="M833.51,1322.78l-41.26,4.66,3.3-15.34c.63-2.93,57.45-31.89,93.42-6.76,5.76,4.03,12.88,16.44,14.71,22.99,1.83,6.55-4.82,19.32-11.94,22.46-16.55-16.6-34.72-30.69-58.23-28.02h0Z"/>
    <path d="M360.49,524.83c-33.67-26.71-59.12-81.8-33.2-109.29,4.56,37.44,22.52,68.7,55.72,86.98,33.2,18.28,68.7,4.92,86.67-26.81,35.35-62.42,28.8-134.11-19.95-189.09,37.81,4.4,64.2,31.89,72.06,67.97,12.46,57.18-4.35,117.77-43.36,160.71-32.31,35.61-80.96,38.91-117.98,9.53h.05Z"/>
    <path d="M376.15,456.96c-7.85-4.19-13.72-17.75-13.88-25.55,27.44,7.33,52.26,2.36,68.91-21.84,12.62-18.33,17.44-40.74,20.58-62.63l14.56,2.83c9.79,1.89,15.45,71.95-30.06,106.09-15.97,11.99-40.01,11.83-60.06,1.1h-.05Z"/>
    <path d="M339.65,1479.77c-41.58,5.76-80.7-6.23-105.57-38.54,55.72,12.52,110.75,3.93,152.59-31.94,23.88-20.48,34.56-52.89,21.31-81.9-9.11-19.95-23.25-34.82-40.11-53.47,19.27-4.97,37.07,2.25,50.95,15.61,29.59,28.43,41.21,67.87,26.97,107.72-16.02,44.83-56.66,75.67-106.15,82.53h0Z"/>
    <path d="M520.26,1234.44c-15.4,12.41-.89-59.49-49.96-95.57-26.81-19.69-60.38-15.76-91.64-2.04,14.03-36.39,48.6-52.37,85.51-44.46,56.92,17.28,85.72,78.97,64.88,134.95l-8.8,7.07v.05Z"/>
    <path d="M200.51,860.07c-20.53-9.11-25.76-52.16-14.77-70.17,11-18.01,40.9-13.41,51,2.78,15.76,25.29-.94,66.82-36.24,67.39h0Z"/>
    <path d="M868.96,181.41l-8.01,53.2c-13.2,3.67-32.15-3.93-39.27-15.4-7.54-12.15-7.85-31.42,6.96-41.84,8.33-5.86,28.54-2.2,40.32,3.98v.05Z"/>
    <path d="M870.17,724.34c27.13,8.27,55.3,4.35,78.18-4.19,11.36,36.34-62.68,47.29-97.82,23.83-44.77-29.95-48.91-106.56-10.58-147.51,20.58-21.99,48.54-35.24,83.05-28.28-18.01,31.89-63.73,34.93-85.25,91.74-10.05,26.55,2.93,55.35,32.41,64.36v.05Z"/>
    <path d="M1009.62,695.33c-8.75,18.69-28.17,35.92-47.97,27.33-4.08-19.53,17.39-42.94,39.01-47.91,5.86-1.36,11.68,14.66,8.9,20.58h.05Z"/>
    <path d="M686.36,1091.69c-3.51,8.9-15.5,19.69-22.88,20.95-9.74,1.68-23.72-5.97-29.22-15.6-7.65-13.3-7.8-31.05,1.05-40.16,9.37-9.69,28.43-11.42,38.7-6.23,13.56,6.86,19.48,23.09,12.36,41.05h0Z"/>
    <path d="M395.26,1547.43l-4.87,44.93c-11.89,9.64-26.13,5.29-33.57-4.71-7.44-10-11.42-27.96.84-37.23,6.86-5.24,22.73-4.5,37.65-2.98h-.05Z"/>
    <path d="M724.85,760.32c-4.03,10.32-14.66,21.05-22.1,22.83-20.21,4.92-43.73-20.95-39.54-39.27,3.88-16.81,37.02-31.58,55.82-17.39,7.38,5.6,10.47,21.94,5.81,33.83Z"/>
    <path d="M1179.49,1040.68c-27.75-8.06-41.26-36.18-32.73-63.1,15.24-9.53,33.83-10.53,49.43-2.88,14.03,23.09,8.12,51.32-16.7,65.98Z"/>

  </g>
</svg>