<?xml version="1.0" encoding="UTF-8"?>
<svg fill="#B08A2C" id="Layer_1" xmlns="http://www.w3.org/2000/svg" version="1.1" viewBox="0 0 700.08 400.08">
  <!-- Generator: Adobe Illustrator 30.4.0, SVG Export Plug-In . SVG Version: 2.1.4 Build 226)  -->
  
  
  <path d="M344.26,176.89c-.47,8.07-2.9,13.05-4.21,11.53-.37-.42-1.02-1.63-1.09-2.23-2.34-20.5,8.79-32.9,6.1-38.39-1.28-2.61-5.43-1.04-6.48.94l-5.91,11.09c-1.59,2.98-3.09,5.39-6.25,7.39-1.65-2.04-3.12-4.8-2.96-7.25l.83-13.09,4.72-3.9c1.52-1.26,2.38-2.69,2.39-4.85l-7.44,4.9c-2.91-4.48-1.65-10.06,3.26-12.72,5.3-2.89,10.67-3.89,17.35-4.52l.91-5.87c-6.02-.88-9.11-4.73-10.72-8.91-4.52-11.71,5.4-17.12,10.54-28.1,2.72-5.81,5.15-11.16,8.59-16.8,2.38,3.63.17,5.65.08,8.5-.18,5.54,2.33,10.87,5.16,15.51,4.56,7.5,3.46,15.7-2.29,22.04-3.39,3.74-6.08,7.03-8.24,12.62l17.64,1.71c3.27.32,7.55,1.6,9.93,3.85,4.37,11.51,4.3,37.18-3.38,38.94-3.52.81-4.78-4.36-3.55-6.88,1.53-3.13,1.16-6.28-.5-9.17-1.79-3.57-3.01-7.07-3.51-11.08-2.62-2.64-6.53-1.73-8.93,1.24-1.82,3.65-3.39,7.36-4.82,11.29-1.43,3.96-3.35,7.02-5.54,10.78-1.69,2.9-1.47,7.79-1.68,11.43ZM353.64,102.11l-8.12,6.4c-2.15-7.52,4.7-11.82,4.77-19.11-5.52,8.46-11.25,13.86-5.82,23.49,3.92-2.84,7.01-5.79,10.43-9.26l-1.25-1.52Z"/>
  <path d="M265.7,228.28c1.15-4.5,2.61-8.18,4.9-11.7,9.09-13.97,18.65-27.25,29.16-40.18,4.52-5.56,9.4-9.96,15.06-14.3-.12,2.9-.69,5.47-2.11,7.93-10.82,18.83-22.01,37.11-34.73,54.58-2.92,4.01-7.32,6.3-12.29,3.67Z"/>
  <path d="M433.71,238.53c-3.27,1.57-5.86-.34-7.79-2.79-9.24-11.72-17-24.11-24.56-37.1-5.53-9.49-10.13-19.02-14.03-29.37,2.36-1.3,3.29.14,4.54,1.85,12.88,17.7,25.02,35.35,35.97,54.29,2.34,4.16,4.05,7.78,5.87,13.13Z"/>
  <path d="M432.8,195.31c-2.86-.25-5.2-2.36-6.91-4.32-12.97-14.85-24.84-30.21-35.94-46.51-2-2.93-2.81-5.82-2.38-9.6,3.17,1.67,5.43,3.38,7.68,5.88,13.94,15.49,26.24,31.94,37.77,49.33.83,1.25,1.01,4.78-.23,5.22Z"/>
  <path d="M274.59,177.71c-2.58,2.08-5.07,2.88-8.22,2.77.13-1.99.8-4.36,2.29-6,11.85-13.1,24.9-24.47,39.3-34.72,1.75-1.25,3.37-1.96,6.22-2.44-2.61,4.7-5,9.76-8.88,13.66-9.61,9.66-19.89,18.01-30.7,26.73Z"/>
  <path d="M278.63,140.07c-3.95,1.78-7.51,2.25-11.46,1.95.95-2.98,2.61-5.31,5.35-6.92,15.66-9.17,32-16.57,49.77-20.81-1.87,4.28-5.32,5.39-8.33,7.59-11.5,6.6-22.92,12.6-35.33,18.19Z"/>
  <path d="M427.82,141.46c.43.74,1.42,3.18.8,3.23l-2.93.22c-15.33-7.55-29.84-16.23-43.27-26.89l-1.09-2.56c-.3-.7,2.29-1.1,3.18-1.1,16.08,6.01,30.63,15.12,43.3,27.09Z"/>
  <path d="M398,238.48c-.51,1.8-5.74-4.1-7.69-10.92-2.38-8.32-4.07-16.13-5.53-24.61-.52-3.04-.11-6.51,1.71-9.47,7.31,13.29,10.65,27.93,12.13,42.79l-.63,2.21Z"/>
  <path d="M416.27,103.3l-24.04,1.22c-7.88.4-15.56-.71-22.77-3.91,16.15-5.23,33.46-3.34,49.35.23-.53,1.64-1.44,2.41-2.54,2.46Z"/>
  <path d="M328.21,104.45c-14.65,1.08-36.83,5.69-48.71-2.07,14.79-3.49,29.33-3.18,43.78-1.03,1.92.29,3.55,1.04,4.93,3.11Z"/>
  <path d="M309.97,226.9l-2.5,2.37c-.6.57-1.85-2.03-2.11-3.01,1.04-12.58,3.65-24.53,7.78-36.35l2.37-2.02c.52-.44,1.78,1.35,2.15,2.13-.71,12.78-3.04,24.72-7.7,36.88Z"/>
  <path d="M325.85,92.44c.64,3.28-9.07.05-16.87-6.88-2.11-1.88-3.39-4.75-3.29-7.6,7.73,1.97,13.92,6.35,19.54,11.32l.62,3.16Z"/>
  <path d="M365.58,84.05c-3.27-6.52,10.69-12.79,18.59-14.47.32,5.97-11.06,12.29-18.59,14.47Z"/>
</svg>