<?xml version="1.0" encoding="UTF-8"?>
<svg fill="#3A5C48" id="Layer_1" xmlns="http://www.w3.org/2000/svg" version="1.1" viewBox="0 0 700.08 400.08">
  <!-- Generator: Adobe Illustrator 30.4.0, SVG Export Plug-In . SVG Version: 2.1.4 Build 226)  -->
  
  
  <path d="M268.93,203.54c2.3,2.2.76,7.4-2.56,7.34s-4.92-4.79-3.12-7.16c.85-1.12,4.63-1.19,5.69-.18Z"/>
  <path d="M437.7,207.78c-.9,2.62-2.95,3.72-5.41,4l-1.37-6.69c-.22-1.1,3.05-1.83,4.18-1.65,1.33.22,3.26,2.38,2.59,4.34Z"/>
  <path d="M354.31,298.59c1.74,2.95-1.03,6.65-4,6.61-1.65-.72-2.69-4.8-1.72-6.74.81-1.62,4.77-1.49,5.72.13Z"/>
  <path d="M263.01,268.01c-.42,1.32-1.68,3.17-2.5,3.16-.97-.01-2.67-2.47-2.01-3.18l2.07-2.24c.47-.51,2.7,1.42,2.44,2.26Z"/>
  <path d="M403.76,226.94l-16.82,20.3c-6.2,7.48-13.14,13.79-20.82,19.69-4.53,3.48-8.42,6.87-14.8,9.19l-.02-134.46c14.55,13.07,32.22,20.17,51.24,21.55-.39,10.8-.22,21.21.45,32l.77,31.73ZM362.05,263.97c9.88-8.66,18.77-17.17,27.39-26.71,3.54-3.91,7.22-8.5,9.28-13.19l-1.61-31.97c-.39-7.84.88-15.39-1-22.72-.89,4.69-2.58,9.71-2.32,14.2l2.36,41.18-11.63,13.83-27.83,28.14c1.84-.37,3.72-1.32,5.36-2.75Z"/>
  <path d="M296.31,229l-.62-61.57c14.03.6,27.78-3.64,39.23-11.97,4.94-3.59,9.5-7.23,14.81-10.47l-.48,128.81c-20.22-12.31-36.74-27.4-52.94-44.8ZM303.7,183.11c.02-2.14-1.12-4.73-1.84-7.16,15.07-1.28,33.03-7.16,41.88-20.72-3.83,1.59-6.37,4.24-9.46,6.55-9.85,7.36-20.96,10.71-33.36,11.67-.21,3.68,0,6.82.26,10.19,1,13.34-1.05,26.34,2.18,40.38l.34-40.92Z"/>
</svg>