<?xml version="1.0" encoding="UTF-8"?>
<svg id="Layer_1" xmlns="http://www.w3.org/2000/svg" version="1.1" viewBox="0 0 900 400.08">
  <!-- Generator: Adobe Illustrator 30.4.0, SVG Export Plug-In . SVG Version: 2.1.4 Build 226)  -->
  <defs>
    <style>
      .st0 {
        fill: #2f524e;
      }

      .st1 {
        fill: #c89c9d;
      }

      .st2 {
        fill: #455a6f;
      }

      .st3 {
        fill: #6485a8;
      }

      .st4 {
        fill: #ebaa4f;
      }
    </style>
  </defs>
  <path d="M218.01,240.4l-15.67,27.07c-.31.54-.66,1.21-1.05,1.25s-1.3-.23-1.76-.41l-17.06-27.88-.02,31.47c0,2.7.91,5.65,2.45,7.51,1.37.86,1.87,1.1,3.31,2.47h-10.53c2.54-2.31,3.34-3.77,3.34-6.58l.05-29.18c0-2.65-.3-5.34-.87-7.81s-2.19-2.99-4.44-5.18l11.14-.17,17.23,28.39,16.25-28.31,10.23-.07-.17,1.14c-3.95,1.28-4.71,6.22-4.71,11.05v30.18c.01,2.93.96,4.39,3.43,6.58h-14.36c2.51-2.17,3.39-3.68,3.41-6.56l-.21-34.95Z"/>
  <path d="M634.38,282.34c-5.43.47-9.87.28-12.02-4.82l-6.13-14.55c-.74-1.75-1.85-4.17-3.46-5.11-2.54-1.48-5.78-1.33-8.34-.68l.09,18.67c.01,2.52,1.08,3.85,3.24,6.07h-14.07c2.14-2.22,3.27-3.52,3.27-6.12l.02-35.92c0-2.96-.91-4.7-3.44-6.92l18.99.08c3.36.01,6.85.87,9.78,2.24,3.58,1.67,5.32,5.06,5.25,8.83-.14,7.66-5.14,10.49-12,12.4,4.26,1.01,7.16,3.36,8.73,7.07l6.24,14.74c.86,2.03,2.55,2.95,4.67,2.65l-.81,1.38ZM612.64,255.16c2.76-.15,5.2-2.24,6.28-4.57,2.11-4.54,1.03-10.15-2.75-13.43-3.24-2.81-7.81-3.54-11.73-2.48l.04,20.94,8.16-.45Z"/>
  <path d="M169.32,257.56c0,14.02-11.37,25.39-25.41,25.39s-25.41-11.37-25.41-25.39,11.37-25.39,25.41-25.39,25.41,11.37,25.41,25.39ZM148.06,280.43c7.45.11,12.85-4.79,13.57-12.08,1.38-13.92-6.48-33.41-20.91-34.04-5.86-.26-10.83,2.79-12.98,8.08-5.54,13.62,3.98,37.79,20.32,38.03Z"/>
  <path d="M478.92,257.56c0,14.02-11.38,25.39-25.41,25.39s-25.41-11.37-25.41-25.39,11.38-25.39,25.41-25.39,25.41,11.37,25.41,25.39ZM457.65,280.42c7.28.13,12.66-4.57,13.51-11.68,1.57-13.09-5.47-31.94-18.96-34.24-7.98-1.36-14.74,3.62-16.03,11.73-2.3,14.45,6.54,33.91,21.48,34.19Z"/>
  <path d="M687.72,257.56c0,14.02-11.37,25.39-25.41,25.39s-25.41-11.37-25.41-25.39,11.37-25.39,25.41-25.39,25.41,11.37,25.41,25.39ZM666.45,280.42c7.3.14,12.66-4.57,13.51-11.68,1.57-13.04-5.42-31.91-18.96-34.23-8.01-1.37-14.73,3.6-16.03,11.73-2.3,14.41,6.5,33.9,21.48,34.18Z"/>
  <path d="M250.06,276.04c.02,2.55,1.25,3.72,3.23,5.87l-13.75.06c.65-2.01,2.96-2.06,2.96-7.08v-34.56c0-5.78-2.66-5.39-2.9-7.42l17.78.13c8.42.06,16.8,4.49,16.89,13.54.06,6.45-3.58,11.77-9.52,14.2-4.7,1.92-9.44,2.13-14.82,1.91l.13,13.34ZM257.07,261.08c5.12-.95,8.25-4.9,8.92-9.74s-.19-9.74-3.56-13.27c-3.17-3.31-7.84-4.25-12.46-3.67v27.14s7.1-.45,7.1-.45Z"/>
  <path d="M562.52,276.09c.02,2.53,1.32,3.66,3.23,5.84l-14.1-.02c2.37-2.35,3.3-3.84,3.3-6.62l.03-34.96c0-5.74-2.62-5.38-2.91-7.43l17.79.13c8.44.06,16.81,4.49,16.88,13.54.05,6.44-3.57,11.78-9.52,14.2-4.7,1.91-9.45,2.15-14.82,1.92l.11,13.39ZM578.47,251.34c.68-4.89-.23-9.99-3.8-13.52-3.16-3.13-7.73-3.97-12.22-3.43v27.14c8.3.57,14.88-2,16.02-10.19Z"/>
  <path d="M825.68,256.68l-12.87-.43-.04,21.07c0,1.5,1.14,3.41,2.77,3.4l9.98-.06c6.19-.04,9.87-3.74,12.66-9.71.54,3.91.13,7.03,0,11.11h-36.14c2.06-2.39,3.25-3.67,3.25-6.24v-36.43c.01-2.65-1.2-4.22-3.24-6.47l34.28-.03.76,9.58-1.05.76c-1.79-4.93-5.6-8.67-10.96-8.77l-12.31-.22.02,20.8,13.05-.48c2.3-.08,4.6-1.79,5.38-3.75l.39-.97c.09-.22.57-.12,1.09-.03v11.21c0,.2-.53.87-.62.77-.84-.95-2.36-4.98-6.39-5.11Z"/>
  <path d="M523.82,283.17l-33.21-41.54-.18,23.65.48,9.5c.18,3.55,2.28,4.7,5.53,7.02l-10.58.08c2.24-2.23,3.25-3.55,3.25-6.16v-36.63c0-1.67-1.09-3.93-2.24-4.45l-1.29-.58c-.22-.1-.05-.84.01-1.08l7.97.03,28.91,36.16.18-24.43-.61-5.53c-.34-3.06-2.27-3.76-5.22-6.08l10.23-.17c-.4,1.19-.69,1.4-1.76,1.97-.7,1.49-1.09,3.46-1.23,5.41l-.24,42.83Z"/>
  <path d="M321.97,277.98l-.09-11.52,3.27,5.34c3.87,6.31,10.81,10.25,18.13,9.09,3.58-.57,6.09-3.15,6.87-6.17,1.83-7.05-4.78-10.36-10.96-13.14l-10.85-4.88c-3.85-1.73-5.69-5.48-5.81-9.62-.18-6.19,3.39-11.28,9.4-13.25,7.08-2.32,14.74-1.58,21.95,1.39.28,3.23.63,6.36-.06,10.2-3.48-8.09-10.65-13.08-19.05-11.18-3.53.8-5.96,3.48-6.57,6.47-1.61,7.84,7.3,10.76,14.95,13.66,8.33,3.16,15.24,7.72,12.74,17.11-1.42,5.35-6.02,9.37-11.64,10.64-7.55,1.71-15.31-.1-22.28-4.13Z"/>
  <path d="M363.6,278.02l-.39-10.49,1.04-.64c3.13,9.04,11.44,15.67,20.8,13.96,3.45-.63,5.84-3.26,6.59-5.94,2.1-7.51-5.25-10.72-11.43-13.56l-10.79-4.95c-3.65-1.68-5.25-5.45-5.37-9.37-.2-6.22,3.5-11.33,9.57-13.25,7.19-2.27,15.11-1.53,21.91,1.56.15,3.61.45,6.61-.09,10.17-3.53-7.95-10.26-12.91-18.54-11.41-5.35.97-8.93,6.28-6.68,11.4,1.01,2.31,3.44,4.26,5.79,5.26l13.16,5.61c3.07,1.31,6.19,3.57,7.59,6.62,2.84,6.22.1,13.18-5.47,16.76-7.85,5.05-19.16,3.31-27.69-1.72Z"/>
  <path d="M725.89,261.22l-1.11-.18c-1.74-6.07-10.16-5.19-17.61-5.12l.05,19.42c0,2.8.81,4.4,3.43,6.48l-14.23.09c2.14-2.21,3.27-3.52,3.27-6.11l.02-35.93c0-2.91-.94-4.75-3.41-6.87l34.49-.03.51,8.03-1.29-.06c-1.56-3.82-5.29-6.42-9.53-6.47l-13.29-.14v20.14s11.24-.32,11.24-.32c2.36-.07,4.99-1.67,5.88-3.67l.54-1.21c.1-.22.84-.04,1.06.03l-.02,11.93Z"/>
  <path d="M282.2,263.7l-4.95,12.45c-.98,2.45-.15,3.89,2.33,5.63l-8.75.22c-.48-1.63,3.16-1.88,4.99-6.44l14.34-35.68c-.12-1.33-.91-3.08-1.6-4.55l7.1-3.13,17.98,42.87c1.17,2.79,2.99,4.32,5.26,6.85l-13.68.02,1.88-2.71-6.37-15.44-18.54-.08ZM300.15,262.54l-8.97-21.15-8.57,21.16h17.54Z"/>
  <path d="M75.72,271.81c4.74,7.41,13.24,10.87,21.42,8.62,5.87-1.61,8.74-6.08,11.47-11.83.57,3.81-.24,7.07-.59,10.85-8.91,3.66-19.12,4.38-28.48,1.81-9.53-2.61-15.14-10.3-16.04-19.85-1.17-12.46,5.81-23.68,18.06-27.41,8.46-2.57,17.67-1.96,26.13,1.52l.41,9.32c0,.2-.73.76-.83.64-.14-.18-.4-.58-.57-.93-3.62-7.65-11.79-11.67-20.15-10.38-7.02,1.08-12.49,5.76-14.41,12.69-2.32,8.39-1.26,17.4,3.57,24.96Z"/>
  <path d="M793.68,273.89l.5-.97c.12-.23,1.01.41,1,.68l-.52,8.35h-34.05c2.36-2.21,3.41-3.72,3.41-6.63v-35.44c0-2.93-.9-4.74-3.43-6.86l14.19-.03c-2.12,2.16-3.25,3.72-3.26,6.39l-.03,37.87c0,1.65,1.23,3.34,2.86,3.31l10.07-.18c4.22-.08,7.34-2.77,9.25-6.51Z"/>
  <path d="M752.41,281.89l-13.67.08c.6-2.01,2.96-2.01,2.96-7.09v-35.03c0-5.48-3.21-5.25-2.77-6.86l13.25.03c-1.48,2.44-3.02,2.63-3.02,7.32l.02,35.44c.28,2.54.84,3.66,3.23,6.12Z"/>
  <path d="M415.57,274.41c0,5.14,1.75,5.16,2.97,7.55l-13.79-.06c2.43-2.31,3.35-3.78,3.35-6.56l.02-35c0-4.6-1.47-4.85-3.04-7.32h13.54c-1.59,2.49-3.03,2.7-3.03,7.31v34.08Z"/>
  <path d="M425.16,321.05l-2.38-1.95c-3.65,1.94-7.83,2.31-11.56.48-4.85-2.38-6.85-7.8-5.51-12.74,1.41-5.22,6.31-8.3,11.92-7.9,3.88.28,7.25,2.53,8.79,5.44,1.98,3.75,1.81,7.78-.33,11.34l2.03,1.99-2.96,3.34ZM418.81,309.5l3.45,2.99c.78-1.87.67-4.17-.39-6.07-.94-1.71-2.95-3.09-5.24-3.1-4.27-.01-6.95,3.85-6.23,7.67s4.47,6.53,8.54,4.8l-3.17-2.83,3.03-3.46Z"/>
  <path class="st2" d="M332.61,169.53c-18.83,1.9-34.85-12.07-36.87-30.59v-34.17c1.98-15.33,12.9-27.47,28.14-30.01,19.05-3.18,36.5,10.3,39,29.44l-.03,36.2c-2.54,15.48-14.25,27.53-30.24,29.14ZM361.94,138.96l-.04-35.31c-2.05-14.74-13.47-26.44-28.35-28.22-18.51-2.21-34.28,10.23-36.86,28.83l-.02,34.78c1.66,17.17,15.94,29.91,32.85,29.83,16.64-.07,30.97-12.7,32.41-29.91Z"/>
  <polygon points="483.01 206.3 473.18 206.29 473.19 210.6 484.55 210.59 484.56 214.8 468.46 214.8 468.46 193.78 484.31 193.78 484.34 197.98 473.17 197.97 473.17 202.1 483.08 202.12 483.01 206.3"/>
  <polygon points="458.9 214.74 454.26 214.83 454.21 206.42 445.78 206.41 445.76 214.8 441.1 214.79 441.1 193.81 445.77 193.78 445.77 202.08 454.23 202.07 454.23 193.78 458.9 193.8 458.9 214.74"/>
  <path d="M449.63,299.38l4.77-.07-.1,13.29c-.04,5.34-4.34,8.27-9.33,8.21-4.81-.06-8.92-2.91-8.95-8.09l-.09-13.37h4.74s.03,12.39.03,12.39c0,2.64,1.85,4.41,4.09,4.59,2.62.22,4.82-1.65,4.83-4.49l.03-12.46Z"/>
  <polygon points="494.91 320.34 477.4 320.34 477.35 316.79 488.66 303.57 477.75 303.43 477.75 299.32 494.88 299.32 495.04 302.88 483.65 316.17 495.1 316.29 494.91 320.34"/>
  <path class="st0" d="M604.8,141.46c-2.79,18.42-19.76,31.59-38,28.93-15.91-2.33-28.4-15.57-28.99-31.9l.02-31.39c0-13.86,9.96-25.74,22.95-30.1,20.15-6.76,41.06,6.72,44.01,27.69v36.77ZM604.09,138.31l-.04-31.06c-.79-15.99-12.79-28.98-28.55-30.83-18.83-2.22-35.47,11.31-36.58,29.36-.7,11.36-.68,22.69-.02,34.09,1.03,17.68,16.44,30.46,33.45,29.96,16.95-.5,31.07-13.9,31.73-31.51Z"/>
  <path class="st3" d="M241.6,139.39c-1.25,18.4-18.76,32.36-37.26,30.06-15.4-1.91-28.36-14.5-29.32-30.53-.67-11.29-.39-22.39-.06-33.71.21-7.07,3.4-13.74,7.82-18.95,7.33-8.63,17.89-12.96,29.25-11.75,10.21,1.09,19.78,7.03,25.3,16.51,2.34,4.02,4.34,8.79,4.4,13.73.15,11.63.66,23.07-.13,34.65ZM240.96,140.33l-.04-37.52c-2.69-14.42-13.68-25.58-28.31-27.42-18.37-2.31-34.49,10.37-36.93,28.75l.04,36.23c2.5,16.62,16.39,28.66,32.83,28.54s30.1-11.99,32.41-28.58Z"/>
  <path class="st4" d="M725.73,140.35c-2.66,17.9-18.42,30.69-36.01,29.17-15.82-1.36-28.44-13.22-30.67-29.04l.04-37.15c2.61-17.1,16.88-29.18,33.8-28.97,16.73.2,30.82,12.85,32.86,29.82l-.02,36.18ZM725,138.78l-.02-33.52c-.9-16.02-13.9-28.5-29.34-30.06l-6.5-.03c-15.19,1.56-28.4,13.74-29.3,29.59v34.61c.59,12.13,9.35,22.41,19.27,26.74,12.03,5.25,25.31,3.02,34.69-5.27,6.36-5.62,11.2-13.23,11.19-22.07Z"/>
  <polygon points="426.72 214.76 421.93 214.8 421.93 198.12 415.6 198.11 415.64 193.78 432.99 193.78 433.04 198.11 426.7 198.11 426.72 214.76"/>
  <rect x="463.44" y="299.31" width="4.9" height="21.02"/>
  <path class="st1" d="M416.75,135.76l-.03-9.2.07-12.35c.01-1.87.2-3.42-.1-5.32l.54-4.76c1.05-9.19,6.35-17.99,14.26-22.61-7.07,6.14-13,13.4-13.61,23.27l-.34,35.73c.64,5.34,2.7,9.58,4.87,14.51-3.69-4.65-5.31-10.39-5.55-16.19l-.13-3.09Z"/>
  <path class="st1" d="M479.21,93.03c-.43-.54-.99-1.69-.99-2.39l1.41,2.09.34.31c1.5,3.57,3.68,7.75,3.71,12.18.09,11.78.64,23.39-.15,35.13-1.09,16.26-14.61,28.69-30.24,30.11-6.85.62-15.88-1.15-20.8-5.55,10.64,5.94,22.65,7.08,33.81.89,8.98-4.98,16.27-14.88,16.82-26.43l.08-32.71c.01-4.83-2.07-9.24-3.64-13.33l-.34-.3Z"/>
  <path class="st1" d="M452.86,75.96l-5.05.11c-5.42.12-9.86,2.46-14.97,4.42,9.28-6.16,21.53-6.9,31.42-1.94l-11.4-2.59Z"/>
  <path class="st1" d="M424.9,158.84l-1.64-2.37c.89.46,1.6,1.23,2.09,2.01l.23.36,3.02,3.02.36.23c.79.5,1.54,1.18,2.01,2.11l-2.4-1.71-.32-.23-2.97-2.93-.38-.48Z"/>
  <polygon class="st1" points="476.99 89.19 475.17 87.57 475.33 86.87 477.15 88.49 476.99 89.19"/>
  <rect class="st1" x="470.78" y="81.63" width=".68" height="2.71" transform="translate(79.39 357.56) rotate(-45.02)"/>
  <path class="st1" d="M468.52,81.02c-1.07-.13-1.86-.58-2.49-1.34,1.07.12,1.86.57,2.49,1.34Z"/>
  <path class="st1" d="M481.96,137.48c0,17.79-14.88,31.36-31.89,31.15-17.39-.21-31.28-14.32-31.26-31.91l.03-27.82c.02-17.45,14.02-31.38,31.15-31.62,17.14-.24,31.97,13.56,31.97,31.14v29.07ZM480.37,138.47v-31.01c0-16.28-14.17-28.68-29.9-28.72s-29.95,12.45-30.04,28.71l-.16,28.3c-.1,16.77,12.21,30.6,28.81,31.39,15.99.77,31.29-11.77,31.29-28.68Z"/>
  <path class="st2" d="M342.86,164.4c-8.76,3.78-18.15,3.83-26.78.29-9.5-3.9-15.86-12.49-17.52-22.6l-.91-8.72.09-24c.05-13.29,7.63-25.21,20.09-30.08,15.43-6.03,32.86,1,39.99,15.91,2.06,4.3,2.95,8.88,2.97,13.71l.11,24.45-.65,8.1c-.83,10.29-7.68,18.76-17.39,22.95ZM341.58,81.84l.32,2.41-3.62-1.26c-1.96,1.45-3.42,2.24-5.81,3.21,1.78.8,4.11,1.53,6.46,1.6,5.3.16,10.52,2.76,12.69,7.78.98,2.26,2,4.2,3.56,6.14,1.7,2.12,1.36,5.07.97,7.67l-1.3,8.77c-1.45-4.46-2.62-8.6-3-13.13-.16-1.86.53-4.41.07-6.17-1.17-4.49-4.8-7.89-9.37-8.88,1.63,1.52,3.2,2.71,4.45,4.6s-.45,6.64.7,11.63c-7.52-5.88-3.16-16.84-11.99-17.14l2.56,4.49,3.03,6.41c-7.68-3.06-7.47-10.29-12.63-16.16-2.62,2.69-3.84,5.36-3.81,8.71s-1.84,5.37-4.23,7.22l-4.39,3.39,5.09-12.61c-1.97.35-4,.84-5.34,1.71-2.24,1.45.9,6.47-3.49,10.41l-4.24,3.81c.12-3.39,3.1-6.99,3.68-12.16-2.6,1.2-5.4,3.52-6.02,6.34.73,2.89,1.3,5.48.49,8.51l-2.96,11.06c-3.78-10.48-1.61-16,4.2-24.35,1.28-1.84,3.84-3.24,5.83-4.08l8.95-3.8-5.5-.52c-.72-.07-2.08.29-2.84.56-.24-2.12,1.33-4.26,3.81-4.33l6.56-.19c2.42-.07,4.32-1.98,4.29-4.43-14.92.39-27.5,11.87-28.68,26.93-.85,10.85-.58,21.28-.12,32.14l.87,5.14,1.4-.29c.26-.05.48.97.28,1.14l-1.11.97c3.8,10.76,14.04,20.67,26.13,20.39-2.64-4.58-6.97-7.17-11.91-8.43-4.31-1.11-7.19-3.91-8.91-7.88-1.18-.62-2.7-1.86-2.85-3.36-.55-5.35-.86-10.22-.03-15.92l2.07,8.61,1.6,6.95c.63,2.73,1.12,5.47,3.85,7.32l-1.41-5.81-1.03-5.64c3.65,4.43,6.15,7.6,5.2,13.31l7.28,2.91-3.72-7.43c-.12-.25-.26-1.34-.3-1.58-.02-.14.45-.05.66-.02l3.91,3.26c1.14.95,2.62,2.28,2.75,3.76.26,3.02,1.23,5.47,3.08,7.74,1.46-3.25,3.35-5.34,5.46-7.83l6.38-7.54c.22,2.92-.38,5.93-1.79,8.42l-3.8,4.28c1.8-.3,4.57-.72,5.65-1.98,1.46-1.7,1.51-4.4,2.36-6.32l4.43-10.04c-.01,4.47-.8,10.09-2.19,14.31,2.59-1.53,5.06-4.21,5.09-7.41.04-3.69,1-6.57,2.94-9.77l3.82-6.29c.12-.2,1.03.21.95.43l-.34.92c-1.06,2.85-2.11,5.76-2.23,8.78-.16,4.11-2.17,7.13-4.63,10.16-7.88,9.69-13.99,6.16-20.35,11.83,14.16,2.44,27.63-12.57,28.99-26.14,1.15-11.45,1.01-22.62-.03-33.96-.96-10.49-7.85-19.13-16.88-23.3ZM338.98,80.78l-9.02-1.9c.24,1.18.55,2.23.99,2.63s1.83.55,2.44.43l5.6-1.15ZM321.59,95.95l.81-.47,1.21-4.54-.43-.32-1.59,5.33ZM344.76,99.86l.4-.81-.14-3.11-.43.24.16,3.68ZM354.24,106.02h-.48v4.32h.48v-4.32ZM304.04,111.76l.74-2.9c-.79.94-1.03,1.98-.74,2.9ZM351.71,142.88l-.61,3.04.74.15.61-3.04-.74-.15Z"/>
  <path class="st0" d="M582.19,165.61c-9.7,3.71-19.81,2.51-28.43-3.21-7.51-4.99-12.43-13.49-13.28-23.34l-.22-15.31.29-17.3c.84-15.97,14.88-28.03,30.4-28.23s29.52,11.69,31.03,27.64c1.06,11.29.89,22.28.12,33.6-.81,11.91-8.66,21.85-19.91,26.15ZM592.25,157.05c5.24-5.44,7.61-12.28,8.09-19.56.68-10.27.8-20.29-.24-30.55-.84-8.3-4.8-15.83-11.33-20.9-9.06-7.04-21.64-7.89-31.64-2.24-9.15,5.17-14.65,14.68-15.1,25.12s-.58,20.03.22,30.17c.96,12.18,9.01,21.85,20.59,25.25,10.42,3.06,21.67.73,29.41-7.3Z"/>
  <path class="st3" d="M208.09,167.09c-15.52-.08-27.96-10.59-30.5-25.59-.56-3.3-.96-6.65-.94-10.07l.12-21.58c.1-18.57,13.95-33.77,33-32.97,8.71.36,16.32,3.95,21.98,10.57,5.09,5.95,8.07,13.43,8.08,21.49l.04,25.85c0,5.46-1.28,10.66-3.63,15.47-5.22,10.71-15.96,16.89-28.15,16.83ZM179.35,110.78c4.79.71,9.2-2.32,10.34-6.57-1.48-1.7-3.27-3.96-1.4-6.33.44,2.41,1.11,4.16,2.79,5.04,1.79.94,4,.91,5.65-.33,2.87-2.15,4.55-5.33,5.18-8.81.48-2.65-.64-4.25-2.44-6.81,3.55.38,4.88,5.04,8.66,2.46,2.1-1.43,3.41-4.56,2.26-7.09-.83-1.83-2.94-3.35-5.13-3.25,1.67,1.12,2.98,2.39,2.8,4.41-.13,1.47-.91,3.74-2.57,3.74.89-2.64,1.02-4.64-.39-6.06-1.76-1.78-3.54-1.86-5.84-1.05-10.48,3.7-18.49,12.64-19.88,23.89,1.52.36,2.45.32,4.32.22.2.28-.26,1.85-.9,2-1.45.34-2.36.13-3.78-.07.19.03.3,1.19.47,1.27,1.73.89,5.34,0,7.11-2.25-.36,3.91-4.39,5.41-7.53,4.24l.28,1.34ZM179,112.61l.12,12.35,44.41-42c-3.98-2.31-8.16-3.75-12.3-3.81,2.36,2.76,2.46,6.05.85,8.73s-4.15,4.21-7.63,3.61c-.29,7.79-5.91,15.21-13.48,13.31-1.15,5.78-6.21,9.05-11.97,7.8ZM221.2,99.25c-.99-2.65-.79-5.06.58-7.13,1.69-2.56,4.04-3.81,7.32-4.58l-3.88-3.3-7.08,9.56c-5.29,7.31-10.31,14.25-15,22.48l13.18-.5c-3.51-3.01-4.37-6.45-3.15-10.43,1.03-3.36,4.03-6.04,8.04-6.1ZM236.07,107.66c1.27-.63,1.81-1.83,1.58-3.01-.71-3.64-1.59-7.07-3.35-10.18-5.26-.42-5.94,1.98-7.78,6.17-.61-1.99-.37-4,.68-5.71.84-1.36,2.65-2.09,4.68-2.67-1.7-.76-4.02,0-5.56,1.31-1.36,1.16-1.69,3.2-1.82,5.5-1.87-1.39-1.67-4.45.02-6.15,1.52-1.52,3.48-2.36,5.4-3.13-2.46-.19-4.77,1.16-6.16,2.76s-2.46,4.48-1.11,6.36c.82,1.14,1.87,1.86,2.11,3.37-2.94-1.38-5.26-1.28-7.68.58-1.62,1.24-2.92,3.42-3.02,5.38-.08,1.68.97,4.38,2.47,5.26,4.48,2.62,9.27-.26,10.91-4.67.11-.31.62-1.16.77-.94l.76,1.07c.6.85,1.76,2.25,2.66,2.42.97.18,2.79-.37,3.44-.81-2.18-.16-3.9-.41-4.87-1.69-.84-1.1-1.03-3.49-.33-4.39.66,1.51,1.26,2.91,2.21,3.47,1.01.59,2.68.35,3.99-.31ZM208.54,99.76l-18.49,18.45.72.72,18.49-18.45-.72-.72ZM237.71,111.36l-4.5,2.26c-1.92.97-4.24-.65-5.29-2.34l-3.83,4.29,13.6-.83.03-3.38ZM221.88,140.42c.27-4.14,2.58-7.02,5.37-8.65,3.39-1.98,6.85-2.28,10.54-.12l-.16-14.59-20.23,21.99,4.48,1.37ZM232.32,118.01h-7.44v.48h7.44v-.48ZM223.68,118.49h-11.28v.48h11.28v-.48ZM199.53,144.03c-.35,7.34-6.88,12.02-13.96,10.43,2.28,2.62,4.75,4.75,7.56,6.74,2.71-5.78,5.7-11.12,9.12-16.64l11.73-18.92-15.26.03-19.59,1.32-.07,3.04c3.32-1.54,6.6-1.2,9.4.87,2.63-2.86,6.48-3.68,10.17-2.64,2.93.83,5.58,3.39,5.63,6.53.06,3.72-2.17,6.53-4.73,9.25ZM184.62,139.16c-2.2-1.68-3.47-2.05-5.63-1.4.49,3.6.89,7.14,2.66,10.23,1.97,3.44,5.95,5.43,9.78,4.43s6.17-4.76,5.88-8.47c-.27-3.41-3.27-4.54-6.56-4.67,3.11-2.18,6.32-.24,8.6,2.22,2.23-2.51,3.71-6.61,1.12-9.47s-8.16-2.9-10.98-.48c1.39,2.11,2.41,4.79-.7,5.93.24-2.91-.7-4.59-3.1-5.56s-5.64-1.87-7.07,1.33c2.58-.99,4.58-1.23,6.67.27,1.6,1.15,3.05,3.33,2,5.58-.87-2.33-1.63-3.99-3.09-4.49-2.1-.71-4.36-.95-5.38,1.46,1.49-.37,3.08-.72,4.06-.15,1.21.72,1.96,2.19,1.73,3.23ZM219.84,155.15c2.03,3.01,4.28,5.36,7.41,3.31-2.72-.62-5.47-2.14-5.19-4.98,2.03,1.52,5.37,3.68,7.67,2.1,3.21-2.21,5.09-6.6,6.46-10.19.84-2.2-1.35-4.73-3.44-4.28l-5.83,1.24c2.08-3.7,6.43-3.94,9.62-2.14-.29-1.83-1.98-2.93-3.74-2.77-3.84.36-6.62,2.93-7.56,6.52-1.31-2.33.21-4.17,1.43-5.7,2.81-3.56,7.54-3.58,10.89-.52.41-1.77-.09-4.23-1.92-4.84-2.85-.93-6.51-.32-8.91,1.62-1.92,1.55-3.83,4.4-3.85,6.89-.01,1.33,2.21,2.87.09,4.35-.73-2.07-1.5-3.68-2.87-4.36s-3.83-1.4-4.83-.33l-13.56,14.5-.08,4.13c-.05,2.68,1.99,5.63,4.93,5.48-1.46-2.05-3.59-4.1-2.32-6.58,1.17,3.52,4.25,7.14,8.11,5.59l5.34-3.2-.13,2.58,3.25-3.64c-.93-1.72-1.82-3.26-.95-4.8ZM206.43,141.96c2.47-2.94,4.25-5.8,5.78-9.16-2.45,2.85-4.36,5.78-5.78,9.16ZM200.12,164.01l-1.52-5.17-3.12,3.58,4.64,1.59Z"/>
  <path class="st4" d="M677.25,163.41c-14.7-8-16.58-22.13-16.1-37.74l.28-21.12c1.95-15.78,15.39-27.6,30.95-27.56s29.14,11.26,31.1,27.43c1.37,11.32,1.1,22.68.23,34.19-.67,8.8-5.13,16.65-11.86,22.01-10.02,7.98-23.27,8.95-34.59,2.79ZM708.69,160.7c7.46-4.46,12.24-11.86,12.93-20.37.97-12.09,1.32-23.92-.02-36.05-1.75-15.9-17.05-27.15-32.74-25.15-14.79,1.88-25.33,14.19-25.89,28.8l.1,29.56c.03,7.79,3.34,15.25,9.39,20.39,10.03,8.54,24.71,9.71,36.23,2.82Z"/>
  <path class="st1" d="M426.84,131.53c-3.07,2.02-4.82-11.41-1.04-14.78.42-.37,2.25-.12,2.29.43l.78,9,.65-8.25c13.32-5.07,26.44-9.18,40.36-12.87l-.33,5.27-.48,5.32c-.64,7.03-.76,13.83-.47,20.62l.69-4.36.54-15.35.39-5.3.58-6.68c.17-2.02.88-3.09,2.79-3.3,1.77-.19,3.18,1.09,3.24,3.32.26,8.62-.05,33.69-3.52,36.9-1.85,1.71-4.31-.28-5.35-1.97l-14.4-3.51-2.62,4.34-14.86-3.87,1.11-4.44-8.87-3.15c-.5,1.23-.95,2.27-1.5,2.63ZM466.01,108.58c-5.51.46-10.27,1.89-14.91,4.57,5.23-.88,10.24-2.58,14.91-4.57ZM445.94,115.29c-5.59.41-10.37,1.82-14.39,4.21,5.49-.56,10.12-2.36,14.39-4.21ZM450.49,136.51c-.86-1.73-8.03-3.48-10.6-2.5,3.01,3.63,11.28,3.87,10.6,2.5Z"/>
  <path class="st1" d="M448.53,153.12l-1.56-4.57-6.12.13c2.5,1.38,3.45,4.16,2.58,6-5.63,2.3-3.09-7.09-8.77-7.45,1.18,4.23,3.43,8.06,7.03,10.46l4.74-1.91c.54-.22,2.33.74,2.07,1.26l-1.17,2.34,8.68-.24c1.35-.04,3.1,2.39,2.11,3.03-2.35,1.53-4.71-.44-6.78-1.65l-4.46-.15,2.64,1.99c.3.22.63,1.11.6,1.48-.04.46-1.24.93-1.77.91-2.6-.11-3.48-2.83-4.2-4.64-2.15-1.2-4.46-2.52-6.28-4.13.26,1.66.38,3.62.18,5.21-2.78-.34-3.49-2.76-2.61-4.74s.96-3.78-.48-5.45c-.16,1.98-.38,4.1-1.59,5.32-6.29-1.45,2.06-7.49-.85-10.04l-3.18-2.78-.17,3.72c-.02.5-1.22,1.4-1.72,1.29s-1.39-1.17-1.37-1.76l.14-6.69-1.9-4.76.71-.5,3.4,5.47c.9,1.45,2.27,1.78,3.95,1.08l3.49-1.45c.57-.24,2,.4,2.45.79s.59,2.09.1,2.44c-1.12.82-3.13,1.27-4.57,1.6,2.47,1.31,5.28,1.65,7.92,1.32l1.65-4.26c.24-.63,1.64-1.36,2.3-1.33.76.03,1.99,1.52,1.79,2.46-.29,1.38-1.18,2.31-2.1,3.32l5.83-.03c1.55,0,2.32-4.45,4.61-5.07.69-.19,2.39.99,2.24,1.69-.38,1.81-1.9,3.23-3.1,3.63l5.31,2.27c3.44,1.47,3.46-2.15,6.32-.91.59.26.72,2.33.1,2.43l-3.75.64,4.37,2.77c1.41.89,2.78,2.59,1.49,4.19-3.42,0-2.86-6.13-9.08-7.72,1.29,1.76,2.08,4.51,1.02,6.15-.36.56-2.15.51-2.63.09s-1.04-1.63-1.09-2.36l-.35-5.15-7.07-.55c2.26,1.68,3.99,3.89,2.44,6.19-.87,1.29-3.08.02-3.56-1.39ZM427.24,146.35c1.06-1.4,1.71-3.34.05-4.96l-.05,4.96ZM436.88,141.78c-1.79-.59-3.15,0-4.4,1.22l4.4-1.22ZM444.5,142.41l-.97,2.41,1.09.44.97-2.41-1.09-.44ZM455.57,142.88l-2.06,2.02.7.71,2.06-2.02-.7-.71ZM441.29,152.58c.42-1.1.08-2.77-1.67-2.69l1.67,2.69ZM449.32,149.5l-.78.47,1.4,2.33.78-.47-1.4-2.33ZM459.05,154.53c.48-1.03.46-2.4-.37-3.49-.45,1.03-.43,2.37.37,3.49ZM433.46,151.25c-.61.45-1.26,1.15-1.35,1.62s.28,1.22.69,1.78l.66-3.4ZM437.25,158.77l-.62-2.42c-.56.86-.39,1.97.62,2.42ZM446.36,157.62c-1.12-.33-1.92-.12-2.31.45.62.38,1.91.13,2.31-.45ZM448.24,163.51c.06-1.05-1.02-2.02-1.85-1.67l1.85,1.67Z"/>
  <path class="st1" d="M465.59,97.97c-1.28,1.19-3.19.54-4.02-1.2l-4.32,1.76c1.75.57,3.41,1.79,3.55,3.12.07.66-1.57,1.5-2.15,1.31s-1.64-.85-1.99-1.38l-1.67-2.53-4.8.83c1.67.77,3.01,2.41,2.03,3.83-.78,1.14-2.98.22-3.52-.94-1.28-2.8-4.3-3.78-6.73-2.3,1.53.45,2.63,2.18,1.64,3.24-2.12,2.26-4.16-2.85-5.93-2.83-1.45.01-3.36,1.47-4.32,2.59l3.39-.12c.57-.02,1.54.96,1.61,1.55.09.83-1.01,1.87-1.94,1.81l-6.18-.36-3.87,5.83c-1.67-1.17.29-2.52.31-3.29l-1.22-5.5c-.12-.56.17-1.82.62-2.14s1.6-.45,2.08-.19c.56.3.88,1.65,1.01,2.95,5.03-1.54,2.81-7.74,5.62-8.5.72-.2,1.85.63,2.34,1.29,4.01-2.81.3-5.13,1.25-9.29.17-.74,2.34-1,2.83-.5.59.61.83,1.82,1.04,3.65l4.71-3.79c.62-2.39.62-4.56,2.63-4.98.48-.1,1.67.45,1.65.94-.02.59-.42,1.67-.75,2.47l6.73-1.85c.38-.11,1.53.45,1.63.81s-.28,1.35-.61,1.52c-3.02,1.6-6.79-1.21-9.67,1.64l2.61.22c.64.05,1.27,1.78.87,2.36-2.18,3.12-6.81-1.22-9.63,2.46l-5.15,6.74,4.73-.42,2.75-5.27c.24-.46,1.84-.69,2.33-.51.6.21,1.1,1.81.77,2.38-.87,1.52-2.08,2.48-3.39,3.48,1.29.14,3.85.1,4.92-.38,1.43-.63.38-3.45,2.28-4.82.54-.39,2.39-.1,2.74.55.75,1.4-.23,2.9-1.79,4.07,1.44-.12,3.12-.48,4.65-.99v-3.82c.23-.48,2.12-.91,2.24-.37l.63,2.83c-.15.15,1.08-.65,1.49-1.01.93-.81-1.36-2.26-.72-4.26.12-.38,1.38-.87,1.56-.51l1,1.99c.95-1.25,2.23-2.76,3.98-3.09.42-.08,1.64.49,1.74.9.52,2.2-4.65.99-5.93,4.96l2.12,1c.46.21.61,1.71.2,2.09ZM457.23,84.47l-1.82.22c.27,1.12,1.77.92,1.82-.22ZM439.85,91.95c1.51-1.29,1.09-2.99-.15-3.73l.15,3.73ZM450.76,89.5c-1.47-1.11-2.8-.92-3.79-.44,1.67.49,2.84.66,3.79.44ZM444.31,97.32c1.34-.5,2.03-1.5,1.93-2.95l-1.93,2.95ZM452.26,94.94l-.67,2.01.86.29.67-2.01-.86-.29ZM464.57,96.84l-.71-.92c-.19-.25-1.02.64-1.17.89l1.88.03ZM459.3,101.69l-.38-1.27c-.08-.27-1.1-.09-1.56.05l1.94,1.22ZM451.07,103.1l.16-.7-1.83-1.62-.16.7,1.83,1.62ZM436.57,104.76c.2-.32-.28-.6-.83-.67l-2.5,1.4,3.34-.73Z"/>
  <circle class="st1" cx="471.16" cy="96.51" r="1.72"/>
  <path class="st1" d="M474.29,148.73c.23,1-1.81,2.68-2.43,2.06-.3-.3-.68-1.48-.72-1.9-.05-.52.83-1.35,1.36-1.36s1.68.67,1.8,1.2Z"/>
  <path class="st1" d="M431.85,136.35c-.27.24-1.42-.07-1.54-.35-.21-.51-.41-1.84-.06-2.2.42-.43,1.64-.3,2.14.02s-.02,2.07-.54,2.53Z"/>
  <path class="st1" d="M437.01,109.2c.16-.4,1.65-.1,2.04.09.46.23.49,1.35.13,1.72-.42.43-1.19.79-1.58.6-.47-.23-.84-1.77-.59-2.41Z"/>
  <circle class="st1" cx="430.34" cy="94.31" r="1.37"/>
  <circle class="st1" cx="463.08" cy="143.08" r="1.3"/>
  <path class="st1" d="M462.22,160.35c-.52-.2-.8-2.05-.35-2.58.39-.45,1.71-.09,1.97.45.36.74-.69,2.49-1.62,2.13Z"/>
  <circle class="st1" cx="456.96" cy="89.58" r="1.17"/>
  <path class="st2" d="M329.96,149.64c-8.42-3.85-15.85-9.24-20.88-16.88-.39-8.18-.46-16.07.15-24.32,4.77-.13,9.31-.88,13.2-3.52l7.5-5.07c5.14,4.34,12.6,8.3,19.56,7.75l.1,14.69-.2,9.56c-4.09,8.13-10.82,14.06-19.42,17.79ZM328.37,146.81c1.5.8,2.9.57,4.42-.34,5.35-4.22,9.84-9,14.13-14.58l.23-21.52c-6.89-.07-12.87-2.98-17.7-7.34-2.02,2.19-4.24,3.73-6.71,5.07-3.6,2.07-7.28,3.4-11.58,2.79l.1,19.14c.01,1.9,1,3.8,2.36,5.07,4.65,4.36,9.49,8.06,14.74,11.71Z"/>
  <path class="st2" d="M330.8,91.55l-1.43,2.79c-.65-.69-1.13-1.28-1.31-1.68s.19-1.6.63-1.52l2.12.41Z"/>
  <circle class="st2" cx="303.59" cy="124.81" r="1.3"/>
  <path class="st2" d="M329.13,155.35l-.3-2.59,1.78.03c.4,0,.4,1.15.19,1.49s-.63.6-1.67,1.06Z"/>
  <path class="st2" d="M354.73,126.66l-.52-2.77,1.89.04c.44,0,.55,1.33.2,1.59l-1.56,1.14Z"/>
  <path class="st0" d="M560.49,159.67l-6.53-11.93,11.41.08c1.42,0,3.28,1.46,4.77-.38l-9.72-.43-9.24.03c-1.65-1.56-2.21-3.97-2.14-6.7l4.32-.5,16.22-.63.19-7.14c-3.37.91-5.99,2.23-9.03,3.82s-6.83-.25-8.44-3.27c-2.3-4.29-5.71-2.73-5.82-6.98-.13-5.18-2.21-8.07-.54-9.56,1.9-1.69,4.67,2.4,9.2,3.59,2.26.59,3.95,1.46,5.41,3.24,1.59,1.94,3.65,2.92,5.98,3.73l3.33,1.17.46-13.93c-1.95,2.71-4.66,4.84-7.35,2.74-1.75-1.37-3.33-2.3-5.82-2.43-2.74-.14-6.35-.96-7.66-3.62l-3.68-7.48c-.35-.71-.43-2.37.19-2.79.74-.5,2.2-.04,3,.5l1.96,1.34c1.26.86,4.19-4.23,8.49-.15l2.55,2.42c3.21-.69,5.07.16,8.22,2.19l-1.35-8.79c-1.92-.54-3.37-.88-5.39-.93-1.88-.05-4.66-1.72-3.76-3.92.68-1.66,3.98-1.32,5.31-.48l4.34,2.75c-.8-4.46-1.11-8.12,2.52-10.05.42-.22,1.61-.11,1.99.17s.9,1.55.77,2.07l-1.68,6.81c2.49-1.93,4.53-3.83,7.77-2.77.87.28,1.43,2.26,1.41,3.26s-.98,3.09-2.32,3.08l-10.66-.06,1.77,2.38c.46-.38,1.91-1.08,2.35-1.14l.32,7.98c3.49.31,5.21-.46,6.78-2.87,2.29-3.51,5.22-3.3,9.21-6.59,1.28-1.05,4.06-1.76,5.03-.18,1.39,2.26-.4,4.59-2.06,6.11-.76.69-1.22,2.92-1.08,4.05.6,4.81-2.06,9.35-7,10.34-2.17.43-4.99-.71-6.62-2.09l-4.59-3.88c-.52,5.5-.16,10.29.31,16.1,1.87-1.88,3.71-2.91,6.27-2.71,5.31.41,6.13-3.48,10.8-5.24l3.84-4c.33-.35,1.81-.49,2.18-.2,1.21.95-1.9,4.79-1.85,10.04-.11,2.88-1.52,5.25-4.25,6.24-1.45,3.22-4.88,4.57-8.2,3.4l-8.2-2.51,1.15,6.57,12.1-.02,4.74-.35c.49,2.92.1,6.06-1.99,7.78l-13.73.6,11.3.97-3.59,9.38c-.42,1.1-1.95,2.26-3.22,2.44-6.84.96-13.35.7-20.43-.66ZM571.42,94l.64-5.33c-1.05,1.68-1.07,3.54-.64,5.33ZM549,105.09l-1.94-3.22c-.37.66-.27,1.93.22,2.22l1.71,1ZM589.66,112.36c.63-1.83.91-3.82.82-5.82l-.22-4.57c-.69.74-1.22,1.99-1.15,2.94l.56,7.46ZM556.79,102.74l-3.44.11,3.2.37.24-.49ZM557.1,103.03l-.27.37c1.69,1.34,3.9,3.09,6.13,3.45l5.48.9c-1.74-1.77-4.99-.84-7.51-2.38l-3.82-2.35ZM571.3,108.44l.41-.26-.13-2.67-.41.26.13,2.67ZM573.96,109.95c1.99,1.97,4.01,2.02,6.27,2.15,2.72.16,5.48-1.07,5.37-4.44-1.56,2.05-3.26,3.19-5.69,2.93l-5.95-.65ZM552.49,110.82l-1.78-2.52c-.18,1.17.29,2.21,1.78,2.52ZM567.36,109.85h-5.52v.48h5.52v-.48ZM559.28,112.13l-.81-.4-3.11.14.24.43,3.68-.16ZM548.03,117.85c-.94.27-1.46.49-1.37.76l.33,1c.32.42.65.85.51.66.06-.91.04-1.24.13-1.45l.4-.97ZM594.77,119.07c0-.25-1.73.32-1.73.83,0,.43.27,1.13.48,1.73l1.25-2.57ZM591.31,122.4l-.6-.54c-2.48,1.14-4.35,1.67-4.79,4.81l5.39-4.27ZM570.78,127.04c1.11-2.15,1.11-3.43,0-4.79v4.79ZM565.49,127.88c-2.98-1.08-5.43-2.99-8.59-5.16,1.75,2.96,4.96,4.85,8.15,5.65l.44-.48ZM550.32,127.67l-1.52-3.43c-.46,1.23.19,3.05,1.52,3.43ZM565.39,128.36l.53.5c-5.2.47-9.09-1.96-13.89-4.7,3.33,5.18,10.32,7.19,16.02,4.75l-2.27-1-.39.46ZM588.54,131.4l3.66-2.92c.82-.66.74-3.09.34-3.75-.41,5.09-4.06,4.63-4,6.67ZM583.71,130.86l-.26-.41-2.67.13.26.41,2.67-.13ZM578.93,131.97l1.98-1.24-4.17.24c1.32,1.86,2.87,2.8,5.01,2.97l3.92.3-6.74-2.26ZM571.2,134.32h-.48v4.56h.48v-4.56ZM554.72,142.1l6.9-.19-.27-.41-7.82.06c-.6,0-2.01.68-2.07,1.27s.4,1.81.69,2.29l.76-2.33c.12-.37,1.36-.68,1.81-.69ZM559.91,154.96c.17-1.98-.53-3-1.71-3.88.39,1.56.96,2.91,1.71,3.88ZM565.15,158.27c-.78-.21-2.4-1.09-2.51.37l15.05.19.28-.49-12.81-.07Z"/>
  <path class="st0" d="M554.89,91.15c-.28-.39-.18-1.64.05-2.06.28-.49,1.45-1.27,1.94-.99.6.34,1.01,2.11.82,2.74-.22.73-2.34.98-2.82.3Z"/>
  <circle class="st0" cx="565.12" cy="121.1" r="1.61"/>
  <circle class="st0" cx="548.26" cy="135.58" r="1.6"/>
  <path class="st0" d="M588.79,92.99c-.07.66-1.7,1.06-2.28.78s-1.41-2.12-.79-2.28l2.03-.51c.5-.12,1.16.86,1.04,2.01Z"/>
  <path class="st0" d="M580.03,119.34l-.2,3.35-1.99-.65c-.45-.15-.78-1.67-.39-1.94.47-.32,1.56-.59,2.57-.76Z"/>
  <circle class="st0" cx="594.16" cy="134.25" r="1.34"/>
  <path class="st3" d="M205.88,156.49c1.09,1.54,2.31,3.06,3.61,3.51,1.94.66,4.72.48,5.7-.94l2.26-3.27c.77,3.46-2,6.3-4.76,6.81-3.64.68-7.62-1.91-6.81-6.12Z"/>
  <path class="st3" d="M217.61,146.84c-1.73-1.1-3.72-.33-5.82.33.73-1.22,2.48-2.44,3.78-2.63,1.85-.27,3.68.96,4.24,2.14.95,2.01.68,4.12-.78,5.37.32-1.8.39-4.06-1.42-5.21Z"/>
  <path class="st3" d="M219.87,144.72c-1.69-1.25-3.07-1.59-5.7-1.4.88-1.44,3.14-1.98,5.05-1.15.71.31,1.1,1.34.64,2.56Z"/>
  <path class="st3" d="M196.46,101.03c-2.04,1.47-4.39.58-5.88-.91-1.25-1.25-2.23-3.46-1.35-5.16.68,1.58,1.31,2.97,2.14,3.87s3.22,1.52,4.18.75c3.63-2.89,3.32-7.72.63-11.56,1.25.15,2.93,1.36,3.4,2.73,1.21,3.6.11,7.98-3.12,10.29Z"/>
  <path class="st3" d="M197.11,91.44c.42,2.69-.71,5.44-2.61,5.94-.96.25-2.49,0-3.28-1.25,2.55-.19,4.15-1.14,4.59-3.66l.18-1.01c.04-.25.65-.12,1.13-.01Z"/>
  <path class="st3" d="M184.68,149.69c3.3.46,6.65-.02,8.6-2.57,1.71-2.23.25-4.74-1.78-6.44,1.79-.33,3.09.7,3.89,2.06s.99,3.22.28,4.84c-.89,2.04-2.98,3.49-4.58,3.86-2.59.6-4.88.24-6.4-1.75Z"/>
  <path class="st3" d="M199.12,137.7c-.3-2.03-.92-3.44-1.87-4.15-1.39-1.04-3.13-.88-4.85-.35.39-1.72,2.44-2.78,4.34-2.2,3.2.99,4.74,4.41,3.23,7.57l-.85-.87Z"/>
  <path class="st3" d="M182.35,118.73c-.53-1.12-.91-2.55-.56-3.85.19-.71,2.39-.7,2.73-.02.73,1.44.49,3.6-2.17,3.88Z"/>
  <path class="st3" d="M218.1,82.36l-.17,2.93c-.86-.18-1.65-.37-1.98-.7-.4-.4-.38-1.62-.18-2.14s2.28-.65,2.34-.09Z"/>
  <path class="st3" d="M216.68,109.5c.47,2.34,3.69,2.33,5.85,1.74.11,2.09-2.71,1.99-4.06,1.61-1.93-.54-3.06-2.33-3.05-4.46,0-1.55.57-3.14,1.7-4.26.88-.87,2.95-1.61,4.21-.82-2.2,1.58-5.26,3.13-4.65,6.19Z"/>
  <path class="st3" d="M223.48,111.01c-.63-.62,1.34-2.72,2.11-2.31.92,1.07-.75,3.19-2.11,2.31Z"/>
  <circle class="st3" cx="207.17" cy="130.25" r="1.67"/>
  <path class="st3" d="M192.94,157.36c.04.47-1.63.64-1.87.26-.28-.46-.42-1.5-.26-2.01s1.92-.7,1.96-.16l.17,1.91Z"/>
  <circle class="st3" cx="209.1" cy="112.76" r="1.68"/>
  <path class="st3" d="M235.65,127.73c-.29.52-1.85.04-2.19-.53-.3-.52-.61-1.95-.16-2.35.54-.47,1.86-.53,2.34-.23.57.36.66,1.9,0,3.11Z"/>
  <path class="st4" d="M707.05,154.05c.45,1.16.43,3.22-.29,4.48-8.58,4.48-18.8,4.31-27.22-.63-.86-.5-.75-3.11-.4-3.79,4.13.74,7.54,1.7,11.66,1.14l-3.91-.76c-5.47-.47-10.31-2.29-14.7-5.51l.24-4.66c-2.75.34-5.1-1.4-5.28-4.27-.12-1.87.45-3.73,1.68-4.86,2.59-2.36,6.93-1.95,8.75.56.72,1,.6,2.61.39,4.06l15.77-.75c6.02-.29,11.58.02,17.67-.77,1.11-.14,3.53-.07,3.86,1.17.87,3.3.25,7.56-2.03,10.16-2.42,2.77-6.43,3.34-9.9,4.01s-7,.18-10.36,1.67c4.83.24,8.81-.58,14.08-1.25ZM674.81,138.46c-.63.7-.99,1.1-.69,1.22l1.56.62c.1.04.5-4.13-1.91-4.4-1.44-.16-3.27.78-3.99,1.91-.3.47-.39,2.05.08,2.29s1.59.58,2.01.67c-.43-1.22-.71-1.92-.8-2.72-.06-.62,1.43-1.33,2.05-1.22s1.48,1.04,1.7,1.64ZM702.72,140.56v.48h6.96v-.48h-6.96ZM710.58,149.28c3.07-2.27,3.55-6.12,2.57-9.03l-2.57,9.03ZM698.48,141.39l-.81-.4-3.11.14.24.43,3.68-.16ZM706.66,148.76l-17.37.63c-5.24-.32-9.82-1.17-15.04-2.58.83.97,2.1,1.64,3.43,2.03,5.97,1.77,12.02,2.43,18.3,2.28,3.84-.09,7.72-.34,10.67-2.37Z"/>
  <path class="st4" d="M691.82,115.2c.11-2.43,1.17-4.24,2.15-6.37.73-1.6,1.21-3.23,2.25-4.35.85,1.24,1.22,1.14,1.32-.06-1.19-.87-2.56.02-3.17,1.4l-2.96,6.69-.89,6.11c-.49.2-.75.32-.83.18-1.33-2.32.43-8.03,1.86-11.63.16-.41-.78-1.45-1.1-1.28-2.47,1.35-2.33,4.15-4.81,6.55-1.64-2.22-1.33-4.98-.27-6.88l1.93-2.11-2.6,1.17c-.78-1.04-.58-3.41,1.25-3.93l4.64-1.31c.3-.09,1.14-1.16.87-1.32l-1.54-.93c-1.89-1.15-2.81-3.94-1.61-6.06l5.8-10.25c0,3-.02,5.22,1.41,7.36,3.17,4.76-1.65,7.13-3.1,10.94l8.33,1.26c1.95,4.95,1.23,12.83-1.24,12.63-1.82-.15.81-3.62-1.48-5.93.85,3.62-1.46,5.11,1.41,6.88l.71,23.98-14.23.44-.37-25.26c3.41-1.19,2.22-4.86,5.14-6.7l-2.33,7.29c-.68,2.12.04,4.57,1.57,6.31,1.12-1.28,1.79-2.98,1.87-4.81ZM691.04,93.94l1.58-4.97c-1.69,1.7-3.17,3.74-1.41,6.49,1.3-1.08,2.22-1.98,3.19-3.32l-3.37,1.8ZM696.1,110.84l.41-.26-.13-2.67-.41.26.13,2.67ZM696.21,135.22l-.19-5.71-.36-7.14c-.17-3.33-.07-6.36-.83-9.68l.09,4.86.26,12.35c.04,1.74.48,3.68,1.03,5.32ZM693.93,135.8l-.17-10.57-.87-9.65.09,5.36.28,10.01.68,4.85ZM698.07,133.43l.35-.8-.06-13.68c0-.86-.53-2.53-.82-3.38l.1,9.44.43,8.42ZM688.22,136.16v-9.02s-.74-4.85-.74-4.85l-.1,10.62c0,.76.53,2.37.84,3.25ZM690.81,127.89l-.13-2.93-.44-.27.07,10.79c1.91-2.39.61-5.07.49-7.6Z"/>
  <path class="st4" d="M666.76,131.24c.25-1.29.77-2.84,1.36-3.64l9.98-13.55c1-1.36,2.5-2.39,4.15-3.21-3.38,7.08-7.5,13.13-11.88,19.46-.67.97-2.72,1.64-3.63.95Z"/>
  <path class="st4" d="M718.39,132.77l.3,1.33c.06.26-.45.59-.69.49l-1.22-.5c-4.68-6.67-9.88-13.32-12.18-21.72,5.59,6.3,9.6,13.27,13.79,20.4Z"/>
  <path class="st4" d="M717.45,120.76l-12.76-16.27c-.08-.81.05-1.71.43-2.14,5.42,5.42,9.58,11.21,13.71,17.31l.02,1.02c0,.28-.74.2-1.4.08Z"/>
  <path class="st4" d="M677.07,109.1l-8.47,7.08c-.2.17-1.29.21-1.51.17-.3-.06-.12-.8,0-1.3,4.45-4.6,8.69-9.07,14.5-12.2-1.07,2.58-2.33,4.41-4.53,6.25Z"/>
  <path class="st4" d="M684.33,96.06c-4.22,4.05-18.34,10.29-17.04,7.96l.66-1.19c5.01-2.89,10.22-5.8,16.38-6.77Z"/>
  <path class="st4" d="M717.45,105.32c-5.51-1.65-11.06-5.03-15.15-9.4,5.85,1.23,11.2,4.36,15.15,9.4Z"/>
  <path class="st4" d="M707.67,134.81c-3.21-4.01-4.12-9.17-3.76-14.31,2.71,4.12,4.05,9.22,3.76,14.31Z"/>
  <path class="st4" d="M679.88,93.41c-3.15.4-6.06.21-9.03-1.17,5.04-1.05,10.12-1.61,15.43.35l-6.4.82Z"/>
  <path class="st4" d="M708.47,92.75c-3.21.39-6.3.19-9.51-1.11,5.36-1.57,10.39-1.37,15.51.39l-6,.72Z"/>
  <path class="st4" d="M682.26,118.5c.8,4.76-.32,9.4-2.76,13.45-.75-4.55.27-9.48,2.76-13.45Z"/>
  <path class="st4" d="M685.57,89.3c-2.78.24-5.79-1.67-6.6-4.59,2.61.59,5.24,1.74,6.6,4.59Z"/>
  <path class="st4" d="M703.67,82.85c-2.23,1.95-3.85,2.99-6.36,3.68.53-3.16,3.06-3.32,5.63-4.58l.73.9Z"/>
  <path class="st2" d="M329.87,146.44l-.37-15.05-.43,14.12c-6.55-3.98-11.71-8.74-16.36-13.96l-.08-18.84c5.73.3,10.64-2.35,15.05-5.88l2.41-1.94c4.25,4.05,9.81,5.89,15.43,6.47l.24,10.25c.07,3.1.67,6.54.03,9.6l-5.6,6.78c-2.83,3.42-6.09,5.96-10.31,8.44ZM343.93,130.54c.46-2.32-.02-4.74-.11-7.23l-.3-8.69c-.23.88-.57,2.38-.54,3.05l.35,6.56.6,6.3ZM314.88,116.09h-.48v9.35h.48v-9.35ZM341.66,133.08c1.13-.18,1.59-.84,1.42-1.72l-1.42,1.72ZM339.6,135.28l-3.12,3.12.48.48,3.12-3.12-.48-.48Z"/>
</svg>