<?xml version="1.0" encoding="UTF-8"?>
<svg fill="#3A5464" id="Layer_1" xmlns="http://www.w3.org/2000/svg" version="1.1" viewBox="0 0 700.08 400.08">
  <!-- Generator: Adobe Illustrator 30.4.0, SVG Export Plug-In . SVG Version: 2.1.4 Build 226)  -->
  
  
  <path d="M300.94,87.28c-1.02,1.74-5.96,2.94-7.77,1.96-2.66-1.44-2.09-5.06-1.08-7.22,1.16-2.49,3.69-4.84,7.25-3.43,1.3,1.62,2.23,5.72,1.6,8.68Z"/>
  <path d="M327.52,192.07c-3.36,1.81-8.01-2.23-7.42-5.77s6.51-5.78,9.27-3.33c2.33,2.07,1.28,7.41-1.85,9.09Z"/>
  <path d="M403.39,94.88c-1.84,2.79-4.95,2.68-7.08,1.69s-4.73-3.95-2.93-6.78c1.33-2.09,6.54-2.55,8.93-1.09,1.29.79,1.95,4.85,1.08,6.17Z"/>
  <path d="M270.8,240.32c-3.53.78-6.82-3.94-5.87-6.98s6.27-4.81,8.64-2.55c2.56,2.43,1.04,8.69-2.77,9.53Z"/>
  <path d="M373.93,191.58c-1.39.12-4.06-.32-5.76-1.07-1.53-.67-2.87-3.74-2.08-5.48,1.65-3.65,5.95-3.84,8.87-3.15l-1.03,9.7Z"/>
  <path d="M423.18,234.9c-2.49.39-4.29-.79-5.05-1.84-.85-1.17-1.5-4.39-.61-5.36,1.23-1.34,4.71-1.49,6.44-.59.91.48,1.78,2.72,1.8,3.75.02,1.17-1.4,3.85-2.59,4.04Z"/>
</svg>