<?xml version="1.0" encoding="UTF-8"?>
<svg xmlns="http://www.w3.org/2000/svg" viewBox="557 280 71 95">
  <defs>
    <style>
      .st1 { fill: #fbac31; }
      .st2 { fill: #6487aa; }
      .st3 { fill: #0e4944; }
      .st4 { fill: #11294b; }
      .st5 { fill: #ce9a9c; }
      .st7 { fill: #2d516b; }
    </style>
  </defs>
  <path class="st1" d="M585.74,288.55c-13.01.69-23.65,11.19-24.58,24.19-.56,7.83-.56,20.22-.01,28.05,2.25,32.2,49.79,31.63,51.96.49.56-8.03.6-21.03,0-29.04-1.03-13.85-13.6-24.42-27.37-23.69M584.27,287.09c16.52-1.48,29.62,10.53,30.54,26.86.43,7.69.46,18.42-.01,26.1-1.29,20.84-23.24,33.46-41.61,22.85-19.16-11.06-12.23-33.08-13.49-51.37,1.37-12.63,11.82-23.29,24.57-24.44"/>
  <path class="st1" d="M600.42,349.93c-7.86.77-16.39,1.41-24.19-.08-1.48-.28-2.99-.96-4.4-1.21-.42-.08-.54-.36-.91.19.02.61,4.04,1.85,4.77,2.05,5.89,1.61,17.42,2.52,23.02.14.52-.22,1.39-.62,1.71-1.09M605.78,342.86l-.75.15-1.12,5.42-1.78,2.97c3.36-1.12,3.86-5.44,3.65-8.53M603.1,342.86l-28.28,1.46c9.31-.09,18.63-.6,27.92-.98l.37-.48ZM570.42,341.64c.51.88,1.55,1.81,2.43.85-1.07-.62-.39-1.15-.53-1.89-.58-3.23-5.72-1.41-5.59,1.15.04.82,1.28,1.76,2.09,1.59.85-.19-.46-1.07-.56-1.39-.72-2.39,3.15-3.14,3.12-.31h-.98ZM574.08,342.37c4.35.09,8.7-.61,13.04-.74,2.52-.08,5.22.33,7.57.27,3.28-.07,8.17-.98,11.21-.77,2.83.2,1.31,6.79.49,8.55-2.55,5.47-13.78,4.91-18.9,5.97-.57.8,1.16.64,1.6.62,3.68-.13,7.41-.92,11.09-1.23-.13,1,.35,2.96-.42,3.67-1.39,1.29-6.37,2.57-8.3,2.85-4.09.59-10.24-.33-13.96-2.24-2.44-1.26-2.6-1.43-2.19-4.27,2.93.48,5.89,1.39,8.9,1.21.38-.02,1.61-.15,1.83-.48-1.6-.35-3.39-.28-4.97-.52-3.63-.55-7.07-1.8-10.23-3.67-2.74-1.62-1.24-2.65-1.39-5.32-4.47.82-6.19-5.02-3.18-7.93,3.12-3.01,9.94-.79,7.81,4.03"/>
  <path class="st1" d="M585.3,338.96c.44-.09.45-.48.49-.84.4-3.57-.23-8.56-.86-12.08l.37,12.93ZM583.34,339.44l.22-7.17-.95-7.46c.24,1.08-.25,2.35-.25,3.3-.01,3.04.13,7.45.52,10.45.03.24.1.91.46.87M592.61,338.23c-.37-5.14.41-11.74-.73-16.7-.08-.35.01-.76-.48-.86.27,5.51.13,11.23.72,16.71.04.36.05.75.49.84M587.98,338.96c.45-.09.45-.48.49-.84.26-2.06-.13-6.96-.24-9.28-.11-2.26-.18-5.1-.52-7.28-.04-.26-.09-.91-.46-.88l.73,18.29ZM590.66,338.71c-.87-6.66-.32-13.46-1.25-20.08-.04-.31-.09-1.33-.45-1.37.36,6.66-.1,13.76,1,20.33.07.41.06,1.32.7,1.12M590.66,317.01c.35-.95.4-2.45-.48-3.17.12.94-.37,2.51.48,3.17M593.29,319.5l.54,21.16-12.44.49c-.14-5.9-.26-11.78-.24-17.69,0-.93-.4-4.01.1-4.75.16-.23.98-.32,1.46-.98.97-1.34.99-3.96,2.81-4.87-.61,2.6-2.11,4.57-2.2,7.43-.03.86.3,5.02,1.71,4.41,1.94-1.76,1.21-4.69,2.08-6.96.3-.78,1.1-1.63,1.46-2.45.7-1.59.46-3.57,2.2-4.13l1.58,4.28c-.77,1.79-1.12,3.03.92,4.06"/>
  <path class="st1" d="M586.28,301.89c-.76-1.95,1.6-3.37,1.21-5.36l-2.08,3.41c-.29.49-.16,3.32.73,3.17.2-.04,2.4-2.01,2.53-2.35.12-.29.12-.75-.32-.57l-2.07,1.7ZM588.71,290.68c.16.79-.27,1.57-.25,2.3.12,3.7,3.62,4.96,1.57,8.9-.51.98-3.54,3.83-2.77,4.63.41.43,6.14-.11,7.32,1.58.91,2.26,1.39,8.81-.62,10.4-.22.17-.33.34-.62.12-1.5-.94-.21-2.06-.3-3.12-.09-1.15-1.58-2.81-1.29-4.33-3.47-2.16-3.47,4.48-5.5,6.21-.65,1.69-.25,3.93-.78,5.56-.14.43-.32,1-.91.92-.51-2.37-.07-4.4.5-6.69.24-.99,2.34-4.82.35-4.79-1.95.03-2.58,4.91-4.39,5.59-.44-.02-.81-1.42-.83-1.83-.03-.47.14-2.97.23-3.38.18-.84,2.38-1.43,1.95-2.8l-2.07,1.46c-1.86-3.48,3.26-4.47,5.73-4.63l.25-1.7c-1.44-.08-2.54-1.17-3-2.49-1.07-3.03,1.16-4.36,2.47-6.71.82-1.47,1.49-3.36,2.37-4.71.19-.29-.05-.62.61-.48"/>
  <path class="st1" d="M577.74,316.77c.07.42-.05.77-.19,1.15-.69,1.98-8.42,14.16-9.95,15.9-.88,1-1.59,1.59-3.04,1.13-.37-.21.16-1.38.3-1.67,1.03-2.25,3.61-5.71,5.13-7.8,2.22-3.06,4.72-6.45,7.75-8.7"/>
  <path class="st1" d="M598.42,318.53c2.23,3.24,4.64,6.37,6.73,9.72,1.26,2.01,3.94,6.16,4.75,8.17.18.44.35.82.27,1.32-.34.03-.65.02-.97-.13-1.33-.63-5.47-7.28-6.45-8.92-1.93-3.22-3.77-6.54-5.02-10.09l.69-.07Z"/>
  <path class="st1" d="M597.74,309.45c.75-.83,6.66,6.92,7.17,7.58.89,1.16,5.34,7.07,5.47,7.96.06.43.02.53-.33.8-.33-.02-.57-.21-.83-.38-1.54-1.01-10.62-12.75-11.29-14.56-.18-.48-.25-.88-.19-1.39"/>
  <path class="st1" d="M577.49,309.94c.15.14-1.84,3.09-2.09,3.39-.98,1.18-8.77,7.96-9.8,8.25-.34.1-.69.08-1.03.06-.09-.56.19-.92.49-1.34.89-1.26,4.08-4.22,5.36-5.37.7-.62,6.53-5.52,7.07-4.99"/>
  <path class="st1" d="M579.69,303.6c.1.47-.24.58-.51.83-1.44,1.34-10.74,6.16-12.66,6.61-.58.13-1.12.17-1.71.12.2-1.49,1.99-2.13,3.16-2.81,3.56-2.05,7.75-3.66,11.71-4.75"/>
  <path class="st1" d="M608.95,311.89c-.42.06-.76-.04-1.15-.19-1.69-.66-6.67-3.71-8.34-4.83-.52-.35-3.5-2.49-3.43-2.9.06-.36.46-.31.74-.27,1.58.22,5.56,2.51,7.04,3.45.54.35,5.88,4.05,5.14,4.73"/>
  <path class="st1" d="M600.66,337.49c-.71.72-2.03-2.56-2.18-3.06-.41-1.35-1.32-5.26-1.45-6.6-.08-.82-.04-1.51.22-2.29.69-.5,2.43,5.57,2.56,6.1.47,1.92.9,3.85.85,5.85"/>
  <path class="st1" d="M606.27,299.95l-.3.55c-4.27.06-9.08,1.12-13.1-.67,4.23-1.33,9.15-.92,13.41.13"/>
  <path class="st1" d="M581.15,300.92c-2.95.16-6.21.71-9.15.5-.32-.02-4.35-.52-3.53-1.23,2.7-.45,5.43-.65,8.18-.5.35.02,5.47.3,4.5,1.23"/>
  <path class="st1" d="M577.86,323.84c.36-.07.57.29.62.62.09.7-.4,3.89-.57,4.8-.24,1.28-.96,3.96-1.51,5.07-.49.99-.93,1.06-1.11-.11-.2-1.32,1.58-10.17,2.57-10.37"/>
  <path class="st1" d="M575.3,293.85c.62-.6,4.96,2.31,5.24,2.93,1.18,2.62-3.11-.1-3.76-.63-.67-.56-1.49-1.37-1.48-2.29"/>
  <path class="st1" d="M596.76,291.41c.34,1.41-4.62,4.15-5.12,3.66-.91-1.72,4.88-3.9,5.12-3.66"/>
  <path class="st1" d="M587,285.13c-16.02,0-29.05,13.03-29.05,29.05v24.95c0,16.02,13.03,29.05,29.05,29.05s29.05-13.03,29.05-29.05v-24.95c0-16.02-13.03-29.05-29.05-29.05M587,368.66c-16.28,0-29.53-13.25-29.53-29.53v-24.95c0-16.28,13.25-29.53,29.53-29.53s29.53,13.25,29.53,29.53v24.95c0,16.28-13.25,29.53-29.53,29.53"/>
</svg>