<?xml version="1.0" encoding="UTF-8"?>
<svg fill="#4A6B5A" id="Layer_1" xmlns="http://www.w3.org/2000/svg" version="1.1" viewBox="0 0 700.08 400.08">
  <!-- Generator: Adobe Illustrator 30.4.0, SVG Export Plug-In . SVG Version: 2.1.4 Build 226)  -->
  <path d="M335.78,351.11l-13.74-2.67c-40.36-10.69-71.26-43.76-78.81-84.86-.79-4.32-1.67-8.93-1.66-13.34l.17-105.99c.01-9.13,2.23-17.9,4.94-26.32,12.72-39.54,47.37-68.29,87.96-73.88,61.06-8.4,116.28,34.2,123.45,95.45v116.16s-3.15,15.93-3.15,15.93c-13.94,52.61-64.55,86.39-119.16,79.52ZM456.34,255.71l.95-8.39-.47-99.93c-2.66-61.85-57.35-108.34-116.8-102.28-52.17,5.32-91.86,46.2-96.98,98.37l.04,108.09c5.59,58.19,54.6,101.8,113.04,98.59,51.56-2.84,94.35-42.79,100.22-94.44Z"/>
  <path d="M399.54,332.41c-55.31,28.09-126.66,6.58-146.1-55.81-3.51-11.26-4.98-22.25-5.69-34.18-1.83-30.69-1.27-60.72.27-91.62s17.01-61.35,42.83-79.91c47.85-34.41,113.74-20.09,144.91,28.13,9.07,14.03,14.43,29.46,15.38,46.35,2.08,36.96,2.43,73.36-.36,110.08-2.53,33.33-21.68,61.94-51.25,76.95ZM375.51,65.02c6.24-.77,17.69,5.32,15.02,9.78l-10.21-4.87-9.84,6.39c-4.3,2.79-8.51,4.14-13.48,1.36,5.14,7.31,17.3,8.77,27.63,9.29,17.17.85,34.67,12.85,39.43,29.4,1.3,4.51,4.12,8.56,7.23,12.09,9.8,11.1,6.73,23.23,3.83,37.38-1.29,6.31-1.27,12.04-2.05,19.08-4.51-12.47-7.17-24.1-9.43-36.55-2.46-13.5,6.47-26.42-9.38-42.69-6.95-7.13-15.45-12.94-25.55-13.1l10.21,6.62c7.94,5.15,11.21,14.24,9.51,23.57-1.41,7.74-.39,14.59,1.02,23.06-7.44-5.8-12.36-13.99-14.48-22.34l-4.26-16.8c-3.05-12.03-11.46-16.45-22.88-17.28,5.43,5.13,8.95,10.93,11.72,17.62,2.6,6.28,5.52,11.9,8.91,18.66-12.57-5.42-20.7-15.35-25.3-27.3-2.75-7.15-6.51-13.24-11.17-19.24-1.93-2.48-3.07-5.69-3.82-8.76-4.28,10.27-11.95,12.89-12.59,26.39-.58,12.27-2.32,20.75-13.14,27.5-4.91,3.06-8.82,6.31-12.95,10.91-.61-.62-.87-2.55-.35-3.79l15.81-37.21-15.11,4.31c-6.79,1.94-7.21,9.4-6.68,17.23.4,5.89-1.02,11.66-5.43,15.87l-16.08,15.36c-.57-4.19,1.05-7.5,2.78-10.83,2.71-5.22,4.73-10.52,6.25-16.22l3.71-13.88c-7.96,4.06-14.1,9.98-19.12,17.08-5.38,7.59,5.23,14.55.43,30.73l-6.05,20.4c-1.49,5.01-1.93,19.01-4.38,15.69l-1.41-1.9c-2.52-12.27-3.9-24.47-3.97-37.13,4.98-13.85,11.55-26.24,19.64-38.29,5.31-5.29,11-9.72,17.94-12.58l17.68-7.27c6.57-2.7,12.96-5.15,18.47-9.62-7.51,2.49-13.73,4.16-21.35,2.33-3.9-.94-8.01-.46-11.76,1.31-.31-6,3.54-11.76,9.75-13.02,15.92-3.23,35.88,5.73,38.34-16.26-14,1.28-27.38,3.47-40.43,9.92-28.83,14.26-50.32,42.9-53.24,75.54-3.06,34.31-1.91,67.87-.94,102.08.44,15.74,4.27,29.88,11.87,43.47,15.7,28.07,45.33,52.58,78.84,50.4l-6.07-7.87c-6.64-8.6-15.89-13.75-26.17-17.42l-14.94-5.33c-9.87-4.41-16.94-12.36-20.36-22.43-1.76-.95-4.26-1.91-5.61-3.15-7.27-6.71-6.92-43.68-4.62-58.67l6.76,28.71c1.81,7.68,4.15,14.84,5.29,22.73,1.44,9.93,5.79,18.94,14.78,24.37-3.17-6.8-5.18-13.28-6.55-20.44l-3.48-18.22c7.11,7.77,11.51,15.45,15.86,24.02,1.61,3.18.69,8.28.84,11.61l.33,7.37,24.14,9.78-12.7-25.24c-.76-1.51-.88-3.56-.02-5.52l5.33,5.17c7.15,6.93,16.88,8.73,17.64,21.5.28,4.74,1.22,9.87,3.84,13.8l6.48,9.69c4.03-19.05,22.51-29.41,29.36-39.86l6.28-9.58c.25-.38,1.63-1.03,1.83-.72l1.11,1.7c-1.34,8.57-3.28,16.54-6.52,24.47-4.7,5.9-9.82,10.08-15.57,15.31l16.31-4.37c3.67-.98,6.94-3.76,8.1-7.4l5.65-17.79c3.34-10.52,7.96-20.19,12.79-30.73,2.36,2.73,1.42,5.57.65,8.38-4.17,15.21-.24,26.6-10.51,39.61,8.55-4.14,15.91-11.01,19.14-19.94,1.81-4.99,1.09-10.88,1.7-16.18.89-7.71,4.32-14.31,8.28-20.78,4.63-7.18,8.82-13.98,12.73-21.56l2.19-.6c.47-.13.74,2.1.55,2.61l-4.65,12.26c-4.42,11.64-2.09,25.15-7.68,35.4-6.9,12.65-16.35,23.46-27.88,32.07-5.49,4.1-11.95,6.14-18.41,8.15l-17.85,5.53c-5.53,1.72-10.07,5.28-13.97,9.68l16.99-.16c41.37-3.04,77.65-50.45,79.75-91.99,1.64-32.5,1.79-64.42-.14-96.98-1.24-21.05-8.42-40.77-21.76-56.91l-6.39-6.9c-17.03-18.39-41.05-27.06-65.94-28.52.35,2.33.92,4.64,2.04,6.8,3.34,6.47,13.09,1.74,21.89.65ZM371.25,70.76c-5.03,1.3-8.37,2.81-12.03,1.29l-5.16-2.15c2.64,6.73,12.51,5.44,17.19.86ZM333.3,78.85c-10.36.46-20.48-4.78-27.26,1.59,6.51-.7,12.32-.89,18.75-.08,2.95.37,6.02-.15,8.51-1.52ZM332.31,91.01c-4.18,3.93-3.6,9.01-5.51,13.34l-6.42,14.57c8.97-5.28,10.54-16.89,11.93-27.91ZM401.24,128.65l-.1-12.94c-.04-5.87-1.68-11.43-7.3-13.83,9.19,11.61,2.14,19.73,7.4,26.77ZM377.8,113.11c-1.92-4.55-4.51-7.73-7.76-10.69,1.14,4.68,4.07,8.3,7.76,10.69ZM290.95,132.01c5.09-3.16,6.3-8.13,7.64-12.86l2-13.72c-2.29,3.15-3.21,6.36-3.75,10.27-.83,5.97-3.5,11.16-5.89,16.31ZM431.14,161.16c.1-8.74.48-16.71-.48-25.45l-1.86,15.85c-.39,3.3-1.04,7.38,2.35,9.59ZM265.71,177c.6-14.13,11.18-26.95,5.64-38.76-.55,3.63-.35,7.54-1.13,10.89-2.33,10.12-8.24,19.64-4.51,27.87ZM273.3,276.81c-.62-3.04-1.51-5.13-2.64-7.63.06-5,1.22-10.19-.56-15.38-1.15,8.03-1.58,19.66,3.21,23.01ZM420.17,286.51l6.95-27.63c-6.52,6.09-6.87,18.17-6.95,27.63ZM296.4,298.46c.88-9.23-.9-16.85-6.52-22.26l6.52,22.26ZM390.44,312.36c3.53-9.1,6.49-17.96,9.26-27.59-4.85,8.44-8.15,17.54-9.26,27.59ZM330.46,311.62c-.15-8.64-6.33-14.56-12.77-18.73.78,4.53,4.28,5.95,6.79,8.78,2.41,2.72,3.67,6.56,5.98,9.95ZM351.49,328.59c6.02-9.8,14.91-13.86,19.33-21.79l-13.52,11.32c-2.87,3.04-5.68,6.21-5.81,10.47Z"/>
  <path d="M415.19,227.97c-11.99,26.54-35.91,47.59-63.38,59.03-26.49-12.21-52.06-30.02-67.51-55.28-1.33-26.21-1.94-51.66.66-78.25,25.91.27,47.27-11.92,66.96-27.76,12.36,11.53,27.18,18.7,43.1,23.39,6.67,1.96,12.34,3,19.8,1.36.58,8.07,1.16,15.32,1.02,23.04l-.69,37.32.04,17.15ZM342.63,275.52c3.3,2.29,6.52,3.79,10.21,5.42,4.79-1.72,8.5-3.95,12.61-6.98,15.72-12.93,29.41-27.58,41.57-44.18l.91-70.04c-21.6-.9-42.18-9.46-58.1-24.84-2.26,3.22-4.41,5.57-7.1,8.19-15.41,10.15-33.86,22.12-52.11,17.64l-.14,19.69c-.1,14.73-.16,28.89.77,43.64.53,2.93.64,7.2,2.18,9.42,8.94,12.92,34.81,32.03,49.2,42.03Z"/>
  <path d="M354.49,99.4l-4.47,7.74c-3.39-1.74-4.89-5.51-3.22-8.3,1.29-2.16,5.23-2.61,7.69.56Z"/>
  <path d="M268.93,203.54c2.3,2.2.76,7.4-2.56,7.34s-4.92-4.79-3.12-7.16c.85-1.12,4.63-1.19,5.69-.18Z"/>
  <path d="M437.7,207.78c-.9,2.62-2.95,3.72-5.41,4l-1.37-6.69c-.22-1.1,3.05-1.83,4.18-1.65,1.33.22,3.26,2.38,2.59,4.34Z"/>
  <path d="M354.31,298.59c1.74,2.95-1.03,6.65-4,6.61-1.65-.72-2.69-4.8-1.72-6.74.81-1.62,4.77-1.49,5.72.13Z"/>
  <path d="M263.01,268.01c-.42,1.32-1.68,3.17-2.5,3.16-.97-.01-2.67-2.47-2.01-3.18l2.07-2.24c.47-.51,2.7,1.42,2.44,2.26Z"/>
  <path d="M403.76,226.94l-16.82,20.3c-6.2,7.48-13.14,13.79-20.82,19.69-4.53,3.48-8.42,6.87-14.8,9.19l-.02-134.46c14.55,13.07,32.22,20.17,51.24,21.55-.39,10.8-.22,21.21.45,32l.77,31.73ZM362.05,263.97c9.88-8.66,18.77-17.17,27.39-26.71,3.54-3.91,7.22-8.5,9.28-13.19l-1.61-31.97c-.39-7.84.88-15.39-1-22.72-.89,4.69-2.58,9.71-2.32,14.2l2.36,41.18-11.63,13.83-27.83,28.14c1.84-.37,3.72-1.32,5.36-2.75Z"/>
  <path d="M296.31,229l-.62-61.57c14.03.6,27.78-3.64,39.23-11.97,4.94-3.59,9.5-7.23,14.81-10.47l-.48,128.81c-20.22-12.31-36.74-27.4-52.94-44.8ZM303.7,183.11c.02-2.14-1.12-4.73-1.84-7.16,15.07-1.28,33.03-7.16,41.88-20.72-3.83,1.59-6.37,4.24-9.46,6.55-9.85,7.36-20.96,10.71-33.36,11.67-.21,3.68,0,6.82.26,10.19,1,13.34-1.05,26.34,2.18,40.38l.34-40.92Z"/>
</svg>