<?xml version="1.0" encoding="UTF-8"?>
<svg fill="#C4969A" id="Layer_1" xmlns="http://www.w3.org/2000/svg" version="1.1" viewBox="0 0 700.08 400.08">
  <!-- Generator: Adobe Illustrator 30.4.0, SVG Export Plug-In . SVG Version: 2.1.4 Build 226)  -->
  
  
  <path d="M236.18,192.46c-1.91-2.1-3.57-3.53-5.81-4.91l-9.52,5.22c4.77.58,9.39,2.25,9.66,7.11.07,1.24-1.95,2.35-3.19,2.69-.97.27-2.59-.2-3.66-1.08l-6.11-5.04c-2.03-1.67-5.24-1.83-6.79-.07,5.59,5.41,12.36,9.22,19.79,9.79,2.73-3.69,6.28-8.89,8.76-7.72.69.32,1.9,1.67,1.71,2.42l-.96,3.72,7.27-4.61c3.99-2.53,8.16-5.44,11.43-3.27.75.49,1.83,2.52,1,3.24-3.39,2.9-7.98,3.07-12.22,2.23l-7.02,3.98,5.86.41c.87.06,2.13,1.31,2.39,2.06.34,1.01-.64,2.44-1.83,2.89-3.65,1.37-7.33.1-9.57-3.04-.64-.89-1.95-1.13-2.97-.83-3.76,1.13-7.24,0-11.42-.86,1.52,2.55,4.32,4.7,4.6,7.91-1.21,1.17-3.46.8-4.59.25-1.64-.81-2.8-2.37-3.16-4.08l-1.16-5.47c-.34-1.62-2.88-2.81-4.32-3.48l2.45,7.18c.2.6-.16,1.9-.59,2.32s-1.81.68-2.47.56c-2.5-.44-4.21-2.4-4.18-4.99l.07-5.61c.04-3.08-2.26-4.89-5.18-5.35l-5.23-.82c2.14,3.63,4.06,7.26,1.35,8.88-3,1.8-5.96-4.52-8.04-9.46-.86-2.03-2.06-3.32-3.99-4.49-3.97-2.4-5.25-4.84-4.23-4.92.29-.02,1.03,0,1.32.16l9.05,5.16c2.5,1.42,5.16,1.07,6.86-1.23l3.6-4.89c1.29-1.75,3.36-2.26,5.33-1.52.87.32,2,1.27,2.28,2.12.88,2.68-2.93,5.54-6.1,7.9,4.99-.08,9.92-1.76,13.88-5-.79-5.03-2.67-11.06,1.81-12.01,1.98-.42,3.7.75,4.49,2.69.99,2.47.08,4.76-1.36,6.96l8.19-4.1c1.88-.94,2.81-2.35,2.85-4.44l.11-5.63c.03-1.49,1.11-2.9,2.4-3.42,1.17-.47,3.51-.61,4.13,1.05,1.15,3.06-.15,6.83-2.56,9,1.56-.63,3.39-1.28,5.22-1.43l7.41-.6c1.89-.15,3.09-1.89,3.44-3.51.45-2.08,2.4-3.33,4.36-2.97.72.13,1.82,1.1,2.01,1.71.82,2.63-2.54,4.15-5.84,5.71,4.31,1.36,8.17.24,12.61,1.44,1.74.47,3.89,2.52,3.17,4.33-.59,1.48-3.07,1.21-4.25.56l-6.56-3.59c-3.08-1.68-6.99-1.47-10.49-.88,4.72,1.85,8.69,7.19,7.01,9.55-.89,1.24-2.84,1.68-4.23,1.43-3.87-.67-4.38-6.72-8.64-10.1l-11.22,5c2.71.64,4.74.82,6.72,2.19,1.66,1.15,3.46,4.11,2.4,5.98-1.61,2.84-5.56,1.76-7.52-.4h-.02ZM194.09,193.19c.2,1.92,2.16,2.66,3.22,6.71.09.36.68.87.94,1.03.75.47.29-5.77-4.16-7.73ZM205.61,189.46l3.49-3.23-.82-.7c-.23-.19-1.26.34-1.48.6l-3.69,4.54c.94.08,1.74-.51,2.5-1.21h0ZM222.63,185.03c2.39-2.05,1.52-3.95-.06-5.79-.41.62-.81,1.73-.81,2.31l.87,3.48h0ZM240.88,172.04l-1.09-.74c-1.2,1.79-2.35,3.5-.69,5.86l1.77-5.13h0ZM239.43,190.14c-1.29-2.02-2.97-2.7-5.05-2.71,1.36,1.67,3.08,2.9,5.05,2.71ZM220.73,196c1.58,1.33,3.22,2.08,5.24,2.35-1.9-2.6-4.51-4.06-5.24-2.35ZM255.02,186.58c-.06-2.75-1.54-4.93-4.24-5.56.61,2.33,1.83,4.77,4.24,5.56ZM212.28,203.48c-2.29,2.14-.65,4.87,1.5,5.91-.3-1.93-.75-3.85-1.5-5.91ZM224.02,211.97c-.77-2.19-1.74-3.28-3.2-3.86-.31,2.26,1.52,3.77,3.2,3.86ZM238.04,201.55c-2.46.45-3.6,1.67-3.52,3.59,1.75-.77,3.2-2.13,3.52-3.59ZM246.12,209.42c-1.76-1.53-3.75-1.9-5.5-1.2,1.86,1.15,3.74,1.55,5.5,1.2Z"/>
  <path d="M265.68,196.21c-.15.88-.61,1.7-1.02,1.98s-1.74.15-2.09-.25c-.74-.85-1.66-2.95-1.16-3.85.38-.69,2.25-.98,2.91-.74.74.27,1.55,1.73,1.36,2.85Z"/>
  <path d="M257.29,168.2c.21,1.59-.7,2.71-1.84,2.95-.95.2-2.27-.63-2.69-1.68-.38-.92.45-2.28,1.58-2.8.48-.22,1.32-.37,1.71-.26.47.13,1.16,1.21,1.24,1.79h0Z"/>
  <path d="M156.5,167.19c2.14-1.99,6.17-2.72,7.53.25.9,1.96-1.15,4.75-2.9,5.76-2.09,1.19-4.12,1.19-6.88,1.6l10.74,5.95c4.54-3,5.56-8.98,9.48-9.32,1.41-.12,3.31.48,4.09,1.79,1.47,2.49-2.95,7.47-7.81,8.91,3.44.89,7.32,1.43,10.53.02l6.85-3.01c1.22-.54,3.72-.6,4.18.93.56,1.86-1.76,3.72-3.54,4.04-4.52.81-8.28-.64-12.69.35,3.15,1.85,6.37,3.65,5.32,6.19-.25.59-1.43,1.46-2.15,1.53-1.98.19-3.81-1.22-4.09-3.34-.21-1.64-1.26-3.48-3.13-3.79l-7.33-1.24c-1.81-.31-3.58-1.11-5.08-1.87,2.21,2.37,3.18,6.24,1.77,9.18-.76,1.6-3.08,1.26-4.21.69-1.24-.63-2.19-2.12-2.09-3.61l.37-5.62c.14-2.08-.67-3.57-2.45-4.67l-7.81-4.79c1.24,2.31,1.96,4.68.76,7.05-.95,1.86-2.76,2.88-4.7,2.29-4.39-1.33-1.99-7.18-.77-12.13-3.66-3.57-8.43-5.67-13.4-6.18,2.96,2.62,6.5,5.79,5.4,8.39-.35.83-1.56,1.67-2.45,1.92-2.03.57-4.05-.12-5.18-1.97l-3.16-5.18c-1.49-2.44-4.11-3.02-6.72-1.82l-9.46,4.36c-.3.14-1.04.09-1.33.05-1.01-.17.48-2.49,4.64-4.54,2.03-1,3.34-2.18,4.37-4.13,2.5-4.74,5.99-10.78,8.83-8.73,2.56,1.85.33,5.31-2.11,8.73l5.28-.36c2.95-.21,5.4-1.81,5.62-4.88l.41-5.59c.19-2.58,2.06-4.38,4.59-4.61.67-.07,2.02.31,2.41.77s.64,1.79.39,2.37l-3.06,6.94c1.5-.55,4.12-1.52,4.6-3.1l1.62-5.35c.51-1.67,1.79-3.13,3.5-3.79,1.18-.46,3.45-.63,4.55.64-.55,3.18-3.53,5.08-5.26,7.49,4.24-.49,7.8-1.32,11.45.13.99.39,2.32.27,3.03-.57,2.5-2.94,6.28-3.89,9.8-2.21,1.14.55,2,2.06,1.58,3.04-.32.72-1.69,1.86-2.56,1.85l-5.87-.09,6.65,4.57c4.29-.47,8.85.1,11.98,3.28.77.78-.49,2.71-1.28,3.14-3.45,1.88-7.35-1.38-11.11-4.24l-6.85-5.22.64,3.78c.12.76-1.2,2-1.91,2.26-2.58.95-5.66-4.53-8.06-8.45-7.45-.08-14.52,3.14-20.56,8.04,1.39,1.89,4.6,2.01,6.77.52l6.52-4.5c1.14-.79,2.79-1.11,3.74-.76,1.21.45,3.12,1.73,2.95,2.96-.68,4.82-5.44,6.08-10.24,6.25l9.04,6.03c2.35-1.18,4.14-2.46,6.22-4.39h.02ZM119.42,155.48c-.26.13-.9.6-1.02.94-1.41,3.94-3.43,4.51-3.79,6.4,4.61-1.57,5.6-7.75,4.81-7.35ZM125.77,167.54c-.7-.77-1.45-1.43-2.39-1.42l3.29,4.85c.19.28,1.18.9,1.42.73l.87-.63-3.2-3.52h0ZM142.35,173.41l-1.17,3.39c-.06.58.25,1.72.6,2.37,1.74-1.7,2.76-3.51.56-5.76h0ZM159.4,187.94l-1.32-5.26c-1.86,2.21-.87,4.02.18,5.9l1.15-.64h0ZM154.26,172.03c2.07.17,3.8-.36,5.26-2.26-1.94-.36-3.76.71-5.26,2.26ZM146.82,160.43c-2.04.09-3.74.7-5.43,1.89.58,1.76,3.31.54,5.43-1.89ZM170.04,179.84c2.75-.4,4.4-2.44,4.71-5.18-2.47.58-3.9,2.9-4.71,5.18ZM135.63,148.39c-2.24.85-4.11,3.43-2.01,5.76.93-1.99,1.55-3.86,2.01-5.76ZM142.53,150.27c1.5-.46,2.56-1.45,3.52-3.57-1.68-.05-3.63,1.29-3.52,3.57ZM155.92,154.41c-.24,1.91.79,3.22,3.2,3.88-.19-1.48-1.52-2.96-3.2-3.88ZM162.26,151.87c1.68.85,3.7.65,5.59-.72-1.72-.5-3.64-.26-5.59.72Z"/>
  <path d="M186.26,196.83c-.19-1.56,1.85-4.1,3.57-3.64,1.85.49,2.62,4.15,1.25,5.52-1.54,1.54-4.59-.03-4.82-1.88Z"/>
  <path d="M111.25,176.43c.04-1.41,2.37-3.37,3.75-2.84,1.93.74,1.84,4.62-.22,5.2-1.5.43-3.57-.95-3.53-2.36Z"/>
  <path d="M184.28,174.53c-.7.06-2.43-.71-2.62-1.47-.25-.99,1.19-2.79,2.13-3.41.44-.29,1.76-.08,2.08.31s.55,1.29.47,2.18c-.11,1.13-1.27,2.33-2.06,2.39Z"/>
  <path d="M170.91,196.98c-.23.54-1.17,1.4-1.66,1.41-.4,0-1.18-.36-1.58-.7-.95-.8-1.4-2.33-.79-3.12.68-.9,2.17-1.36,3.04-.91,1.04.52,1.62,1.85,1,3.33h0Z"/>
  <path d="M321.37,167.19c2.14-1.99,6.17-2.72,7.53.25.9,1.96-1.15,4.75-2.9,5.76-2.09,1.19-4.12,1.19-6.88,1.6l10.74,5.95c4.54-3,5.56-8.98,9.48-9.32,1.41-.12,3.31.48,4.09,1.79,1.47,2.49-2.95,7.47-7.81,8.91,3.44.89,7.32,1.43,10.53.02l6.85-3.01c1.22-.54,3.72-.6,4.18.93.56,1.86-1.76,3.72-3.54,4.04-4.52.81-8.28-.64-12.69.35,3.15,1.85,6.37,3.65,5.32,6.19-.25.59-1.43,1.46-2.15,1.53-1.98.19-3.81-1.22-4.09-3.34-.21-1.64-1.26-3.48-3.13-3.79l-7.33-1.24c-1.81-.31-3.58-1.11-5.08-1.87,2.21,2.37,3.18,6.24,1.77,9.18-.76,1.6-3.08,1.26-4.21.69-1.24-.63-2.19-2.12-2.09-3.61l.37-5.62c.14-2.08-.67-3.57-2.45-4.67l-7.81-4.79c1.24,2.31,1.96,4.68.76,7.05-.95,1.86-2.76,2.88-4.7,2.29-4.39-1.33-1.99-7.18-.77-12.13-3.66-3.57-8.43-5.67-13.4-6.18,2.96,2.62,6.5,5.79,5.4,8.39-.35.83-1.56,1.67-2.45,1.92-2.03.57-4.05-.12-5.18-1.97l-3.16-5.18c-1.49-2.44-4.11-3.02-6.72-1.82l-9.46,4.36c-.3.14-1.04.09-1.33.05-1.01-.17.48-2.49,4.64-4.54,2.03-1,3.34-2.18,4.37-4.13,2.5-4.74,5.99-10.78,8.83-8.73,2.56,1.85.33,5.31-2.11,8.73l5.28-.36c2.95-.21,5.4-1.81,5.62-4.88l.41-5.59c.19-2.58,2.06-4.38,4.59-4.61.67-.07,2.02.31,2.41.77s.64,1.79.39,2.37l-3.06,6.94c1.5-.55,4.12-1.52,4.6-3.1l1.62-5.35c.51-1.67,1.79-3.13,3.5-3.79,1.18-.46,3.45-.63,4.55.64-.55,3.18-3.53,5.08-5.26,7.49,4.24-.49,7.8-1.32,11.45.13.99.39,2.32.27,3.03-.57,2.5-2.94,6.28-3.89,9.8-2.21,1.14.55,2,2.06,1.58,3.04-.32.72-1.69,1.86-2.56,1.85l-5.87-.09,6.65,4.57c4.29-.47,8.85.1,11.98,3.28.77.78-.49,2.71-1.28,3.14-3.45,1.88-7.35-1.38-11.11-4.24l-6.85-5.22.64,3.78c.12.76-1.2,2-1.91,2.26-2.58.95-5.66-4.53-8.06-8.45-7.45-.08-14.52,3.14-20.56,8.04,1.39,1.89,4.6,2.01,6.77.52l6.52-4.5c1.14-.79,2.79-1.11,3.74-.76,1.21.45,3.12,1.73,2.95,2.96-.68,4.82-5.44,6.08-10.24,6.25l9.04,6.03c2.35-1.18,4.14-2.46,6.22-4.39h.02ZM284.29,155.48c-.26.13-.9.6-1.02.94-1.41,3.94-3.43,4.51-3.79,6.4,4.61-1.57,5.6-7.75,4.81-7.35ZM290.64,167.54c-.7-.77-1.45-1.43-2.39-1.42l3.29,4.85c.19.28,1.18.9,1.42.73l.87-.63-3.2-3.52h0ZM307.22,173.41l-1.17,3.39c-.06.58.25,1.72.6,2.37,1.74-1.7,2.76-3.51.56-5.76h0ZM324.27,187.94l-1.32-5.26c-1.86,2.21-.87,4.02.18,5.9l1.15-.64h0ZM319.12,172.03c2.07.17,3.8-.36,5.26-2.26-1.94-.36-3.76.71-5.26,2.26ZM311.69,160.43c-2.04.09-3.74.7-5.43,1.89.58,1.76,3.31.54,5.43-1.89ZM334.91,179.84c2.75-.4,4.4-2.44,4.71-5.18-2.47.58-3.9,2.9-4.71,5.18ZM300.5,148.39c-2.24.85-4.11,3.43-2.01,5.76.93-1.99,1.55-3.86,2.01-5.76ZM307.4,150.27c1.5-.46,2.56-1.45,3.52-3.57-1.68-.05-3.63,1.29-3.52,3.57ZM320.79,154.41c-.24,1.91.79,3.22,3.2,3.88-.19-1.48-1.52-2.96-3.2-3.88ZM327.13,151.87c1.68.85,3.7.65,5.59-.72-1.72-.5-3.64-.26-5.59.72Z"/>
  <path d="M276.11,176.43c.04-1.41,2.37-3.37,3.75-2.84,1.93.74,1.84,4.62-.22,5.2-1.5.43-3.57-.95-3.53-2.36Z"/>
  <path d="M349.14,174.53c-.7.06-2.43-.71-2.62-1.47-.25-.99,1.19-2.79,2.13-3.41.44-.29,1.76-.08,2.08.31s.55,1.29.47,2.18c-.11,1.13-1.27,2.33-2.06,2.39Z"/>
  <path d="M335.78,196.98c-.23.54-1.17,1.4-1.66,1.41-.4,0-1.18-.36-1.58-.7-.95-.8-1.4-2.33-.79-3.12.68-.9,2.17-1.36,3.04-.91,1.04.52,1.62,1.85,1,3.33h0Z"/>
  <path d="M400.05,190.11c-1.91-2.1-3.57-3.53-5.81-4.91l-9.52,5.22c4.77.58,9.39,2.25,9.66,7.11.07,1.24-1.95,2.35-3.19,2.69-.97.27-2.59-.2-3.66-1.08l-6.11-5.04c-2.03-1.67-5.24-1.83-6.79-.07,5.59,5.41,12.36,9.22,19.79,9.79,2.73-3.69,6.28-8.89,8.76-7.72.69.32,1.9,1.67,1.71,2.42l-.96,3.72,7.27-4.61c3.99-2.53,8.16-5.44,11.43-3.27.75.49,1.83,2.52,1,3.24-3.39,2.9-7.98,3.07-12.22,2.23l-7.02,3.98,5.86.41c.87.06,2.13,1.31,2.39,2.06.34,1.01-.64,2.44-1.83,2.89-3.65,1.37-7.33.1-9.57-3.04-.64-.89-1.95-1.13-2.97-.83-3.76,1.13-7.24,0-11.42-.86,1.52,2.55,4.32,4.7,4.6,7.91-1.21,1.17-3.46.8-4.59.25-1.64-.81-2.8-2.37-3.16-4.08l-1.16-5.47c-.34-1.62-2.88-2.81-4.32-3.48l2.45,7.18c.2.6-.16,1.9-.59,2.32s-1.81.68-2.47.56c-2.5-.44-4.21-2.4-4.18-4.99l.07-5.61c.04-3.08-2.26-4.89-5.18-5.35l-5.23-.82c2.14,3.63,4.06,7.26,1.35,8.88-3,1.8-5.96-4.52-8.04-9.46-.86-2.03-2.06-3.32-3.99-4.49-3.97-2.4-5.25-4.84-4.23-4.92.29-.02,1.03,0,1.32.16l9.05,5.16c2.5,1.42,5.16,1.07,6.86-1.23l3.6-4.89c1.29-1.75,3.36-2.26,5.33-1.52.87.32,2,1.27,2.28,2.12.88,2.68-2.93,5.54-6.1,7.9,4.99-.08,9.92-1.76,13.88-5-.79-5.03-2.67-11.06,1.81-12.01,1.98-.42,3.7.75,4.49,2.69.99,2.47.08,4.76-1.36,6.96l8.19-4.1c1.88-.94,2.81-2.35,2.85-4.44l.11-5.63c.03-1.49,1.11-2.9,2.4-3.42,1.17-.47,3.51-.61,4.13,1.05,1.15,3.06-.15,6.83-2.56,9,1.56-.63,3.39-1.28,5.22-1.43l7.41-.6c1.89-.15,3.09-1.89,3.44-3.51.45-2.08,2.4-3.33,4.36-2.97.72.13,1.82,1.1,2.01,1.71.82,2.63-2.54,4.15-5.84,5.71,4.31,1.36,8.17.24,12.61,1.44,1.74.47,3.89,2.52,3.17,4.33-.59,1.48-3.07,1.21-4.25.56l-6.56-3.59c-3.08-1.68-6.99-1.47-10.49-.88,4.72,1.85,8.69,7.19,7.01,9.55-.89,1.24-2.84,1.68-4.23,1.43-3.87-.67-4.38-6.72-8.64-10.1l-11.22,5c2.71.64,4.74.82,6.72,2.19,1.66,1.15,3.46,4.11,2.4,5.98-1.61,2.84-5.56,1.76-7.52-.4h-.02ZM357.96,190.84c.2,1.92,2.16,2.66,3.22,6.71.09.36.68.87.94,1.03.75.47.29-5.77-4.16-7.73ZM369.48,187.11l3.49-3.23-.82-.7c-.23-.19-1.26.34-1.48.6l-3.69,4.54c.94.08,1.74-.51,2.5-1.21h0ZM386.5,182.68c2.39-2.05,1.52-3.95-.06-5.79-.41.62-.81,1.73-.81,2.31l.87,3.48h0ZM404.75,169.68l-1.09-.74c-1.2,1.79-2.35,3.5-.69,5.86l1.77-5.13h0ZM403.29,187.79c-1.29-2.02-2.97-2.7-5.05-2.71,1.36,1.67,3.08,2.9,5.05,2.71ZM384.6,193.65c1.58,1.33,3.22,2.08,5.24,2.35-1.9-2.6-4.51-4.06-5.24-2.35ZM418.89,184.23c-.06-2.75-1.54-4.93-4.24-5.56.61,2.33,1.83,4.77,4.24,5.56ZM376.15,201.13c-2.29,2.14-.65,4.87,1.5,5.91-.3-1.93-.75-3.85-1.5-5.91ZM387.89,209.61c-.77-2.19-1.74-3.28-3.2-3.86-.31,2.26,1.52,3.77,3.2,3.86ZM401.91,199.19c-2.46.45-3.6,1.67-3.52,3.59,1.75-.77,3.2-2.13,3.52-3.59ZM409.99,207.06c-1.76-1.53-3.75-1.9-5.5-1.2,1.86,1.15,3.74,1.55,5.5,1.2Z"/>
  <path d="M362.21,168.73c1.84,1.11.91,4.88-1.15,5.08-1.47.15-3.2-2.35-2.87-3.73s2.68-2.16,4.02-1.36Z"/>
  <path d="M429.54,193.86c-.15.88-.61,1.7-1.02,1.98s-1.74.15-2.09-.25c-.74-.85-1.66-2.95-1.16-3.85.38-.69,2.25-.98,2.91-.74.74.27,1.55,1.73,1.36,2.85Z"/>
  <path d="M421.16,165.85c.21,1.59-.7,2.71-1.84,2.95-.95.2-2.27-.63-2.69-1.68-.38-.92.45-2.28,1.58-2.8.48-.22,1.32-.37,1.71-.26.47.13,1.16,1.21,1.24,1.79h0Z"/>
  <path d="M563.92,192.46c-1.91-2.1-3.57-3.53-5.81-4.91l-9.52,5.22c4.77.58,9.39,2.25,9.66,7.11.07,1.24-1.95,2.35-3.19,2.69-.97.27-2.59-.2-3.66-1.08l-6.11-5.04c-2.03-1.67-5.24-1.83-6.79-.07,5.59,5.41,12.36,9.22,19.79,9.79,2.73-3.69,6.28-8.89,8.76-7.72.69.32,1.9,1.67,1.71,2.42l-.96,3.72,7.27-4.61c3.99-2.53,8.16-5.44,11.43-3.27.75.49,1.83,2.52,1,3.24-3.39,2.9-7.98,3.07-12.22,2.23l-7.02,3.98,5.86.41c.87.06,2.13,1.31,2.39,2.06.34,1.01-.64,2.44-1.83,2.89-3.65,1.37-7.33.1-9.57-3.04-.64-.89-1.95-1.13-2.97-.83-3.76,1.13-7.24,0-11.42-.86,1.52,2.55,4.32,4.7,4.6,7.91-1.21,1.17-3.46.8-4.59.25-1.64-.81-2.8-2.37-3.16-4.08l-1.16-5.47c-.34-1.62-2.88-2.81-4.32-3.48l2.45,7.18c.2.6-.16,1.9-.59,2.32s-1.81.68-2.47.56c-2.5-.44-4.21-2.4-4.18-4.99l.07-5.61c.04-3.08-2.26-4.89-5.18-5.35l-5.23-.82c2.14,3.63,4.06,7.26,1.35,8.88-3,1.8-5.96-4.52-8.04-9.46-.86-2.03-2.06-3.32-3.99-4.49-3.97-2.4-5.25-4.84-4.23-4.92.29-.02,1.03,0,1.32.16l9.05,5.16c2.5,1.42,5.16,1.07,6.86-1.23l3.6-4.89c1.29-1.75,3.36-2.26,5.33-1.52.87.32,2,1.27,2.28,2.12.88,2.68-2.93,5.54-6.1,7.9,4.99-.08,9.92-1.76,13.88-5-.79-5.03-2.67-11.06,1.81-12.01,1.98-.42,3.7.75,4.49,2.69.99,2.47.08,4.76-1.36,6.96l8.19-4.1c1.88-.94,2.81-2.35,2.85-4.44l.11-5.63c.03-1.49,1.11-2.9,2.4-3.42,1.17-.47,3.51-.61,4.13,1.05,1.15,3.06-.15,6.83-2.56,9,1.56-.63,3.39-1.28,5.22-1.43l7.41-.6c1.89-.15,3.09-1.89,3.44-3.51.45-2.08,2.4-3.33,4.36-2.97.72.13,1.82,1.1,2.01,1.71.82,2.63-2.54,4.15-5.84,5.71,4.31,1.36,8.17.24,12.61,1.44,1.74.47,3.89,2.52,3.17,4.33-.59,1.48-3.07,1.21-4.25.56l-6.56-3.59c-3.08-1.68-6.99-1.47-10.49-.88,4.72,1.85,8.69,7.19,7.01,9.55-.89,1.24-2.84,1.68-4.23,1.43-3.87-.67-4.38-6.72-8.64-10.1l-11.22,5c2.71.64,4.74.82,6.72,2.19,1.66,1.15,3.46,4.11,2.4,5.98-1.61,2.84-5.56,1.76-7.52-.4h-.02ZM521.82,193.19c.2,1.92,2.16,2.66,3.22,6.71.09.36.68.87.94,1.03.75.47.29-5.77-4.16-7.73ZM533.34,189.46l3.49-3.23-.82-.7c-.23-.19-1.26.34-1.48.6l-3.69,4.54c.94.08,1.74-.51,2.5-1.21h0ZM550.37,185.03c2.39-2.05,1.52-3.95-.06-5.79-.41.62-.81,1.73-.81,2.31l.87,3.48h0ZM568.61,172.04l-1.09-.74c-1.2,1.79-2.35,3.5-.69,5.86l1.77-5.13h0ZM567.16,190.14c-1.29-2.02-2.97-2.7-5.05-2.71,1.36,1.67,3.08,2.9,5.05,2.71ZM548.46,196c1.58,1.33,3.22,2.08,5.24,2.35-1.9-2.6-4.51-4.06-5.24-2.35ZM582.75,186.58c-.06-2.75-1.54-4.93-4.24-5.56.61,2.33,1.83,4.77,4.24,5.56ZM540.01,203.48c-2.29,2.14-.65,4.87,1.5,5.91-.3-1.93-.75-3.85-1.5-5.91ZM551.76,211.97c-.77-2.19-1.74-3.28-3.2-3.86-.31,2.26,1.52,3.77,3.2,3.86ZM565.77,201.55c-2.46.45-3.6,1.67-3.52,3.59,1.75-.77,3.2-2.13,3.52-3.59ZM573.86,209.42c-1.76-1.53-3.75-1.9-5.5-1.2,1.86,1.15,3.74,1.55,5.5,1.2Z"/>
  <path d="M593.41,196.21c-.15.88-.61,1.7-1.02,1.98s-1.74.15-2.09-.25c-.74-.85-1.66-2.95-1.16-3.85.38-.69,2.25-.98,2.91-.74.74.27,1.55,1.73,1.36,2.85Z"/>
  <path d="M585.02,168.2c.21,1.59-.7,2.71-1.84,2.95-.95.2-2.27-.63-2.69-1.68-.38-.92.45-2.28,1.58-2.8.48-.22,1.32-.37,1.71-.26.47.13,1.16,1.21,1.24,1.79h0Z"/>
  <path d="M484.24,167.19c2.14-1.99,6.17-2.72,7.53.25.9,1.96-1.15,4.75-2.9,5.76-2.09,1.19-4.12,1.19-6.88,1.6l10.74,5.95c4.54-3,5.56-8.98,9.48-9.32,1.41-.12,3.31.48,4.09,1.79,1.47,2.49-2.95,7.47-7.81,8.91,3.44.89,7.32,1.43,10.53.02l6.85-3.01c1.22-.54,3.72-.6,4.18.93.56,1.86-1.76,3.72-3.54,4.04-4.52.81-8.28-.64-12.69.35,3.15,1.85,6.37,3.65,5.32,6.19-.25.59-1.43,1.46-2.15,1.53-1.98.19-3.81-1.22-4.09-3.34-.21-1.64-1.26-3.48-3.13-3.79l-7.33-1.24c-1.81-.31-3.58-1.11-5.08-1.87,2.21,2.37,3.18,6.24,1.77,9.18-.76,1.6-3.08,1.26-4.21.69-1.24-.63-2.19-2.12-2.09-3.61l.37-5.62c.14-2.08-.67-3.57-2.45-4.67l-7.81-4.79c1.24,2.31,1.96,4.68.76,7.05-.95,1.86-2.76,2.88-4.7,2.29-4.39-1.33-1.99-7.18-.77-12.13-3.66-3.57-8.43-5.67-13.4-6.18,2.96,2.62,6.5,5.79,5.4,8.39-.35.83-1.56,1.67-2.45,1.92-2.03.57-4.05-.12-5.18-1.97l-3.16-5.18c-1.49-2.44-4.11-3.02-6.72-1.82l-9.46,4.36c-.3.14-1.04.09-1.33.05-1.01-.17.48-2.49,4.64-4.54,2.03-1,3.34-2.18,4.37-4.13,2.5-4.74,5.99-10.78,8.83-8.73,2.56,1.85.33,5.31-2.11,8.73l5.28-.36c2.95-.21,5.4-1.81,5.62-4.88l.41-5.59c.19-2.58,2.06-4.38,4.59-4.61.67-.07,2.02.31,2.41.77s.64,1.79.39,2.37l-3.06,6.94c1.5-.55,4.12-1.52,4.6-3.1l1.62-5.35c.51-1.67,1.79-3.13,3.5-3.79,1.18-.46,3.45-.63,4.55.64-.55,3.18-3.53,5.08-5.26,7.49,4.24-.49,7.8-1.32,11.45.13.99.39,2.32.27,3.03-.57,2.5-2.94,6.28-3.89,9.8-2.21,1.14.55,2,2.06,1.58,3.04-.32.72-1.69,1.86-2.56,1.85l-5.87-.09,6.65,4.57c4.29-.47,8.85.1,11.98,3.28.77.78-.49,2.71-1.28,3.14-3.45,1.88-7.35-1.38-11.11-4.24l-6.85-5.22.64,3.78c.12.76-1.2,2-1.91,2.26-2.58.95-5.66-4.53-8.06-8.45-7.45-.08-14.52,3.14-20.56,8.04,1.39,1.89,4.6,2.01,6.77.52l6.52-4.5c1.14-.79,2.79-1.11,3.74-.76,1.21.45,3.12,1.73,2.95,2.96-.68,4.82-5.44,6.08-10.24,6.25l9.04,6.03c2.35-1.18,4.14-2.46,6.22-4.39h.02ZM447.16,155.48c-.26.13-.9.6-1.02.94-1.41,3.94-3.43,4.51-3.79,6.4,4.61-1.57,5.6-7.75,4.81-7.35ZM453.51,167.54c-.7-.77-1.45-1.43-2.39-1.42l3.29,4.85c.19.28,1.18.9,1.42.73l.87-.63-3.2-3.52h0ZM470.09,173.41l-1.17,3.39c-.06.58.25,1.72.6,2.37,1.74-1.7,2.76-3.51.56-5.76h0ZM487.14,187.94l-1.32-5.26c-1.86,2.21-.87,4.02.18,5.9l1.15-.64h0ZM481.99,172.03c2.07.17,3.8-.36,5.26-2.26-1.94-.36-3.76.71-5.26,2.26ZM474.56,160.43c-2.04.09-3.74.7-5.43,1.89.58,1.76,3.31.54,5.43-1.89ZM497.78,179.84c2.75-.4,4.4-2.44,4.71-5.18-2.47.58-3.9,2.9-4.71,5.18ZM463.36,148.39c-2.24.85-4.11,3.43-2.01,5.76.93-1.99,1.55-3.86,2.01-5.76ZM470.27,150.27c1.5-.46,2.56-1.45,3.52-3.57-1.68-.05-3.63,1.29-3.52,3.57ZM483.66,154.41c-.24,1.91.79,3.22,3.2,3.88-.19-1.48-1.52-2.96-3.2-3.88ZM490,151.87c1.68.85,3.7.65,5.59-.72-1.72-.5-3.64-.26-5.59.72Z"/>
  <path d="M513.99,196.83c-.19-1.56,1.85-4.1,3.57-3.64,1.85.49,2.62,4.15,1.25,5.52-1.54,1.54-4.59-.03-4.82-1.88Z"/>
  <path d="M438.98,176.43c.04-1.41,2.37-3.37,3.75-2.84,1.93.74,1.84,4.62-.22,5.2-1.5.43-3.57-.95-3.53-2.36Z"/>
  <path d="M512.01,174.53c-.7.06-2.43-.71-2.62-1.47-.25-.99,1.19-2.79,2.13-3.41.44-.29,1.76-.08,2.08.31s.55,1.29.47,2.18c-.11,1.13-1.27,2.33-2.06,2.39Z"/>
  <path d="M498.65,196.98c-.23.54-1.17,1.4-1.66,1.41-.4,0-1.18-.36-1.58-.7-.95-.8-1.4-2.33-.79-3.12.68-.9,2.17-1.36,3.04-.91,1.04.52,1.62,1.85,1,3.33h0Z"/>
  <path d="M649.1,167.19c2.14-1.99,6.17-2.72,7.53.25.9,1.96-1.15,4.75-2.9,5.76-2.09,1.19-4.12,1.19-6.88,1.6l10.74,5.95c4.54-3,5.56-8.98,9.48-9.32,1.41-.12,3.31.48,4.09,1.79,1.47,2.49-2.95,7.47-7.81,8.91,3.44.89,7.32,1.43,10.53.02l6.85-3.01c1.22-.54,3.72-.6,4.18.93.56,1.86-1.76,3.72-3.54,4.04-4.52.81-8.28-.64-12.69.35,3.15,1.85,6.37,3.65,5.32,6.19-.25.59-1.43,1.46-2.15,1.53-1.98.19-3.81-1.22-4.09-3.34-.21-1.64-1.26-3.48-3.13-3.79l-7.33-1.24c-1.81-.31-3.58-1.11-5.08-1.87,2.21,2.37,3.18,6.24,1.77,9.18-.76,1.6-3.08,1.26-4.21.69-1.24-.63-2.19-2.12-2.09-3.61l.37-5.62c.14-2.08-.67-3.57-2.45-4.67l-7.81-4.79c1.24,2.31,1.96,4.68.76,7.05-.95,1.86-2.76,2.88-4.7,2.29-4.39-1.33-1.99-7.18-.77-12.13-3.66-3.57-8.43-5.67-13.4-6.18,2.96,2.62,6.5,5.79,5.4,8.39-.35.83-1.56,1.67-2.45,1.92-2.03.57-4.05-.12-5.18-1.97l-3.16-5.18c-1.49-2.44-4.11-3.02-6.72-1.82l-9.46,4.36c-.3.14-1.04.09-1.33.05-1.01-.17.48-2.49,4.64-4.54,2.03-1,3.34-2.18,4.37-4.13,2.5-4.74,5.99-10.78,8.83-8.73,2.56,1.85.33,5.31-2.11,8.73l5.28-.36c2.95-.21,5.4-1.81,5.62-4.88l.41-5.59c.19-2.58,2.06-4.38,4.59-4.61.67-.07,2.02.31,2.41.77s.64,1.79.39,2.37l-3.06,6.94c1.5-.55,4.12-1.52,4.6-3.1l1.62-5.35c.51-1.67,1.79-3.13,3.5-3.79,1.18-.46,3.45-.63,4.55.64-.55,3.18-3.53,5.08-5.26,7.49,4.24-.49,7.8-1.32,11.45.13.99.39,2.32.27,3.03-.57,2.5-2.94,6.28-3.89,9.8-2.21,1.14.55,2,2.06,1.58,3.04-.32.72-1.69,1.86-2.56,1.85l-5.87-.09,6.65,4.57c4.29-.47,8.85.1,11.98,3.28.77.78-.49,2.71-1.28,3.14-3.45,1.88-7.35-1.38-11.11-4.24l-6.85-5.22.64,3.78c.12.76-1.2,2-1.91,2.26-2.58.95-5.66-4.53-8.06-8.45-7.45-.08-14.52,3.14-20.56,8.04,1.39,1.89,4.6,2.01,6.77.52l6.52-4.5c1.14-.79,2.79-1.11,3.74-.76,1.21.45,3.12,1.73,2.95,2.96-.68,4.82-5.44,6.08-10.24,6.25l9.04,6.03c2.35-1.18,4.14-2.46,6.22-4.39h.02ZM612.02,155.48c-.26.13-.9.6-1.02.94-1.41,3.94-3.43,4.51-3.79,6.4,4.61-1.57,5.6-7.75,4.81-7.35ZM618.37,167.54c-.7-.77-1.45-1.43-2.39-1.42l3.29,4.85c.19.28,1.18.9,1.42.73l.87-.63-3.2-3.52h0ZM634.95,173.41l-1.17,3.39c-.06.58.25,1.72.6,2.37,1.74-1.7,2.76-3.51.56-5.76h0ZM652,187.94l-1.32-5.26c-1.86,2.21-.87,4.02.18,5.9l1.15-.64h0ZM646.86,172.03c2.07.17,3.8-.36,5.26-2.26-1.94-.36-3.76.71-5.26,2.26ZM639.42,160.43c-2.04.09-3.74.7-5.43,1.89.58,1.76,3.31.54,5.43-1.89ZM662.64,179.84c2.75-.4,4.4-2.44,4.71-5.18-2.47.58-3.9,2.9-4.71,5.18ZM628.23,148.39c-2.24.85-4.11,3.43-2.01,5.76.93-1.99,1.55-3.86,2.01-5.76ZM635.13,150.27c1.5-.46,2.56-1.45,3.52-3.57-1.68-.05-3.63,1.29-3.52,3.57ZM648.52,154.41c-.24,1.91.79,3.22,3.2,3.88-.19-1.48-1.52-2.96-3.2-3.88ZM654.86,151.87c1.68.85,3.7.65,5.59-.72-1.72-.5-3.64-.26-5.59.72Z"/>
  <path d="M603.85,176.43c.04-1.41,2.37-3.37,3.75-2.84,1.93.74,1.84,4.62-.22,5.2-1.5.43-3.57-.95-3.53-2.36Z"/>
  <path d="M676.88,174.53c-.7.06-2.43-.71-2.62-1.47-.25-.99,1.19-2.79,2.13-3.41.44-.29,1.76-.08,2.08.31s.55,1.29.47,2.18c-.11,1.13-1.27,2.33-2.06,2.39Z"/>
  <path d="M663.51,196.98c-.23.54-1.17,1.4-1.66,1.41-.4,0-1.18-.36-1.58-.7-.95-.8-1.4-2.33-.79-3.12.68-.9,2.17-1.36,3.04-.91,1.04.52,1.62,1.85,1,3.33h0Z"/>
</svg>