<?xml version="1.0" encoding="UTF-8"?>
<svg fill="#8EA4BE" id="Layer_1" xmlns="http://www.w3.org/2000/svg" version="1.1" viewBox="0 0 700.08 400.08">
  <!-- Generator: Adobe Illustrator 30.4.0, SVG Export Plug-In . SVG Version: 2.1.4 Build 226)  -->
  <path d="M468.8,250.21c-1.44,65.27-56.81,115.42-120.03,115.04-64.01-.38-117.88-51.8-118.94-116.95v-106.81c.98-65,54.29-116.32,118.13-117.16,63.3-.83,118.97,49.15,120.79,114.15l.05,111.73ZM337.65,362.26c66.77,6.8,126.94-44.46,128.86-111.82l.07-110.31c-1.17-61.59-51.75-110.83-112.29-113.32-66.31-2.73-122.35,50.22-122.34,116.83l.02,102.63c0,59.71,45.9,109.91,105.68,115.99Z"/>
  <path d="M452.7,288.16c-23.11,57.68-88.1,81.85-144.89,60.52-27.86-10.47-49.69-31.58-61.01-59.06-5.26-12.77-8.55-25.62-9.36-39.58-2.13-36.7-2.34-72.89.03-109.61,1.43-22.12,9.02-42.7,21.44-60.63,19.84-28.64,51.31-45.02,85.97-46.48,38.55-1.63,74.33,15.65,95.87,47.78,12.58,18.77,19.76,40.2,20.9,63.16,1.69,34.1,1.85,67.35.12,101.35-.76,14.92-3.55,28.75-9.07,42.52ZM244.84,149.91c-.36,2.36-.38,4.17.33,4.32l2.77.61c15.61,1.62,30.11-8.45,35.27-23.65-7.17-5.4-10.13-14.17-7.29-21.75l3.02.15c-1,5.46.79,10.2,4.44,13.71,7.53,7.26,18.61,7.51,26.61.49,9.62-8.45,15.75-20.64,16.63-33.52.78-11.51-5.77-13.61-8.45-20.32,5.54-.33,8.93,2.83,12.37,6.22,4.55,4.5,10.5,6.48,16.49,3.02,8.49-4.91,13.9-16.28,9.81-25.97-3.29-7.79-12.17-12.98-20.75-12.91.55.74,2.56,2.23,3.58,2.62,6.02,2.32,8.86,7.35,8.6,13.92-.19,4.67-3.17,10.76-6.04,13.94-7.24.6,1.69-7.09-.92-16.06-1.46-5.03-8.72-13.03-15.27-11.74-41.18,8.15-75.65,45.46-80.21,87.45,4.5,2.41,9.78,1.62,14.14.17.72.17,1.95,2.06,1.65,2.81s-1.23,2.33-1.79,2.94c-4.09,4.46-9.29,3.71-15.09.49-.28,1.48.12,4.25,1.01,6.08,6.73,1.99,14.54,1.37,19.85-3.3,1.97-1.73,2.91-4.51,6.44-4.53-2.25,12.54-15.9,19.33-27.19,14.79ZM272.39,156.27c-8.5,5.82-18.37,7.56-28.14,4.24l.26,45.39L403.7,55.17c-13.67-8.53-28.54-12.98-44.66-14.24,8.36,8.72,9.59,20.04,4.6,30.23-5.21,10.8-16.23,16.7-28.16,14.18-.06,26.71-21.69,56.07-48.36,47.54-1.36,9.89-6.5,17.76-14.73,23.39ZM366.88,134.83c4.54-12.85,15.17-21.35,29.06-21.46-3.91-7.71-3.68-16,.43-23.37,5.85-10.48,16.11-16.75,27.85-18.28l-13.83-11.68c-4.75,4.7-7.8,8.35-11.24,13.17l-32.5,45.55c-12.93,18.13-24.71,35.84-36.04,55.91l48.96-1.94c-13.04-7.55-17.86-23.24-12.68-37.9ZM428.24,135.84c1.13,6.6,6.4,10.69,12.68,10,5.34-.58,10.1-3.33,13.67-7.45-1.49-14.87-5.1-29.09-12.07-41.99-7.56-1.49-17.52.85-21.6,7.79l-6.43,15.03c-4.39-12.94,2.4-27.61,15.53-29.61,2.28-.35,4.45-.99,6.65-2.21-6.87-1.78-13.33,0-19.17,3.16-7.99,4.32-11.56,12.97-9.01,22.41-7.23-1.56-7.31-13.98-3.03-19.75,5.49-7.4,13.58-11.52,22.76-12.96-3.7-1.32-7.66-.72-11.61.75-10.62,3.95-18.06,13.04-18.14,24.59-.08,11.61,11.48,9.98,8.77,19.03-4.84-3.3-9.78-4.75-15.11-3.63-12.72,2.65-21.9,13.62-22.47,26.6,1.23,6.7,4.3,12.34,8.52,17.54,6.74,2.17,13.56,3.37,20.39,2.04,10.6-3.97,17-12.43,21.15-23.35,5,3.32,5.85,13.14,15.46,13.21,4.39.03,8.91-2.04,12.13-4.95-5.19,1.06-9.47,2.23-14.29-.04-7.5-3.54-9.94-12.57-7.03-20.77,1.16,1.36,2.01,2.94,2.29,4.58ZM330.34,139.65c10.01-9.9,19.35-19.15,26.6-30.87l-89.08,88.65c22.69-17.86,42.1-37.64,62.48-57.78ZM403.54,171.98l50.6-3.14.1-13.04c-4.88,3.48-8.2,6.27-13.06,8.16-8.37,3.26-16.75.92-21.94-8.14-3.69,7.73-8.41,12.07-15.7,16.16ZM400.97,247.01c6.61-12.66,18.32-21.17,32.26-22.84,7.56-.62,14.36.69,21.19,5.37l-.26-52.63-72.84,79.53c6.38.62,11.64,2.25,16.71,4.88.27-5.12,1.12-9.5,2.93-14.32ZM397.16,183.34l20.65-.78,8.61-.49c3.42-.2,6.16-.14,9.57-1.46-4.55-.56-8.99.09-13.82.26l-19.44.68-23.85.93-22.88.54.48.73,40.68-.4ZM315.22,286.91c-4.69,12.88-16.25,21.08-28.7,24.6-6.8,1.39-12.31.36-19.75-1.62,8.29,9.98,17.76,17.95,28.33,25.32,6.96-15.22,14.3-29,22.43-43.19l26.69-42.87,25.17-41.51-56.26.32-68.81,4.66.21,11.21c11.25-5.77,23.5-4.76,33.69,2.88,11.86-12.9,31.98-14.8,46.21-4.56,6.36,4.58,10.07,11.47,10.56,19.09-1.03,12.14-6.87,22.8-16.16,30.65-1.44,4.9-1.8,10.02-3.62,15.02ZM264.7,256.33c-1.58.09-3.31-1.77-4.69-3.13-3.95-3.88-10.09-3.62-15.43-2.03.79,10.03,2.45,19.2,5.61,29.03,4.58,14.2,18.08,25.6,33.77,24.51,15.4-1.07,26.63-15.88,26.16-30.66-.38-11.98-11.75-17.33-23.5-17.08,8.7-7.75,23.24-2.13,30.36,8.42,3.24-4.17,6.18-8.84,8-14.05,4.09-11.77-2.02-23.43-13.96-27.1-9.99-3.07-20.59-1.19-29.86,4.23,4.16,4.73,6.77,10.41,4.71,16.78-.53,1.64-3.36,3.49-5.27,4.43-3.44-4.97,1.7-10.19-6.9-16.21-7.79-5.45-16.91-8.15-25.99-4.43-2.51,1.02-4.3,3.47-3.24,6.39,8.38-5.8,18.75-3.67,25.61,3.4,4.53,4.67,7.16,11.31,3.97,17.34l-4.55-11.65c-5.02-6.12-14.3-7.45-21.35-4.88-2.66.97-4.39,3.27-3.67,6.57,4.41-3.08,9.23-4.12,13.86-1.32,3.36,2.03,7.23,5.92,6.36,11.44ZM336.2,276.65c12.22-17.11,23.9-33.83,33.66-53.4-13.06,16.05-24.3,34.09-33.66,53.4ZM389.12,320c-.75-1.74.11-5.39,1.43-7.01,3.63,5.42,6.94,10.32,12.37,13.54,4.83,2.86,10.6,2.18,14.33-1.93-9.77-.7-18.89-6.42-19.05-17.1,9.23,7.68,25.36,14.19,32.65,4.2,7.19-9.69,13.36-19.84,17.84-31.13,1.64-4.12.93-8.94-1.4-12.5-5.1-7.81-20.75-5.14-31.3.85,1.27-6.3,6.49-9.41,12.11-11.36,7.81-2.72,15.48-1.99,22.44,3.24-1.15-7.71-7.61-11.61-14.54-10.86-12.47,1.35-24,11.64-26.07,24.14-1.99-2.78-2.54-6.13-1.66-9.07,2.83-9.5,9.73-17.74,19.26-20.79s19.17.88,27.06,7.09c.01-5.55-.6-10.24-3.27-14.53-4.47-7.18-25.95-5.31-36.16,2.65-6.66,5.19-10.37,13.09-13.95,20.6-1.13,2.37-.14,5.63,1.25,7.7,4.43,6.6,1.41,12.08-.37,11.19-.4-.2-1.53-1.18-1.68-1.6l-2.78-7.97c-5.57-6.1-13.19-8.76-21.6-8.15l-50,53.09c-1.54,7.5-1.57,14.52.49,21.62s10.9,16.83,16.83,13.14c-6.36-6.05-13.32-17.43-8.63-22.36,2.4,4.65,3.82,8.29,6.98,12.34,5.13,6.58,15.42,10.76,23.31,6.54,6.47-3.46,12.13-7.77,18.51-11.74.12,5.45-3.76,8.18-6.99,12.51,7.47-2.88,12.33-9.15,17.4-15.09l-4.84-11.25ZM320.2,345.05c-2.7-7.97-4.06-12.21-4.87-19.16-4.2,4.2-8.06,8.17-12.08,13.69l16.95,5.47Z"/>
  <path d="M341.88,316.98c1.02,5.58,3.74,10.19,9.11,12.7,6.19,2.89,13.06,3.52,19.38.62,8.41-3.85,6.58-11.41,12.11-14.36,1.5,14.18-10.52,26.25-24.61,24.59-11.62-1.37-22.56-15.05-15.99-23.55Z"/>
  <path d="M388.19,293.63c-.45-7.14-6.2-12.23-13.35-12.1-4.58.08-8.74,2.41-13.31,4.06,3.81-7.94,13-11.64,20.61-9.34,5.39,1.63,8.65,6.58,9.75,11.16,1.28,5.34.23,11.1-4.36,15.16l.67-8.93Z"/>
  <path d="M378.44,270.91l-7.88.89.63-2.93c.12-.56,10.97-6.09,17.84-1.29,1.1.77,2.46,3.14,2.81,4.39s-.92,3.69-2.28,4.29c-3.16-3.17-6.63-5.86-11.12-5.35Z"/>
  <path d="M288.11,118.53c-6.43-5.1-11.29-15.62-6.34-20.87.87,7.15,4.3,13.12,10.64,16.61s13.12.94,16.55-5.12c6.75-11.92,5.5-25.61-3.81-36.11,7.22.84,12.26,6.09,13.76,12.98,2.38,10.92-.83,22.49-8.28,30.69-6.17,6.8-15.46,7.43-22.53,1.82Z"/>
  <path d="M291.1,105.57c-1.5-.8-2.62-3.39-2.65-4.88,5.24,1.4,9.98.45,13.16-4.17,2.41-3.5,3.33-7.78,3.93-11.96l2.78.54c1.87.36,2.95,13.74-5.74,20.26-3.05,2.29-7.64,2.26-11.47.21Z"/>
  <path d="M284.13,300.89c-7.94,1.1-15.41-1.19-20.16-7.36,10.64,2.39,21.15.75,29.14-6.1,4.56-3.91,6.6-10.1,4.07-15.64-1.74-3.81-4.44-6.65-7.66-10.21,3.68-.95,7.08.43,9.73,2.98,5.65,5.43,7.87,12.96,5.15,20.57-3.06,8.56-10.82,14.45-20.27,15.76Z"/>
  <path d="M318.62,254.04c-2.94,2.37-.17-11.36-9.54-18.25-5.12-3.76-11.53-3.01-17.5-.39,2.68-6.95,9.28-10,16.33-8.49,10.87,3.3,16.37,15.08,12.39,25.77l-1.68,1.35Z"/>
  <path d="M257.56,182.55c-3.92-1.74-4.92-9.96-2.82-13.4s7.81-2.56,9.74.53c3.01,4.83-.18,12.76-6.92,12.87Z"/>
  <path d="M385.21,52.95l-1.53,10.16c-2.52.7-6.14-.75-7.5-2.94-1.44-2.32-1.5-6,1.33-7.99,1.59-1.12,5.45-.42,7.7.76Z"/>
  <path d="M385.44,156.63c5.18,1.58,10.56.83,14.93-.8,2.17,6.94-11.97,9.03-18.68,4.55-8.55-5.72-9.34-20.35-2.02-28.17,3.93-4.2,9.27-6.73,15.86-5.4-3.44,6.09-12.17,6.67-16.28,17.52-1.92,5.07.56,10.57,6.19,12.29Z"/>
  <path d="M412.07,151.09c-1.67,3.57-5.38,6.86-9.16,5.22-.78-3.73,3.32-8.2,7.45-9.15,1.12-.26,2.23,2.8,1.7,3.93Z"/>
  <path d="M350.34,226.78c-.67,1.7-2.96,3.76-4.37,4-1.86.32-4.53-1.14-5.58-2.98-1.46-2.54-1.49-5.93.2-7.67,1.79-1.85,5.43-2.18,7.39-1.19,2.59,1.31,3.72,4.41,2.36,7.84Z"/>
  <path d="M294.75,313.81l-.93,8.58c-2.27,1.84-4.99,1.01-6.41-.9s-2.18-5.34.16-7.11c1.31-1,4.34-.86,7.19-.57Z"/>
  <path d="M357.69,163.5c-.77,1.97-2.8,4.02-4.22,4.36-3.86.94-8.35-4-7.55-7.5.74-3.21,7.07-6.03,10.66-3.32,1.41,1.07,2,4.19,1.11,6.46Z"/>
  <path d="M444.51,217.04c-5.3-1.54-7.88-6.91-6.25-12.05,2.91-1.82,6.46-2.01,9.44-.55,2.68,4.41,1.55,9.8-3.19,12.6Z"/>
</svg>