<?xml version="1.0" encoding="UTF-8"?>
<svg fill="#4A6381" id="Layer_1" xmlns="http://www.w3.org/2000/svg" version="1.1" viewBox="0 0 700.08 400.08">
  <!-- Generator: Adobe Illustrator 30.4.0, SVG Export Plug-In . SVG Version: 2.1.4 Build 226)  -->
  
  
  <path d="M378.44,270.91l-7.88.89.63-2.93c.12-.56,10.97-6.09,17.84-1.29,1.1.77,2.46,3.14,2.81,4.39s-.92,3.69-2.28,4.29c-3.16-3.17-6.63-5.86-11.12-5.35Z"/>
  <path d="M288.11,118.53c-6.43-5.1-11.29-15.62-6.34-20.87.87,7.15,4.3,13.12,10.64,16.61s13.12.94,16.55-5.12c6.75-11.92,5.5-25.61-3.81-36.11,7.22.84,12.26,6.09,13.76,12.98,2.38,10.92-.83,22.49-8.28,30.69-6.17,6.8-15.46,7.43-22.53,1.82Z"/>
  <path d="M291.1,105.57c-1.5-.8-2.62-3.39-2.65-4.88,5.24,1.4,9.98.45,13.16-4.17,2.41-3.5,3.33-7.78,3.93-11.96l2.78.54c1.87.36,2.95,13.74-5.74,20.26-3.05,2.29-7.64,2.26-11.47.21Z"/>
  <path d="M284.13,300.89c-7.94,1.1-15.41-1.19-20.16-7.36,10.64,2.39,21.15.75,29.14-6.1,4.56-3.91,6.6-10.1,4.07-15.64-1.74-3.81-4.44-6.65-7.66-10.21,3.68-.95,7.08.43,9.73,2.98,5.65,5.43,7.87,12.96,5.15,20.57-3.06,8.56-10.82,14.45-20.27,15.76Z"/>
  <path d="M318.62,254.04c-2.94,2.37-.17-11.36-9.54-18.25-5.12-3.76-11.53-3.01-17.5-.39,2.68-6.95,9.28-10,16.33-8.49,10.87,3.3,16.37,15.08,12.39,25.77l-1.68,1.35Z"/>
  <path d="M257.56,182.55c-3.92-1.74-4.92-9.96-2.82-13.4s7.81-2.56,9.74.53c3.01,4.83-.18,12.76-6.92,12.87Z"/>
  <path d="M385.21,52.95l-1.53,10.16c-2.52.7-6.14-.75-7.5-2.94-1.44-2.32-1.5-6,1.33-7.99,1.59-1.12,5.45-.42,7.7.76Z"/>
  <path d="M385.44,156.63c5.18,1.58,10.56.83,14.93-.8,2.17,6.94-11.97,9.03-18.68,4.55-8.55-5.72-9.34-20.35-2.02-28.17,3.93-4.2,9.27-6.73,15.86-5.4-3.44,6.09-12.17,6.67-16.28,17.52-1.92,5.07.56,10.57,6.19,12.29Z"/>
  <path d="M412.07,151.09c-1.67,3.57-5.38,6.86-9.16,5.22-.78-3.73,3.32-8.2,7.45-9.15,1.12-.26,2.23,2.8,1.7,3.93Z"/>
  <path d="M350.34,226.78c-.67,1.7-2.96,3.76-4.37,4-1.86.32-4.53-1.14-5.58-2.98-1.46-2.54-1.49-5.93.2-7.67,1.79-1.85,5.43-2.18,7.39-1.19,2.59,1.31,3.72,4.41,2.36,7.84Z"/>
  <path d="M294.75,313.81l-.93,8.58c-2.27,1.84-4.99,1.01-6.41-.9s-2.18-5.34.16-7.11c1.31-1,4.34-.86,7.19-.57Z"/>
  <path d="M357.69,163.5c-.77,1.97-2.8,4.02-4.22,4.36-3.86.94-8.35-4-7.55-7.5.74-3.21,7.07-6.03,10.66-3.32,1.41,1.07,2,4.19,1.11,6.46Z"/>
  <path d="M444.51,217.04c-5.3-1.54-7.88-6.91-6.25-12.05,2.91-1.82,6.46-2.01,9.44-.55,2.68,4.41,1.55,9.8-3.19,12.6Z"/>
</svg>