<?xml version="1.0" encoding="UTF-8"?>
<svg xmlns="http://www.w3.org/2000/svg" viewBox="122 280 81 95">
  <defs>
    <style>
      .st1 { fill: #fbac31; }
      .st2 { fill: #6487aa; }
      .st3 { fill: #0e4944; }
      .st4 { fill: #11294b; }
      .st5 { fill: #ce9a9c; }
      .st7 { fill: #2d516b; }
    </style>
  </defs>
  <path class="st2" d="M173.06,361.26l-1.45-.23-.5,1.2,1.95-.97ZM152.82,363.94c-.77-1.76-1.4-3.12-1.34-5.12-.47.46-3.34,3.22-3.05,3.65l4.39,1.47ZM184.93,336.95c-1.63-2.09-7.38-.79-9.19.78-1.04.9-3.62,4.72-3.36,6.04.16.81,1.8,2.4.55,3.59-.73.16-.86-1.78-1.27-2.38-.8-1.19-4.16-2.58-5.57-1.77l-12.17,12.95c-.44,2.25-.41,5.28,1.09,7.18.09.11,1.52,1.51,1.62,1.55.55.19,1.42-.04,2.03.04-1.08-.84-2-1.94-2.48-3.24-.24-.65-.84-1.99.04-2.36,1.13,3.34,3.49,5.74,7.33,4.76l4.62-3.05c-.13,1.35-1.02,2.18-1.95,3.05.98.46,4.42-3.29,4.52-3.76.1-.46-2.13-3.42-.75-4.41,1.15,2.5,4.24,5.34,6.71,2.68-2.34.2-4.99-1.7-4.87-4.15,1.26,1.63,5.31,3.03,7.04,2.05,1.5-.85,5.54-7.79,5.61-9.51.21-4.79-5.56-3.77-8.27-2.06.44-1.53,1.52-2.24,3-2.72,2.19-.72,3.85-.47,5.65,1.02-1.16-6.07-9.92-1.84-10.12,2.93-1.15-1.12-.14-3.28.63-4.37,2.73-3.89,6.9-4.06,10.35-.99.14-1.03-.17-3.01-.81-3.83M144.29,341.99c2.28-1.94,6.08-.16,7.44,2.19,6.37-7.63-1.39-13.48-8.9-9.26,1.23,1.29,2.39,4.18.12,5.11-.69.29-.42-2.07-.53-2.36-.58-1.51-3.48-2.96-5.07-3.02-1.46-.05-4.19.21-3.53,2.21,3.17-2.81,8.84,1,7.44,4.88-1-1.57-.42-2.91-2.47-3.87-1.68-.79-5.55-.9-4.97,1.68,2.04-1.97,4.97-.35,5.12,2.19-.89.21-.75-.56-1.37-.94-1.03-.64-2.61-.71-3.72-.24.24,2.84.79,6.14,2.05,8.74,1.01,2.08,3.28,3.78,5.61,4.39,8.06,2.08,13.23-11.91,2.79-11.69M153.31,352.23c4.23-6.94,9.17-13.52,12.92-20.73-5.08,6.36-9.09,13.57-12.92,20.73M164.77,329.8h-13.54s-17.43,1.22-17.43,1.22v2.93c2.82-1.52,5.88-1.25,8.42.69,3.55-4.2,11.33-3.62,13.54,1.62,1.03,2.46-.34,5.43-1.76,7.52-.48.71-1.56,1.5-1.77,1.89-.45.83-.52,2.62-.93,3.71-1.61,4.37-7.77,7.95-12.14,5.3.11,1.15,6.92,6.99,7.31,6.58,4.85-11.1,12.38-20.89,18.29-31.45M181.35,322.97l-25.85.97c8.5.09,17,.19,25.48-.48l.36-.49ZM185.74,335.41v-13.41l-18.29,19.99c1.56-.06,3.06.48,4.39,1.22-.33-6.67,8.5-12,13.9-7.8M185.74,320.29v-3.66c-2.27,2.56-6.32,4.22-8.51.64l-.51-.15c-.58,2.05-2.45,3.37-4.4,4.02l13.41-.85ZM138.93,328.34c6.49-5.87,13-11.81,19.02-18.16,1.53-1.62,2.97-3.59,4.5-5.25,1.47-1.6,3.43-3.02,4.51-4.87l-27.07,26.7-.97,1.59ZM179.4,298.58c-.64-1.04-2.73-.2-3.61.18-2.55,1.11-4.27,3.67-3.93,6.51.3,2.5,2.56,1.62,2.17,4.05-4.02-3.09-9.85,1.58-9.24,6.2.13.96,1.36,3.42,2.19,3.9.53.31,2.88.66,3.52.65,3.21-.06,5.63-3.06,6.59-5.87.49-.12,1.07,1.49,1.45,1.95,1.7,2.03,3.88,1.27,5.73-.13-.82-.06-1.38.41-2.32.39-2.91-.07-4.17-2.8-3.29-5.38.52.44.41,1.38.76,2.04,1.41,2.61,4.71,1.61,6.32-.26-.31-3.67-1.29-7.25-2.98-10.51-1.97-.27-4.43.29-5.53,2.07-.25.4-1.24,3.75-1.5,3.5-.71-2.66.3-5.84,3-6.88.97-.37,2.22-.21,2.85-.93-4.07-.66-8.48,1.72-7.32,6.34-1.6-.34-1.51-2.85-1.03-4.08.75-1.89,4.07-3.98,6.15-3.73M178.43,296.39l-3.35-2.88c-.3-.2-1.02.53-1.27.81-1.91,2.17-4.7,6.46-6.59,9.03-4.35,5.92-8.62,11.98-12.2,18.4l12.43-.49c.03-.41-.53-.23-.86-.47-5.83-4.42-2.48-14.31,4.76-14.16-2.68-4.77,2.22-10.05,7.07-10.24M133.8,318.09v11.46l39.26-37.19c.11-.39-.91-.81-1.22-.98-2.94-1.61-6.66-2.56-10-2.8,4.81,4.12.65,12.49-5.61,10.97.31,5.91-5.32,14.25-11.95,11.71-.22,4.7-5.97,8.71-10.49,6.83M152.09,295.91c2.39-.15,2.99,2.58,5.24,2.7,3.39.17,5.6-4.39,4.24-7.18-.7-1.44-3.61-3.43-5.33-2.83.64.57,1.52.66,2.2,1.33,1.79,1.78.91,4.57-.62,6.23l-.6-.38c.9-2.35,1.31-3.95-.86-5.71-2.02-1.64-3.4-.8-5.61-.01-8.66,3.07-15.69,11.59-16.6,20.75,1.18.67,2.45.47,3.69.02l.26.71c-1.12,1.91-2.56,1.66-4.29.72l.11,1.47c1.24.83,3.45.46,4.69-.2.97-.52,1.17-1.82,2.03-1.39-.66,2.78-4.18,4.71-6.83,3.29v1.22c3.64,1.09,7.66-1.26,9.23-4.54.81-1.69-.09-1.37-.66-2.2-.82-1.2-1.26-2.81-.75-4.21l.71-.02c-.66,3.38,3.2,5.61,6.09,4.51,3.71-1.41,7-8.22,5.3-11.88-.45-.98-1.34-1.42-1.64-2.38M157.41,286.96c16.9-1.39,29.33,11.41,30.05,27.84.33,7.44.4,16.97-.01,24.39-2.02,36.43-53.38,36.31-55.36.01-.41-7.48-.42-17.65.01-25.12.83-14.21,10.78-25.93,25.31-27.12"/>
  <path class="st2" d="M167.94,356.62c.25,5.15-5.95,8.3-9.51,3.96-.75-.92-1.56-2.78-.49-3.71.13,3.69,5.86,4.92,8.18,2.45.79-.83.84-2.35,1.82-2.69"/>
  <path class="st2" d="M169.16,353.21c1.25-4.55-2.53-6.58-6.22-4.15-.27-.89,2.19-2.22,2.98-2.38,3.66-.73,5.86,3.95,3.24,6.53"/>
  <path class="st2" d="M165.02,345.65l.14-.75c1.07-.31,1.71-.79,2.9-.71,2.54.17,2.45,2.62,1.47,2.44-1.13-1.53-2.82-1.35-4.51-.98"/>
  <path class="st2" d="M143.06,302.73c.21,3.93,5.2,6.69,7.12,2.12,1.25-2.99.81-5.76-1.26-8.21,7.21,1.44,1.96,16.44-4.64,10.85-1.02-.86-2.42-3.68-1.22-4.76"/>
  <path class="st2" d="M149.64,299.57c.8,1.69-.38,5.02-2.32,5.35-1.04.18-2.54-.2-2.54-1.45,2.66.85,4.02-1.57,4.15-3.9h.71Z"/>
  <path class="st2" d="M138.68,351.02c5.24,1.57,12.04-2.94,6.34-7.8,1.87-.72,3.82,2.16,3.87,3.8.16,5.2-6.92,7.89-10.21,4"/>
  <path class="st2" d="M145.51,336.63c2.33-4.37,7.77-1.23,7.31,3.05-.06.54-.29,2.07-1.1,1.35-.04-3.72-2.53-6.03-6.21-4.4"/>
  <path class="st2" d="M170.87,309.8c.57.58-1.56,1.52-1.93,1.85-4.16,3.64-1.35,7.05,3.39,5.47l-.15,1c-7.38,3.26-8.43-8.4-1.31-8.31"/>
  <path class="st2" d="M173.06,317.12c-.53-.52,1.11-2.23,1.82-2.19,1.13.9-1.14,2.86-1.82,2.19"/>
  <path class="st2" d="M136.64,320.08c2.79-1.09,3.32,2.72.65,3.59-1.06.06-1.51-3.25-.65-3.59"/>
  <path class="st2" d="M168.15,294.16c-2.97.17-2.37-4.12.4-2.41l-.4,2.41Z"/>
  <path class="st2" d="M158.61,332.53c1.43-.11,1.91,1.5,1.01,2.49-1.71,1.87-3.67-2.28-1.01-2.49"/>
  <path class="st2" d="M146.2,356.17l-.19,1.99-.93.23c-1.74-1.24-.85-3.01,1.12-2.23"/>
  <path class="st2" d="M161.54,317.42c.96.99-.47,3.68-2.06,2.06-1.77-1.79,1.25-2.9,2.06-2.06"/>
  <path class="st2" d="M182.51,328.87c2.6-.52,1.88,2.8.86,3.09-1.16.36-2.13-1.84-1.66-2.65.21-.22.5-.38.8-.44"/>
  <path class="st2" d="M159.77,285.13c-16.02,0-29.05,13.03-29.05,29.05v24.95c0,16.02,13.03,29.05,29.05,29.05s29.05-13.03,29.05-29.05v-24.95c0-16.02-13.03-29.05-29.05-29.05M159.77,368.66c-16.28,0-29.53-13.25-29.53-29.53v-24.95c0-16.28,13.25-29.53,29.53-29.53s29.53,13.25,29.53,29.53v24.95c0,16.28-13.25,29.53-29.53,29.53"/>
</svg>