<?xml version="1.0" encoding="UTF-8"?>
<svg xmlns="http://www.w3.org/2000/svg" viewBox="442 280 76 95">
  <defs>
    <style>
      .st1 { fill: #fbac31; }
      .st2 { fill: #6487aa; }
      .st3 { fill: #0e4944; }
      .st4 { fill: #11294b; }
      .st5 { fill: #ce9a9c; }
      .st7 { fill: #2d516b; }
    </style>
  </defs>
  <path class="st7" d="M480.2,285.98c-16.02,0-29.05,13.03-29.05,29.05v24.95c0,16.02,13.03,29.05,29.05,29.05s29.05-13.03,29.05-29.05v-24.95c0-16.02-13.03-29.05-29.05-29.05M480.2,369.52c-16.28,0-29.53-13.25-29.53-29.53v-24.95c0-16.28,13.25-29.53,29.53-29.53s29.53,13.25,29.53,29.53v24.95c0,16.28-13.25,29.53-29.53,29.53"/>
  <path class="st7" d="M477.17,289.79c-12.57,1.21-22.07,12.06-22.87,24.42-.49,7.66-.46,18.63-.01,26.3,1.72,29.63,42.67,33.78,50.49,6.33,1.99-7,1.5-22.99,1.15-30.71-.72-15.97-12.27-27.92-28.77-26.34M478.62,288.1c15.05-.85,27.88,10.9,28.77,25.85.47,7.93.53,19.62-.01,27.51-1.52,21.97-27.47,33.39-44.63,19.31-14.79-12.14-8.6-31.07-9.89-47.77,1.18-13.44,12.3-24.14,25.76-24.9"/>
  <path class="st7" d="M468.05,351.72c1.34,3.48,2.74,7.57,7.11,7.73,3.31.12,6.73-.32,10.26-.13.42.02.62.3.96-.25-.29-.44-.64-.34-1.07-.37-3.48-.25-7.05.04-10.39-.22-4.97-.39-3.56-3.43-6.04-6.26-.24-.27-.37-.6-.82-.5M477.22,343.76c-1.69.26-3.62-.26-5.19-.26-.56,0-1.1.26-1.68.27-1.63.02-6.46-.32-7.55.77-.71.71.07,2.95.78,2.84.71-.5-.31-1.32,0-1.93.74-1.52,7.97-.82,9.66-1.45,1.04-.04,2.09.04,3.14,0,.29-.01.9.18.84-.24M480.12,337c-.57-.03-.42-.08-.48.36-.13,1-.45,3.46-.2,4.3.23.78,2.54,1.7,2.85.41-.52.05-2.23.04-2.33-.59.34-1.51.35-2.96.16-4.48M483.49,335.55c-.4-.86-1.49-.41-2.17-.24l2.17.24ZM482.05,333.15c-.37-.36-1.67,1.45-1.44,1.93l1.44-1.93ZM480.11,331.94c.49-2.62.27-5.35-.12-7.96-.22,2.2-.52,4.42-.37,6.65.02.35.03,1.27.49,1.31M501.1,323.74c-1.4,0-2.02,1.5-3.3,2.37-1.03.7-2.48,1.07-3.27,1.73-1.73,1.46-1.54,3.76-4.92,3.84-1.95.05-5.77-1.27-6.61,1.23.78-.14,1.22-.82,2.06-.95,3.46-.54,6.05,1.08,9.04-1.82,1.43-1.39,1.86-1.55,3.35-2.68.79-.6,1.35-1.49,2.19-2.03-.14.91-.87,1.45-1.14,2.36-.42,1.42.3,2.58-.5,4.08-.57,1.06-1.64,1.22-2.35,1.99-.97,1.05-1,2.61-2.9,2.89-1.59.24-4.7-.55-5.89-1.67,2.59-.31,5.81-.32,7.48-2.65-1.18.47-2.05,1.04-3.33,1.37-2.04.54-4,.55-6.08.56.38,2.81,6.66,3.68,8.62,2.95,1.42-.54,1.81-1.89,2.71-2.84,1.29-1.36,3.25-1.65,3.17-4.09-.03-.94-.64-1.41-.46-2.35.13-.66,2.39-4.04,2.12-4.28M477.7,332.66c-2.22-1-4.7-1.36-6.63-2.9-3.68-2.93-2.55-2.71-7.37-3.97-1.85-.48-3.2-3.01-5.3-2.78-.24,1.26.59,2.21.9,3.33.35,1.26.6,3.62,1.17,4.62.65,1.14,2.4,1.38,3.24,2.31,1.68,1.85.99,3.85,4.49,4.2,2.98.3,3.6-1.49,5.89-2.26,1.09-.37,2.89-.67,3.98-.37l.11-.48c-1.47-.07-2.69-.04-4.1.36-2.63.74-4.48,3.39-7.57,1.54-.99-.59-1.34-2.7-2.19-3.6-.78-.83-2.42-1.18-3.24-2.07l-1.96-6.85c1.62.36,2.51,1.98,4.01,2.63,1.16.5,2.23.39,3.39.95,1.39.66,2.47,2.15,3.71,3.04,1.57,1.13,3.3,2.02,5.29,2.07.06.42-.55.23-.84.24-5.04.22-9.23-2.79-13.15-5.55-.11.45.25.57.48.84,4.05,4.82,8.67,6.93,15.05,5.16.28-.08.58-.08.63-.46M464.19,313.12c3.15,2.64,9.51,4.38,13.4,2.9,2.37-.9.74-1.94-.77-2.63-1.67-.78-2.98-.53-4.57-.98-1.96-.56-4.34-3.23-6.72-3.14-1.2.05-1.95,1.26-3.15,1.21-1.36-.06-2.68-1.82-4.23-1.22-.06,1.66,1.86,2.17,2.62,3.29.99,1.48.68,3.39,2.46,4.53,2.22,1.43,5.32.66,7.47,1.46,1.56.58,1.78,2.34,3.73,2.54,2.34.24,2.98-1.12,4.46-2.54-2.44.02-2.52,3.54-5.39,1.77-.69-.42-.83-1.09-1.37-1.52-2.42-1.96-6.27-.61-8.42-2.19-1.28-.94-2.07-3.69-3.05-5.16-.38-.57-1.22-.85-1.07-1.7.96.1,2.19,1.41,3.01,1.42.91.02,1.98-1.01,2.72-1.14,2.12-.35,4.27,2.57,6.16,3.15,2.03.62,4.84,0,6.45,2.12-5.05,1.5-9.2-.25-13.75-2.17M491.37,315.45c-2.17,2.01-5.62.65-8.17.48-1.27-.08-1.25.39-.14.88.94.41,1.97.66,2.83,1.27,1.23.87,2.71,3.24,4.11,3.61,4.07,1.07,6.89-2.62,7.24-6.28.17-1.75-.57-3.97-.18-5.49.27-1.07,3.17-2.85,2.49-3.81-1.27-1.8-5.35,2.48-6.57,3.11-.74.38-1.47.37-2.24.9-1.69,1.18-2.56,5-4.95,4.94-1.08-.03-2.5-1.08-3.51-.13,1.58.25,4.31.84,5.72-.07,1.02-.66,1.4-2.28,2.04-3.27,1.27-1.97,2.2-1.5,3.98-2.53.85-.49,4.36-4.04,5.14-2.94-.55,2.4-3.47,2.19-3.39,5.17.09,3.02,1.22,5.43-.85,8.32-2.81,3.94-6.19.49-8.55-1.8,1.09-.1,2.13.24,3.26.12,2.76-.29,3.91-3.87,3.86-6.27-.76,1.2-1.06,2.78-2.14,3.77M481.81,317.7c-.56,4.84.02,9.65.24,14.47,1.04-.82,1.8-1.88,3.13-2.3,1.68-.52,3.34-.16,4.93-.38,1.57-.22,3.67-2.59,5.13-3.56.63-.41,1.39-.5,2-.9,1.38-.9,2.93-4.22,4.7-3.98,1.9.26,0,2.94-.29,3.8-1.05,3.01-.08,7.36-2.7,9.6-.56.48-1.36.71-1.85,1.16-.38.35-.67,1.1-1.05,1.48-4.39,4.36-8.5-.68-13.51-.6l1.11,5.57c.49.35,8.82.29,10.12.23,1.09-.05,4.3-1.07,4.82-.01.46,1.6-.39,5.79-2.05,6.39-2.2-.03-4.42-.19-6.63-.12-.4.01-.8.21-1.21.24-1.77.09-3.79-.28-5.43.61l11.34.6-3.33,8.61c-.49.92-1.43,1.43-2.41,1.69-3.77,1-13.35.72-17.14-.34-.42-.12-.97-.13-1.26-.49l-5.53-10.2c2.59.44,5.23.17,7.85.23,2.3.05,5.11.76,7.35-.11-1.47-.73-3.54-.26-5.2-.35-1.6-.09-3.46-.44-5.05-.5-2.41-.09-4.8.11-7.2.2-1.33-.4-2.47-4.36-2.06-5.58.33-.99,3.22-.58,4.18-.64,4.63-.3,9.22-.69,13.88-.48l.24-6.51c-.17-.18-3.37.89-3.85,1.09-3.58,1.49-5.42,4.4-9.73,1.52-1.75-1.17-2.26-3.23-3.41-4.31-.59-.55-1.67-.68-2.38-1.24-1.74-1.36-1.16-3.76-1.39-5.61-.18-1.48-1.16-2.81-.93-4.35.14-.9.97-1.68,1.92-1.48,1.05.22,3.6,2.37,5.01,2.96,1.46.61,3.06.73,4.47,1.56,1.66.98,2.63,2.99,4.59,4.09,1.97,1.11,3.97.91,5.71,2.37l.48-13.03-2.42,2.76c-1.32.77-2.83.92-4.17.09-.78-.49-1.18-1.43-2.13-1.73-2.36-.75-4.75-.29-7.36-1.56-3.14-1.53-2.71-3.51-4.05-6.09-.53-1.02-3.22-4.14-1.1-5.18,1.61-.78,3.15,1.91,4.46,1.84,1.46-.09,2.23-2.03,4.53-1.66,2.28.37,3.31,2.94,4.78,3.44.7.24,1.32-.15,2.03-.14,1.75.03,3.89,1.33,5.19,2.43.05-2.53-.39-4.88-1.02-7.3-.08-.32-.45-.46.17-.41,1.24.58,1.98,2.99,2.04,4.25.05,1.07-.47,2.76-.47,3.83,0,.63.37,1.19.44,1.76.06.5-.44,1.35.04,1.5,1.26-1.37.36-1.93.27-3.28-.15-2.29.18-4.62-.51-6.85l1.93-.48c-.47,2.5-.04,4.97.12,7.47.93-.73,2.11-.34,3.12-.49,1.86-.28,3.16-3.1,4.59-4.33,1.41-1.22,2.39-1.21,3.82-1.97,2.03-1.07,3.45-3.61,6.21-2.74,1.8.56,1.15,3.11.43,4.32-.46.78-1.77,1.49-2.03,2.31-1.13,3.51.82,5.66-2.15,9.18-3.34,3.96-6.79,3.5-10.72.59-1.24-.92-2.04-2.51-3.63-3"/>
  <path class="st7" d="M476.26,302.99l-4.58-1.21c.64,1.26,2.54,1.26,3.81,1.38.27.02.82.29.77-.17M479.88,305.64l-1.33-1.2c-.39.23.57.72-.24.73-.98.02-2.16-.55-3.16-.71-1.07-.17-1.98.15-3.12-.25-2.03-.71-3.64-3.73-.45-4.09,1.5-.17,2.37.23,3.64.9.42.23,3.31,2.36,3.46,2.21-.38-2.04-1.08-4.24-.36-6.26.57-1.59,2.88-4.18,4.33-2.17,1.26,1.74-1.47,6.14-1.32,8.2l1.68-1.81c2.54-2.29,7.26-2.85,6.5,1.92-.22,1.36-1.12,1.89-2.33,2.25l-6.09-.06c1.59-2.69,5.14-.86,6.75-3.26-2.55,1.12-5.77.42-7.48,2.89-.18-2.69.31-5.32.72-7.96-.46-.51-1.2,1.58-1.2,1.81v6.88Z"/>
  <path class="st7" d="M468.02,299.34c-.05.06-1.42.47-1.5.46-2-.17-.61-3.57,1.05-2.98.5.32.66,2.28.45,2.52"/>
  <path class="st7" d="M475.72,324.76c.72.84-.2,3.25-1.52,2.37-2.66-1.78.81-3.19,1.52-2.37"/>
  <path class="st7" d="M459.2,339.83c-1.19-1.01-1-2.19.65-2.49,2.23-.41,1.02,3.91-.65,2.49"/>
  <path class="st7" d="M495.26,299.67c.27.26.38,1.11.27,1.47-1.04,1.41-3.06.32-2.82-1.24.61-.49,1.95-.82,2.55-.23"/>
  <path class="st7" d="M487.84,324.46l-.26,2.63c-2.89-.08-2.78-3.02.26-2.63"/>
  <path class="st7" d="M499.57,336.56c2.53-.84,2.18,2.55.56,2.04-.82-.26-1.42-1.76-.56-2.04"/>
</svg>