<?xml version="1.0" encoding="UTF-8"?>
<svg xmlns="http://www.w3.org/2000/svg" viewBox="337 280 76 95">
  <defs>
    <style>
      .st1 { fill: #fbac31; }
      .st2 { fill: #6487aa; }
      .st3 { fill: #0e4944; }
      .st4 { fill: #11294b; }
      .st5 { fill: #ce9a9c; }
      .st7 { fill: #2d516b; }
    </style>
  </defs>
  <path class="st5" d="M373.39,285.98c-16.02,0-29.05,13.03-29.05,29.05v24.95c0,16.02,13.03,29.05,29.05,29.05s29.05-13.03,29.05-29.05v-24.95c0-16.02-13.03-29.05-29.05-29.05M373.39,369.52c-16.28,0-29.53-13.25-29.53-29.53v-24.95c0-16.28,13.25-29.53,29.53-29.53s29.53,13.25,29.53,29.53v24.95c0,16.28-13.25,29.53-29.53,29.53"/>
  <path class="st5" d="M373.44,288.41c-14.68,0-26.63,11.95-26.63,26.63v24.95c0,14.68,11.94,26.63,26.63,26.63s26.63-11.94,26.63-26.63v-24.95c0-14.68-11.95-26.63-26.63-26.63M373.44,367.81c-15.34,0-27.82-12.48-27.82-27.82v-24.95c0-15.34,12.48-27.82,27.82-27.82s27.82,12.48,27.82,27.82v24.95c0,15.34-12.48,27.82-27.82,27.82"/>
  <path class="st5" d="M373.28,339.92c.97-1.19-1.27-1.65-2.17-1.94-.93-.3-6.77-1.87-7.02-.78.57,1.39,2.14,1.78,3.41,2.19,1.18.37,4.99,1.48,5.77.53M369.95,320.25c-4.28.87-8.99,1.85-12.92,3.79-.35.17-.61-.06-.49.59,2.54-.07,5.46-1.12,7.93-1.94,1.33-.44,2.93-.86,4.18-1.42.41-.18,1.43-.42,1.3-1.02M388.48,314.16c-5.23,1.08-11.04,2.34-15.61,5.12,1.42-.08,2.91-.57,4.27-.97,3.04-.89,7.62-2.22,10.42-3.47.34-.15.81-.24.91-.67M388.91,342.01l-12.72-3-2.35,3.81-12.56-3.29c-1.06-.87.45-3,.6-4.02l-7.9-2.81c-.5.09-.31,3.12-2.3,2.3-2.38-.98-2.03-9.94-.79-12,.63-1.05,2.31-1.68,2.85-.56.29.6.19,5.37.37,6.7.04.32.07,1.29.48,1.34l.39-7.34c11.66-4.54,23.62-8.17,35.7-11.43l-1.47,17.67c.24,2.81-.29,6.04,0,8.79.05.46.08,1.29.73,1.09.43-9.8.56-19.58,1.76-29.33.27-1.58,2.71-1.75,3.85-1.26,1.72.73,1.27,8.43,1.23,10.25-.08,4.21-.66,21.69-2.64,24.43-1.58,2.19-4.41.65-5.24-1.33"/>
  <path class="st5" d="M371.9,363.41c.26-.24-1.58-2.28-2.19-1.95-.35.31,1.83,2.29,2.19,1.95M378.73,360.98c-.84-.03-1.7-1.28-2.44-.37l2.31.85.12-.49ZM370.19,357.8c-.83-.02-2.33-.19-2.44.97.14.11,2.67-.14,2.44-.97M361.66,359.26c.09-.41.12-3-.73-2.44-.46.3-.08,2.29.73,2.44M388.97,356.58c.15-.55-1.09-1.51-1.46-1.21.3.58.69,1.28,1.46,1.21M358.49,352.68c-1.27-.4-1.44,2.23-.97,2.68.45.43.4-.16.48-.36.14-.36.69-2.11.49-2.32M380.44,352.19c.03,1.14-.24,2.49.61,3.41.79,0,.76-3.48-.61-3.41M365.8,353.9c-.04-.73-.6-2.9-1.58-2.68-.51.11-.23.37-.14.61.23.59,1.13,1.7,1.72,2.07M373.61,353.41c.28-.31-.9-2.61-1.7-2.44-.13.14.86,2.68,1.7,2.44M387.02,350.97l-.37-.97-1.09.61,1.46.36ZM378.48,345.37c-.99-.5-2.83,2.08-1.82,2.19.18.02,2.23-1.77,1.82-2.19M368.97,344.63c-1.32-.19-1.04,1.65-1.71,2.43,1.48.21,1.85-1.19,1.71-2.43M353.37,343.9c-.87-.88-.23,1.96-.23,2.08-.03.81-.67,1.71-.13,2.3,1.17-.49.89-3.85.36-4.38M361.42,344.63c-.07-2.27-2.84.25-4.14.12,1.29,1.1,2.72-.66,4.14-.12M369.95,360.48c.99,1.16,3.61,1.39,3.06,3.41-1.19,1.32-3.51-.12-4.24-1.38-.36-.62-.57-2.23-.83-2.46-.2-.18-1.8-.59-2.36-.93-1.31-.78-2.3-1.81-3.43-2.79.24,1.18,1.56,6.49-1.1,4.39-2.49-1.96-.02-4.52-.13-6.2-.04-.64-.94-1.99-1.33-2.57.15,1.49-.27,7.13-2.81,4.27-2.37-2.67,3.35-5.06.87-8.19-.39-.5-1.54-1.07-2.09-1.56-.42-.38-.56-.88-.97-1.1.28,1.19.56,4.39-1.12,4.64-2.53.37-1.11-5.76-1.35-7.42-.14-1.01-2.42-4.05-1.31-4.53.48-.21,2.42,3.95,2.94,4.37,2.81,5.21,6.74-3.17,9.37,1.62.39,2.65-4.63,2.34-4.64,2.67,2.22,1.21,4.83,1.62,7.33,1.23.21-.15,1.1-3.3,1.63-3.98,1.65-2.15,4.53-.02,2.86,2.62-.51.81-1.49,1.06-2.06,1.71,1.44-.5,4.81.21,5.86-.1,2.1-.62,2.31-5.45,5.05-4.35,2.42.97.04,3.4-1.26,4.22-.46.29-1.07.05-1.11.47,2.56-.47,5.58,2.91,7.74,2.01.59-.24.95-1.08,1.7-1.24,2.16-.44,3.06,2.33.44,2.64-.85.1-1.54-.18-2.32-.13,1.38,2.09,5.69,2.69,5.83,5.39.05,1.04-.47,1.39-1.44.94-1.06-.49-2.14-3.35-3.17-4.39-.87-.88-3.22-2.5-4.4-2.43,2.01,1.19,3.04,7.19-.43,5.79-2.6-1.05-.54-4.97-2.08-6.82l-6.28-.55c1.67,1.21,3.31,2.35,2.91,4.73-.34,2.03-2.52,1.43-3.36-.02-.44-.76-.98-4.47-2.11-4.47h-5.24c1.22.93,2.69,1.84,2.91,3.56.21,1.67-.17,2.63-2.04,2.28-2.7-.51-1.65-7.29-5.99-6.81,1.01,3.54,3.15,7.16,6.26,9.21,1.28-.39,4.3-2.25,5.52-1.43,1.12,1.5-.11,2.03-1.06,2.94,2.29.53,10.02-1.81,10.21,1.83.1,1.96-3.36.68-4.35.24-.45-.2-1.95-1.34-2.08-1.34h-4.02Z"/>
  <path class="st5" d="M361.42,310.98c-.14-.12-3.18.43-3.41.97.16.17,4.27-.22,3.41-.97M353.37,311.96c0-.78.07-1.99-.73-2.44.44.62-.19,2.58.73,2.44M366.78,309.28l-2.19-1.22,1.59,1.95.6-.73ZM371.9,307.82c.29.27,2.21,3.08,2.44,1.82.08-.47-1.75-2.1-2.44-1.82M381.41,308.54c-.3-.92-.98-1.32-1.95-1.22-.17.79,1.58,1.49,1.95,1.22M358.98,307.32c1.32-.18,1.25-1.95,1.22-2.92l-1.22,2.92ZM386.29,304.64c-.21-.7-1.53-1.49-1.95-.6-.27.57,1.69.62,1.95.6M375,305.06c.53-.62.95-2.07.56-2.85-.46.55-1.09,2.14-1.22,2.8-.05.26-.03.54.25.24.13-.06.32-.09.41-.2M367.51,305.37c1.44-.37,2.6-1.95,2.44-3.41l-2.44,3.41ZM380.44,303.91c.78-.13.99-2.17.36-2.19l-.36,2.19ZM383.36,300.74l.72-.38v-.47s-.35-.36-.35-.36l-.35.37v.84ZM388.97,298.31c-.86.1-1.81.36-2.19,1.21l2.19-1.21ZM369.95,297.81c.71-.42,3.44,1.13,3.66.12.2-.92-3.29-1.18-3.66-.12M364.1,296.84v3.41c1.31.16.76-4.29,0-3.41M377.27,294.15c.78-.09,1.83.31,2.43-.36,0-.67-2.27-.19-2.43.36M373.12,292.45c-.4-.36-1.76,1.42-1.46,1.95.96-.2,1-1.24,1.46-1.95M372.88,294.64c1.53-.3,7.13-3.18,7.93-1.21.42,1.03-1.45,1.68-2.21,1.71-2.23.08-4.34-1.17-6.69.85-.7.61,1.05.14,1.46.21,2.62.49,1.83,2.98-.39,3.3-1.4.2-2.45-.61-3.9-.49-2.79.23-5.62,5.61-7.42,7.58l4.09-.3c.75-.39,1.99-3.87,2.63-4.56,1.91-2.06,4.48.56,1.33,3.28-.63.54-1.39.8-1.95,1.34,1.26-.05,5.11.32,5.55-1.15.27-.88-.09-1.82.57-2.84,1.05-1.6,3.27-.91,3.38.92-.27,1.28-1.51,1.87-2.43,2.57,1.17-.2,4.6-.23,4.84-1.64.13-.76-.68-2.41.2-3.01,1.78-1.21,2.56,1.73,1.3,2.94.24.21,2.15-1.1,2.31-1.46.64-1.44-1.84-2.32-.51-3.92,1.49-.83,1.72.88,1.97,1.97.77-1.76,2.77-3.82,4.77-2.76,1.25,1.83-2.89,2.02-3.68,2.63-.49.38-1.1,1.93-1.7,2.44,3.23-.59,3.74,3.76.41,2.75-.45-.14-.73-.77-1.17-1.03-1.55-.9-2.99,1.24-4.61,1.08.43.41,1.24.39,1.87.69,1.55.74,2.78,2.91.42,3.21-2.58.33-2.63-2.97-3.99-3.3-.42-.1-4.45.49-4.16.87,1.71.06,3.36,3.28,1.04,3.62-1.68.24-2.44-2-3.36-2.89-1.67-1.62-3.39-.8-5.49-.72.11.42.77.3,1.21.62,2.53,1.83.61,3.81-1.33,2.55-1.05-.68-1.63-2.76-3.31-2.55-1.13.14-3.58,2.11-4.37,3.04,1.23-.4,4.54-1.6,5.07.18,1.04,3.52-5.39,1.15-6.72,1.71-1.03.44-3.11,4.92-3.84,4.93-1.08-.85.42-2.07.5-2.79.19-1.77-2.79-6.37.29-6.93,1.9-.34,1.95,2.41,1.65,3.62.56-1.09,2.43-2.06,2.91-2.94.73-1.35.57-4.09,1.59-4.99,1.08-.96,2.66-.38,2.46,1.11.07.09.26-.14.37-.24.22-.21,1.75-2.23,1.78-2.37.23-1.03-2.82-7.32,1.13-6.66,1.64.28,1.4,2.72,1.23,3.9,1.33-1.69,4.24-2.82,4.89-4.87.17-.52.04-1.06.18-1.53.96-3.33,5.26-1.56,1.89,1.52"/>
  <path class="st5" d="M390.74,305.31c-.73-.74-.61-3.05,1.36-2.46,2.94.87-.09,3.76-1.36,2.46"/>
  <path class="st5" d="M391.95,349.81c.45-.87,2.79-.55,2.59.74-.21.69-1.22,1.79-1.99,1.61-.76-.2-.87-1.83-.6-2.35"/>
  <path class="st5" d="M355.62,337.14c.51-.49,1.86-.34,2.1.35.28.93-.42,1.52-1.11,2l-.57-.08c-.39-.51-.96-1.75-.42-2.27"/>
  <path class="st5" d="M363.55,315.43c.59.79-.05,1.48-.68,2.02-1.16.54-1.64-1.53-1.18-2.29l1.86.27Z"/>
  <path class="st5" d="M384.75,360.41l-.69.2-.54-.42c-.18-.54-.42-1.91.24-2.12,1.72-.11,1.99,1.15.99,2.35"/>
  <path class="st5" d="M356.25,303.37c-1.49.78-2.49-2.7-.38-2.34,1.37.23.93,2.05.38,2.34"/>
  <path class="st5" d="M385.52,344.43c.9,1.41-1.36,3.17-2.07.82,0-.93,1.71-1.39,2.07-.82"/>
  <path class="st5" d="M378.27,297.35c.34-.52,2.51-.2,1.81,1.19-.71,1.42-2.36-.34-1.81-1.19"/>
</svg>