<?xml version="1.0" encoding="UTF-8"?>
<svg xmlns="http://www.w3.org/2000/svg" viewBox="232 280 76 95">
  <defs>
    <style>
      .st1 { fill: #fbac31; }
      .st2 { fill: #6487aa; }
      .st3 { fill: #0e4944; }
      .st4 { fill: #11294b; }
      .st5 { fill: #ce9a9c; }
      .st7 { fill: #2d516b; }
    </style>
  </defs>
  <path class="st3" d="M267.21,362.22c1.13-2.58,4.17-3.72,5.37-6.34-1.4,1.64-4.8,3.61-5.49,5.6-.08.23-.32.79.13.74M261.36,357.83c-.06-2.37-1.76-4.15-3.65-5.36.16,1.3,1.6,1.97,2.3,2.94.52.73.71,1.81,1.35,2.42M277.7,357.83l2.68-8.05c-1.31,1.92-2.26,5.02-2.81,7.3-.06.24-.32.8.13.74M252.09,354.42c.14-2.3-.15-4.91-1.95-6.58l1.95,6.58ZM285.5,351.49l2.2-8.53c-1.03.98-1.49,2.57-1.84,3.89l-.36,4.64ZM245.03,346.01c-.17-1.13.12-2.6,0-3.78h-.24v4.51c0,.09.65,1.54.97,1.58.14-.78-.64-1.72-.73-2.32M243.8,321.26c-.29-3.73,3.16-7.5,1.34-10.97l-.19,2.98c-.39,2.01-1.58,4.11-1.65,6.17-.01.36.1,1.63.49,1.81M288.67,316.63v-5.97s-.22-.95-.49-.85c.42,1.8-.32,3.44-.26,5.25.02.52-.04,1.76.75,1.57M250.39,309.07c2.66-1.91,2.12-4.79,2.92-7.56-1.23,1.04-1.08,3.02-1.53,4.44-.35,1.1-.94,2.07-1.39,3.12M280.62,308.09c-.52-2.7.86-5.99-2.19-7.56.35.96,1.14,1.58,1.35,2.67.32,1.62-.43,3.69.84,4.89M274.28,303.95c-.39-1.2-1.54-2.49-2.43-3.41.33,1.35,1.32,2.63,2.43,3.41M261.85,297.85c-.63-.16-.57.4-.76.81-.49,1.02-.61,2.14-1,3.15-.48,1.25-1.13,2.37-1.65,3.59,2.78-1.72,2.79-4.68,3.41-7.56M262.34,294.19c-2.56.75-5.86-1.4-7.8.73,1.11-.19,2.17-.25,3.3-.25,1.45,0,3.18.68,4.5-.47M272.82,292c-1.36.2-1.96,1.03-3.48.68-.42-.1-1.61-1.28-1.63-.32,1.48,1.57,3.63.83,5.12-.36M266.24,365.15h3.54c11.67,0,22.01-13.3,22.8-24.27.55-7.76.52-19.78.01-27.56-.21-3.17-1.16-6.83-2.48-9.71-.41-.9-2.84-5.1-3.43-5.48-.16-.1-.4-.23-.74-.58-.32-.33-.43-.41-.66-.81-.71-1.25-4.35-3.77-5.7-4.55-3.97-2.28-8.04-3.27-12.6-3.62.59,4.95,4.55,1.85,7.08,2.06,1.07.09,3.18.94,3.61,2,.59,1.46-2.36-.62-2.72-.59-1.69.1-4.13,4.17-6.75,1.65,1.84,3.23,6.88,2.54,10.05,3.23,2.56.56,5.76,2.82,7.21,4.98,1.01,1.5,1.1,2.68,1.8,4.06.59,1.17,1.98,2.39,2.54,3.56,2,4.16-1.14,9.16-.38,13.43-.66.11-.42-.12-.55-.53-.79-2.44-2.36-8.41-2.4-10.81-.02-1.65.47-3.19.2-5.06-.59-4.08-5.53-8.52-9.69-8.47,1.01.75,2.21,1.24,3.17,2.07,4.65,4.02.73,7.26,2.68,11.95-.45,1.62-3.54-4.17-3.7-4.59-1.04-2.64-.98-6.13-2.89-8.33-1.5-1.72-3.08-1.53-5.12-2.08,3.31,2.56,3.59,6.49,5.85,9.63.42.97-1.59-.53-1.78-.66-4.35-2.98-4.2-5.32-6.47-9.38-.94-1.69-2.55-2.81-2.6-4.96-.61,2.46-2.77,3.46-3.27,6-.46,2.34,0,4.19-1.29,6.52-1.41,2.56-4.47,3.01-5.93,5.53l-.35-.59,4.62-10.87c-1.29.88-4.19.99-5.22,1.97-1.41,1.33-.65,3.98-.89,5.69-.39,2.76-3.88,4.63-5.47,6.73-.65.12-.33-.67-.25-.99.3-1.26,1.37-2.87,1.85-4.25.65-1.89.94-3.88,1.7-5.73-1.81.58-5.73,4.1-5.81,5.96-.05,1.06.79,2.64.92,3.69.31,2.67-1.36,6.29-2.01,8.92-.23.93-.36,3.59-.77,4.11-.25.31-.25.27-.49,0-.7-.76-1.47-8.77-1.31-10.09.25-2.13,4.18-9.61,5.71-11.12,4.13-4.09,10.01-4.43,14.51-7.68-1.13.12-2.11.74-3.29.85-2.19.21-4.25-.97-5.97.25.63-8.01,12.27.57,13.16-8.05-4.48.35-8.56,1.26-12.51,3.46-7.14,3.99-12.53,12.06-13.11,20.3-.57,8.12-.58,21.17,0,29.28.82,11.32,11.99,23.84,23.78,23.53.37,0,.72.16.61-.37-1.48-1.89-2.84-3.56-4.89-4.86-4.68-2.96-8.59-1.79-12.27-6.99-.42-.59-.86-2.02-1.19-2.35-.36-.35-1.08-.31-1.61-.95-1.7-2.08-1.51-11.67-1.27-14.61.03-.42-.04-.81.38-1.08l1.55,7.71c2.08,4.48.55,9,4.91,12.41.19.15.48.65.73.24-1.74-2.7-1.75-6.17-2.64-9.31-.04-.15-.51-.86.08-.8.37.04,3.81,5.49,4.04,6.2.62,1.88.02,3.37.35,5.26l6.46,2.68c.29-.29-3.29-6.35-3.49-7.37-.44-2.22,1.3.26,1.78.66,1.18,1,3.04,1.86,3.86,3.21.9,1.48.6,2.81,1,4.36.41,1.55,1.67,3.18,2.57,4.5.87-4.77,5.07-7.33,7.92-10.86.36-.45,1.68-2.74,1.83-2.8.38-.16.58-.14.59.35.04,1.17-.93,4.95-1.48,6.09-1.07,2.22-3.16,3.39-4.85,5.03,1.44-.74,5.25-1.22,6.23-2.18,1.25-1.23,1.91-5.13,2.61-6.9.36-.93,2.83-6.98,3.11-7.25.34-.33.46.02.49.37.1,1.02-.58,2.57-.71,3.69-.4,3.45,0,6.05-2.71,8.87,2.15-.72,5.17-3.7,5.69-5.89.34-1.45.18-3.2.44-4.68.71-4.03,4.07-7.23,5.56-10.97l.75-.15c.02,1.78-1.11,3.25-1.55,4.91-.63,2.39-.49,5.19-1.26,7.52-1.12,3.4-5.88,8.75-8.97,10.53-4.23,2.43-9.66,2.03-12.84,5.81M264.24,287.19c14.95-1.19,28.75,10.06,29.81,25.15.57,8.18.57,21.1,0,29.28-2.16,31.04-48.3,34.23-54.52,3.29-1.43-7.11-1.1-23.95-.6-31.58.9-13.69,11.48-25.05,25.31-26.14"/>
  <path class="st3" d="M282.33,316.38c-6.02-.28-11.55-2.62-15.85-6.83-.85,1.9-3.71,3.56-5.53,4.59-3.18,1.78-6.81,3.49-10.56,2.48.12,4.18-.16,8.39-.01,12.57.06,1.62.14,6.11.77,7.27.21.38,1.63,1.94,2.03,2.36,1.68,1.77,12.3,10.42,14.11,10.42,3.17,0,13.07-10.85,14.81-13.95l.23-18.91ZM248.93,314.67c6.9.2,12.94-3.3,18.17-7.49,3.97,3.68,9.13,5.9,14.42,6.98l2.66-.22c.69,7.02-.08,14.04.1,21.09-3.33,7.2-9.93,12.96-17.22,15.93-7.08-3.22-14.22-8.29-18.31-14.99-.35-7.09-.52-14.21.19-21.28"/>
  <path class="st3" d="M266.61,299.43c.45,0,1.09.21,1.11.74l-1.11,1.84c-.86,0-1.95-2.58,0-2.58"/>
  <path class="st3" d="M244.74,328.37c.1.48.13,1.17-.18,1.57-1.32,1.72-3.24-2.95.18-1.57"/>
  <path class="st3" d="M288.93,330.51l-.4-1.95c2.38-1.16,2.53,1.83.4,1.95"/>
  <path class="st3" d="M266.5,355.87c-.35-.64-.83-2.08.34-2.07,2.18.03.48,2.58-.34,2.07"/>
  <path class="st3" d="M268.19,345.64c.84-.15,1.78-1.01,2.44-1.58,2.01-1.73,8.72-8.03,9.22-10.31-.12-2.56-.36-5.17-.45-7.73-.08-2.33.38-5.05-.36-7.2l-.63,4.02.69,11.16c-3.13,4.3-7.29,7.76-10.91,11.64M280.87,317.36c-.4,5.75.55,11.58.24,17.38-2.57,2.91-4.67,5.95-7.56,8.59-.64.59-5.98,5.15-6.59,4.51v-36.33c3.76,3.49,8.77,5.48,13.9,5.85"/>
  <path class="st3" d="M254.05,333.94v-11.34c0-.24-.57-1.77-.49-1.83,4.22-.22,8.99-2.12,11.46-5.61-.44-.35-2.48,1.67-2.99,2.01-2.85,1.86-5.23,2.61-8.66,2.92-.56.98-.05,1.83-.04,2.75.03,3.11,0,6.42.24,9.51.03.33.11,1.48.48,1.59M266.48,312.48l-.12,34.87c-5.4-3.25-10.13-7.6-14.37-12.21l-.14-16.69c3.38.34,7.1-.96,9.98-2.7.52-.31,4.44-3.48,4.65-3.27"/>
  <path class="st3" d="M266.58,285.13c-16.02,0-29.05,13.03-29.05,29.05v24.95c0,16.02,13.03,29.05,29.05,29.05s29.05-13.03,29.05-29.05v-24.95c0-16.02-13.03-29.05-29.05-29.05M266.58,368.66c-16.28,0-29.53-13.25-29.53-29.53v-24.95c0-16.28,13.25-29.53,29.53-29.53s29.53,13.25,29.53,29.53v24.95c0,16.28-13.25,29.53-29.53,29.53"/>
</svg>