<?xml version="1.0" encoding="UTF-8"?>
<svg id="Layer_1" xmlns="http://www.w3.org/2000/svg" version="1.1" viewBox="0 0 1355 1847.71">
  <!-- Generator: Adobe Illustrator 30.4.0, SVG Export Plug-In . SVG Version: 2.1.4 Build 226)  -->
  <defs>
    <style>
      .st0 {
        fill: #49596d;
      }
    </style>
  </defs>
  <path class="st0" d="M1300.01,1215.07c-9.28,346.85-309.96,607.52-643.79,596.14-342.95-11.71-612.84-297.68-605.08-644.02l.28-499.71C51.64,323.8,317.28,43.1,657.57,31.95c333.95-10.92,632.98,250.93,642.49,595.46,5.32,194.17,5.26,389.07,0,587.65h-.06ZM697.02,1799.16c319.86-9.73,585.9-269.89,592.24-591.28l-.28-576.28c-8.89-336.55-299.09-598.58-630.32-587.71C321.81,54.99,61.88,331.33,61.88,667.37v508.82c0,349,281.66,633.78,635.14,622.97h0Z"/>
  <path class="st0" d="M289.44,1610.88c-155.18-136.39-194.62-319.12-195.87-518.72-.51-78.72,1.75-154.38,6.17-233.1l1.36-246.91c.68-128.86,65.82-248.55,151.84-341.19C405.74,106.37,639.24,44.8,851.8,113.62c239.67,77.59,396.83,298.01,404.41,548.61,5.38,177.76,7.75,350.48-.4,528.23-7.58,165.87-74.7,316.75-201.24,424.22-139.1,118.16-323.09,167.97-502.88,130.22-99.09-20.77-185.17-66.21-262.31-134.07l.06.06ZM1213.82,1243.99c8.94-74.98,13.3-147.37,14.03-223.71,1.25-128.35.17-252.68-10.02-380.47-7.3-91.91-35.82-176.74-80.36-255.12-92.7-163.1-260.27-259.08-447.08-263.66-131.75-3.23-256.14,36.22-357.72,121.62-121.96,102.43-195.58,249.4-203.17,410.18-9.05,191.56-11.43,378.21,3.34,569.21,10.3,133.5,67.01,257.38,163.83,348.16,153.37,143.8,377.41,186.7,574.81,116.69,192.92-68.42,318.44-241.03,342.5-442.89h-.17Z"/>
  <path class="st0" d="M489.27,1370.98c-63.89-7.02-125.3.23-187.04.62-31.24-27.67-43.41-74.36-40.52-116.58.62-9.22,19.24-15.34,28.24-15.39,55.52-.51,106.73-2.94,161.74-7.19,65.14-3.96,127.45-5.26,192.87-4.19l4.87-136.44c-55.23,11.26-103.45,31.69-149.63,61.74-71.14,44.37-149.18,8.83-185.06-62.93-12.68-25.41-31.47-41.88-57.89-50.76-61.4-20.66-37.29-96.6-50.99-145.22-10.64-37.92-31.24-77.47-.51-101.58,10.92-8.6,31.24-7.87,42.9-.06l51.73,34.63c24.45,16.36,51.33,29.31,80.76,35.48,99.89,20.94,96.15,103.05,201.92,125.86,22.75,4.92,42.1,13.75,66.84,27.22l9.9-266.78c-19.64,18.11-33.33,40.01-51.44,53.88-38.77,29.65-86.3,12.39-114.54-21.84-34.63-41.99-204.13,7.98-240.86-126.26-18.62-68.02-85.23-124.22-49.8-154.95,21.39-18.51,48.44.96,74.36,22.3,18.51,15.22,39.11,16.41,57.67-.4,35.6-32.2,83.87-30.28,116.69,6.23,54.89,61.01,56.08,41.99,91.4,41.82,40.97-.23,76.63,23.6,111.6,48.67.34-57.33-10.81-109.39-24.84-164.12,32.43,11.71,36.9,40.41,50.08,68.76l-3-40.69,39.16-8.66c-5.04,50.37-2.21,101.19,4.13,152.12l59.25-5.09c55.8-4.81,76.85-90.09,133.33-111.66,38.77-14.83,71.31-32.48,102.09-60.04,21-18.85,47.08-27.5,75.04-21.73,13.47,2.77,26.94,15.11,28.92,27.5,7.3,45.33-16.02,73.51-46.86,101.75-18.17,16.64-20.32,57.27-18.11,81.61,5.49,61.4-14.32,109.96-58.57,150.14-36.62,33.22-83.76,48.39-132.48,30.96-43.58-15.56-80.87-41.31-110.98-76.63-10.53-12.34-24.28-20.66-39.84-27.9-6.06,64.68-5.38,124.73-1.41,188.62l7.02,113.52,24.33-20.6c21.5-18.17,43.8-29.77,73-31.52,72.27-4.36,76.12,11.77,145.39-50.03,23.32-20.83,45.33-31.58,73-45.5,41.48-20.94,69.1-107.92,119.64-78.44,11.77,34.24-25.3,57.21-31.75,131.86-6.06,70.06-7.92,132.71-71.48,162.02-7.98,3.68-18.56,13.64-22.98,21.17-41.99,72.04-117.09,65.93-191.62,33.39-34.69-14.32-67.06-24.67-107.02-27.05l23.2,118.56c74.53,4.64,150.25,11.21,225.58,1.02l67.18-9.11c6.68-.91,23.37,7.24,24.22,14.32,4.92,39.33-3.4,82-23.37,115.39-8.26,13.81-21.62,18.51-36.62,18-41.2-1.47-80.81-3.79-121.45-1.13l-67.01,4.36c-23.77,1.53-45.73-2.49-66.16,10.87l229.71,13.19-73.8,187.83c-9.9,25.18-44.26,29.31-67.06,36.28-118.39,13.7-253.08,12.68-369.32-18.11l-119.81-220.48c81.72,7.87,151.84.23,237.91,9,28.58,2.89,55.46,1.13,81.61-6.56-17.32-6.73-33.96-9.39-50.37-8.26-44.99,3.06-85.91-1.41-132.99-6.56l-.11-.23ZM1036.85,543.09c18.9-34.41,67.51-56.2,45.16-78.04-15.28,58.23-83.08,55.29-73.4,124.67l7.24,67.23c5.43,50.37-14.49,89.59-49.01,127.39,115.9-73.97,47.14-199.77,70-241.31v.06ZM953.21,534.15l10.41.45,75.21-59.54-7.02-2.32-78.61,61.35v.06ZM678.29,694.76c25.92-13.7,10.75-32.65,10.02-49.24l-5.26-118.84-4.19,54.55c-1.47,18.9-10.64,40.97-5.04,59.76,5.6,18.79,6.11,35.03,4.47,53.82v-.06ZM431.66,713.72l-57.61-5.72c-31.92-3.17-55.8-18.45-70.06-46.75l-38.77-77.08c-17.54-16.3-29.99-33.16-23.37-35.77l14.6-5.72c-12.9-5.6-27.96-9.73-43.75-8.66-2.55,46.01,57.44,41.43,71.42,111.03,8.15,40.41,39.56,68.7,81.78,71.82l69.67,5.15c82.85,6.17,74.98,65.99,123.54,59.76-53.88-21-33.16-58.91-127.45-68.19v.11ZM466.29,664.65l-96.83-29.88c51.95,36.95,113.52,50.54,176.4,54.5,38.2,2.43,97-12.05,100.56-30.05,3.9-19.69-53.71-46.8-101.36-50.08-31.24-2.15-57.16-12.85-82.23-30.33-44.88-31.35-86.81-58.8-127.67-29.03-16.3,11.88-33.22,14.09-57.55,8.77,40.35,49.07,70.4-38.71,133.67,4.98l69.1,47.82c32.82,22.69,112.05-.57,151.55,52.01-54.78,15.73-111.43,18-165.7,1.3h.06ZM867.42,619.66c11.04-28.18,27.05-51.78,48.78-70.4-62.76,23.37-63.61,140.63-154.84,101.92-8.77-3.74-23.15-4.87-32.26,4.41,61.69,8.49,116.01,20.94,138.31-35.88v-.06ZM950.21,792.95c-64.97,6.28-99.77-35.77-143.4-76.51l50.08,2.09c68.48,2.89,98.3-56.08,100.06-125.3l-22.01,45.44c-30.16,62.19-90.89,55.23-158.23,43.24-20.03-3.57-38.71-5.77-57.95-.34,25.47,19.35,52.06,21.28,75.38,37.12,51.05,34.58,72.78,109.34,156.14,74.25h-.06ZM573.25,783.16c35.2-.34,52.74-26.77,71.42-49.86-18.39,4.19-31.8,14.66-43.35,28.86l-28.07,21h0ZM230.75,841.05c47.14,11.66,58.57,56.37,117.37,64.06,32.31,4.24,59.76,18.9,82.17,42.78,41.31,44.14,91.45,71.25,152.91,80.47-111.32,18-197.68-46.07-290.77-103.73,77.36,109.9,204.35,158.8,332.82,108.49l-70.17-26.66c-39.73-15.11-74.31-35.43-105.49-64.74-26.15-24.62-55.91-40.75-91.91-47.37-75.61-13.92-84.78-63.95-140.8-68.99-2.83,24.45,7.41,37.46,14.15,57.33,20.88,61.57,11.49,116.24,60.84,136.33,75.1,30.5,49.01,98.36,119.13,110.92,29.71,5.32,62.42,1.41,86.7-18.79,39.73-33.05,83.87-36.67,137.12-40.58-56.14-13.36-107.02,10.24-154.16,36.95-32.37,18.34-76.46,20.09-102.21-9.11-21.73-24.62-15.11-56.37-60.84-82.79l-45.44-26.32-41.48-148.16.06-.11ZM950.66,1116.49c-48.44,6.34-93.89-6-133.9-34.13l79.29-11.71c26.94-3.96,53.88-16.75,72.21-37.24-38.82,13.36-72.95,29.48-112.68,31.01l-77.31,3c16.58,51.39,98.81,68.25,157.61,65.59,57.1-2.6,53.08-52.46,117.15-93.6,28.24-18.11,38.99-49.69,24.73-80.08-7.24-15.39-2.49-33.11,5.21-47.08l38.26-69.38c-37.75.45-43.58,44.37-109.34,69.38-54.95,20.88-52.29,63.1-97.96,95.3,16.3-1.81,32.77-10.92,45.84-21.56l84.1-68.65,44.37-40.8c-2.09,29.77-31.13,39.67-24.73,91.28,3.85,31.13-8.72,57.89-36.28,72.49-41.09,21.79-41.6,71.65-76.57,76.17h0ZM675.12,1011.57c9.17-56.31,6.9-100.39-1.87-148.84-6.68,45.73-8.21,85.79-8.6,131.46,3.34,7.13,7.53,14.6,10.47,17.37h0ZM785.19,1012.87l66.21-3.06-51.39-6.9-33.39,5.09c-10.47,1.58-23.88,14.43-21.56,22.47,12.45-5.32,29.94-17.2,40.12-17.66v.06ZM719.43,1233.52c-18.62-1.64-41.14-2.89-47.08-14.43,3.51-34.18,11.43-66.33-1.53-100.17-8.83,33.73-15.28,70.06-6.56,101.92,5.66,20.77,46.35,26.49,55.18,12.68ZM326.85,1320.22c-1.98-5.49-4.07-16.02-1.64-20.15,20.26-34.35,161.4-12.62,221.33-35.54-29.99-5.83-56.71.51-85.62,1.25l-114.66,2.89c-13.02.34-32.88,8.6-39.05,18.9-9.68,16.07,2.83,43.41,13.3,51.73,2.38,1.87,11.66-4.07,10.7-6.79l-4.36-12.22v-.06ZM809.86,1585.18c-53.48-5.77-101.58-3.68-151.89-5.32l-106.96-3.4c-40.52-1.3-66.16-28.98-78.66-65.53-9.85-28.75-21-57.55-48.67-75.83,27.28,86.7,67.51,165.36,159.36,162.48l164.8-5.15c20.37-.62,43.01,11.88,62.03-7.3v.06Z"/>
  <path class="st0" d="M679.93,442.47c-2.6-57.05,6.28-109.39,15-168.59-21.9,13.7-23.49,37.75-23.49,60.5l-.11,126.09-24.28-21.67c-8.26,26.99-44.09-7.13-123.94-6.45-30.45.28-58.46-24.5-66.21-52.69-4.36-15.9,5.09-29.99,19.18-34.52,32.14-10.41,66.27-4.13,94.57,14.32l70.97,46.18c-13.41-77.87-26.43-146.91,42.67-188.28,9.17-5.49,28.81-4.58,37.18,1.13,42.56,29.26-14.37,120.09-19.18,181.21,33.5-37.8,64.35-67.97,114.15-72.16,15.11-1.25,34.58,2.72,44.71,12.28,11.21,10.58,14.94,26.71,16.19,44.59,2.26,32.14-18.11,68.25-55.12,68.14l-127.16-.34c29.26-55.06,102.6-24.16,135.6-63.21l-76.57,13.92c-28.69,5.21-50.2,16.19-73.97,39.67l-.17-.11ZM591.76,404.9c-29.37-9.9-54.56-16.64-87.72-23.26,8.09,11.94,21.28,18.9,33.22,19.69l54.5,3.57Z"/>
  <path class="st0" d="M421.3,321.82c-5.77,9.85-33.73,16.64-43.97,11.09-15.05-8.15-11.83-28.64-6.11-40.86,6.56-14.09,20.88-27.39,41.03-19.41,7.36,9.17,12.62,32.37,9.05,49.12v.06Z"/>
  <path class="st0" d="M571.72,914.85c-19.01,10.24-45.33-12.62-41.99-32.65,3.34-20.03,36.84-32.71,52.46-18.85,13.19,11.71,7.24,41.93-10.47,51.44v.06Z"/>
  <path class="st0" d="M1001.09,364.83c-10.41,15.79-28.01,15.17-40.07,9.56-12.05-5.6-26.77-22.35-16.58-38.37,7.53-11.83,37.01-14.43,50.54-6.17,7.3,4.47,11.04,27.45,6.11,34.92v.06Z"/>
  <path class="st0" d="M250.73,1187.91c-19.98,4.41-38.6-22.3-33.22-39.5,5.38-17.2,35.48-27.22,48.9-14.43,14.49,13.75,5.89,49.18-15.68,53.93h0Z"/>
  <path class="st0" d="M834.37,912.08c-7.87.68-22.98-1.81-32.6-6.06-8.66-3.79-16.24-21.17-11.77-31.01,9.34-20.66,33.67-21.73,50.2-17.83l-5.83,54.89Z"/>
  <path class="st0" d="M1113.08,1157.23c-14.09,2.21-24.28-4.47-28.58-10.41-4.81-6.62-8.49-24.84-3.45-30.33,6.96-7.58,26.65-8.43,36.45-3.34,5.15,2.72,10.07,15.39,10.19,21.22.11,6.62-7.92,21.79-14.66,22.86h.06Z"/>
</svg>