<?xml version="1.0" encoding="UTF-8"?>
<svg fill="#D4A843" id="Layer_1" xmlns="http://www.w3.org/2000/svg" version="1.1" viewBox="0 0 700.08 400.08">
  <!-- Generator: Adobe Illustrator 30.4.0, SVG Export Plug-In . SVG Version: 2.1.4 Build 226)  -->
  <path d="M455.84,248.24c-1.31,59.77-52.67,105.08-110.28,103.52-59-1.6-106.1-50.55-104.97-110.22l.03-86.87c.02-59.44,46.25-107.97,105.05-109.53,57.72-1.53,108.79,43.98,110.17,103.4v99.7ZM346.39,349.63c56.89,1.24,105.87-43.96,107.35-101.12.87-33.45.85-66.59,0-100.01-1.47-57.96-51.51-103.07-108.53-101.21-58.02,1.89-102.78,49.51-102.78,107.35v87.7c0,58,45.15,106.01,103.95,107.28Z"/>
  <path d="M294.74,328.83c-65.89-40.95-41.58-120.46-45.97-186.55,4.74-36.73,28.91-68.04,63.19-81.91,14.36-5.81,29.22-7.58,44.75-6.45,30.21,2.2,57.23,17.43,74.46,42.36,10.57,15.29,17.22,32.9,18.4,51.78,2.16,34.27,2.46,68.16-.02,102.38-2.93,40.32-29.58,74.94-67.32,88.53-29.3,10.55-60.92,6.37-87.5-10.14ZM396.33,325.87c23.84-12.3,39.74-33.97,45.07-59.66,1.31-6.32,1.99-12.04,2.34-18.52,1.76-32.5,1.7-64.42.11-97.02-1.07-21.98-8.79-42.03-23.45-58.43-17.8-19.91-42.88-32.09-69.73-32.59-51.9-.96-94.37,40.35-96.62,91.88-1.41,32.25-1.78,63.96.15,96.27.81,13.66,3.52,26.24,9.34,38.51,23.13,48.8,85.49,63.97,132.8,39.57Z"/>
  <path d="M396.37,301.72l.41,8.88c.13,2.86-1.76,5.72-4.56,6.97-9.86,4.41-20.24,7.79-31.23,8.66-15.07,1.2-30.03-1.37-43.95-6.92-3.97-1.58-8.37-3.61-10.96-6.85-2.02-2.52-.9-7.37-.36-10.65l23.93,4.22c4.99.88,9.97.67,14.84-1.45l-13.37-1.22c-15.74-1.44-30.67-6.86-43.88-15.18-3.52-2.22-4.16-5.43-3.75-9.37l.89-8.56c-4.98.34-9-.05-12.31-3.48-7.8-8.1-6.2-22.01,3.57-28.02,7.23-4.45,16.6-3.72,23.07,1.49,4.77,3.84,5.18,9.7,2.89,15.61l36.53-2.37c8.4-.55,16.39-.79,24.76-.1,22.06,1.8,37.72-3.14,55.59-2.17,7.02.38,6.06,19.81.44,31.98-5.15,11.15-22.15,14.93-34.62,16.99-11.58,1.91-23.1,1.65-35.1,4.87,8.49,2.74,17.11.37,25.33-.64l21.86-2.68ZM290.17,255.34c1.42,2.29,4.97,2.78,5.97.9-.9-1.08-1.92-3.11-1.58-4.65,1.07-4.82-2.65-8.66-7.38-8.42-5.46.28-10.86,3.25-12.33,8.77-.57,2.13,1,4.64,2.73,5.83s3.91,1.78,5.88.68c-2.86-2.76-4.52-5.26-3.49-8.22s4.3-4.39,7.49-3.76c2.69.54,5.04,3.91,3.87,6.69l-2.71.4c-.41.06,1.32,1.39,1.55,1.76ZM350.54,261.46l18.2-.78,18.38-.85c6.47-.3,12.57.31,19.26-1.29-4.66-1.16-9.29-.24-14.12,0l-16.2.8-13.91.72-12.77.66-14.35.54.43.67,15.08-.46ZM416.92,258.07c-.39-.18-2.58.19-2.72.83l-4.08,18.59c-.88,4.01-4.25,6.78-5.68,10.54,10.96-4.41,12.79-18.27,12.48-29.96ZM396.93,283.67c-30.44,2.58-61.25,5.21-91.05-1.12-5.42-1.15-10.08-4.69-16.47-3.58,6.43,4.66,13.97,6.8,21.61,8.53,19.76,4.48,39.82,6.01,59.96,4.14,9.24-.86,18.14-2.48,25.94-7.97Z"/>
  <path d="M332.08,166.25c3.93-2.75,3.69-15.63,11.35-18.12-1.55,4.79-3.16,9.35-5.21,14.17-6.9,16.2.04,34.36,4.46,27.56,5.78-8.9,2.96-19.37,6.89-25.47,3.41-5.3,5.79-10.07,7.06-16.25.59-2.89,2.59-5.4,5.7-6.48l5.74,15.37-1.33,4.32c-1.52,4.95.06,8.8,4.78,10.88l2,77.42-45.76,1.85-1.23-81.37,5.55-3.88ZM361.29,162.86c1.91-3.33,1.49-6.75-.52-10.12-.97,3.07-1.1,6.53.52,10.12ZM360.96,242.96l-1.56-37.06c-.58-13.88-.41-27.38-3.3-40.75l.44,31.81c.21,15.45-.1,30.64,4.42,46ZM368.2,239.32l.09-40.82c.02-7.51-1.22-14.42-3.1-21.9-.43,1.07-.41,2.27-.36,3.68l1.91,54.31,1.46,4.73ZM353.9,229.03l-2.07-41.16c-.18-3.64-.67-7.17-2.14-10.39l2.47,63.45.07,1.61c.01.26,1.24-1.03,1.25-1.29l.41-12.21ZM335.45,218.35c-.25-7.59-2.66-19.18-2.19-19.81.06-.08-.98.65-1.47.98.11,15.12-.49,30.15,2.77,45.69.76-8.88,1.19-17.58.89-26.86ZM342.83,242.62c3.46-14.23.59-27.5-1.33-40.37.01,13.95.18,27.35,1.33,40.37Z"/>
  <path d="M344.26,176.89c-.47,8.07-2.9,13.05-4.21,11.53-.37-.42-1.02-1.63-1.09-2.23-2.34-20.5,8.79-32.9,6.1-38.39-1.28-2.61-5.43-1.04-6.48.94l-5.91,11.09c-1.59,2.98-3.09,5.39-6.25,7.39-1.65-2.04-3.12-4.8-2.96-7.25l.83-13.09,4.72-3.9c1.52-1.26,2.38-2.69,2.39-4.85l-7.44,4.9c-2.91-4.48-1.65-10.06,3.26-12.72,5.3-2.89,10.67-3.89,17.35-4.52l.91-5.87c-6.02-.88-9.11-4.73-10.72-8.91-4.52-11.71,5.4-17.12,10.54-28.1,2.72-5.81,5.15-11.16,8.59-16.8,2.38,3.63.17,5.65.08,8.5-.18,5.54,2.33,10.87,5.16,15.51,4.56,7.5,3.46,15.7-2.29,22.04-3.39,3.74-6.08,7.03-8.24,12.62l17.64,1.71c3.27.32,7.55,1.6,9.93,3.85,4.37,11.51,4.3,37.18-3.38,38.94-3.52.81-4.78-4.36-3.55-6.88,1.53-3.13,1.16-6.28-.5-9.17-1.79-3.57-3.01-7.07-3.51-11.08-2.62-2.64-6.53-1.73-8.93,1.24-1.82,3.65-3.39,7.36-4.82,11.29-1.43,3.96-3.35,7.02-5.54,10.78-1.69,2.9-1.47,7.79-1.68,11.43ZM353.64,102.11l-8.12,6.4c-2.15-7.52,4.7-11.82,4.77-19.11-5.52,8.46-11.25,13.86-5.82,23.49,3.92-2.84,7.01-5.79,10.43-9.26l-1.25-1.52Z"/>
  <path d="M265.7,228.28c1.15-4.5,2.61-8.18,4.9-11.7,9.09-13.97,18.65-27.25,29.16-40.18,4.52-5.56,9.4-9.96,15.06-14.3-.12,2.9-.69,5.47-2.11,7.93-10.82,18.83-22.01,37.11-34.73,54.58-2.92,4.01-7.32,6.3-12.29,3.67Z"/>
  <path d="M433.71,238.53c-3.27,1.57-5.86-.34-7.79-2.79-9.24-11.72-17-24.11-24.56-37.1-5.53-9.49-10.13-19.02-14.03-29.37,2.36-1.3,3.29.14,4.54,1.85,12.88,17.7,25.02,35.35,35.97,54.29,2.34,4.16,4.05,7.78,5.87,13.13Z"/>
  <path d="M432.8,195.31c-2.86-.25-5.2-2.36-6.91-4.32-12.97-14.85-24.84-30.21-35.94-46.51-2-2.93-2.81-5.82-2.38-9.6,3.17,1.67,5.43,3.38,7.68,5.88,13.94,15.49,26.24,31.94,37.77,49.33.83,1.25,1.01,4.78-.23,5.22Z"/>
  <path d="M274.59,177.71c-2.58,2.08-5.07,2.88-8.22,2.77.13-1.99.8-4.36,2.29-6,11.85-13.1,24.9-24.47,39.3-34.72,1.75-1.25,3.37-1.96,6.22-2.44-2.61,4.7-5,9.76-8.88,13.66-9.61,9.66-19.89,18.01-30.7,26.73Z"/>
  <path d="M278.63,140.07c-3.95,1.78-7.51,2.25-11.46,1.95.95-2.98,2.61-5.31,5.35-6.92,15.66-9.17,32-16.57,49.77-20.81-1.87,4.28-5.32,5.39-8.33,7.59-11.5,6.6-22.92,12.6-35.33,18.19Z"/>
  <path d="M427.82,141.46c.43.74,1.42,3.18.8,3.23l-2.93.22c-15.33-7.55-29.84-16.23-43.27-26.89l-1.09-2.56c-.3-.7,2.29-1.1,3.18-1.1,16.08,6.01,30.63,15.12,43.3,27.09Z"/>
  <path d="M398,238.48c-.51,1.8-5.74-4.1-7.69-10.92-2.38-8.32-4.07-16.13-5.53-24.61-.52-3.04-.11-6.51,1.71-9.47,7.31,13.29,10.65,27.93,12.13,42.79l-.63,2.21Z"/>
  <path d="M416.27,103.3l-24.04,1.22c-7.88.4-15.56-.71-22.77-3.91,16.15-5.23,33.46-3.34,49.35.23-.53,1.64-1.44,2.41-2.54,2.46Z"/>
  <path d="M328.21,104.45c-14.65,1.08-36.83,5.69-48.71-2.07,14.79-3.49,29.33-3.18,43.78-1.03,1.92.29,3.55,1.04,4.93,3.11Z"/>
  <path d="M309.97,226.9l-2.5,2.37c-.6.57-1.85-2.03-2.11-3.01,1.04-12.58,3.65-24.53,7.78-36.35l2.37-2.02c.52-.44,1.78,1.35,2.15,2.13-.71,12.78-3.04,24.72-7.7,36.88Z"/>
  <path d="M325.85,92.44c.64,3.28-9.07.05-16.87-6.88-2.11-1.88-3.39-4.75-3.29-7.6,7.73,1.97,13.92,6.35,19.54,11.32l.62,3.16Z"/>
  <path d="M365.58,84.05c-3.27-6.52,10.69-12.79,18.59-14.47.32,5.97-11.06,12.29-18.59,14.47Z"/>
</svg>