<?xml version="1.0" encoding="UTF-8"?>
<svg fill="#6B8494" id="Layer_1" xmlns="http://www.w3.org/2000/svg" version="1.1" viewBox="0 0 700.08 400.08">
  <!-- Generator: Adobe Illustrator 30.4.0, SVG Export Plug-In . SVG Version: 2.1.4 Build 226)  -->
  <path d="M456.21,245.12c-1.64,61.29-54.77,107.35-113.76,105.34-60.6-2.07-108.29-52.6-106.92-113.8l.05-88.3c.04-60.73,46.98-110.33,107.11-112.3,59.01-1.93,111.85,44.34,113.53,105.22.94,34.31.93,68.75,0,103.84ZM349.66,348.33c56.52-1.72,103.53-47.69,104.65-104.48l-.05-101.83c-1.57-59.47-52.85-105.77-111.38-103.85-59.52,1.96-105.45,50.79-105.45,110.17v89.91c0,61.67,49.77,111.99,112.23,110.08Z"/>
  <path d="M277.64,315.06c-27.42-24.1-34.39-56.39-34.61-91.66-.09-13.91.31-27.28,1.09-41.19l.24-43.63c.12-22.77,11.63-43.92,26.83-60.29,27-29.08,68.26-39.96,105.82-27.8,42.35,13.71,70.12,52.66,71.46,96.94.95,31.41,1.37,61.93-.07,93.34-1.34,29.31-13.2,55.97-35.56,74.96-24.58,20.88-57.09,29.68-88.86,23.01-17.51-3.67-32.72-11.7-46.35-23.69ZM440.98,250.23c1.58-13.25,2.35-26.04,2.48-39.53.22-22.68.03-44.65-1.77-67.23-1.29-16.24-6.33-31.23-14.2-45.08-16.38-28.82-45.99-45.78-79-46.59-23.28-.57-45.26,6.4-63.21,21.49-21.55,18.1-34.56,44.07-35.9,72.48-1.6,33.85-2.02,66.83.59,100.58,1.82,23.59,11.84,45.48,28.95,61.52,27.1,25.41,66.69,32.99,101.57,20.62,34.09-12.09,56.27-42.59,60.52-78.26Z"/>
  <path d="M312.95,272.67c-11.29-1.24-22.14.04-33.05.11-5.52-4.89-7.67-13.14-7.16-20.6.11-1.63,3.4-2.71,4.99-2.72,9.81-.09,18.86-.52,28.58-1.27,11.51-.7,22.52-.93,34.08-.74l.86-24.11c-9.76,1.99-18.28,5.6-26.44,10.91-12.57,7.84-26.36,1.56-32.7-11.12-2.24-4.49-5.56-7.4-10.23-8.97-10.85-3.65-6.59-17.07-9.01-25.66-1.88-6.7-5.52-13.69-.09-17.95,1.93-1.52,5.52-1.39,7.58-.01l9.14,6.12c4.32,2.89,9.07,5.18,14.27,6.27,17.65,3.7,16.99,18.21,35.68,22.24,4.02.87,7.44,2.43,11.81,4.81l1.75-47.14c-3.47,3.2-5.89,7.07-9.09,9.52-6.85,5.24-15.25,2.19-20.24-3.86-6.12-7.42-36.07,1.41-42.56-22.31-3.29-12.02-15.06-21.95-8.8-27.38,3.78-3.27,8.56.17,13.14,3.94,3.27,2.69,6.91,2.9,10.19-.07,6.29-5.69,14.82-5.35,20.62,1.1,9.7,10.78,9.91,7.42,16.15,7.39,7.24-.04,13.54,4.17,19.72,8.6.06-10.13-1.91-19.33-4.39-29,5.73,2.07,6.52,7.14,8.85,12.15l-.53-7.19,6.92-1.53c-.89,8.9-.39,17.88.73,26.88l10.47-.9c9.86-.85,13.58-15.92,23.56-19.73,6.85-2.62,12.6-5.74,18.04-10.61,3.71-3.33,8.32-4.86,13.26-3.84,2.38.49,4.76,2.67,5.11,4.86,1.29,8.01-2.83,12.99-8.28,17.98-3.21,2.94-3.59,10.12-3.2,14.42.97,10.85-2.53,19.43-10.35,26.53-6.47,5.87-14.8,8.55-23.41,5.47-7.7-2.75-14.29-7.3-19.61-13.54-1.86-2.18-4.29-3.65-7.04-4.93-1.07,11.43-.95,22.04-.25,33.33l1.24,20.06,4.3-3.64c3.8-3.21,7.74-5.26,12.9-5.57,12.77-.77,13.45,2.08,25.69-8.84,4.12-3.68,8.01-5.58,12.9-8.04,7.33-3.7,12.21-19.07,21.14-13.86,2.08,6.05-4.47,10.11-5.61,23.3-1.07,12.38-1.4,23.45-12.63,28.63-1.41.65-3.28,2.41-4.06,3.74-7.42,12.73-20.69,11.65-33.86,5.9-6.13-2.53-11.85-4.36-18.91-4.78l4.1,20.95c13.17.82,26.55,1.98,39.86.18l11.87-1.61c1.18-.16,4.13,1.28,4.28,2.53.87,6.95-.6,14.49-4.13,20.39-1.46,2.44-3.82,3.27-6.47,3.18-7.28-.26-14.28-.67-21.46-.2l-11.84.77c-4.2.27-8.08-.44-11.69,1.92l40.59,2.33-13.04,33.19c-1.75,4.45-7.82,5.18-11.85,6.41-20.92,2.42-44.72,2.24-65.26-3.2l-21.17-38.96c14.44,1.39,26.83.04,42.04,1.59,5.05.51,9.8.2,14.42-1.16-3.06-1.19-6-1.66-8.9-1.46-7.95.54-15.18-.25-23.5-1.16ZM409.71,126.38c3.34-6.08,11.93-9.93,7.98-13.79-2.7,10.29-14.68,9.77-12.97,22.03l1.28,11.88c.96,8.9-2.56,15.83-8.66,22.51,20.48-13.07,8.33-35.3,12.37-42.64ZM394.93,124.8l1.84.08,13.29-10.52-1.24-.41-13.89,10.84ZM346.35,153.18c4.58-2.42,1.9-5.77,1.77-8.7l-.93-21-.74,9.64c-.26,3.34-1.88,7.24-.89,10.56s1.08,6.19.79,9.51ZM302.77,156.53l-10.18-1.01c-5.64-.56-9.86-3.26-12.38-8.26l-6.85-13.62c-3.1-2.88-5.3-5.86-4.13-6.32l2.58-1.01c-2.28-.99-4.94-1.72-7.73-1.53-.45,8.13,10.15,7.32,12.62,19.62,1.44,7.14,6.99,12.14,14.45,12.69l12.31.91c14.64,1.09,13.25,11.66,21.83,10.56-9.52-3.71-5.86-10.41-22.52-12.05ZM308.89,147.86l-17.11-5.28c9.18,6.53,20.06,8.93,31.17,9.63,6.75.43,17.14-2.13,17.77-5.31.69-3.48-9.49-8.27-17.91-8.85-5.52-.38-10.1-2.27-14.53-5.36-7.93-5.54-15.34-10.39-22.56-5.13-2.88,2.1-5.87,2.49-10.17,1.55,7.13,8.67,12.44-6.84,23.62.88l12.21,8.45c5.8,4.01,19.8-.1,26.78,9.19-9.68,2.78-19.69,3.18-29.28.23ZM379.77,139.91c1.95-4.98,4.78-9.15,8.62-12.44-11.09,4.13-11.24,24.85-27.36,18.01-1.55-.66-4.09-.86-5.7.78,10.9,1.5,20.5,3.7,24.44-6.34ZM394.4,170.53c-11.48,1.11-17.63-6.32-25.34-13.52l8.85.37c12.1.51,17.37-9.91,17.68-22.14l-3.89,8.03c-5.33,10.99-16.06,9.76-27.96,7.64-3.54-.63-6.84-1.02-10.24-.06,4.5,3.42,9.2,3.76,13.32,6.56,9.02,6.11,12.86,19.32,27.59,13.12ZM327.79,168.8c6.22-.06,9.32-4.73,12.62-8.81-3.25.74-5.62,2.59-7.66,5.1l-4.96,3.71ZM267.27,179.03c8.33,2.06,10.35,9.96,20.74,11.32,5.71.75,10.56,3.34,14.52,7.56,7.3,7.8,16.16,12.59,27.02,14.22-19.67,3.18-34.93-8.14-51.38-18.33,13.67,19.42,36.11,28.06,58.81,19.17l-12.4-4.71c-7.02-2.67-13.13-6.26-18.64-11.44-4.62-4.35-9.88-7.2-16.24-8.37-13.36-2.46-14.98-11.3-24.88-12.19-.5,4.32,1.31,6.62,2.5,10.13,3.69,10.88,2.03,20.54,10.75,24.09,13.27,5.39,8.66,17.38,21.05,19.6,5.25.94,11.03.25,15.32-3.32,7.02-5.84,14.82-6.48,24.23-7.17-9.92-2.36-18.91,1.81-27.24,6.53-5.72,3.24-13.51,3.55-18.06-1.61-3.84-4.35-2.67-9.96-10.75-14.63l-8.03-4.65-7.33-26.18ZM394.48,227.7c-8.56,1.12-16.59-1.06-23.66-6.03l14.01-2.07c4.76-.7,9.52-2.96,12.76-6.58-6.86,2.36-12.89,5.21-19.91,5.48l-13.66.53c2.93,9.08,17.46,12.06,27.85,11.59,10.09-.46,9.38-9.27,20.7-16.54,4.99-3.2,6.89-8.78,4.37-14.15-1.28-2.72-.44-5.85.92-8.32l6.76-12.26c-6.67.08-7.7,7.84-19.32,12.26-9.71,3.69-9.24,11.15-17.31,16.84,2.88-.32,5.79-1.93,8.1-3.81l14.86-12.13,7.84-7.21c-.37,5.26-5.5,7.01-4.37,16.13.68,5.5-1.54,10.23-6.41,12.81-7.26,3.85-7.35,12.66-13.53,13.46ZM345.79,209.16c1.62-9.95,1.22-17.74-.33-26.3-1.18,8.08-1.45,15.16-1.52,23.23.59,1.26,1.33,2.58,1.85,3.07ZM365.24,209.39l11.7-.54-9.08-1.22-5.9.9c-1.85.28-4.22,2.55-3.81,3.97,2.2-.94,5.29-3.04,7.09-3.12ZM353.62,248.38c-3.29-.29-7.27-.51-8.32-2.55.62-6.04,2.02-11.72-.27-17.7-1.56,5.96-2.7,12.38-1.16,18.01,1,3.67,8.19,4.68,9.75,2.24ZM284.25,263.7c-.35-.97-.72-2.83-.29-3.56,3.58-6.07,28.52-2.23,39.11-6.28-5.3-1.03-10.02.09-15.13.22l-20.26.51c-2.3.06-5.81,1.52-6.9,3.34-1.71,2.84.5,7.67,2.35,9.14.42.33,2.06-.72,1.89-1.2l-.77-2.16ZM369.6,310.52c-9.45-1.02-17.95-.65-26.84-.94l-18.9-.6c-7.16-.23-11.69-5.12-13.9-11.58-1.74-5.08-3.71-10.17-8.6-13.4,4.82,15.32,11.93,29.22,28.16,28.71l29.12-.91c3.6-.11,7.6,2.1,10.96-1.29Z"/>
  <path d="M346.64,108.6c-.46-10.08,1.11-19.33,2.65-29.79-3.87,2.42-4.15,6.67-4.15,10.69l-.02,22.28-4.29-3.83c-1.46,4.77-7.79-1.26-21.9-1.14-5.38.05-10.33-4.33-11.7-9.31-.77-2.81.9-5.3,3.39-6.1,5.68-1.84,11.71-.73,16.71,2.53l12.54,8.16c-2.37-13.76-4.67-25.96,7.54-33.27,1.62-.97,5.09-.81,6.57.2,7.52,5.17-2.54,21.22-3.39,32.02,5.92-6.68,11.37-12.01,20.17-12.75,2.67-.22,6.11.48,7.9,2.17,1.98,1.87,2.64,4.72,2.86,7.88.4,5.68-3.2,12.06-9.74,12.04l-22.47-.06c5.17-9.73,18.13-4.27,23.96-11.17l-13.53,2.46c-5.07.92-8.87,2.86-13.07,7.01ZM331.06,101.96c-5.19-1.75-9.64-2.94-15.5-4.11,1.43,2.11,3.76,3.34,5.87,3.48l9.63.63Z"/>
  <path d="M300.94,87.28c-1.02,1.74-5.96,2.94-7.77,1.96-2.66-1.44-2.09-5.06-1.08-7.22,1.16-2.49,3.69-4.84,7.25-3.43,1.3,1.62,2.23,5.72,1.6,8.68Z"/>
  <path d="M327.52,192.07c-3.36,1.81-8.01-2.23-7.42-5.77s6.51-5.78,9.27-3.33c2.33,2.07,1.28,7.41-1.85,9.09Z"/>
  <path d="M403.39,94.88c-1.84,2.79-4.95,2.68-7.08,1.69s-4.73-3.95-2.93-6.78c1.33-2.09,6.54-2.55,8.93-1.09,1.29.79,1.95,4.85,1.08,6.17Z"/>
  <path d="M270.8,240.32c-3.53.78-6.82-3.94-5.87-6.98s6.27-4.81,8.64-2.55c2.56,2.43,1.04,8.69-2.77,9.53Z"/>
  <path d="M373.93,191.58c-1.39.12-4.06-.32-5.76-1.07-1.53-.67-2.87-3.74-2.08-5.48,1.65-3.65,5.95-3.84,8.87-3.15l-1.03,9.7Z"/>
  <path d="M423.18,234.9c-2.49.39-4.29-.79-5.05-1.84-.85-1.17-1.5-4.39-.61-5.36,1.23-1.34,4.71-1.49,6.44-.59.91.48,1.78,2.72,1.8,3.75.02,1.17-1.4,3.85-2.59,4.04Z"/>
</svg>