<?xml version="1.0" encoding="UTF-8"?>
<svg id="Layer_1" xmlns="http://www.w3.org/2000/svg" version="1.1" viewBox="0 0 1355 1847.71">
  <!-- Generator: Adobe Illustrator 30.4.0, SVG Export Plug-In . SVG Version: 2.1.4 Build 226)  -->
  <defs>
    <style>
      .st0 {
        fill: #e2ae5f;
      }
    </style>
  </defs>
  <path class="st0" d="M1302.17,1210.56c-7.6,346.88-305.68,609.84-640.02,600.79-342.41-9.29-615.76-293.37-609.21-639.67l.17-504.16c.12-344.97,268.42-626.62,609.67-635.67,334.98-8.88,631.38,255.24,639.38,600.09v578.62h0ZM666.97,1798.98c330.17,7.2,614.43-255.13,623.02-586.86,5.05-194.13,4.93-386.46,0-580.42-8.53-336.38-298.94-598.18-629.87-587.38C323.39,55.29,63.62,331.66,63.62,667.34v508.98c0,336.61,262.03,615.24,603.29,622.61l.06.06Z"/>
  <path class="st0" d="M367.21,1678.27C-15.19,1440.61,125.89,979.17,100.42,595.6c27.51-213.17,167.78-394.88,366.73-475.37,83.34-33.72,169.58-43.99,259.71-37.43,175.33,12.77,332.14,101.16,432.14,245.84,61.34,88.74,99.94,190.94,106.79,300.51,12.54,198.89,14.28,395.57-.12,594.17-17,234-171.67,434.92-390.7,513.79-170.05,61.23-353.56,36.97-507.82-58.85h.06ZM956.8,1661.09c138.36-71.38,230.64-197.15,261.57-346.24,7.6-36.68,11.55-69.88,13.58-107.48,10.21-188.62,9.87-373.87.64-563.07-6.21-127.56-51.01-243.93-136.09-339.11-103.3-115.55-248.86-186.24-404.69-189.14-301.21-5.57-547.69,234.18-560.75,533.24-8.18,187.17-10.33,371.2.87,558.71,4.7,79.28,20.43,152.29,54.21,223.5,134.24,283.22,496.15,371.26,770.72,229.65l-.06-.06Z"/>
  <path class="st0" d="M957.03,1520.93l2.38,51.54c.75,16.6-10.21,33.2-26.46,40.45-57.22,25.59-117.47,45.21-181.25,50.26-87.46,6.96-174.28-7.95-255.07-40.16-23.04-9.17-48.58-20.95-63.61-39.75-11.72-14.63-5.22-42.77-2.09-61.81l138.88,24.49c28.96,5.11,57.86,3.89,86.13-8.42l-77.59-7.08c-91.35-8.36-178-39.81-254.66-88.1-20.43-12.88-24.14-31.51-21.76-54.38l5.17-49.68c-28.9,1.97-52.23-.29-71.44-20.2-45.27-47.01-35.98-127.74,20.72-162.62,41.96-25.83,96.34-21.59,133.89,8.65,27.68,22.29,30.06,56.3,16.77,90.59l212.01-13.75c48.75-3.19,95.12-4.58,143.7-.58,128.03,10.45,218.91-18.22,322.62-12.59,40.74,2.21,35.17,114.97,2.55,185.6-29.89,64.71-128.55,86.65-200.92,98.6-67.21,11.08-134.06,9.58-203.71,28.26,49.27,15.9,99.3,2.15,147.01-3.71l126.87-15.55-.12-.06ZM340.69,1251.76c8.24,13.29,28.84,16.13,34.65,5.22-5.22-6.27-11.14-18.05-9.17-26.99,6.21-27.97-15.38-50.26-42.83-48.87-31.69,1.63-63.03,18.86-71.56,50.9-3.31,12.36,5.8,26.93,15.84,33.84s22.69,10.33,34.13,3.95c-16.6-16.02-26.23-30.53-20.25-47.71s24.96-25.48,43.47-21.82c15.61,3.13,29.25,22.69,22.46,38.83l-15.73,2.32c-2.38.35,7.66,8.07,9,10.21v.12ZM691.05,1287.28l105.63-4.53,106.67-4.93c37.55-1.74,72.95,1.8,111.78-7.49-27.04-6.73-53.92-1.39-81.95,0l-94.02,4.64-80.73,4.18-74.11,3.83-83.28,3.13,2.5,3.89,87.52-2.67v-.06ZM1076.3,1267.61c-2.26-1.04-14.97,1.1-15.79,4.82l-23.68,107.89c-5.11,23.27-24.67,39.35-32.96,61.17,63.61-25.59,74.23-106.03,72.43-173.88h0ZM960.28,1416.18c-176.66,14.97-355.47,30.24-528.42-6.5-31.46-6.67-58.5-27.22-95.59-20.78,37.32,27.04,81.08,39.46,125.42,49.5,114.68,26,231.1,34.88,347.98,24.03,53.63-4.99,105.28-14.39,150.55-46.25h.06Z"/>
  <path class="st0" d="M583.92,734.72c22.81-15.96,21.42-90.71,65.87-105.16-9,27.8-18.34,54.26-30.24,82.24-40.04,94.02.23,199.41,25.88,159.95,33.54-51.65,17.18-112.42,39.99-147.82,19.79-30.76,33.6-58.44,40.97-94.31,3.42-16.77,15.03-31.34,33.08-37.61l33.31,89.2-7.72,25.07c-8.82,28.73.35,51.07,27.74,63.14l11.61,449.32-265.57,10.74-7.14-472.24,32.21-22.52ZM753.44,715.04c11.08-19.33,8.65-39.17-3.02-58.73-5.63,17.82-6.38,37.9,3.02,58.73ZM751.52,1179.91l-9.05-215.08c-3.37-80.55-2.38-158.9-19.15-236.5l2.55,184.61c1.22,89.67-.58,177.82,25.65,266.97h0ZM793.54,1158.79l.52-236.9c.12-43.59-7.08-83.69-17.99-127.1-2.5,6.21-2.38,13.17-2.09,21.36l11.08,315.19,8.47,27.45h0ZM710.55,1099.07l-12.01-238.88c-1.04-21.13-3.89-41.61-12.42-60.3l14.33,368.24.41,9.34c.06,1.51,7.2-5.98,7.25-7.49l2.38-70.86.06-.06ZM603.47,1037.09c-1.45-44.05-15.44-111.31-12.71-114.97.35-.46-5.69,3.77-8.53,5.69.64,87.75-2.84,174.98,16.08,265.17,4.41-51.54,6.91-102.03,5.17-155.89ZM646.31,1177.94c20.08-82.59,3.42-159.6-7.72-234.29.06,80.96,1.04,158.73,7.72,234.29Z"/>
  <path class="st0" d="M654.6,796.47c-2.73,46.84-16.83,75.74-24.43,66.92-2.15-2.44-5.92-9.46-6.33-12.94-13.58-118.97,51.01-190.94,35.4-222.8-7.43-15.15-31.51-6.04-37.61,5.46l-34.3,64.36c-9.23,17.29-17.93,31.28-36.27,42.89-9.58-11.84-18.11-27.86-17.18-42.08l4.82-75.97,27.39-22.63c8.82-7.31,13.81-15.61,13.87-28.15l-43.18,28.44c-16.89-26-9.58-58.38,18.92-73.82,30.76-16.77,61.92-22.58,100.69-26.23l5.28-34.07c-34.94-5.11-52.87-27.45-62.21-51.71-26.23-67.96,31.34-99.36,61.17-163.08,15.79-33.72,29.89-64.77,49.85-97.5,13.81,21.07.99,32.79.46,49.33-1.04,32.15,13.52,63.09,29.95,90.01,26.46,43.53,20.08,91.12-13.29,127.91-19.67,21.71-35.29,40.8-47.82,73.24l102.38,9.92c18.98,1.86,43.82,9.29,57.63,22.34,25.36,66.8,24.96,215.78-19.62,225.99-20.43,4.7-27.74-25.3-20.6-39.93,8.88-18.17,6.73-36.45-2.9-53.22-10.39-20.72-17.47-41.03-20.37-64.3-15.21-15.32-37.9-10.04-51.83,7.2-10.56,21.18-19.67,42.71-27.97,65.52-8.3,22.98-19.44,40.74-32.15,62.56-9.81,16.83-8.53,45.21-9.75,66.34h0ZM709.04,362.47l-47.13,37.14c-12.48-43.64,27.28-68.6,27.68-110.91-32.04,49.1-65.29,80.44-33.78,136.33,22.75-16.48,40.68-33.6,60.53-53.74l-7.25-8.82h-.06Z"/>
  <path class="st0" d="M198.67,1094.72c6.67-26.12,15.15-47.47,28.44-67.9,52.75-81.08,108.24-158.15,169.23-233.19,26.23-32.27,54.55-57.8,87.4-82.99-.7,16.83-4,31.75-12.25,46.02-62.8,109.28-127.74,215.37-201.56,316.76-16.95,23.27-42.48,36.56-71.33,21.3h.06Z"/>
  <path class="st0" d="M1173.74,1154.2c-18.98,9.11-34.01-1.97-45.21-16.19-53.63-68.02-98.66-139.93-142.54-215.31-32.09-55.08-58.79-110.38-81.42-170.45,13.7-7.54,19.09.81,26.35,10.74,74.75,102.72,145.21,205.16,208.76,315.08,13.58,24.14,23.5,45.15,34.07,76.2v-.06Z"/>
  <path class="st0" d="M1168.46,903.37c-16.6-1.45-30.18-13.7-40.1-25.07-75.27-86.18-144.16-175.33-208.58-269.93-11.61-17-16.31-33.78-13.81-55.71,18.4,9.69,31.51,19.62,44.57,34.13,80.9,89.9,152.29,185.37,219.2,286.29,4.82,7.25,5.86,27.74-1.33,30.29h.06Z"/>
  <path class="st0" d="M250.27,801.23c-14.97,12.07-29.42,16.71-47.71,16.08.75-11.55,4.64-25.3,13.29-34.82,68.77-76.03,144.51-142.01,228.08-201.5,10.16-7.25,19.56-11.38,36.1-14.16-15.15,27.28-29.02,56.64-51.54,79.28-55.77,56.06-115.43,104.52-178.17,155.13h-.06Z"/>
  <path class="st0" d="M273.71,582.78c-22.92,10.33-43.59,13.06-66.51,11.32,5.51-17.29,15.15-30.82,31.05-40.16,90.88-53.22,185.72-96.17,288.85-120.77-10.85,24.84-30.88,31.28-48.34,44.05-66.74,38.3-133.02,73.13-205.04,105.57Z"/>
  <path class="st0" d="M1139.55,590.85c2.5,4.29,8.24,18.46,4.64,18.75l-17,1.28c-88.97-43.82-173.18-94.19-251.12-156.06l-6.33-14.86c-1.74-4.06,13.29-6.38,18.46-6.38,93.32,34.88,177.76,87.75,251.3,157.22l.06.06Z"/>
  <path class="st0" d="M966.49,1153.91c-2.96,10.45-33.31-23.79-44.63-63.38-13.81-48.29-23.62-93.61-32.09-142.83-3.02-17.64-.64-37.78,9.92-54.96,42.42,77.13,61.81,162.1,70.4,248.34l-3.66,12.83h.06Z"/>
  <path class="st0" d="M1072.52,369.38l-139.52,7.08c-45.73,2.32-90.3-4.12-132.15-22.69,93.73-30.35,194.19-19.38,286.41,1.33-3.08,9.52-8.36,13.99-14.74,14.28Z"/>
  <path class="st0" d="M561.46,376.05c-85.02,6.27-213.75,33.02-282.69-12.01,85.84-20.25,170.22-18.46,254.08-5.98,11.14,1.68,20.6,6.04,28.61,18.05v-.06Z"/>
  <path class="st0" d="M455.6,1086.71l-14.51,13.75c-3.48,3.31-10.74-11.78-12.25-17.47,6.04-73.01,21.18-142.36,45.15-210.96l13.75-11.72c3.02-2.55,10.33,7.83,12.48,12.36-4.12,74.17-17.64,143.47-44.69,214.04h.06Z"/>
  <path class="st0" d="M547.76,306.35c3.71,19.04-52.64.29-97.91-39.93-12.25-10.91-19.67-27.57-19.09-44.11,44.86,11.43,80.79,36.85,113.4,65.7,0,0,3.6,18.34,3.6,18.34Z"/>
  <path class="st0" d="M778.34,257.66c-18.98-37.84,62.04-74.23,107.89-83.98,1.86,34.65-64.19,71.33-107.89,83.98Z"/>
</svg>