<?xml version="1.0" encoding="UTF-8"?>
<svg id="Layer_1" xmlns="http://www.w3.org/2000/svg" version="1.1" viewBox="0 0 1355 1847.71">
  <!-- Generator: Adobe Illustrator 30.4.0, SVG Export Plug-In . SVG Version: 2.1.4 Build 226)  -->
  <defs>
    <style>
      .st0 {
        fill: #37514e;
      }
    </style>
  </defs>
  <path class="st0" d="M596.57,1806.48l-79.15-15.38c-232.49-61.58-410.48-252.07-453.97-488.82-4.55-24.88-9.62-51.44-9.56-76.84l.98-610.54c.06-52.59,12.85-103.11,28.46-151.61C156.59,235.52,356.19,69.91,590,37.71c351.73-48.39,669.81,197,711.11,549.82v669.12l-18.15,91.76c-80.3,303.05-371.83,497.64-686.4,458.06h0ZM1291.03,1256.94l5.47-48.33-2.71-575.63C1278.48,276.71,963.44,8.91,620.99,43.82,320.47,74.46,91.85,309.94,62.35,610.46l.23,622.63c32.2,335.19,314.51,586.4,651.15,567.91,297-16.36,543.49-246.48,577.3-544.01v-.06Z"/>
  <path class="st0" d="M963.85,1698.76c-318.6,161.81-729.6,37.9-841.59-321.48-20.22-64.86-28.69-128.17-32.78-196.89-10.54-176.78-7.32-349.77,1.56-527.76,8.87-177.99,97.98-353.4,246.72-460.31C613.39-5.9,992.94,76.59,1172.49,354.36c52.25,80.82,83.12,169.7,88.59,266.99,11.98,212.9,14,422.58-2.07,634.1-14.57,191.99-124.88,356.8-295.22,443.26l.06.06ZM825.43,158.5c35.94-4.44,101.9,30.64,86.52,56.34l-58.81-28.05-56.68,36.81c-24.77,16.07-49.02,23.85-77.65,7.83,29.61,42.11,99.65,50.52,159.16,53.51,98.91,4.9,199.71,74.02,227.13,169.35,7.49,25.98,23.73,49.31,41.65,69.64,56.45,63.94,38.77,133.81,22.06,215.32-7.43,36.35-7.32,69.35-11.81,109.91-25.98-71.83-41.3-138.82-54.32-210.54-14.17-77.76,37.27-152.19-54.03-245.91-40.03-41.07-89-74.54-147.18-75.46l58.81,38.13c45.74,29.67,64.57,82.03,54.78,135.77-8.12,44.59-2.25,84.04,5.88,132.83-42.86-33.41-71.2-80.59-83.41-128.69l-24.54-96.77c-17.57-69.3-66.01-94.76-131.8-99.54,31.28,29.55,51.56,62.96,67.51,101.5,14.98,36.17,31.8,68.55,51.32,107.49-72.41-31.22-119.24-88.42-145.74-157.26-15.84-41.19-37.5-76.27-64.34-110.83-11.12-14.29-17.68-32.78-22-50.46-24.65,59.16-68.84,74.25-72.52,152.02-3.34,70.68-13.36,119.53-75.69,158.41-28.28,17.63-50.81,36.35-74.6,62.85-3.51-3.57-5.01-14.69-2.02-21.83l91.07-214.34-87.04,24.83c-39.11,11.18-41.53,54.15-38.48,99.25,2.3,33.93-5.88,67.17-31.28,91.42l-92.63,88.48c-3.28-24.14,6.05-43.2,16.01-62.38,15.61-30.07,27.25-60.6,36-93.43l21.37-79.95c-45.85,23.39-81.22,57.49-110.14,98.39-30.99,43.72,30.13,83.81,2.48,177.02l-34.85,117.51c-8.58,28.86-11.12,109.5-25.23,90.38l-8.12-10.94c-14.52-70.68-22.47-140.96-22.87-213.88,28.69-79.78,66.53-151.15,113.13-220.56,30.59-30.47,63.36-55.99,103.34-72.47l101.84-41.88c37.85-15.55,74.65-29.67,106.39-55.41-43.26,14.34-79.09,23.96-122.98,13.42-22.47-5.41-46.14-2.65-67.74,7.55-1.79-34.56,20.39-67.74,56.16-75,91.7-18.61,206.68,33.01,220.85-93.66-80.64,7.37-157.72,19.99-232.89,57.14-166.07,82.14-289.86,247.12-306.68,435.14-17.63,197.64-11,390.95-5.41,588.02,2.53,90.67,24.6,172.12,68.38,250.4,90.44,161.69,261.12,302.88,454.14,290.32l-34.97-45.33c-38.25-49.54-91.53-79.2-150.75-100.35l-86.06-30.7c-56.85-25.4-97.58-71.2-117.28-129.2-10.14-5.47-24.54-11-32.32-18.15-41.88-38.65-39.86-251.61-26.61-337.96l38.94,165.38c10.43,44.24,23.91,85.48,30.47,130.93,8.29,57.2,33.35,109.1,85.14,140.38-18.26-39.17-29.84-76.5-37.73-117.74l-20.05-104.95c40.96,44.76,66.3,89,91.36,138.36,9.27,18.32,3.97,47.7,4.84,66.88l1.9,42.45,139.05,56.34-73.16-145.39c-4.38-8.7-5.07-20.51-.12-31.8l30.7,29.78c41.19,39.92,97.23,50.29,101.61,123.85,1.61,27.3,7.03,56.85,22.12,79.49l37.33,55.82c23.21-109.73,129.67-169.41,169.12-229.61l36.17-55.18c1.44-2.19,9.39-5.93,10.54-4.15l6.39,9.79c-7.72,49.37-18.89,95.28-37.56,140.96-27.07,33.99-56.57,58.06-89.69,88.19l93.95-25.17c21.14-5.65,39.98-21.66,46.66-42.63l32.55-102.48c19.24-60.6,45.85-116.3,73.67-177.02,13.59,15.73,8.18,32.09,3.74,48.27-24.02,87.61-1.38,153.23-60.54,228.17,49.25-23.85,91.65-63.42,110.25-114.86,10.43-28.74,6.28-62.67,9.79-93.2,5.13-44.41,24.88-82.43,47.7-119.7,26.67-41.36,50.81-80.53,73.33-124.19l12.62-3.46c2.71-.75,4.26,12.1,3.17,15.03l-26.79,70.62c-25.46,67.05-12.04,144.87-44.24,203.92-39.75,72.87-94.18,135.14-160.6,184.73-31.62,23.62-68.84,35.37-106.05,46.95l-102.82,31.85c-31.85,9.91-58.01,30.41-80.47,55.76l97.87-.92c238.31-17.51,447.29-290.61,459.39-529.89,9.45-187.21,10.31-371.08-.81-558.64-7.14-121.26-48.5-234.85-125.35-327.82l-36.81-39.75c-98.1-105.93-236.46-155.87-379.84-164.28,2.02,13.42,5.3,26.73,11.75,39.17,19.24,37.27,75.4,10.02,126.09,3.74h-.17ZM800.89,191.57c-28.97,7.49-48.21,16.19-69.3,7.43l-29.72-12.38c15.21,38.77,72.06,31.34,99.02,4.95ZM582.28,238.17c-59.68,2.65-117.97-27.53-157.03,9.16,37.5-4.03,70.97-5.13,108.01-.46,16.99,2.13,34.68-.86,49.02-8.76v.06ZM576.58,308.21c-24.08,22.64-20.74,51.9-31.74,76.84l-36.98,83.93c51.67-30.41,60.71-97.29,68.72-160.77h0ZM973.64,525.03l-.58-74.54c-.23-33.81-9.68-65.84-42.05-79.67,52.94,66.88,12.33,113.65,42.63,154.2ZM838.62,435.52c-11.06-26.21-25.98-44.53-44.7-61.58,6.57,26.96,23.44,47.81,44.7,61.58ZM338.33,544.39c29.32-18.2,36.29-46.83,44.01-74.08l11.52-79.03c-13.19,18.15-18.49,36.64-21.6,59.16-4.78,34.39-20.16,64.29-33.93,93.95ZM1145.87,712.3c.58-50.35,2.77-96.26-2.77-146.6l-10.71,91.3c-2.25,19.01-5.99,42.51,13.54,55.24l-.06.06ZM192.94,803.55c3.46-81.39,64.4-155.24,32.49-223.27-3.17,20.91-2.02,43.43-6.51,62.73-13.42,58.29-47.47,113.13-25.98,160.54ZM236.66,1378.49c-3.57-17.51-8.7-29.55-15.21-43.95.35-28.8,7.03-58.7-3.23-88.59-6.62,46.26-9.1,113.25,18.49,132.55h-.06ZM1082.68,1434.36l40.03-159.16c-37.56,35.08-39.57,104.67-40.03,159.16ZM369.73,1503.2c5.07-53.17-5.18-97.06-37.56-128.23l37.56,128.23ZM911.43,1583.27c20.33-52.42,37.38-103.46,53.34-158.93-27.94,48.62-46.95,101.04-53.34,158.93ZM565.92,1579c-.86-49.77-36.46-83.87-73.56-107.89,4.49,26.09,24.65,34.27,39.11,50.58,13.88,15.67,21.14,37.79,34.45,57.32h0ZM687.06,1676.76c34.68-56.45,85.89-79.84,111.35-125.52l-77.88,65.21c-16.53,17.51-32.72,35.77-33.47,60.31Z"/>
  <path class="st0" d="M1054,1097.15c-69.07,152.88-206.85,274.13-365.09,340.03-152.59-70.33-299.88-172.93-388.88-318.43-7.66-150.98-11.18-297.58,3.8-450.75,149.25,1.56,272.29-68.66,385.71-159.91,71.2,66.42,156.57,107.72,248.27,134.73,38.42,11.29,71.08,17.28,114.05,7.83,3.34,46.49,6.68,88.25,5.88,132.72l-3.97,214.98.23,98.79h0ZM636.03,1371.05c19.01,13.19,37.56,21.83,58.81,31.22,27.59-9.91,48.96-22.75,72.64-40.21,90.55-74.48,169.41-158.87,239.46-254.49l5.24-403.45c-124.42-5.18-242.97-54.49-334.68-143.09-13.02,18.55-25.4,32.09-40.9,47.18-88.77,58.47-195.04,127.42-300.17,101.61l-.81,113.42c-.58,84.85-.92,166.42,4.44,251.38,3.05,16.88,3.69,41.47,12.56,54.26,51.5,74.42,200.52,184.5,283.41,242.11v.06Z"/>
  <path class="st0" d="M704.34,356.54l-25.75,44.59c-19.53-10.02-28.17-31.74-18.55-47.81,7.43-12.44,30.13-15.03,44.3,3.23Z"/>
  <path class="st0" d="M211.49,956.43c13.25,12.67,4.38,42.63-14.75,42.28-19.12-.35-28.34-27.59-17.97-41.24,4.9-6.45,26.67-6.85,32.78-1.04h-.06Z"/>
  <path class="st0" d="M1183.66,980.85c-5.18,15.09-16.99,21.43-31.16,23.04l-7.89-38.54c-1.27-6.34,17.57-10.54,24.08-9.5,7.66,1.27,18.78,13.71,14.92,25h.06Z"/>
  <path class="st0" d="M703.31,1503.95c10.02,16.99-5.93,38.31-23.04,38.08-9.5-4.15-15.5-27.65-9.91-38.82,4.67-9.33,27.48-8.58,32.95.75Z"/>
  <path class="st0" d="M177.39,1327.79c-2.42,7.6-9.68,18.26-14.4,18.2-5.59-.06-15.38-14.23-11.58-18.32l11.92-12.9c2.71-2.94,15.55,8.18,14.06,13.02h0Z"/>
  <path class="st0" d="M988.16,1091.22l-96.89,116.93c-35.71,43.09-75.69,79.44-119.93,113.42-26.09,20.05-48.5,39.57-85.25,52.94l-.12-774.54c83.81,75.29,185.6,116.19,295.16,124.14-2.25,62.21-1.27,122.18,2.59,184.33l4.44,182.78h0ZM747.89,1304.52c56.91-49.88,108.12-98.9,157.78-153.86,20.39-22.52,41.59-48.96,53.46-75.98l-9.27-184.16c-2.25-45.16,5.07-88.65-5.76-130.87-5.13,27.02-14.86,55.93-13.36,81.8l13.59,237.21-66.99,79.67-160.31,162.1c10.6-2.13,21.43-7.6,30.88-15.84v-.06Z"/>
  <path class="st0" d="M369.21,1103.08l-3.57-354.66c80.82,3.46,160.02-20.97,225.98-68.95,28.46-20.68,54.72-41.65,85.31-60.31l-2.77,741.99c-116.47-70.91-211.63-157.83-304.95-258.06h0ZM411.78,838.74c.12-12.33-6.45-27.25-10.6-41.24,86.81-7.37,190.26-41.24,241.24-119.35-22.06,9.16-36.69,24.42-54.49,37.73-56.74,42.4-120.74,61.69-192.16,67.22-1.21,21.2,0,39.29,1.5,58.7,5.76,76.84-6.05,151.73,12.56,232.6l1.96-235.71v.06Z"/>
</svg>