<?xml version="1.0" encoding="UTF-8"?>
<svg id="Layer_1" xmlns="http://www.w3.org/2000/svg" version="1.1" viewBox="0 0 1355 1847.71">
  <!-- Generator: Adobe Illustrator 30.4.0, SVG Export Plug-In . SVG Version: 2.1.4 Build 226)  -->
  <defs>
    <style>
      .st0 {
        fill: #c29f9f;
      }
    </style>
  </defs>
  <path class="st0" d="M1301.62,1209.43c-7.75,346.41-305.23,609.16-639.45,600.22-339.91-9.16-613.17-290.33-608.51-634.57l-.16-503.68C47.1,326.41,317.39,43.11,659.03,31.95c336.11-11,634.36,253.28,642.59,599.52v578.01h0v-.05ZM666.88,1797.3c329.88,7.15,614.09-255.01,622.49-586.3v-580.12c-7.86-320.4-273.59-575.52-588.31-586.46C348.49,32.12,63.9,315.62,64.17,667.01l.33,512.62c.22,334.65,263.52,610.36,602.34,617.72h.05v-.05Z"/>
  <path class="st0" d="M1265.97,1214.09c-8.72,317.53-279.28,559.92-586.14,559.7-309.46-.22-578.17-245.58-585.98-562.79v-580.07C101.33,315.08,368.04,69.82,676.15,67.71c308.1-2.11,580.77,241.57,589.88,558.89,5.58,194.6,5.47,388.56,0,587.49h-.05ZM684,1746.11c308-2.28,557.8-251.81,557.8-557.37v-535.21c0-320.89-272.29-574.49-591.72-557.48C359.59,111.54,119.16,349.86,119.21,644.1v553.63c5.15,305.39,258.59,550.65,564.79,548.38Z"/>
  <path class="st0" d="M248.37,1077.13c-4.44,7.26-27.74,6.23-33.64,1.08-44.37-38.95-37.71-171.52-17.34-242.87,7.64-26.76,38.63-43.45,63.22-29.85,19.12,50.98-1.68,121.03,18.58,172.77l10.02-151.1c108.79-41.45,214.22-82.57,326.58-115.56l429.78-126.23-29.8,371.87-2.93,111.5c4.28,34.4-11.97,69.94,14.36,103.91l12.24-282.97c5.04-117.02,11.65-230.31,27.2-345.7,3.14-23.3,36.35-26.93,53.36-27.63,26.44-1.08,42.69,10.78,47.46,36.19,9.7,51.74,9.43,103.91,8.02,158.25-3.41,131.38-8.34,259.07-22.1,389.53-5.15,48.6-12.03,94.7-26.33,139.61-10.84,34.02-45.29,48.11-76.61,33.43-19.29-9.05-33.7-26.17-45.08-45.08l-266.06-63.12-50.17,80.56-269.31-70.48c-4.61-8.61-7.15-24.87-4.55-31.96l19.02-52.39-166.21-59.27c-5.2,14.41-10.46,30.83-19.61,45.62l-.11-.11h0ZM681.94,744.38c110.03-26.98,209.23-55.75,310.7-99.69-68.43,4.93-133.06,27.63-199.64,45.94-38.63,16.36-79.59,25.9-111.01,53.74h-.05ZM481.54,821.26l112.36-38.79c3.9-1.35,10.78-11.21,11.59-13.92-97.08,20.05-200.02,40.74-286.11,87.93,60.3,4.17,106.51-20.26,162.15-35.16h0v-.05ZM680.91,1173.46c-.43-26.82-115.83-48.38-169.68-55.75-7.58-1.03-22.05,3.68-28.66,7.31,15.01,24.43,34.02,33.97,57.54,41.17,50.01,15.28,141.4,40.85,140.81,7.26h0Z"/>
  <path class="st0" d="M640.17,1472.14c-6.77-28.98-14.79-50.55-28.33-74.66l-113.99-.6c40.8,29.63,74.71,68.53,52.39,114.48-5.69,11.7-29.91,11.65-43.02,8.45-10.29-2.49-22.75-15.01-28.06-28.55l-30.34-77.36c-10.13-25.73-38.74-43.5-61.92-35.21,23.73,78.12,66.42,147.63,131.7,190.65,43.88-19.94,102.88-49.52,119.73-26.17,4.66,6.45,8.89,25.03,3.36,30.88l-27.74,29.2,90.26-5.26c49.52-2.87,102.56-8.34,121.52,28.28,4.33,8.34,3.95,32.45-7.31,34.78-45.89,9.32-88.85-12.51-123.47-41.77l-84.68.7,51.63,33.64c7.64,4.98,12.89,22.92,11.43,31.1-2,11-18.37,19.12-31.53,17.17-40.52-6.01-67.78-36.46-72.33-76.71-1.3-11.43-12.08-20.32-23.03-22.7-40.25-8.83-66.37-36.95-100.39-66.04.92,31.1,15.66,65.12,1.84,96-17.07,4.55-35.81-10.24-43.4-21.13-10.94-15.77-13.54-36.03-8.18-53.53l17.28-56.07c5.09-16.58-12.08-40.42-21.89-53.96l-14.09,78.34c-1.19,6.5-11.21,16.63-17.28,18.31s-20.05-2.98-25.46-7.48c-20.64-16.79-26.38-43.45-12.89-67.02l29.26-51.09c16.09-28.01,4.23-56.34-20.26-75.47l-43.77-34.13c1.14,44.15.27,87.33-32.89,88.36-36.68,1.19-31.64-71.89-25.57-127.75,2.49-22.97-1.95-40.9-13.76-61.54-24.16-42.2-23.51-71.13-13.76-66.69,2.76,1.25,9.48,5.2,11.27,8.18l56.72,93.45c15.66,25.79,41.93,36.08,69.18,23.62l57.91-26.49c20.7-9.48,42.31-3.63,56.67,13.22,6.34,7.42,11.86,21.83,10.08,31.1-5.63,29.09-55.15,35.92-96.22,41.34,46.21,24.76,100.01,34.4,152.83,24.87,18.37-50.17,31.86-115.13,77.85-100.99,20.32,6.23,30.18,25.73,27.47,47.51-3.47,27.68-23.57,44.05-47.95,56.89l96.06,4.17c22,.98,37.76-7.26,48.76-26.22l29.74-51.09c7.86-13.54,24.92-20.91,39.39-19.12,13.11,1.63,35.32,12.3,32.56,30.66-5.04,33.91-36.19,61.87-69.29,69.51,17.5,2.11,37.6,5.53,55.15,13.49l71.03,32.24c18.1,8.23,37.98-1.63,49.46-14.63,14.79-16.79,39.01-18.31,55.15-5.04,5.91,4.88,11.11,19.34,9.75,25.95-5.85,28.28-44.43,25.08-82.67,22.65,32.56,34.46,73.73,43.88,108.35,77.47,13.6,13.22,22.81,42.96,7.04,55.91-12.95,10.62-34.35-4.61-41.82-16.47l-41.93-66.37c-19.67-31.1-56.61-49.14-91.78-61.6,33.86,41.01,43.12,110.25,15.66,123.31-14.47,6.83-34.56.92-46.1-8.4-32.07-25.9-5.91-83.92-27.79-136.69l-128.4-11.27c21.62,19.72,39.33,31.69,50.49,54.29,9.37,19.02,10.78,55.37-8.51,67.13-29.26,17.88-60.03-12.19-66.96-42.04h-.22,0ZM250.26,1264.31c-7.96,18.64,6.23,35.38-4.61,77.96-.98,3.74,1.84,11.49,3.36,14.19,4.5,8.13,32.13-51.47,1.25-92.15ZM374.98,1288.8l48.49-11.86-3.9-10.62c-1.08-2.93-13.33-3.3-16.63-2l-57.05,22.86c8.18,5.53,18.53,4.23,29.15,1.63h-.05ZM553.76,1334.91c32.4-6.66,34.08-28.44,28.93-53.42-6.88,3.63-16.25,11.7-19.18,17.12l-9.75,36.35h0v-.05ZM787.37,1308.68l-6.23-12.3c-20.15,10.24-39.44,20.15-36.19,50.28l42.42-38.03h0v.05ZM681.78,1467.37c-1.57-25.14-13.49-39.87-32.51-50.55,3.95,22.27,13.49,42.31,32.51,50.55ZM480.35,1425.87c7.69,20.26,18.96,35.54,36.14,48.27-4.17-33.59-20.7-60.19-36.14-48.27ZM842.96,1514.18c13.44-25.57,11-53.09-10.56-72.65-6.34,24.49-7.53,53.09,10.56,72.65ZM364.74,1451.39c-31.91,7.91-30.77,41.34-16.31,61.87,7.1-19.18,12.73-39.12,16.31-61.87ZM429.21,1589.1c4.12-24.05.7-38.95-9.64-51.74-14.36,19.18-5.31,42.31,9.64,51.74ZM610.92,1564.94c-24.87-8.4-41.5-3.03-50.6,15.01,19.94,1.84,40.25-3.25,50.6-15.01ZM644.94,1678.33c-8.34-22.97-24.76-36.57-44.37-39.06,11.21,19.99,26.44,33.32,44.37,39.06Z"/>
  <path class="st0" d="M909.05,455.67c-15.93-19.02-31.64-23.84-52.71-13.49l-51.09,25.08c55.1,7.37,80.45,53.96,65.23,67.67-26.71,24-59.27,10.02-76.77-16.96l-26.87-41.34c-30.77.49-57.48,4.44-87.87,14.3,25.08,13.49,48,36.24,39.28,64.31-6.88,22.1-42.85,21.67-55.69,4.93l-27.31-35.65c-18.2-23.78-42.96-39.33-74.55-34.94l-49.9,6.99c21.67,6.18,41.28,18.31,48.76,40.36,2.22,6.56-.98,21.24-5.42,25.57-5.04,4.93-19.34,9.05-28.01,7.69-42.8-6.72-55.31-74.98-94.32-60.89-29.8,10.78-54.72,30.93-78.88,53.91l64.47-9.16c21.83-3.09,34.46,13.33,36.41,29.2,5.69,46.97-58.78,34.73-121.36,27.41-13.82-1.63-29.09,1.95-36.95,13.54l-63.82,94.43c-37.65-22.59,16.25-42.42,2-87.77-14.25-45.35-34.24-99.63-5.31-116.59,11.92-6.99,33.75-8.72,42.26,2.33,13.06,16.9,12.14,37.92,12.89,60.24,17.99-16.58,35.16-30.39,51.85-48.11,22.1-23.51,11.11-89.45,41.72-114.04,7.26-5.85,23.73-8.4,30.99-5.85,11.16,3.9,16.36,13.82,22.27,31.42l41.17-53.85-18.2-79.31c-3.95-17.17-4.71-41.55,7.91-54.5,13.6-13.92,44.7-11,54.56,5.8,9.86,16.79,8.78,37.17,9.43,62.03l74.28-59c38.9-30.88,13.33-71.13,47.73-99.63,9.43-7.8,32.56-9.64,40.85-.33,16.69,18.8,3.68,37.49-8.94,59.05l88.25-29.63c31.1-10.46,68.05-8.02,70.92,12.35,3.41,24.22-39.12,40.96-88.52,31.1-38.79-7.75-75.52-4.33-104.99,24.11l44.97,1.95c9.54.43,23.19,14.95,24.43,23.46,1.63,11.38-5.53,28.28-15.93,35.27-44.21,29.74-92.05-14.19-128.78,5.47-26.38,14.14-48.33,35.81-65.82,59.54l-68.75,93.13,86.63-6.61,47.95-91.94c10.08-19.29,41.99-26.44,55.75-10.19,27.25,32.18-12.46,76.55-61.17,103.75,28.55,1.84,58.84.7,88.58-5.09,38.3-7.42,18.04-47.62,35.05-76.93,10.78-18.58,29.31-24.76,48.65-18.26,12.84,4.28,29.85,23.24,24.38,41.23-6.61,21.72-25.52,33.54-43.83,46.59,30.23-.98,60.35-3.52,85.82-18.96,20.91-12.68-9.81-56.67,12.68-77.36,6.01-5.58,24.27-7.75,30.34-1.35,17.01,17.93,13.33,42.1,3.14,62.3,15.44-5.74,35.92-15.98,43.34-32.89,8.51-19.45-30.99-44.15-16.96-71.95,4.88-9.75,21.89-17.01,32.45-7.86,7.21,6.23,13,24.98,16.63,36.68,22.7-39.01,60.41-72.27,97.52-53.96,4.93,2.44,10.24,14.19,8.72,18.91-1.79,5.47-10.51,15.49-16.42,17.44l-67.78,22.16-30.5,47.84c19.67,2.28,31.91,5.04,41.82,14.03,9.91,8.99,14.57,28.17,5.91,40.42-11.11,15.55-42.47,14.95-54.45.7l-.11-.33h0ZM485.93,344.18c20.86-25.25,15.71-54.29-1.08-75.09-2.17,27.85-2.28,52.12,1.08,75.09ZM670.02,302.41c2.87.7,14.52-4.12,13.27-6.5-10.35-20.21-45.08-21.4-73.08-8.02l59.81,14.47h0v.05ZM561.02,446.35c30.12-7.75,42.53-32.34,43.34-60.35l-43.34,60.35ZM698.63,450.69c28.71-10.67,30.83-38.79,25.9-63.33-11.27,19.67-19.83,40.31-25.9,63.33ZM696.95,547.45c-5.91-28.88-26.87-36.3-46.16-42.91,12.68,18.31,26.06,40.25,46.16,42.91ZM429.53,572.8c-25.95.11-46.38,5.31-67.23,15.06,24.33,4.77,46.7,3.09,67.23-15.06Z"/>
  <path class="st0" d="M1099.76,416.66c6.12,11.97-4.28,28.39-12.62,34.4-10.13,7.31-26.76,11.21-38.03,4.12-16.63-10.51-18.42-40.2-3.25-52.55,15.17-12.35,43.5-6.28,53.91,14.03h0Z"/>
  <path class="st0" d="M1126.19,1400.79c3.9,19.99-24.33,47.3-43.29,40.74-17.61-6.12-20.53-40.25-9.7-52.66,12.89-14.74,48.6-10.51,52.98,11.92Z"/>
  <path class="st0" d="M345.34,1126.38c14.52,17.23-7.48,51.52-28.61,46.59-15.06-3.52-23.84-34.19-15.93-46.75s33.97-12.35,44.53.16Z"/>
  <path class="st0" d="M928.99,1604.11c-4.44,8.23-11.81,14.79-16.85,16.25-5.04,1.46-17.82-4.44-19.94-9.54-4.5-10.94-6.45-34.94,1.52-42.15,6.12-5.53,25.68-2.06,31.42,2.55,6.45,5.2,9.48,22.43,3.85,32.89Z"/>
  <path class="st0" d="M471.47,666.2c7.64,1.63,3.95,25.19-1.19,31.21s-20.21,16.31-27.03,12.19c-19.83-12.03-18.69-35-11.86-51.96l40.09,8.56Z"/>
  <path class="st0" d="M328.66,390.66c-.76,10.62-9.7,22.1-17.07,23.3-8.4,1.35-21.13-5.91-25.68-15.22-4.01-8.23-4.61-25.52-.11-32.51,4.17-6.5,20.42-7.64,30.12-4.71,7.37,2.22,13.71,14.57,12.68,29.15h.05Z"/>
  <path class="st0" d="M940.58,1297.47c-3.3,16.52-16.14,24.6-28.23,23.08-10.13-1.25-20.37-13.98-21.07-25.79-.65-10.4,12.24-21.13,25.19-22.48,5.47-.6,14.41.76,17.88,3.2,4.23,2.93,7.42,15.98,6.23,22h0Z"/>
  <path class="st0" d="M819.99,286.1c3.2,4.01,4.71,16.42,3.14,21.24-1.84,5.69-13.33,13.44-19.4,12.95-18.69-1.41-31.31-23.35-20.75-38.63,5.63-8.13,29.53-4.93,36.95,4.44h.05Z"/>
</svg>