<?xml version="1.0" encoding="UTF-8"?>
<svg id="Layer_1" xmlns="http://www.w3.org/2000/svg" version="1.1" viewBox="0 0 700.08 400.08">
  <!-- Generator: Adobe Illustrator 30.4.0, SVG Export Plug-In . SVG Version: 2.1.4 Build 226)  -->
  <path d="M521.66,236.81c-6.99.69-11.15.68-14.33-6.95l-7.47-17.9c-1.3-3.11-4.1-4.96-7.38-4.95h-5.45s.06,22.31.06,22.31c.01,5.07,3.34,5.26,3.33,7.09l-16.03-.13c2.75-2.29,3.93-3.86,3.93-7.02v-43.08c0-3.1-1.29-4.68-3.91-7.02l20.93-.05c3.95-.01,7.97.8,11.46,2.2,4.78,1.92,7.31,6.04,7.17,11.08-.13,4.7-2.25,8.89-6.43,11.27l-7.77,3.05c4.9,1.21,8.35,3.63,10.2,7.99l7.25,17.06c1.05,2.47,2.95,4.06,5.62,3.48v1.24c0,.23-.9.29-1.18.32ZM505.14,195.75c.51-5.3-1.63-10.52-6.2-13.25-3.56-2.13-7.67-2.5-11.88-1.8v24.92c8.91.75,17.21-.87,18.07-9.87Z"/>
  <path d="M352.45,207.75c0,16.35-13.26,29.61-29.61,29.61s-29.61-13.25-29.61-29.61,13.26-29.61,29.61-29.61,29.61,13.25,29.61,29.61ZM337.57,231.57c4-2.83,5.87-7.61,6.16-12.38.84-13.63-5.57-32.05-18.38-37.3-6.2-2.54-13.5-1.67-18.21,3.17-10.38,10.65-4.08,37.82,10.64,46.68,6.01,3.62,13.78,4.08,19.79-.17Z"/>
  <path d="M405.35,237.87l-39.09-48.87-.11,34.07c-.02,5.34,1.17,10.6,5.86,12.01.34.1.33,1.37-.03,1.36l-11.18-.19c2.55-2.27,3.82-3.84,3.82-6.99v-42.62c0-5.53-3.47-5.39-4.65-7.51l9.72-.1,34.1,42.65.22-28.83c.02-2.67-.46-5.23-1-7.84-1.98-4.95-6.58-4.3-4.96-5.98l10.99.08c-.44,1.2-.83,1.51-1.87,2.04-1.02,1.65-1.43,3.85-1.58,6.07l-.25,50.65Z"/>
  <path d="M217.43,231.4l-.34-11.84.96-.88c1.65,3.62,3.16,6.71,5.78,9.58,4.79,5.27,11.9,8.1,18.88,6.73,4.08-.8,6.81-3.88,7.69-7.26,2.29-8.86-6.82-12.68-14-15.93l-11.49-5.2c-4.16-1.88-6.42-5.89-6.8-10.36-.63-7.45,3.44-13.74,10.63-16.22,8.51-2.93,17.99-2.02,26.13,1.61.11,4.05.66,7.57-.16,11.64-4.09-9.82-13.14-15.54-23.08-12.84-3.84,1.04-6.42,4.26-7.07,7.5-3.19,15.73,28.63,13.54,32.44,28.16,1.77,6.79-1.26,13.56-7.01,17.36-9.25,6.13-22.93,4.04-32.55-2.06Z"/>
  <path d="M426.67,215.03l-5.65,14.03c-.69,1.72-.79,4.26.45,5.32.81.7,1.03.88,1.65,1.98l-9.76.02c-.27-1.69,3.96-2.49,5.94-7.4l16.48-41.05c.77-1.93-.71-4.15-1.49-6.01l8.06-3.62,21.36,50.81c1.06,2.52,3.14,4.54,5.03,6.1l.12,1.19h-14.68s.04-1.18.04-1.18c1.27-.7,1.63-2.23,1.04-3.64l-6.91-16.49-21.7-.05ZM447.78,213.74l-10.51-24.98-10.13,24.97h20.64Z"/>
  <path d="M561.64,186.03l-13.62,24.18.02,19.07c0,5.14,3.33,5.29,3.3,7.1h-15.54c-.26-1.7,3.35-1.98,3.33-6.6l-.11-19.65-11.88-21.65c-2.09-3.81-4.44-6.2-8.12-9.32l16.33-.08-1.98,2.79,14.28,25.6,12.24-21.61c.88-1.56.89-3.91-.21-4.89-1.14-.4-1.72-.63-1.99-1.85l9.79-.08c4.02-.03-3.29,2.45-5.85,6.99Z"/>
  <path d="M175.17,179.18l10.13-.14c.11,1.96-3.76,2.11-6.01,7.88l-19.22,49.33-3.34.04-19.86-49.06c-2.42-5.97-5.89-6.42-5.42-8.16h14.95c.14.66-.15,1.27-1.11,1.84-.24.71-.28,2-.14,3.14l16.92,42.71,15.9-40.82c.6-2.97.42-4.31-2.82-6.76Z"/>
  <path d="M278.83,229.26c0,5.45,4.01,5.61,3.1,7.15l-15.74-.13c2.69-2.3,3.89-3.86,3.89-7.02l-.02-43.54c0-2.94-1.48-4.28-3.87-6.56l15.97-.13c.14,1.79-3.32,2.02-3.32,7.17v43.06Z"/>
  <path d="M203.97,229.26c0,5.46,4.03,5.62,3.1,7.16l-15.72-.13c2.61-2.31,3.87-3.89,3.87-7.02v-43.55c-.01-2.96-1.43-4.32-3.9-6.55l15.98-.13c.13,1.78-3.32,2.01-3.32,7.16v43.06Z"/>
  <path d="M361.44,159.18l-7.57-.03,1.65-2.17.04-11.93-13.6-.02-.03,10.53c0,1.17.73,2.29,1.79,3.58l-7.66.04,1.73-2.23.04-21.21c0-1.48-.68-2.6-1.81-3.92h7.73c-1.11,1.28-1.83,2.48-1.82,3.86l.06,8.59h13.55s.04-9.13.04-9.13c0-.89-.82-2.12-1.74-3.29h7.57c-.93,1.21-1.68,2.33-1.69,3.37l-.02,19.79c0,1.5.58,2.62,1.75,4.17Z"/>
  <path d="M382.5,144.88l-6.05-.07.17,12.69c.01,1,3.25,1.32,3.9.77,4.89.94,8.12-.92,10.24-5.35l-.13,6.24-19.99.02,1.68-2.27.06-21.17c0-1.47-.67-2.63-1.86-3.93l19.03-.04.34,6c-3.2-5.9-6.92-5.56-13.4-5.26v11.64s7.03-.1,7.03-.1c1.73-.53,2.47-1.26,3.95-3.19l.05,7.18c-1.57-2.11-2.74-3.15-5.02-3.17Z"/>
  <path d="M321.11,159.13l-7.2.04c.56-.91,1.58-2.36,1.58-3.18l.03-23.26c-3.69-.78-6.24.64-8.29,4.19l.09-5.16h20.48s.08,5.16.08,5.16c-2.04-3.56-4.6-4.97-8.28-4.18l.03,22.72c0,1.02.62,2.12,1.48,3.67Z"/>
  <polygon points="523.78 267.94 521.13 267.9 514.99 260.02 514.71 268.06 511.95 268.05 511.95 254.78 514.76 254.92 520.74 262.74 520.91 254.76 523.78 254.8 523.78 267.94"/>
  <polygon points="180.92 267.99 178.36 267.98 172.14 259.98 171.84 268.06 169.13 268.05 169.14 254.74 172.02 255.06 177.74 262.4 178.07 254.75 180.93 254.79 180.92 267.99"/>
  <path d="M437.75,268c-1.37,0-1.87-5.23-5.48-4.16v4.21s-2.85.02-2.85.02v-13.32s8.13.3,8.13.3c1.88.07,2.91,2.44,2.93,3.78.03,2.02-.7,3.4-2.68,4.57l2.97,4.62h-3.02ZM436.9,260.77c.87-.22.65-3.02-.15-3.1l-4.45-.44v4.11c1.78-.09,2.91-.14,4.6-.57Z"/>
  <path d="M259.5,267.99l-5.7.09v-13.33s5.44.05,5.44.05c3.93.03,6.65,2.78,6.76,6.42.1,3.41-2.37,6.7-6.5,6.77ZM256.66,265.37c2.93.29,4.67-.22,5.64-1.67,1.07-1.6.79-3.91-.43-5.17-1.08-1.12-3.37-1.47-5.2-1.04v7.88Z"/>
  <path d="M377.62,262.88l-.05-2.53,5.81-.02.02,5.84c-2.6,2.19-6.19,2.86-9.26,1.24-2.73-1.43-3.82-4.44-3.26-7.42.5-2.69,2.89-5.16,6.05-5.43,2.23-.19,4.22.44,6.07,1.71l-1.9,2.31c-1.9-1.55-4.19-1.82-5.87-.4s-1.75,3.97-.69,5.8c1.16,2.01,4.54,2.06,5.85.83.33-.31.26-1.76-.16-1.78l-2.63-.14Z"/>
  <path d="M326.76,267.95c-5.64,1.53-3.91-5.17-8.46-4.09l-.03,4.21-2.78-.03v-13.27s5.69-.03,5.69-.03c2.29-.01,4.53.83,5.06,2.77.66,2.39.06,4.6-2.41,5.89l2.93,4.55ZM322.52,260.99c.57-.03,1.24-1.55,1.07-2.1-.15-.45-1.02-1.4-1.5-1.42l-3.76-.1-.03,3.85,4.22-.23Z"/>
  <path d="M453.42,262.6l-5.72.08c-.75,0-.75,2.8-.02,2.8l6.64.05v2.54s-10.01,0-10.01,0v-13.3s9.94,0,9.94,0l.05,2.59h-7.12s-.01,2.76-.01,2.76h6.32s-.06,2.49-.06,2.49Z"/>
  <path d="M507.48,262.66l-6.17-.03c-.11.64-.12,2.28-.02,2.87l6.98.02-.02,2.55h-9.96s0-13.3,0-13.3h9.93s.04,2.58.04,2.58h-6.95s-.26,2.75-.26,2.75l6.42.03v2.54Z"/>
  <path d="M249.35,262.62l-6.21.02c-.09.64-.09,2.27,0,2.86l6.98.02-.02,2.54h-9.96s0-13.29,0-13.29h9.92s.05,2.58.05,2.58h-6.94s-.27,2.73-.27,2.73l6.44.09v2.46Z"/>
  <path d="M209.53,262.62l-6.22.02c-.07.64-.07,2.26,0,2.86l6.99.02-.02,2.55h-9.96s0-13.3,0-13.3h9.92s.04,2.58.04,2.58h-6.95s-.26,2.73-.26,2.73l6.45.09v2.46Z"/>
  <path d="M366.91,262.62l-6.22.02c-.08.64-.08,2.27,0,2.86h6.99s-.02,2.56-.02,2.56h-9.96s0-13.3,0-13.3h9.92s.04,2.58.04,2.58h-6.95s-.26,2.73-.26,2.73l6.45.09v2.47Z"/>
  <path d="M340.28,268.03l-1.17-2.45c-.31-.64-2.32-.73-3.03-.64l-2.56.31c-.62.07-.78,1.52-1.18,2.33-.35.7-2.41.58-3.1.28l5.38-12.72c.7-.58,2.56-.56,3.2.05l5.4,12.84h-2.93ZM337.94,262.5l-1.75-4.21-1.75,4.15,3.5.06Z"/>
  <path d="M295.22,268.16c-2.48.22-4.7-.39-6.65-2.04l1.79-2.14c2.04,1.7,4.4,2.72,6.19.25-2.72-2.43-7.32-1.32-7.43-5.45-.05-1.87,1.1-3.61,3.23-4.05,2.24-.46,4.26.11,6.35,1.41l-1.68,2.35c-1.67-1.39-3.8-1.97-5.09-.28,1.28,2.82,7.16,1.21,7.18,5.89.01,2.2-1.44,3.85-3.89,4.06Z"/>
  <path d="M463.64,268.15c-2.47.21-4.71-.4-6.66-2.02l1.8-2.15c2.04,1.72,4.4,2.72,6.19.25-2.72-2.43-7.31-1.31-7.43-5.45-.05-1.87,1.1-3.61,3.22-4.05,2.24-.47,4.27.11,6.35,1.41l-1.69,2.35c-1.73-1.4-3.73-2.13-5.13-.23,1.59,2.72,7.22,1.29,7.24,5.83,0,2.22-1.44,3.85-3.89,4.06Z"/>
  <path d="M220.68,267.96c-3.2.62-5.27-.02-7.63-1.76l1.8-2.25c1.76,1.76,4.47,2.71,6.07.31-2.33-2.45-7.25-1.31-7.35-5.45-.05-2,1.12-3.72,3.41-4.13,2.15-.39,4.38.28,6.21,1.56l-1.59,2.13c-3.2-2.08-5.61-.9-5.26-.02.14.36.79,1.03,1.19,1.18l4.9,1.88c1.06.4,1.25,2.74,1,3.83-.22.95-1.55,2.48-2.76,2.72Z"/>
  <path d="M397.08,261.13c-.06,2.24,1.18,3.78,2.61,4.23,1.7.54,3.23-.01,4.73-1.39l1.79,1.95c-2.82,3.37-8.11,3.03-10.63-.07-2.76-3.4-1.76-8.82,2.21-10.61,2.8-1.26,5.86-.93,8.25,1.13-.34.67-1.22,1.78-1.71,2.24-1.76-1.14-2.98-1.6-4.69-1.19-1.12.27-2.52,2.03-2.56,3.7Z"/>
  <polygon points="194.17 254.85 197.32 254.76 192.1 267.93 189.33 268.07 184.01 254.76 187.22 254.8 190.74 263.8 194.17 254.85"/>
  <polygon points="533.99 268.02 531.11 268.08 531.1 257.48 527.09 257.37 527.11 254.76 537.98 254.76 538.02 257.38 533.98 257.47 533.99 268.02"/>
  <polygon points="232.65 268.02 229.78 268.08 229.77 257.48 225.75 257.37 225.78 254.76 236.65 254.76 236.68 257.38 232.64 257.47 232.65 268.02"/>
  <polygon points="487.84 265.41 487.86 268.05 478.36 268.06 478.36 254.81 481.2 254.76 481.2 265.4 487.84 265.41"/>
  <polygon points="350.44 268.01 347.56 268.05 347.56 257.49 343.49 257.36 343.53 254.76 354.44 254.76 354.47 257.37 350.41 257.49 350.44 268.01"/>
  <polygon points="308.21 268.01 305.33 268.05 305.34 257.49 301.26 257.36 301.31 254.76 312.22 254.76 312.25 257.37 308.19 257.49 308.21 268.01"/>
  <rect x="471.07" y="254.76" width="2.87" height="13.3"/>
  <rect x="491.23" y="254.75" width="2.87" height="13.3"/>
  <rect x="162.06" y="254.76" width="2.87" height="13.3"/>
  <rect x="387.35" y="254.76" width="2.87" height="13.3"/>
</svg>