<?xml version="1.0" encoding="UTF-8"?>
<svg id="Layer_1" xmlns="http://www.w3.org/2000/svg" version="1.1" viewBox="0 0 700.08 400.08">
  <!-- Generator: Adobe Illustrator 30.4.0, SVG Export Plug-In . SVG Version: 2.1.4 Build 226)  -->
  <path d="M581.09,231.73l-7.02-16.66c-3.07-7.29-5.25-8.78-14.18-7.98l.06,22.24c.01,5.18,3.68,5.25,3.4,7.03h-15.45c-.36-1.75,3.17-2.35,3.17-6.61l.03-42.66c0-6.5-2.99-5.81-3.23-8.06l20.06.03c9.52.01,19.14,3.25,18.91,13.3-.1,4.38-1.94,8.37-5.69,10.84l-7.57,3.5c2.06,1.13,4.44,1.67,5.75,2.99,2.92,2.96,4.31,6.67,5.88,10.38l5.28,12.42c.89,2.09,2.91,3.09,5.15,2.75l-.09,1.5-5.56.4c-3.84.28-7.31-1.66-8.89-5.42ZM578,194.5c.08-6.24-3.36-11.53-9.14-13.31-2.78-.86-5.72-.87-8.96-.54v24.92c3.33.14,6.27.14,9.14-.32,5.39-.88,8.89-5.05,8.96-10.75Z"/>
  <path d="M137.24,230.82l-6.56-15.76c-3.04-7.3-5.32-8.77-14.17-7.97l.05,22.24c.01,5.16,3.64,5.25,3.41,7.03h-15.51c-.28-1.75,3.17-1.81,3.2-6.57l.12-24.17-.18-20.98c-.03-3.45-3.64-4.13-3.1-5.6l20.05.03c9.53.02,19.15,3.25,18.9,13.28-.2,8.35-5.55,11.62-13.24,14.31,1.98,1.2,4.46,1.73,5.73,3.02,2.93,2.98,4.31,6.68,5.89,10.4l5.28,12.42c.89,2.1,2.9,3.09,5.15,2.75l-.13,1.44c-6.77,1.13-12.09.89-14.89-5.85ZM134.63,194.43c.04-6.27-3.45-11.71-9.53-13.37-2.66-.73-5.46-.74-8.57-.41v24.89c3.33.15,6.28.14,9.12-.32,5.54-.9,8.94-5.15,8.98-10.79Z"/>
  <path d="M457.39,236.25l-25,.11c-.21-1.88,3.39-1.72,3.39-7.56v-42.2c0-5.84-3.6-5.69-3.39-7.57l23.26.08c6.3.02,12.4,1.83,17.54,5.32,13.94,9.47,14.36,30.93,4.44,42.42-4.96,5.75-12.23,9.37-20.24,9.4ZM473.01,198.67c-4.19-13.13-14.65-19.33-28.53-18.1l.04,49.95c0,2.38,1.64,4.46,3.88,4.4l10.51-.28c16.31-2.08,17.85-21.7,14.09-35.97Z"/>
  <path d="M366.29,207.73c0,16.37-13.27,29.64-29.65,29.64s-29.65-13.27-29.65-29.64,13.27-29.64,29.65-29.64,29.65,13.27,29.65,29.64ZM351.38,231.37l2.76-2.78c7.5-7.55,2.76-36.62-12.57-45.54-6.25-3.64-14.2-3.56-19.74,1.19-11.16,9.56-5.78,36.55,8.49,46.63,6.12,4.32,14.85,5.3,21.06.5Z"/>
  <path d="M271.07,228.87c.02,5.82,3.48,5.52,3.44,7.5h-15.6c.31-1.04.69-1.32,1.65-2.22,1.46-1.36,1.68-4.1,1.68-6.24l.02-32.44.02-8.02c0-2.03-.3-4.85-1.7-6.18-.86-.82-1.15-.96-1.74-2.21h19.76c4.45.01,8.89,1,12.75,2.96,5.76,2.93,8.7,8.88,7.82,15.23-1.52,10.9-10.51,16.18-21.01,16.47l-7.13.2.04,14.95ZM289.53,201.36c1.03-5.71.18-11.6-3.54-15.96s-9.75-5.76-14.96-4.56l.02,31.45c9.14.99,16.85-1.87,18.48-10.94Z"/>
  <path d="M418.18,237.01l-37.9-47.76-.36,31.88c.26,6.26.4,12.46,6.24,13.96l.05,1.3-11.06-.04c-.31-1.77,3.16-2.32,3.17-6.58l.08-35.07-.34-10.47c-.06-1.84-1.94-3.46-3.53-3.84l-.35-1.35,9.38.02,34.03,42.57.2-29.22-.93-7.17c-.67-2.2-2.91-4.27-4.84-4.83l-.44-1.37h11.26c-.03,1.96-3.41,1.83-3.42,7.59l-.04,50.47-1.2-.09Z"/>
  <path d="M507.84,230.94c0,2.15,1.43,4.04,3.43,4.02l12.07-.15c2.82-.03,6.18-1.22,8.06-3.05l2.56-2.51c1.18-1.16,2.04-3.11,2.81-4.9l1.2.03-.25,7.14-.3,4.86h-41.64c-.37-1.87,3.35-1.65,3.34-7.58l-.02-42.66c0-5.27-3.77-5.37-3.34-7.11h39.56s.79,11.11.79,11.11c.03.39-.83.85-.97.66l-.66-.9c-2.07-5.57-6.8-8.56-12.65-9.37l-13.99-.11v24.49s14.83-.51,14.83-.51c3.54-.12,6.34-2.48,7.19-5.76l1.25.11-.26,14.51c-2.54-3.83-4.14-6.42-8.29-6.53l-14.73-.37v24.56Z"/>
  <path d="M170.5,206.38l.02,24.77c0,2.25,1.73,3.88,3.91,3.86l11.53-.11c6.14-.66,11.15-3.91,13.08-9.93l1.1-.76c.25-.17.5.87.48,1.18l-.59,10.99h-41.6c-.36-1.87,3.35-1.65,3.35-7.58v-42.2c0-5.92-3.72-5.72-3.35-7.58h39.55s.78,11.19.78,11.19c.03.44-1.17.53-1.35.29-2-5.77-7.08-9.83-13.39-9.9l-13.52-.15v24.49s14.43-.45,14.43-.45c5.28-.17,7.22-5.24,8.04-5.9.26-.21.84.57.83.9l-.29,13.81c-2.58-4.06-4.4-6.51-8.7-6.61l-14.32-.31Z"/>
  <path d="M245.32,231.1c-9.06,9-24.46,7.03-35.42.38l.03-13.32c3.18,5.44,5.16,9.96,9.98,13.26,4.32,2.96,9.64,4.56,14.85,3.63,4.21-.75,7.25-3.76,8.11-7.44,2.04-8.7-6.45-12.43-13.72-15.69l-11.5-5.15c-4.14-1.85-6.53-5.66-7.02-10.06-.84-7.62,3.15-14.14,10.52-16.71,8.52-2.98,18.04-2.05,26.33,1.65l.18,10.87c-.13.05-.87.28-.93.13l-.44-1c-3.84-8.67-12.92-13.69-22.13-11.21-4.01,1.08-6.6,4.38-7.19,7.94-2.61,15.95,31.56,12.85,32.95,29.94.4,4.85-1.16,9.39-4.59,12.8Z"/>
  <path d="M359.67,159.15h-7.69s1.75-2.23,1.75-2.23l.05-11.91h-13.59s-.05,10.01-.05,10.01c0,1.39.66,2.62,1.8,4.09l-7.69.05,1.74-2.28.05-21.18c0-1.33-.78-2.55-1.76-3.9l7.69-.03c-1.03,1.35-1.84,2.62-1.84,3.86l.06,8.62h13.53s.09-8.1.09-8.1c.02-1.56-.65-2.84-1.83-4.38h7.66c-1.01,1.37-1.74,2.57-1.74,3.93v19.3c0,1.44.65,2.64,1.75,4.16Z"/>
  <path d="M380.56,144.87l-5.82-.06-.03,11.49c0,.6.83,2.1,1.37,2.1l6-.06c3.66-.03,5.06-2.42,6.95-5.47l-.18,6.28h-20s1.7-2.28,1.7-2.28l.07-20.68c0-1.64-.6-2.87-1.8-4.43l18.86-.02c.48,1.74.66,3.78.21,6.1-1.38-2.98-3.02-5.03-6.21-5.12l-6.95-.2v11.62s7.79-.41,7.79-.41c1.05-.05,2.02-1.52,3.15-2.9l.08,7.2c-1.69-2.21-2.83-3.16-5.2-3.18Z"/>
  <path d="M319.7,159.09l-7.64.04c.91-1.35,1.67-2.53,1.67-3.7l-.05-22.85c-4.31-.41-6.21,1-8.29,4.4l.05-5.24h20.72s-.08,5.26-.08,5.26c-1.93-3.61-4.51-5-8.28-4.12l.06,22.32c0,1.44.6,2.52,1.83,3.9Z"/>
  <path d="M343.97,268.02l-2.68-.12-6.06-7.52-.33,7.66h-2.76s0-13.49,0-13.49l2.82.29,4.42,5.62c2.29-1.75,1.59-3.86,1.32-5.86l3.28-.05v13.47Z"/>
  <path d="M453.3,268.26c-4.38.45-7.76-2.77-7.85-6.65-.1-4.21,3.38-7.41,7.74-7.1,3.76.26,6.39,3.15,6.47,6.72.08,3.44-2.44,6.62-6.35,7.02ZM456.64,261.38c0-2.25-1.83-4.08-4.08-4.08s-4.08,1.83-4.08,4.08,1.83,4.08,4.08,4.08,4.08-1.83,4.08-4.08Z"/>
  <path d="M160.26,267.93c-5.82,1.51-4.04-5.08-8.54-4.16l-.04,4.25h-2.85s.03-13.46.03-13.46c5.65.1,10.96-.52,11.04,4.22.03,2.02-.63,3.19-2.53,4.71l2.88,4.44ZM156.05,260.85c.49-.17,1.04-1.53.89-2.03-.47-1.54-2.58-1.67-5.16-1.49l-.03,3.83c1.4.1,3.26.05,4.3-.31Z"/>
  <path d="M327.61,262.6h-4.79c-.43,0-1.33.65-1.5.98-.23.44.4,1.9.96,1.9h6.27s.07,2.55.07,2.55h-10.26s-.03-13.39-.03-13.39l10.3-.02v2.71s-7.16.01-7.16.01l.02,2.58h6.24s-.12,2.68-.12,2.68Z"/>
  <path d="M484.8,263.12l-.09-2.81,5.85.02-.02,5.88c-2.65,2.25-6.47,2.87-9.56,1.05-2.08-1.23-3.04-3.46-3.09-5.58-.06-2.37.87-4.71,3.06-6.06,2.89-1.77,6.46-1.49,9.16.69l-1.89,2.26c-1.93-1.58-4.12-1.79-5.83-.41-1.61,1.29-1.69,3.7-.91,5.44.97,2.16,4.28,2.45,5.88,1.33.39-.27.2-1.99-.18-1.96l-2.38.17Z"/>
  <polygon points="505.61 267.98 502.56 268.04 502.56 262.7 497.19 262.67 497.18 268.04 494.33 268.01 494.32 254.53 497.16 254.64 497.22 259.92 502.54 259.85 502.55 254.58 505.64 254.57 505.61 267.98"/>
  <path d="M392.87,262.59h-4.8c-.43.01-1.31.66-1.48.99-.22.44.4,1.9.92,1.9h6.29s.08,2.55.08,2.55h-10.3s.11-13.4.11-13.4h10.21s0,2.7,0,2.7h-7.15s0,2.53,0,2.53l6.23.23-.09,2.51Z"/>
  <polygon points="441.94 268.02 439.06 268.04 439.05 262.67 433.68 262.7 433.67 268.01 430.8 268.06 430.79 254.58 433.66 254.57 433.77 259.85 439.01 259.91 439.09 254.56 441.94 254.56 441.94 268.02"/>
  <path d="M138.17,264.25l-.1,3.76-3.08.02.07-13.42,5.96.1c2.63.04,4.48,1.83,4.73,4.24.22,2.07-1.23,4.59-3.74,4.88l-3.84.44ZM142.12,257.98c-.55-.52-2.52-.81-3.35-.6s-1,2.71-.48,3.41,2.22.67,3.29.4c.93-.24,1.61-2.2.54-3.21Z"/>
  <path d="M544.75,254.58l2.9.04-.02,8.23c0,3.55-2.69,5.58-6.03,5.46s-5.53-2.16-5.53-5.49v-8.25s2.91,0,2.91,0l.05,7.82c.01,1.82,1.23,3.16,2.74,3.17,1.76.01,2.98-1.27,2.98-3.14v-7.84Z"/>
  <path d="M471.6,254.61l2.9-.04v8.23c0,3.58-2.89,5.75-6.28,5.53s-5.36-2.51-5.32-5.94l.08-7.79h2.89s-.03,7.83-.03,7.83c0,1.89,1.21,3.16,2.99,3.15,1.47-.01,2.74-1.36,2.74-3.16l.02-7.8Z"/>
  <path d="M238.79,267.92l-1.07-2.51c-.28-.65-5.11-.68-5.67-.04-.41.47-.62,1.29-1.05,2.49l-3.21.23,5.66-13.46,2.78-.07,5.75,13.57-3.18-.21ZM236.56,262.41l-1.78-3.78-1.77,3.83,3.54-.05Z"/>
  <path d="M287.5,267.95c-.59-1.36-.83-2.12-1.24-2.59-.44-.51-4.16-.67-5.35-.08-.57.28-.78,1.27-1.18,2.56l-3.27.21,5.73-13.45h2.77s5.66,13.44,5.66,13.44l-3.12-.09ZM285.34,262.37l-1.82-3.73-1.6,3.69,3.42.04Z"/>
  <path d="M173.29,267.95c-.58-1.37-.82-2.12-1.23-2.59-.43-.49-4.03-.68-5.36-.09-.58.26-.79,1.29-1.17,2.57l-3.24.18,5.63-13.28,2.82-.13,5.69,13.44-3.14-.1ZM171.14,262.37l-1.83-3.73-1.61,3.7,3.43.03Z"/>
  <path d="M181.1,261.67c.13,1.82,1.4,3.46,2.75,3.75,1.71.37,3-.22,4.6-1.47l1.76,1.96c-2.72,3.22-7.62,3.14-10.35.34s-2.51-8.07.89-10.47c2.95-2.08,6.89-1.66,9.51.69l-2.06,2.3c-1.14-1.2-2.77-1.81-4.35-1.4s-2.92,2.05-2.76,4.28Z"/>
  <path d="M216.61,261.66c.14,1.82,1.4,3.48,2.75,3.76,1.73.36,2.97-.2,4.61-1.48l1.79,2.09c-2.4,2.3-5.28,2.83-8.1,1.76s-4.38-3.85-4.14-7.04c.21-2.78,2.12-5.5,5.33-6.1,2.55-.47,5.02.1,6.94,1.84l-2.08,2.28c-1.12-1.18-2.78-1.82-4.35-1.4s-2.91,2.08-2.74,4.29Z"/>
  <path d="M532.03,260.26l.14,2.67-6.32.07-.07,5.02h-2.84s-.25-13.35-.25-13.35l10.38-.05-.13,2.75-6.26.02c-.37,0-1.04,1.03-1.03,1.4s.67,1.46,1.06,1.46h5.32Z"/>
  <polygon points="377.7 254.61 380.81 254.65 375.47 268.1 372.84 268.29 367.38 254.57 370.71 254.71 374.17 263.46 377.7 254.61"/>
  <polygon points="297.87 268.01 294.81 268.01 294.86 257.71 290.91 257.28 290.86 254.62 301.85 254.64 301.8 257.36 297.87 257.49 297.87 268.01"/>
  <polygon points="199.51 268.01 196.44 268.01 196.49 257.71 192.54 257.28 192.5 254.62 203.49 254.64 203.44 257.4 199.51 257.48 199.51 268.01"/>
  <polygon points="354.02 268.01 350.95 268.02 351 257.71 347.05 257.28 347.01 254.61 357.99 254.64 357.94 257.37 354.01 257.49 354.02 268.01"/>
  <polygon points="515.72 268.01 512.65 268.02 512.71 257.71 508.75 257.28 508.71 254.62 519.69 254.64 519.66 257.41 515.72 257.48 515.72 268.01"/>
  <polygon points="311.01 268.01 308.12 268.03 308.11 257.46 303.91 257.33 303.85 254.64 315.2 254.61 315.12 257.36 311 257.44 311.01 268.01"/>
  <polygon points="423.29 268 420.41 268.08 420.4 257.46 416.38 257.36 416.43 254.63 427.52 254.64 427.32 257.37 423.28 257.45 423.29 268"/>
  <polygon points="561.28 265.39 561.31 268.03 551.44 268.02 551.81 254.58 554.6 254.55 554.57 265.35 561.28 265.39"/>
  <polygon points="254.71 265.39 254.72 268.01 245.08 268.04 245.1 254.57 247.99 254.56 247.96 265.36 254.71 265.39"/>
  <rect x="361.31" y="254.48" width="2.91" height="13.55"/>
  <rect x="201.48" y="259.8" width="13.55" height="2.9" transform="translate(-53.15 469.32) rotate(-89.96)"/>
</svg>