<?xml version="1.0" encoding="UTF-8"?>
<svg id="Layer_1" xmlns="http://www.w3.org/2000/svg" version="1.1" viewBox="0 0 700.08 400.08">
  <!-- Generator: Adobe Illustrator 30.4.0, SVG Export Plug-In . SVG Version: 2.1.4 Build 226)  -->
  <path d="M228.19,236.33c-.57-1.67,3.25-1.74,3.27-7.03l.06-22.61h-28.48s0,22.12,0,22.12c0,1.96.82,4.25,1.8,5.61,1.19.42,1.5.78,1.61,1.93h-15.57c.27-.9.82-1.55,1.47-2.14,2.55-2.33,1.47-5.49,1.43-8.48l-.14-9.61.71-2.26-.06-26.7c-.01-6.09-2.76-5.8-3.39-8.14l16.05.16c-2.74,2.38-3.89,3.94-3.89,6.95l-.04,19.04h28.49s-.06-19.1-.06-19.1c-.02-5.07-3.48-5.23-3.4-7.02h15.54c-.18,1.98-3.37,1.93-3.37,7.6v42.12c0,5.66,3.22,5.64,3.35,7.6h-15.38Z"/>
  <path d="M356.7,229.03l-.13-42.05-19.44,33.85-2.05-.08-20.36-33.22-.08,35.01.9,7.18c.31,2.48,2.71,4.59,4.91,5.27.36.11.34,1.42-.04,1.41l-11.1-.22c2.25-2.26,3.76-3.64,3.76-6.48l.06-35.91c0-5.68-.6-11.59-5.05-13.42-.26-.11-.51-1.12-.5-1.36h12.36s20.16,33.32,20.16,33.32l19.2-33.33h11.73s-.16,1.26-.16,1.26c-4.21,1.32-5.4,6.75-5.4,11.6v36.88c0,5.64,3.16,5.6,3.35,7.59h-15.53c-.07-1.84,3.43-1.86,3.41-7.31Z"/>
  <path d="M516.83,207.71c0,16.36-13.27,29.62-29.63,29.62s-29.63-13.26-29.63-29.62,13.27-29.62,29.63-29.62,29.63,13.26,29.63,29.62ZM506.09,226.52c2.18-4.45,2.45-9.13,1.92-13.8-1.22-10.8-5.58-22.63-14.53-28.84-5.76-3.99-13.28-4.72-19.3-.98-4.29,2.66-6.77,7.3-7.41,12.46-2.11,16.92,8.11,38.67,24.93,39.12,6.05.16,11.67-2.38,14.4-7.96Z"/>
  <path d="M394.07,229.5c.02,3.08,1.38,4.39,3.84,6.7l-16.03.15c.3-1.09.65-1.3,1.66-2.27,1.33-1.28,1.75-4.15,1.75-6.31v-40.2c0-2.17-.42-5.01-1.74-6.31-.89-.87-1.16-.98-1.76-2.23h19.76c10.29.01,20.41,4.79,20.66,15.68.18,8.15-4.73,14.69-12.44,17.34-5.01,1.72-9.99,1.86-15.8,1.73l.09,15.71ZM412.3,202.18c1.36-5.94.51-12.24-3.33-16.78-3.6-4.25-9.22-5.54-14.96-4.78l-.02,31.73c8.42.81,16.31-1.43,18.31-10.16Z"/>
  <path d="M569.74,237.95l-39.03-48.88-.15,34.43.96,6.66c.67,2.23,2.85,4.28,4.85,4.85l.42,1.35h-11.25c.05-1.97,3.46-1.73,3.46-7.57v-42.65c0-2.18-1.36-4.73-2.98-5.39l-1.24-.51c-.22-.09-.08-.76-.06-1.21l9.35-.03,34.13,42.64.21-28.35c.04-5.74-.98-11.78-6.18-13l-.07-1.3,11.32.1c-.54,1.16-.93,1.5-1.84,2.09-1.36,1.94-1.59,4.55-1.63,7.13l-.25,49.65Z"/>
  <path d="M172.81,230.67c2.97-2.75,4.93-5.39,6.07-9.26l1.34.11-1.36,11.81c-14.68,5.95-36.52,5.93-46.48-6.33-4-4.92-5.43-10.73-5.73-16.92-.58-11.74,5.4-22.3,15.83-27.78,10.42-5.47,25.39-5.32,36.12-.22.02,3.99.63,7.54-.04,12.05-4.71-9.93-13.59-15.29-24.15-14.02-8.26.99-14.87,6.12-17.41,14.2-3.09,9.82-1.8,20.7,3.58,29.51,4.73,7.75,12.98,12.19,21.98,11.39,3.86-.35,7.58-1.75,10.25-4.52Z"/>
  <path d="M262.18,214.94l-5.78,14.24c-2.02,4.97,1.96,5.25,2.08,7.14h-9.8c-.14-1.87,3.95-2.18,6.13-7.6l16.71-41.58c-.33-1.81-1.07-3.63-1.8-5.34l8.12-3.54,20.96,49.95c2.13,5.08,5.38,6.06,5.69,8.11l-15.04.02.56-1.54c.72-.36,1.25-1.84.93-2.61l-7.1-17.14-21.66-.11ZM283.17,213.62l-10.48-25.03-10.13,25.11,20.61-.08Z"/>
  <path d="M446.5,236.33h-15.47c.06-1.93,3.43-1.88,3.43-7.56v-42.67c-.01-5.21-3.77-5.4-3.33-7.08h15.42c-.13,1.97-3.35,1.91-3.35,7.6v42.11c0,5.8,3.36,5.69,3.31,7.6Z"/>
  <path d="M361.25,159.13l-7.67-.03,1.73-2.21.05-11.91-13.59-.02-.03,10.55c0,1.06.8,2.27,1.79,3.57l-7.68.03,1.72-2.25.04-21.68c0-1.06-.81-2.2-1.74-3.37l7.68-.04c-1.22,1.56-1.84,2.55-1.83,3.85l.05,8.6,13.56-.02v-9.55c0-.68-.98-1.76-1.86-2.86h7.84c-1.05,1.35-1.81,2.33-1.81,3.37l-.03,19.8c0,1.46.64,2.62,1.77,4.17Z"/>
  <path d="M382.29,144.83l-6.04-.06.17,12.65c.31,1.48,3.32.84,4.55.97,3.95.42,7.74-1.05,9.54-5.64l-.12,6.37h-20.01c1.2-1.45,1.78-2.59,1.78-4.18v-19.27c0-1.47-.66-2.6-1.85-3.93h19.06s.17,6.13.17,6.13c-1.75-3.7-3.98-5.45-7.71-5.42l-5.54.05v11.6s6.93-.13,6.93-.13c1.77-.52,2.53-1.21,4.03-3.16l.06,7.18c-1.62-2.04-2.78-3.16-5.02-3.18Z"/>
  <path d="M320.88,159.08l-7.18.03c.55-.92,1.56-2.4,1.56-3.24l.04-23.21c-3.7-.74-6.25.66-8.33,4.26l.09-5.22h20.5s.15,5.26.15,5.26c-1.98-3.45-4.53-5.1-8.35-4.29l.04,22.68c0,1.03.61,2.17,1.46,3.73Z"/>
  <path d="M199.02,268c-5.04,1.23-5.08-4.13-6.35-3.84l-2.09.46-.09,3.5-3.57-.45v-12.96s7.93-.02,7.93-.02c2.13,0,3.67,2.22,3.84,3.76.24,2.12-.64,3.81-2.76,4.9l3.09,4.66ZM194.92,257.79c-.99-.59-3.75-.87-4.2.09-.35.73-.42,2.41-.02,2.88.7.8,3.79.8,4.81-.57.35-.47-.08-2.09-.59-2.4Z"/>
  <path d="M154.55,262.58h-5.34c-.4,0-1.05,1.09-1.06,1.46s.65,1.4,1.06,1.4h6.23s.09,2.58.09,2.58l-10.78-.06-.06-13.27,10.87-.13-.1,2.72-6.69.07c-.25,0-.55,1.49-.3,1.53l1.6.28,4.39.32.09,3.1Z"/>
  <path d="M515.29,268h-2.81s.02-13.24.02-13.24c.84-.16,2.58-.09,3.09.53l5.48,6.6.34-7.36,2.87.09.05,13.18c-.87.47-2.63.17-3.18-.52l-5.49-6.96-.37,7.69Z"/>
  <polygon points="365.93 267.96 363.38 267.93 357.35 260.33 356.97 268 354.13 268 354.14 254.7 357.01 254.96 362.74 262.37 363.07 254.7 365.92 254.73 365.93 267.96"/>
  <path d="M508.88,261.36c0,3.87-3.14,7.01-7.02,7.01s-7.02-3.14-7.02-7.01,3.14-7.01,7.02-7.01,7.02,3.14,7.02,7.01ZM505.96,261.36c0-2.26-1.83-4.09-4.09-4.09s-4.09,1.83-4.09,4.09,1.83,4.09,4.09,4.09,4.09-1.83,4.09-4.09Z"/>
  <path d="M273.95,262.53l-5.91.1c-.75.01-.76,2.77-.03,2.78l6.64.06v2.54s-10.03,0-10.03,0l-.05-13.39,10.03-.02-.04,2.68-6.77.12c-.37,0,.03,1.84.42,1.84l4.96.08c.34.56.54,1.56.78,3.21Z"/>
  <path d="M211.57,262.53l-5.91.1c-.75.01-.75,2.77-.03,2.78l6.63.06.02,2.54h-10.05s-.02-13.39-.02-13.39l10-.02-.04,2.68-6.79.13c-.34,0,.05,1.83.44,1.84l4.96.08c.33.56.53,1.56.77,3.21Z"/>
  <path d="M389.32,268c-1.72.02-4.04.1-5.18-.17-2-.48-.42-2.66-.4-3.68l.19-9.41,5.13-.03c4.02-.02,6.97,2.68,7.02,6.45.05,3.54-2.5,6.77-6.76,6.83ZM386.83,265.32c3.13.31,4.66-.26,5.63-1.87.89-1.46.55-3.78-.43-4.83-1.32-1.39-3.87-1.8-5.28-.82l.09,7.51Z"/>
  <path d="M431.04,267.89c-5.77,1.54-3.95-4.89-8.5-4.13l-.12,4.24h-2.83s0-13.31,0-13.31l8.13.3c1.89.07,2.91,2.44,2.94,3.79.04,2.06-.64,3.33-2.72,4.6l3.09,4.51ZM426.8,260.82c.48-.2,1.07-1.53.9-2.02-.51-1.52-2.65-1.76-5.16-1.4v3.69c1.36.17,3.27.15,4.26-.27Z"/>
  <path d="M347.46,254.75h2.88s.02,8.03.02,8.03c0,3.42-2.6,5.55-5.88,5.52-3.09-.02-4.97-1.65-5.76-4.49-.86-3.05-.88-5.78.28-9.1l2.74.03-.04,7.75c0,1.01.87,2.45,1.64,2.83.87.44,3.4-.01,3.57-.98.61-3.38.55-5.78.55-9.6Z"/>
  <path d="M379.33,262.55l-5.77.07c-.72.01-.73,2.79,0,2.79l6.63.03v2.56s-10.03,0-10.03,0v-13.29s9.96,0,9.96,0l.04,2.59-7.1.02-.02,2.74h6.31s-.03,2.5-.03,2.5Z"/>
  <path d="M308.05,267.92l-1.15-2.47c-.31-.67-5.07-.78-5.62-.1-.4.48-.62,1.29-1.06,2.48l-3.18.23,5.63-13.46,2.79-.07,5.75,13.57-3.16-.19ZM305.05,260.73c0-.51-.41-.92-.92-.92s-.92.41-.92.92.41.92.92.92.92-.41.92-.92Z"/>
  <polygon points="443.46 262.56 437.18 262.65 437.21 265.43 444.44 265.46 444.36 268.01 434.26 268.01 434.26 254.71 444.2 254.71 444.24 257.28 437.23 257.34 437.18 260.05 443.46 260.07 443.46 262.56"/>
  <path d="M470.41,267.93c-.52-1.33-.75-2.22-1.23-2.62-.59-.5-4.26-.59-5.33-.07-.56.28-.78,1.32-1.2,2.38-.47.45-2.33.45-3.14.24l5.54-13.17,2.83-.12,5.66,13.45-3.14-.09ZM468.22,262.29l-1.73-3.66-1.78,3.79,3.51-.13Z"/>
  <path d="M538.38,267.95l-1.14-2.52c-.3-.66-5.05-.75-5.64-.08-.41.47-.63,1.25-1.07,2.5l-3.2.23,5.66-13.46,2.75-.08,5.73,13.45-3.1-.05ZM536.11,262.28l-1.81-3.69-1.65,3.84,3.47-.16Z"/>
  <path d="M223.68,267.42c-3.19,1.62-6.16.73-8.67-1.27.52-.87,1.34-1.88,1.9-2.17,1.86,1.71,4.41,2.63,5.94.19-2.4-2.27-6.94-1.4-7.32-4.94-.22-2.03.66-3.79,2.76-4.43,2.34-.71,5.08-.15,6.71,1.41l-1.13,1.92c-.39.67-4.79-3.02-5.56.66l3.97,1.54c1.58.61,2.94,1.5,3.26,3.02.26,1.24-.51,3.38-1.86,4.07Z"/>
  <path d="M176.82,264.12l-.06,3.89h-2.84s0-13.32,0-13.32l6.82.22c2.61.08,3.82,2.64,3.69,4.76s-1.69,4.1-4.25,4.26l-3.37.2ZM181.23,258.79c-.25-1.58-2.88-1.9-4.37-1.28l-.06,3.53c1.5,1.09,4.82.19,4.43-2.25Z"/>
  <path d="M235.02,268.1c-2.51.5-4.91-.3-7.05-1.91.39-.89,1.28-2.03,1.88-2.15,1.92,1.51,4.28,2.7,6.02.1-2.7-2.22-7.04-1.45-7.4-4.91-.2-1.97.68-3.82,2.76-4.44s4.53-.13,6.57,1.12c-.02.82-.85,2.2-1.51,2.48-1.58-1.24-3.76-1.96-5.05-.21,1.17,2.69,6.82,1.28,7.16,5.38.19,2.28-.97,4.06-3.39,4.54Z"/>
  <path d="M170.77,268.07l-3.53-.14-2.88-4.32-2.92,4.37-3.46.02,4.63-6.71-4.37-6.59,3.37.03,2.78,4.07,2.58-3.74c.77-.21,2.14-.3,3.6-.31l-4.4,6.4,4.61,6.93Z"/>
  <polygon points="253.41 268.06 248.09 254.71 251.2 254.63 254.8 263.43 258.37 254.56 261.44 254.62 256.22 267.87 253.41 268.06"/>
  <polygon points="331.59 257.39 331.59 268 328.52 267.99 328.58 257.69 324.62 257.26 324.57 254.56 330.09 254.53 335.52 254.72 335.56 257.35 331.59 257.39"/>
  <path d="M318.34,267.99l-2.9.02v-10.56s-3.99-.15-3.99-.15c-.52-.28-.84-1.89-.5-2.64l11.59-.09-.09,2.75-4.11.1v10.56Z"/>
  <polygon points="480.82 267.98 477.85 268.01 477.86 257.46 473.85 257.34 473.8 254.72 484.79 254.72 484.74 257.35 480.81 257.47 480.82 267.98"/>
  <polygon points="457.4 265.36 457.43 268.01 447.91 268.01 447.9 254.72 450.77 254.73 450.76 265.35 457.4 265.36"/>
  <polygon points="553.85 265.36 553.87 268 544.36 268.02 544.35 254.76 547.21 254.74 547.21 265.35 553.85 265.36"/>
  <rect x="488.25" y="254.71" width="3.05" height="13.31" transform="translate(-1.94 3.66) rotate(-.43)"/>
  <rect x="242.1" y="254.71" width="3.05" height="13.31" transform="translate(-2.02 1.9) rotate(-.44)"/>
</svg>