<?xml version="1.0" encoding="UTF-8"?>
<svg id="Layer_1" xmlns="http://www.w3.org/2000/svg" version="1.1" viewBox="0 0 700.08 400.08">
  <!-- Generator: Adobe Illustrator 30.4.0, SVG Export Plug-In . SVG Version: 2.1.4 Build 226)  -->
  <path d="M183.81,229.97l-7.71-18.39c-.97-2.32-3.35-4.35-5.76-4.4l-6.9-.16.05,22.33c.01,5.05,3.41,5.29,3.31,7.07l-15.88-.06c2.61-2.47,3.81-3.99,3.81-7.07l-.02-43.57c0-2.86-1.47-4.23-3.74-6.6h20.78c8.74.02,18.34,3.13,18.59,12.3.26,9.38-6.02,13.39-14.57,15.25,5.02,1.09,8.71,3.6,10.6,8.05l7.26,17.06c1.08,2.54,2.87,3.91,5.66,3.6.54,2.08-6.75,2.26-9.85,1.09-2.64-.99-4.47-3.74-5.63-6.49ZM172.79,205.27c5.07-.83,8.27-4.72,8.74-9.51.53-5.39-1.72-10.77-6.47-13.41-3.54-1.97-7.54-2.33-11.6-1.64v25s9.33-.43,9.33-.43Z"/>
  <path d="M582.55,229.96l-7.71-18.39c-.97-2.32-3.35-4.35-5.77-4.4l-6.89-.16.05,22.33c.01,5.05,3.4,5.28,3.31,7.07l-15.88-.06c2.61-2.47,3.81-3.99,3.81-7.08l-.02-43.56c0-2.87-1.48-4.23-3.74-6.6h20.78c8.74.01,18.33,3.13,18.59,12.3.26,9.37-6.02,13.4-14.57,15.24,5.02,1.1,8.71,3.61,10.6,8.05l7.26,17.07c1.08,2.54,2.88,3.91,5.66,3.6.54,2.1-6.74,2.26-9.85,1.09-2.64-1-4.47-3.74-5.63-6.5ZM571.54,205.27c5.06-.83,8.27-4.71,8.74-9.51.53-5.39-1.73-10.77-6.47-13.41-3.54-1.97-7.54-2.33-11.61-1.63v24.99s9.33-.44,9.33-.44Z"/>
  <path d="M539.14,207.76c0,16.35-13.25,29.6-29.6,29.6s-29.6-13.25-29.6-29.6,13.25-29.6,29.6-29.6,29.6,13.25,29.6,29.6ZM521.73,233.06c4.99-2.17,7.99-7.04,8.54-12.48,1.62-16.05-7.06-38.4-23.5-39.98-7.99-.77-14.69,3.74-16.95,11.37-3.46,11.7,1.32,27.8,10.38,36.55,5.76,5.56,13.83,7.89,21.52,4.55Z"/>
  <path d="M260.83,207.77c0,16.34-13.25,29.59-29.6,29.59s-29.6-13.25-29.6-29.59,13.25-29.59,29.6-29.59,29.6,13.25,29.6,29.59ZM244.05,232.76c12.23-6.03,8.74-26.06,2.82-37.74-2.24-4.41-5.2-8.16-9.2-11.01-5.51-3.92-12.75-4.74-18.76-1.53-14.12,7.54-9.55,36.75,5.36,48.03,5.66,4.28,13.12,5.54,19.77,2.25Z"/>
  <path d="M114.57,229.6c.03,5.07,4,5.31,3.06,6.82l-15.61-.06c2.53-2.47,3.77-3.99,3.77-7.07l-.02-43.57c0-2.88-1.46-4.21-3.74-6.6l19.34-.02c8.18,0,17.73,2.98,20.37,10.55,3.35,9.62-2.04,19.41-11.62,22.52-5.08,1.65-10.02,1.83-15.62,1.67l.08,15.76ZM133.13,200.96c.89-5.81-.07-11.68-3.98-15.91-3.67-3.97-9.12-5.08-14.64-4.51v31.99c9.29.67,17.17-2.09,18.61-11.57Z"/>
  <path d="M344.25,206.85l-15.25-.56v24.98c-.01,1.68,1.3,3.75,3.12,3.73l12.46-.12c5.99-.06,10.69-3.9,12.89-9.38l.45-1.13c.09-.22.85-.04,1.17.01l-.55,12.03-42.01-.03c2.43-2.49,3.75-4.06,3.75-7.1v-43.1c0-3.04-1.3-4.62-3.76-7.09l39.86-.04.91,11.63-.99.08c-.17.01-3.77-9.93-13.25-10.12l-14.06-.28v24.58s14.5-.41,14.5-.41c3.04-.09,5.94-1.91,7.07-4.61l.39-.93c.1-.24.59-.22,1.22-.24l-.21,14.37c-2.45-3.63-3.87-6.14-7.72-6.28Z"/>
  <path d="M409.36,234.55c6.18-1.71,10.09-6.46,12.3-12.1.26-.68.62-1.02,1.57-1.12l-1.33,12.03c-10.47,4.14-21.98,4.97-32.73,2.2s-18.17-11.78-19.33-23.02c-1.54-14.86,6.82-28.13,21.41-32.49,9.82-2.94,20.68-2.11,30.3,1.88.27,4.09.66,7.62.04,12.05-4.92-10.22-14.44-15.59-25.3-13.7-7.47,1.3-13.51,6.08-16.01,13.45-3.43,10.11-2.11,21.57,3.63,30.59s15.44,13,25.46,10.23Z"/>
  <path d="M295.29,236.29l-15.95.14c.11-1.98,3.33-1.94,3.33-7.61l.02-48.12c-3.9-.35-7.75-.14-11.06,1.68-2.84,1.57-3.68,4.19-6.23,7.16l.2-10.48h42.72s.39,10.54.39,10.54c-2.59-2.94-3.49-5.7-6.46-7.29-3.2-1.72-6.93-1.98-10.83-1.58l.05,48.55c0,3.07,1.11,4.63,3.84,7.01Z"/>
  <path d="M461.31,236.29l-15.96.14c.11-1.98,3.33-1.94,3.33-7.6l.02-48.13c-3.9-.36-7.75-.13-11.06,1.69-2.84,1.56-3.68,4.19-6.23,7.16l.2-10.48h42.71s.39,10.54.39,10.54c-2.66-3.05-3.58-5.93-6.77-7.48s-6.74-1.79-10.52-1.41l.05,48.56c0,3.07,1.12,4.62,3.84,7.01Z"/>
  <path d="M359.79,159.19l-7.53-.05c.73-.86,1.66-2.2,1.67-3.06l.03-11.1-13.59-.04-.04,11.15c0,.76.92,1.98,1.76,3.05l-7.56.04c.83-1,1.67-2.32,1.67-3.54v-20.46c0-1.01-.82-2.15-1.7-3.26l7.58-.08c-.88,1.11-1.74,2.31-1.74,3.3l-.02,9.19h13.64s-.05-9.53-.05-9.53c0-.79-.95-1.98-1.68-2.89l7.58-.07c-.89,1.14-1.71,2.24-1.71,3.38l-.03,19.78c0,1.56.53,2.63,1.73,4.19Z"/>
  <path d="M381.65,144.95l-6.83-.15.14,12.66c.51,1.54,3.32.84,4.44.95,4.41.46,7.71-.88,9.57-5.22l.02,5.99h-19.97c.9-1.03,1.71-2.31,1.71-3.56v-20.02c0-1.35-.72-2.56-1.82-3.74l18.98-.02.39,5.81c-2.12-3.04-3.63-5.08-7.08-5.14l-6.32-.1-.04,11.78,7.05-.24c1.53-.05,2.71-1.38,3.9-2.93l.06,6.91c-1.26-1.48-2.4-2.94-4.22-2.98Z"/>
  <path d="M319.48,159.14l-7.22.06c.99-1.43,1.62-2.59,1.62-4.19v-22.29c-3.48-.76-6.41.67-8.22,4.19l.02-5.13,20.41-.02.11,5.15c-1.85-3.39-4.35-4.88-8.23-4.24l.02,22.82c0,1.03.61,2.1,1.49,3.64Z"/>
  <polygon points="443.95 268.07 443.8 259.67 440.14 265.05 436.51 259.99 436.25 268.02 433.54 267.98 433.54 254.87 436.75 254.9 440.16 260.3 443.58 254.9 446.78 254.78 446.78 268.05 443.95 268.07"/>
  <polygon points="191.77 268.02 189.22 267.99 182.9 259.84 182.71 268.07 179.98 268.06 179.99 254.75 182.84 255.08 188.55 262.42 188.88 254.88 191.76 254.77 191.77 268.02"/>
  <path d="M319.64,267.8c-.45.37-2.37.36-2.85-.25l-5.91-7.5-.3,8.03-2.75-.11v-13.09s2.83.11,2.83.11l5.93,7.69.21-7.91h2.82s.02,13.02.02,13.02Z"/>
  <path d="M166.45,268.01c-1.37,0-1.9-5.27-5.49-4.16l-.02,4.25-2.84-.13v-13.15s6.4-.03,6.4-.03c2.34-.01,4.16,1.29,4.54,3.29.41,2.15-.37,4.29-2.68,5.31l3.11,4.63-3.03-.02ZM165.58,260.8c.87-.1.65-3.05-.15-3.13l-4.44-.44v4.11s4.58-.54,4.58-.54Z"/>
  <path d="M389.8,267.99l-5.67.11-.03-13.26,6.77.14c3.53.07,5.56,3.59,5.44,6.71-.12,3.24-2.65,6.22-6.51,6.3ZM387.11,265.44c3.76.27,4.99-.42,5.87-2.4.61-1.38.14-3.65-.82-4.52-1.39-1.27-3.9-1.61-5.27-.69l.22,7.61Z"/>
  <path d="M264.09,268l-5.67.1-.03-13.26,6.77.14c3.53.08,5.55,3.59,5.43,6.71s-2.66,6.23-6.51,6.3ZM265.71,264.9c2.24-1.27,2.09-4.01,1.34-5.51-1.03-2.08-4.26-2.71-5.8-1.53v7.52c1.56.09,3.5.08,4.46-.47Z"/>
  <path d="M331.45,262.93c-.34-.03-1.4.04-1.42-.29l-.12-2.15,5.77-.14.02,5.85c-2.48,2.04-5.91,2.73-8.9,1.37-2.57-1.16-3.8-3.75-3.75-6.32s1.47-4.98,4.03-6.09c2.81-1.22,5.99-.64,8.17,1.23l-1.87,2.13c-1.83-1.51-4.24-1.64-5.65-.52-2.15,1.71-1.89,4.31-.85,6,1.36,2.21,4.89,1.91,5.94.63.15-.18.32-1.54.11-1.56l-1.5-.15Z"/>
  <path d="M361.57,262.98c-.72-.02-.9-1.9-.44-2.56l5.54-.04-.05,5.88c-2.87,2.21-6.85,2.86-9.92.67-3.4-2.41-3.61-7.75-.52-10.52,2.83-2.54,6.94-2.51,9.93-.13l-1.72,2.29c-1.93-1.66-4.33-1.69-5.81-.5-1.99,1.61-1.69,4.26-.8,5.8,1.38,2.4,4.9,2.03,6,.74.14-.19.28-1.57.05-1.57l-2.25-.06Z"/>
  <polygon points="502.07 267.97 499.2 268.1 499.17 262.68 493.7 262.76 493.7 268.08 490.91 268.05 490.91 254.81 493.7 254.77 493.7 260.05 499.15 260.05 499.2 254.77 502.06 254.82 502.07 267.97"/>
  <path d="M303.35,262.62l-6.12.03c-.19.56-.2,2.31-.04,2.85l6.96.02v2.56s-9.97-.02-9.97-.02v-13.29s9.93,0,9.93,0l.04,2.58h-6.94s-.27,2.75-.27,2.75l6.3.02.11,2.5Z"/>
  <path d="M515.44,262.62l-6.13.03c-.17.57-.18,2.3-.03,2.85h6.96s-.01,2.56-.01,2.56h-9.96s0-13.3,0-13.3h9.93s.04,2.58.04,2.58h-6.94s-.28,2.75-.28,2.75l6.31.03.12,2.5Z"/>
  <path d="M379.64,262.62l-6.1.03c-.22.55-.23,2.31-.04,2.85l6.94.02v2.55s-9.97,0-9.97,0v-13.29s9.93,0,9.93,0l.04,2.58h-6.94s-.27,2.75-.27,2.75l6.3.03.11,2.5Z"/>
  <path d="M253.93,262.62l-6.2.07c-.07.59-.07,2.24,0,2.83h6.99s-.02,2.56-.02,2.56h-9.96s0-13.3,0-13.3h9.92s.04,2.58.04,2.58h-6.94s-.27,2.74-.27,2.74l6.31.04.12,2.48Z"/>
  <path d="M429.06,262.62l-6.11.03c-.2.55-.21,2.31-.03,2.85h6.95s-.01,2.56-.01,2.56h-9.96s0-13.3,0-13.3h9.93s.04,2.58.04,2.58h-6.94s-.28,2.75-.28,2.75l6.31.03.11,2.5Z"/>
  <path d="M349.38,268.02l-1.19-2.56c-.27-.58-4.7-.78-5.61-.11-.5.37-.71,1.33-1.13,2.53l-3.1.18,5.5-13.07,2.92-.22,5.57,13.19-2.97.07ZM347.16,262.45l-1.9-4.11-1.71,4.16,3.6-.05Z"/>
  <path d="M473.21,268.01l-1.23-2.55c-.28-.58-4.7-.77-5.6-.1-.5.37-.7,1.32-1.13,2.53l-3.09.18,5.51-13.07,2.91-.23,5.57,13.19-2.94.06ZM470.98,262.48l-1.92-4.15-1.7,4.14h3.61Z"/>
  <path d="M147.29,264.21l-.04,3.85h-2.77s0-13.32,0-13.32l6.98.24c2.46.09,3.6,2.77,3.46,4.76-.14,2.09-1.74,3.99-4.14,4.19l-3.48.28ZM150.4,261.39c.6-.03,1.55-1.12,1.62-1.66s-.51-2.01-1.03-2.06l-3.69-.32-.04,4.18,3.14-.14Z"/>
  <path d="M453.89,264.2l-.03,3.87-2.78-.02v-13.28s5.67.02,5.67.02c2.71,0,4.53,1.69,4.78,4.08s-1.37,4.83-4.15,5.05l-3.49.28ZM457.57,261.12c1.55-.19,1.29-3.27.03-3.4l-3.71-.38v4.24s3.68-.46,3.68-.46Z"/>
  <path d="M221.18,264.22l-.04,3.84h-2.77s0-13.29,0-13.29l5.64.03c2.71.01,4.57,1.67,4.8,4.06s-1.38,4.82-4.15,5.06l-3.47.3ZM224.3,261.39c.6-.03,1.55-1.12,1.61-1.66s-.5-2-1.03-2.05l-3.7-.32-.03,4.18,3.15-.15Z"/>
  <path d="M542.99,261.03c-.16,1.65.93,3.58,2.03,4.12,1.79.88,3.37.46,5.1-.9l2.04,1.77c-2.77,2.79-6.74,3.04-9.71.78-2.6-1.98-3.37-6-1.47-9.08,1.78-2.89,5.51-3.97,9.04-2.58.62.24,1.75,1.09,1.71,1.67-.05.71-1.38,1.89-1.94,1.52-1.26-.83-3.01-1.31-4.16-.91-1.41.49-2.49,1.88-2.65,3.61Z"/>
  <path d="M198.47,261.03c-.16,1.65.93,3.58,2.03,4.12,1.8.88,3.37.46,5.1-.9l2.05,1.78c-2.77,2.72-6.78,3.04-9.71.78-2.6-1.99-3.36-6.02-1.47-9.09,1.78-2.88,5.52-3.98,9.04-2.58.62.25,1.75,1.07,1.69,1.65-.08.7-1.35,1.92-1.9,1.55-1.25-.85-3.04-1.32-4.16-.92-1.41.5-2.49,1.88-2.65,3.61Z"/>
  <polygon points="483.41 268.04 480.54 268.08 480.53 257.49 476.51 257.38 476.54 254.77 487.41 254.77 487.44 257.39 483.4 257.48 483.41 268.04"/>
  <polygon points="241.44 265.41 241.52 268.05 232.02 268.08 232 254.92 234.85 254.76 234.84 265.41 241.44 265.41"/>
  <polygon points="525.84 268.01 522.98 268.07 522.99 257.5 518.89 257.37 519.03 254.78 529.87 254.76 529.92 257.42 525.89 257.41 525.84 268.01"/>
  <rect x="533.26" y="254.77" width="2.87" height="13.3"/>
  <rect x="172.88" y="254.77" width="2.91" height="13.37" transform="translate(-1.07 .72) rotate(-.23)"/>
  <rect x="211.06" y="254.77" width="2.87" height="13.3"/>
</svg>