<?xml version="1.0" encoding="UTF-8"?>
<svg id="Layer_1" xmlns="http://www.w3.org/2000/svg" version="1.1" viewBox="0 0 700.08 400.08">
  <!-- Generator: Adobe Illustrator 30.4.0, SVG Export Plug-In . SVG Version: 2.1.4 Build 226)  -->
  <path d="M225.74,187.47l-19.17,33.15-2.22.14-18.9-31.03c-2.31.92-.9,2.73-.9,4.26l-.06,26.56c0,2.67-.57,5.27-.01,7.93.8,3.81,2.62,5.38,6.5,7.41-4.61.74-8.17.41-11.99.47l.13-1.19s3.26-1.05,3.26-6.39l.02-35.47c0-3-.41-5.86-1.16-8.71-.93-3.52-4.77-4.26-4.77-4.25,0,.02.1-.4.34-1.32l12.41-.02,20.16,33.35,19.13-33.28,11.75-.11-.07,1.34c-4.24,1.2-5.44,6.69-5.43,11.56l.02,35.25c0,2.4.11,5.46,1.75,7.03.92.88,1.3,1.14,1.59,2.18h-15.54c-.07-1.92,3.43-1.75,3.4-7.54l-.23-41.31Z"/>
  <path d="M509.83,230.45l-7.87-18.71c-.99-2.36-3.21-4.51-5.69-4.57l-7.02-.16.07,22.29c.02,5.08,3.47,5.2,3.43,7.02h-15.61c.32-1.05.68-1.3,1.66-2.24,1.43-1.37,1.73-4.25,1.72-6.45v-40.33c-.01-6.29-2.57-5.82-3.35-8.31l20.62.04c4.2,0,8.43.92,12.13,2.6,4.13,1.88,6.28,5.77,6.29,10.19.04,8.63-5.36,12.08-13.26,14.81,2.42,1.27,4.93,1.94,6.51,3.77,2.44,2.83,3.77,6.47,5.26,9.95l5.14,12.08c.89,2.09,2.91,3.09,5.15,2.74l-.11,1.46c-7.17,1.11-12.09.88-15.07-6.21ZM507.38,194.47c.08-6.23-3.36-11.52-9.14-13.3-2.79-.86-5.71-.88-8.96-.53v24.91c3.33.14,6.27.14,9.13-.33,5.4-.9,8.89-5.02,8.96-10.74Z"/>
  <path d="M456.22,230.21c-11.42,9.38-28.15,9.21-39.35-.13-13.55-11.3-13.21-37.08,3.6-47.4,11.66-7.15,27.2-5.65,37.04,3.73,6.12,5.84,8.54,13.51,8.43,21.73-.12,8.48-2.87,16.44-9.72,22.06ZM451,231.71c10.41-7,6.72-25.99,1.14-36.87-2.26-4.41-5.26-8.18-9.28-10.96-5.78-3.99-13.21-4.69-19.24-1-14.24,8.71-7.67,40.55,8.94,49.32,5.71,3.02,12.81,3.29,18.44-.5Z"/>
  <path d="M263.29,206.35l-.02,24.85c0,1.73,1.38,3.7,3.19,3.68l12.48-.14c9.58-.11,13.46-10.39,13.21-10.38l1.21-.1-.52,12.08-41.59-.02c.06-1.01.6-1.44,1.45-2.24,1.76-1.64,2.03-4.75,1.48-7.25-.12-.53.21-1.83.22-2.4l.09-31.17c0-.85-.31-2.19-.5-3,.69-2.86.97-6.73-1.29-9.05-.67-.69-1.07-1.01-1.59-2.21l39.57-.02.92,11.09c.03.34-.73.98-.88.8l-.71-.84c-2.15-5.69-6.96-8.83-12.97-9.56l-13.76-.08v24.49s9.49-.13,9.49-.13c5.61-.08,10.88-.76,12.38-5.85l1.3-.22v13.84s-1.2.02-1.2.02c-1.4-5.44-6.71-6.05-12.47-6.29l-9.49.07Z"/>
  <path d="M345.68,236.12l-37.14-46.69c-.75,11.43-.42,21.78-.26,32.54,1.08,1.82-.98,4.15,1.52,9.54.81,1.75,2.79,2.98,4.45,3.66l.11,1.19-11.17-.04c-.21-1.79,3.39-1.83,3.39-7.09l-.02-43.08c0-2.22-1.26-4.73-2.93-5.43l-1.24-.51c-.22-.09-.08-.75-.06-1.19l9.38-.04,34.12,42.67.2-27.89c.02-2.95-.45-5.87-1.02-8.69-1.01-2.41-2.58-4.12-5.17-4.8l-.11-1.3,11.39.09c-.71,1.15-.97,1.36-1.78,2.2-1.35,1.39-1.72,4.08-1.72,6.32l-.06,49.56c-.87-.12-1.3-.31-1.88-1.03Z"/>
  <path d="M384.66,229.73c.01,4.54,3.48,4.95,3.2,6.61h-15.56c.14-1.98,3.45-1.89,3.46-7.58v-48.1c-14.11-1.51-15.09,7.74-16.99,8.53-.26.11-.41-.73-.41-1.12l.09-9.29,12.66.16,9.15-.08,21.21-.02.61,10.27-1.27-.04c-2.88-7.17-8.55-9.2-16.28-8.4l.14,49.05Z"/>
  <path d="M362,159.13h-7.71s1.76-2.23,1.76-2.23l-.02-11.87-13.52-.07-.02,10.57c0,1.05.8,2.27,1.79,3.56l-7.71.06,1.74-2.28.08-22.19-1.83-2.89,7.72-.05c-1.04,1.33-1.81,2.59-1.8,3.87l.05,8.63,13.52-.06v-9.49c.01-.67-1.01-1.81-1.82-2.87l7.77-.1c-1.01,1.6-1.77,2.93-1.77,4.43v18.82c0,1.45.65,2.62,1.76,4.16Z"/>
  <path d="M382.97,144.85l-5.95-.08.11,12.67c.78,1.05,3.22,1.15,4.43.83,4.62.79,7.65-1.1,9.74-5.49l-.15,6.34h-20s1.71-2.28,1.71-2.28l.04-21.68c0-1.04-.83-2.08-1.85-3.4l19.06-.04.16,6.16c-1.74-3.75-3.95-5.46-7.7-5.43l-5.53.05v11.62s7.78-.39,7.78-.39c1.05-.05,2.02-1.53,3.16-2.89l.1,7.2c-1.68-2.16-2.82-3.16-5.12-3.19Z"/>
  <path d="M321.78,159.08l-7.32.05c.85-1.35,1.58-2.68,1.58-4.18v-22.28c-3.66-.73-6.24.68-8.31,4.26l.09-5.23h20.51s.13,5.27.13,5.27c-1.98-3.43-4.56-5.16-8.28-4.23l.02,22.52c0,1.24.65,2.43,1.56,3.82Z"/>
  <path d="M132.51,267.88c-.53.19-2.4.16-2.86-.3l-5.66-7.17-.42,7.68-3.52-.47v-11.25c0-.49.33-1.7.77-1.73l2.33-.17,5.79,7.25c.83-2.87.66-4.73.63-7.2l2.95.07v13.29Z"/>
  <path d="M570.86,254.58v13.43s-2.7-.15-2.7-.15l-6.05-7.52-.33,7.66-2.77-.02v-13.47s2.71.15,2.71.15l3.85,5.02c.18.24.9.7,1.14.81,1.07.48.05-3.05,1.07-5.94l3.08.02Z"/>
  <path d="M228.96,267.9c-.62.15-2.3.08-2.82-.3l-5.7-7.19-.41,7.6-3.07-.02.08-13.4,2.85.05,5.9,7.31.31-7.43,2.86.06v13.31Z"/>
  <path d="M396.42,267.82c-.57.33-2.46.23-3.04-.5l-5.45-6.9-.45,7.56-3.05-.03.05-13.34,2.65-.07,6.12,7.81.3-7.67,2.87.05v13.08Z"/>
  <path d="M540.75,268.03l-5.19-.04.08-13.42,5.92.15c4.03.1,6.59,3.36,6.43,6.89-.18,3.75-2.96,6.45-7.24,6.42ZM538.72,265.32c3.13.27,4.64-.3,5.62-1.91.83-1.37.5-3.78-.42-4.77-1.27-1.36-3.93-1.8-5.28-.83l.07,7.51Z"/>
  <polygon points="373.16 268 370.45 267.86 364.52 260.62 364.13 268 361.32 268 361.32 254.5 364.15 254.76 369.96 262.28 370.3 254.71 373.17 254.75 373.16 268"/>
  <path d="M516.72,262.57l-5.45.12c-.39,0-1.05.96-1.06,1.33s.65,1.42,1.05,1.42h6.25s.07,2.56.07,2.56h-9.98s-.9-.84-.9-.84c-.23-.22.61-1.18.61-1.62v-10.91s10.3-.05,10.3-.05l-.06,2.69-6.82.15c-.45,0,.09,1.79.54,1.8l4.93.16c.29.54.39,1.5.52,3.19Z"/>
  <path d="M473.96,262.61l-6.29.07.03,2.75,7.16.03v2.57s-10.33-.03-10.33-.03l.11-13.4,10.29.02-.16,2.68-6.63.08c-.25,0-.55,1.47-.31,1.52l1.62.3,4.36.29.15,3.13Z"/>
  <polygon points="175.47 268 172.8 267.85 166.69 260 166.42 268.01 163.63 268 163.64 254.69 166.45 254.88 172.26 262.28 172.61 254.71 175.47 254.75 175.47 268"/>
  <path d="M532.54,267.91c-5.8,1.54-4.21-5.34-8.44-3.76l-.18,3.84-2.81.03v-13.46s6.27.08,6.27.08c2.14.03,4.21,1.2,4.59,2.89.55,2.44.05,4.34-2.36,5.88l2.93,4.51ZM528.3,260.81c.48-.23,1.07-1.51.91-2-.5-1.52-2.62-1.74-5.15-1.39v3.66c1.36.18,3.3.19,4.24-.27Z"/>
  <path d="M581.17,263.09l-.09-2.81,5.85.03-.03,5.88c-2.73,2.32-6.76,2.91-9.86.86-2.03-1.34-2.84-3.61-2.8-5.87.03-2.09,1.03-4.34,3.06-5.59,2.91-1.79,6.47-1.47,9.18.69l-1.9,2.27c-1.95-1.55-4.12-1.83-5.82-.42-1.61,1.33-1.66,3.66-.91,5.4.95,2.19,4.3,2.43,5.84,1.37.41-.28.22-1.99-.16-1.96l-2.38.16Z"/>
  <path d="M213.58,261.35c0,3.88-3.15,7.03-7.03,7.03s-7.03-3.15-7.03-7.03,3.15-7.03,7.03-7.03,7.03,3.15,7.03,7.03ZM205.78,265.43c3.29.56,5.08-2.19,4.71-4.72s-2.68-4.19-5.37-3.23c-1.72.61-2.62,2.45-2.52,4.11s1.12,3.48,3.18,3.83Z"/>
  <path d="M406.83,263.03l-.14-2.72,5.84-.04v5.8c-2.54,2.27-6.36,2.98-9.46,1.22-2.59-1.47-3.68-4.41-3.18-7.18.5-2.75,2.72-5.23,5.81-5.57,2.39-.27,4.24.17,6.34,1.6l-1.9,2.4c-2.11-1.76-4.41-1.75-5.95-.27-1.6,1.52-1.7,4.04-.39,5.76,1.24,1.63,4.51,2.52,5.91.12.36-.61-1.65-1.54-2.88-1.11Z"/>
  <path d="M287.45,267.95l-5.78.07v-13.52s6.07.24,6.07.24c3.6.14,6.17,3.22,6.21,6.48.03,3.45-2.52,6.68-6.5,6.73ZM284.56,265.32c2.93.26,4.62-.25,5.6-1.69,1.1-1.62.83-3.84-.45-5.12-1.08-1.09-3.31-1.46-5.14-1.05v7.87Z"/>
  <polygon points="460.59 267.96 457.68 268.04 457.67 262.65 452.31 262.68 452.3 268.01 449.19 267.99 449.28 254.54 452.29 254.56 452.4 259.82 457.63 259.89 457.7 254.61 460.58 254.5 460.59 267.96"/>
  <path d="M494.98,268.01c-1.47.11-2.87-.09-3.73-.76.3-.88.7-1.89.7-2.42l.08-10.08,2.94-.04.12,5.13,5.24.05.05-5.3,2.89.02v13.38s-2.87.06-2.87.06l-.06-5.39h-5.33s-.06,5.36-.06,5.36Z"/>
  <path d="M358.13,268c-5.94,1.29-4.13-5.28-8.35-4.09l-.2,4.08h-2.9s-.01-13.3-.01-13.3l6.71.05c2.23.02,3.97,1.42,4.35,3.33.41,2.08-.39,4.19-2.7,5.24l3.11,4.69ZM354.08,257.83c-1-.7-3.77-.88-4.28.07-.33.61-.43,2.43,0,2.86.79.81,3.84.73,4.79-.57.34-.46-.03-2.02-.52-2.36Z"/>
  <path d="M342.26,262.56l-5.83.08c-.74,0-.7,2.73.02,2.74l6.6.1.02,2.52-10.06.03v-13.47s9.97.17,9.97.17l.05,2.58h-7.11s.03,2.59.03,2.59l6.1.13.21,2.52Z"/>
  <polygon points="159.14 262.57 152.9 262.62 152.94 265.42 160.17 265.46 160.09 268.01 149.94 268.01 149.95 254.71 159.93 254.7 159.96 257.28 152.97 257.36 153.08 259.96 159.18 260.03 159.14 262.57"/>
  <path d="M243.04,267.91l-1.12-2.45c-.29-.64-4.97-.81-5.63-.11-.43.45-.64,1.29-1.02,2.51l-3.27.21,5.68-13.46,2.79-.07,5.75,13.57-3.18-.2ZM240.14,262c.15-1.06-.74-2.52-1.18-2.24-.41.25-1.05,1.17-.78,1.5.37.45,1.69,1.03,1.96.74Z"/>
  <path d="M444.41,261c1.27.46,1.9,2.71,1.67,3.78-.3,1.39-1.43,2.82-2.97,3.21-2.85.72-5.66-.07-7.63-1.94l1.74-2.24c1.61,1.75,4.24,2.52,5.83.9-.38-2.89-6.58-1.4-7.02-5.48-.21-2,.67-3.82,2.73-4.44,2.34-.7,4.79-.19,6.99,1.45l-1.61,2.08-3.83-1.25c-.35-.12-1.63.88-1.45,1.22s.76.98,1.13,1.12l4.42,1.6Z"/>
  <path d="M481.31,264.07l-.06,3.92-2.84.02v-13.47s5.75.11,5.75.11c2.87.05,4.79,2.1,4.78,4.59,0,2.63-1.75,4.65-4.69,4.74l-2.95.09ZM485.84,258.86c-.57-1.72-3.15-1.96-4.32-1.24-.48.69-.46,3.28.31,3.63.79.13,2.47-.02,3.13-.17.54-.13,1.1-1.56.88-2.22Z"/>
  <path d="M313.2,261.17c1.11.42,1.61,2.65,1.41,3.57-.25,1.13-1.4,2.73-2.61,3.12-2.95.95-5.54.18-8-1.7l1.71-2.32c1.66,1.38,3.56,2.61,5.57,1.07.94-.72-1.2-2.24-2.37-2.33-2.6-.19-4.31-1.68-4.38-3.81s1.37-4.05,3.9-4.25c2.03-.16,3.86.39,5.69,1.5l-1.38,2.3-3.89-1.26c-.36-.12-1.64.88-1.46,1.22s.77.97,1.15,1.12l4.67,1.77Z"/>
  <path d="M327.69,258.87c-1.7-1.93-4.26-2.25-6.03-.64-1.6,1.46-1.8,4.18-.22,5.99s4.3,1.84,6.21-.34l2.02,1.99c-2.88,3.12-7.74,3.24-10.58.25s-2.41-8.36,1.41-10.63c2.81-1.67,6.23-1.37,8.87.83l-1.69,2.55Z"/>
  <polygon points="142.51 267.99 139.61 268 139.6 257.45 135.39 257.31 135.36 254.6 146.46 254.61 146.54 257.34 142.5 257.43 142.51 267.99"/>
  <polygon points="185.51 267.98 182.54 268.01 182.55 257.46 178.53 257.34 178.49 254.71 189.48 254.71 189.44 257.34 185.51 257.47 185.51 267.98"/>
  <polygon points="258.55 265.37 258.57 268.02 249.04 268 249.04 254.52 251.9 254.61 251.91 265.34 258.55 265.37"/>
  <rect x="108.04" y="259.6" width="13.62" height="3.34" transform="translate(-146.88 375.07) rotate(-89.77)"/>
  <rect x="551.72" y="254.45" width="2.92" height="13.63"/>
  <rect x="192.8" y="254.45" width="2.92" height="13.56" transform="translate(-.33 .24)"/>
  <rect x="377.18" y="254.7" width="3.06" height="13.32" transform="translate(-1.58 2.31) rotate(-.35)"/>
  <rect x="297.53" y="254.7" width="3.06" height="13.31" transform="translate(-1.59 1.83) rotate(-.35)"/>
</svg>