<?xml version="1.0" encoding="UTF-8"?>
<svg id="Layer_1" xmlns="http://www.w3.org/2000/svg" xmlns:xlink="http://www.w3.org/1999/xlink" version="1.1" viewBox="65 302 661 188">
  <!-- Generator: Adobe Illustrator 30.4.0, SVG Export Plug-In . SVG Version: 2.1.4 Build 226)  -->
  <defs>
    <style>
      .st0 {
        fill: none;
      }

      .st1 {
        fill: #0e4944;
      }

      .st2 {
        fill: #11294b;
      }

      .st3 {
        clip-path: url(#clippath);
      }
    </style>
    <clipPath id="clippath">
      <rect class="st0" x="69.73" y="306.2" width="652.54" height="179.6"/>
    </clipPath>
  </defs>
  <g class="st3">
    <path class="st2" d="M446.97,342.15l.36-7.5-.67-.1c-1.95,5.24-5.49,6.78-10.68,6.78h-4.93c-1.64,0-2.57-.92-2.57-2.57v-15.51h4.93c6.26,0,8.06,1.23,8.88,3.9h.72v-8.63h-.72c-.82,2.67-2.62,3.9-8.88,3.9h-4.93v-15.4h6.01c5.75,0,8.99,1.54,11.04,6.57l.67-.15-.56-7.24h-24.65v.72c1.69.56,2.05,2.11,2.05,5.8v22.9c0,3.7-.36,5.24-2.05,5.8v.72h25.98ZM375.59,342.15h9.55v-.72c-1.69-.56-2.05-2.11-2.05-5.8v-12.07h17.87v12.07c0,3.7-.36,5.24-2.05,5.8v.72h9.55v-.72c-1.69-.56-2.05-2.11-2.05-5.8v-22.9c0-3.7.36-5.24,2.05-5.8v-.72h-9.55v.72c1.69.56,2.05,2.11,2.05,5.8v9.91h-17.87v-9.91c0-3.7.36-5.24,2.05-5.8v-.72h-9.55v.72c1.69.56,2.05,2.11,2.05,5.8v22.9c0,3.7-.36,5.24-2.05,5.8v.72ZM346.38,342.15h9.6v-.72c-1.69-.56-2.05-2.11-2.05-5.8v-28.5h1.49c4.57,0,6.88,1.28,8.78,5.39l.62-.1-.31-6.21h-26.75l-.31,6.21.62.1c1.9-4.11,4.21-5.39,8.78-5.39h1.59v28.5c0,3.7-.36,5.24-2.05,5.8v.72Z"/>
    <path class="st2" d="M682.21,403.44h-6.91v-33.04c1.62-.22,3.24-.32,4.75-.32,13.5,0,19.11,9.39,19.11,18.14s-4.64,15.22-16.95,15.22M714.5,444.68c1.84,0,5.29-.11,7.77-.76v-1.51c-.54.11-1.08.11-1.62.11-3.99,0-5.18-2.59-10.9-16.95s-8.1-19.43-20.3-20.84c14.36-1.73,21.16-9.18,21.16-19.11,0-8.75-4.86-17.27-28.39-17.27h-22.67v1.51c3.56,1.19,4.32,4.43,4.32,12.2v48.15c0,7.77-.76,11.01-4.32,12.2v1.51h20.08v-1.51c-3.56-1.19-4.32-4.43-4.32-12.2v-25.05h6.37c9.5,0,10.04,5.29,16.52,21.05,5.18,12.63,7.34,18.46,16.3,18.46M612.25,441.66c-18.35,0-32.07-20.84-33.58-42.43-1.19-17.49,7.13-28.93,21.81-28.93,18.68,0,31.63,21.7,33.25,44.7.97,14.25-4.97,26.67-21.49,26.67M606.1,445c18.14,0,38.54-12.2,38.54-38.54s-20.3-38.98-38.54-38.98c-22.89,0-38.65,16.95-38.65,38.33,0,27.1,20.3,39.19,38.65,39.19M521.45,443.92h20.19v-1.51c-3.56-1.19-4.32-4.43-4.32-12.2v-59.92h3.13c9.61,0,14.47,2.7,18.46,11.34l1.3-.22-.65-13.06h-56.25l-.65,13.06,1.3.22c3.99-8.64,8.85-11.34,18.46-11.34h3.35v59.92c0,7.77-.76,11.01-4.32,12.2v1.51ZM463.26,445c13.17,0,21.38-2.59,27.1-5.18l1.73-15.44-1.4-.22c-3.89,11.23-12.2,18.57-24.29,18.57-21.05,0-33.36-19.33-33.36-40.16s12.2-32.93,29.47-32.93c11.12,0,22.24,6.69,26.67,17.81l1.3-.32-.43-14.25c-5.61-3.78-16.73-5.29-24.72-5.29-26.45,0-43.73,18.03-43.73,39.84,0,24.18,15.87,37.57,41.67,37.57M406.91,443.92l.76-15.76-1.4-.22c-4.1,11.01-11.55,14.25-22.46,14.25h-10.36c-3.45,0-5.4-1.94-5.4-5.4v-32.61h10.36c13.17,0,16.95,2.59,18.68,8.21h1.51v-18.14h-1.51c-1.73,5.61-5.51,8.21-18.68,8.21h-10.36v-32.39h12.63c12.09,0,18.89,3.24,23.21,13.82l1.4-.32-1.19-15.22h-51.82v1.51c3.56,1.19,4.32,4.43,4.32,12.2v48.15c0,7.77-.76,11.01-4.32,12.2v1.51h54.63ZM302.72,443.92h20.19v-1.51c-3.56-1.19-4.32-4.43-4.32-12.2v-59.92h3.13c9.61,0,14.47,2.7,18.46,11.34l1.3-.22-.65-13.06h-56.25l-.65,13.06,1.3.22c3.99-8.64,8.85-11.34,18.46-11.34h3.35v59.92c0,7.77-.76,11.01-4.32,12.2v1.51ZM245.61,441.66c-18.35,0-32.07-20.84-33.58-42.43-1.19-17.49,7.13-28.93,21.81-28.93,18.68,0,31.63,21.7,33.25,44.7.97,14.25-4.97,26.67-21.49,26.67M239.45,445c18.14,0,38.54-12.2,38.54-38.54s-20.3-38.98-38.54-38.98c-22.89,0-38.65,16.95-38.65,38.33,0,27.1,20.3,39.19,38.65,39.19M157.07,403.44h-6.91v-33.04c1.62-.22,3.24-.32,4.75-.32,13.5,0,19.11,9.39,19.11,18.14s-4.64,15.22-16.95,15.22M189.35,444.68c1.84,0,5.29-.11,7.77-.76v-1.51c-.54.11-1.08.11-1.62.11-3.99,0-5.18-2.59-10.9-16.95-5.72-14.36-8.1-19.43-20.3-20.84,14.36-1.73,21.16-9.18,21.16-19.11,0-8.75-4.86-17.27-28.39-17.27h-22.67v1.51c3.56,1.19,4.32,4.43,4.32,12.2v48.15c0,7.77-.76,11.01-4.32,12.2v1.51h20.08v-1.51c-3.56-1.19-4.32-4.43-4.32-12.2v-25.05h6.37c9.5,0,10.04,5.29,16.52,21.05,5.18,12.63,7.34,18.46,16.3,18.46M90.24,412.5h-4.75v-42.21c.76-.11,2.27-.22,3.35-.22,17.06,0,21.59,12.74,21.59,22.02,0,12.2-6.05,20.41-20.19,20.41M69.73,443.92h20.08v-1.51c-3.56-1.19-4.32-4.43-4.32-12.2v-15.98h5.29c22.13,0,31.85-11.44,31.85-24.94,0-8.75-5.61-20.95-30.23-20.95h-22.67v1.51c3.56,1.19,4.32,4.43,4.32,12.2v48.15c0,7.77-.76,11.01-4.32,12.2v1.51Z"/>
    <path class="st2" d="M662.01,482.67l-2.45-2.48c-1.38,1.25-2.6,2.05-4.6,2.05-3,0-5.08-2.5-5.08-5.5v-.05c0-3,2.13-5.45,5.08-5.45,1.75,0,3.13.75,4.48,1.98l2.45-2.83c-1.63-1.6-3.6-2.7-6.9-2.7-5.38,0-9.13,4.08-9.13,9.06v.05c0,5.03,3.83,9.01,8.98,9.01,3.38,0,5.38-1.2,7.18-3.13M640.99,467.99h-3.85v17.51h3.85v-17.51ZM632.76,471.54v-3.55h-14.51v3.55h5.33v13.96h3.85v-13.96h5.33ZM614.83,485.5v-3.43h-9.51v-3.68h8.26v-3.43h-8.26v-3.55h9.38v-3.43h-13.21v17.51h13.33ZM596.04,485.5v-17.51h-3.85v6.93h-7.1v-6.93h-3.85v17.51h3.85v-7.03h7.1v7.03h3.85ZM577.03,471.54v-3.55h-14.51v3.55h5.33v13.96h3.85v-13.96h5.33ZM555.06,478.17h-4.65l2.33-5.68,2.33,5.68ZM562.07,485.5l-7.5-17.64h-3.55l-7.5,17.64h3.93l1.6-3.93h7.4l1.6,3.93h4.03ZM538.75,474.17c0,1.5-1.13,2.65-3.05,2.65h-3.05v-5.35h2.98c1.93,0,3.13.93,3.13,2.65v.05ZM542.66,474.09v-.05c0-3.58-2.53-6.05-6.7-6.05h-7.15v17.51h3.85v-5.25h2.93c3.93,0,7.08-2.1,7.08-6.15M523.34,485.5v-17.51h-4.15l-4.6,7.4-4.6-7.4h-4.15v17.51h3.78v-11.36l4.88,7.4h.1l4.93-7.48v11.43h3.83ZM501.15,485.5v-3.43h-9.51v-3.68h8.26v-3.43h-8.26v-3.55h9.38v-3.43h-13.21v17.51h13.33ZM452.85,476.79c0,3.1-2.13,5.23-5.28,5.23h-2.98v-10.56h2.98c3.15,0,5.28,2.18,5.28,5.28v.05ZM456.88,476.74v-.05c0-4.93-3.8-8.71-9.31-8.71h-6.83v17.51h6.83c5.5,0,9.31-3.83,9.31-8.76M436.06,485.5v-3.43h-9.51v-3.68h8.26v-3.43h-8.26v-3.55h9.38v-3.43h-13.21v17.51h13.33ZM417.78,483.02v-7.6h-7.6v3.33h3.88v2.5c-.98.7-2.23,1.05-3.63,1.05-3.1,0-5.3-2.35-5.3-5.55v-.05c0-2.98,2.23-5.45,5.03-5.45,2.03,0,3.23.65,4.58,1.78l2.43-2.93c-1.83-1.55-3.73-2.4-6.88-2.4-5.3,0-9.18,4.08-9.18,9.06v.05c0,5.18,3.75,9.01,9.21,9.01,3.2,0,5.68-1.25,7.48-2.78M392.03,478.17h-4.65l2.33-5.68,2.33,5.68ZM399.04,485.5l-7.5-17.64h-3.55l-7.5,17.64h3.93l1.6-3.93h7.4l1.6,3.93h4.03ZM377.02,483.02v-7.6h-7.6v3.33h3.88v2.5c-.98.7-2.23,1.05-3.63,1.05-3.1,0-5.3-2.35-5.3-5.55v-.05c0-2.98,2.23-5.45,5.03-5.45,2.03,0,3.23.65,4.58,1.78l2.43-2.93c-1.83-1.55-3.73-2.4-6.88-2.4-5.3,0-9.18,4.08-9.18,9.06v.05c0,5.18,3.75,9.01,9.21,9.01,3.2,0,5.68-1.25,7.48-2.78M355.66,485.5v-17.51h-3.8v10.78l-8.21-10.78h-3.55v17.51h3.8v-11.13l8.48,11.13h3.28ZM335.42,485.5v-3.43h-9.51v-3.68h8.26v-3.43h-8.26v-3.55h9.38v-3.43h-13.21v17.51h13.33ZM287.12,476.79c0,3.1-2.13,5.23-5.28,5.23h-2.98v-10.56h2.98c3.15,0,5.28,2.18,5.28,5.28v.05ZM291.14,476.74v-.05c0-4.93-3.8-8.71-9.31-8.71h-6.83v17.51h6.83c5.5,0,9.31-3.83,9.31-8.76M270.33,485.5v-3.43h-9.51v-3.68h8.26v-3.43h-8.26v-3.55h9.38v-3.43h-13.21v17.51h13.33ZM252.84,485.5v-3.5h-8.73v-14.01h-3.85v17.51h12.58ZM232.26,474.17c0,1.5-1.13,2.65-3.05,2.65h-3.05v-5.35h2.98c1.93,0,3.13.93,3.13,2.65v.05ZM236.16,474.09v-.05c0-3.58-2.53-6.05-6.7-6.05h-7.15v17.51h3.85v-5.25h2.93c3.93,0,7.08-2.1,7.08-6.15M216.67,467.99h-3.85v17.51h3.85v-17.51ZM208.32,482.67l-2.45-2.48c-1.38,1.25-2.6,2.05-4.6,2.05-3,0-5.08-2.5-5.08-5.5v-.05c0-3,2.13-5.45,5.08-5.45,1.75,0,3.13.75,4.48,1.98l2.45-2.83c-1.63-1.6-3.6-2.7-6.9-2.7-5.38,0-9.13,4.08-9.13,9.06v.05c0,5.03,3.83,9.01,8.98,9.01,3.38,0,5.38-1.2,7.18-3.13M187.48,485.5v-17.51h-3.8v10.78l-8.21-10.78h-3.55v17.51h3.8v-11.13l8.48,11.13h3.28ZM166.29,467.99h-3.85v17.51h3.85v-17.51ZM153.63,474.02c0,1.48-1.08,2.48-2.95,2.48h-3.9v-5.03h3.83c1.88,0,3.03.85,3.03,2.5v.05ZM158.06,485.5l-4.28-6.25c2.23-.83,3.75-2.6,3.75-5.43v-.05c0-3.6-2.48-5.78-6.6-5.78h-8.01v17.51h3.85v-5.6h3.03l3.75,5.6h4.5ZM134.92,474.17c0,1.5-1.13,2.65-3.05,2.65h-3.05v-5.35h2.98c1.93,0,3.13.93,3.13,2.65v.05ZM138.82,474.09v-.05c0-3.58-2.53-6.05-6.7-6.05h-7.15v17.51h3.85v-5.25h2.93c3.93,0,7.08-2.1,7.08-6.15"/>
    <path class="st1" d="M305.9,469.31h-.9c0,2.78-1.65,6.01-5.56,6.01v.9c3.91,0,5.56,2.85,5.56,5.78h.9c0-2.93,1.73-5.78,5.34-5.78v-.9c-3.61,0-5.34-3.23-5.34-6.01"/>
    <path class="st1" d="M471.85,469.31h-.9c0,2.78-1.65,6.01-5.56,6.01v.9c3.91,0,5.56,2.85,5.56,5.78h.9c0-2.93,1.73-5.78,5.34-5.78v-.9c-3.61,0-5.34-3.23-5.34-6.01"/>
  </g>
</svg>