<?xml version="1.0" encoding="UTF-8"?>
<svg id="Layer_1" xmlns="http://www.w3.org/2000/svg" xmlns:xlink="http://www.w3.org/1999/xlink" version="1.1" viewBox="48 293 694 206">
  <!-- Generator: Adobe Illustrator 30.4.0, SVG Export Plug-In . SVG Version: 2.1.4 Build 226)  -->
  <defs>
    <style>
      .st0 {
        fill: none;
      }

      .st1 {
        fill: #fbac31;
      }

      .st2 {
        fill: #11294b;
      }

      .st3 {
        clip-path: url(#clippath);
      }
    </style>
    <clipPath id="clippath">
      <rect class="st0" x="53.14" y="297.28" width="685.73" height="197.44"/>
    </clipPath>
  </defs>
  <g class="st3">
    <path class="st2" d="M455.04,336.79l.4-8.24-.73-.11c-2.15,5.76-6.04,7.45-11.74,7.45h-5.42c-1.81,0-2.82-1.02-2.82-2.82v-17.05h5.42c6.89,0,8.86,1.35,9.77,4.29h.79v-9.48h-.79c-.9,2.94-2.88,4.29-9.77,4.29h-5.42v-16.94h6.6c6.32,0,9.88,1.69,12.14,7.23l.73-.17-.62-7.96h-27.1v.79c1.86.62,2.26,2.31,2.26,6.38v25.18c0,4.06-.4,5.76-2.26,6.38v.79h28.56ZM376.58,336.79h10.5v-.79c-1.86-.62-2.26-2.31-2.26-6.38v-13.27h19.65v13.27c0,4.06-.4,5.76-2.26,6.38v.79h10.5v-.79c-1.86-.62-2.26-2.31-2.26-6.38v-25.18c0-4.06.4-5.76,2.26-6.38v-.79h-10.5v.79c1.86.62,2.26,2.31,2.26,6.38v10.9h-19.65v-10.9c0-4.06.4-5.76,2.26-6.38v-.79h-10.5v.79c1.86.62,2.26,2.31,2.26,6.38v25.18c0,4.06-.4,5.76-2.26,6.38v.79ZM344.46,336.79h10.56v-.79c-1.86-.62-2.26-2.31-2.26-6.38v-31.33h1.64c5.02,0,7.56,1.41,9.65,5.93l.68-.11-.34-6.83h-29.41l-.34,6.83.68.11c2.09-4.52,4.63-5.93,9.65-5.93h1.75v31.33c0,4.06-.4,5.76-2.26,6.38v.79Z"/>
    <path class="st2" d="M605,404.17h-7.6v-36.32c1.78-.24,3.56-.36,5.22-.36,14.84,0,21.01,10.33,21.01,19.94s-5.1,16.74-18.63,16.74M640.49,449.52c2.02,0,5.82-.12,8.55-.83v-1.66c-.59.12-1.19.12-1.78.12-4.39,0-5.7-2.85-11.99-18.63-6.29-15.79-8.9-21.36-22.31-22.91,15.79-1.9,23.26-10.09,23.26-21.01,0-9.61-5.34-18.99-31.22-18.99h-24.93v1.66c3.92,1.31,4.75,4.87,4.75,13.41v52.94c0,8.55-.83,12.11-4.75,13.41v1.66h22.08v-1.66c-3.92-1.31-4.75-4.87-4.75-13.41v-27.54h7c10.44,0,11.04,5.82,18.16,23.15,5.7,13.89,8.07,20.3,17.92,20.3M528.09,446.19c-20.18,0-35.25-22.91-36.91-46.65-1.31-19.23,7.83-31.81,23.98-31.81,20.53,0,34.78,23.86,36.56,49.14,1.07,15.67-5.46,29.32-23.62,29.32M521.32,449.87c19.94,0,42.37-13.41,42.37-42.37s-22.31-42.85-42.37-42.85c-25.16,0-42.49,18.63-42.49,42.14,0,29.79,22.31,43.09,42.49,43.09M428.27,448.68h22.2v-1.66c-3.92-1.31-4.75-4.87-4.75-13.41v-65.87h3.44c10.56,0,15.9,2.97,20.3,12.46l1.42-.24-.71-14.36h-61.84l-.71,14.36,1.42.24c4.39-9.5,9.73-12.46,20.3-12.46h3.68v65.87c0,8.55-.83,12.11-4.75,13.41v1.66ZM390.76,449.63h1.54v-68.96c0-8.55.83-12.11,4.75-13.41v-1.66h-16.02v1.66c6.17,1.9,9.02,6.05,9.02,20.53v40.24l-49.85-62.43h-13.41v1.66c5.1,1.31,6.17,4.87,6.17,13.41v52.94c0,8.55-.83,12.11-4.75,13.41v1.66h15.9v-1.66c-6.17-1.9-9.02-6.05-9.02-20.53v-47.12l55.67,70.27ZM312.9,448.68l.83-17.33-1.54-.24c-4.51,12.11-12.7,15.67-24.69,15.67h-11.39c-3.8,0-5.93-2.14-5.93-5.93v-35.85h11.39c14.48,0,18.63,2.85,20.53,9.02h1.66v-19.94h-1.66c-1.9,6.17-6.05,9.02-20.53,9.02h-11.39v-35.61h13.89c13.29,0,20.77,3.56,25.52,15.19l1.54-.36-1.31-16.74h-56.97v1.66c3.92,1.31,4.75,4.87,4.75,13.41v52.94c0,8.55-.83,12.11-4.75,13.41v1.66h60.06ZM148.39,448.68h15.9v-1.66c-6.17-1.9-9.02-6.05-9.02-20.53v-49.26l29.79,48.9h2.73l28.49-49.97v57.45c0,8.55-.83,12.11-4.75,13.41v1.66h22.08v-1.66c-3.92-1.31-4.75-4.87-4.75-13.41v-45.82c0-14.48,2.61-18.63,8.07-20.53v-1.66h-16.85l-27.89,48.66-29.32-48.66h-17.8v1.66c5.46,1.9,8.07,6.05,8.07,20.53v45.82c0,8.55-.83,12.11-4.75,13.41v1.66Z"/>
    <path class="st2" d="M738.86,491.67v-8.36h-8.36v3.66h4.26v2.75c-1.07.77-2.45,1.16-3.99,1.16-3.41,0-5.83-2.59-5.83-6.11v-.06c0-3.27,2.45-6,5.53-6,2.23,0,3.55.72,5.03,1.95l2.67-3.22c-2.01-1.71-4.1-2.64-7.56-2.64-5.83,0-10.09,4.48-10.09,9.96v.06c0,5.69,4.13,9.9,10.12,9.9,3.52,0,6.24-1.38,8.22-3.05M715.38,494.39v-19.25h-4.18v11.85l-9.02-11.85h-3.91v19.25h4.18v-12.24l9.32,12.24h3.6ZM692.08,475.14h-4.24v19.25h4.24v-19.25ZM678.09,484.82c0,3.41-2.34,5.75-5.8,5.75h-3.27v-11.61h3.27c3.47,0,5.8,2.39,5.8,5.8v.06ZM682.51,484.77v-.06c0-5.42-4.18-9.57-10.23-9.57h-7.51v19.25h7.51c6.05,0,10.23-4.21,10.23-9.63M655.29,481.77c0,1.62-1.18,2.72-3.25,2.72h-4.29v-5.53h4.21c2.06,0,3.33.94,3.33,2.75v.06ZM660.15,494.39l-4.7-6.88c2.45-.91,4.13-2.86,4.13-5.97v-.06c0-3.96-2.72-6.35-7.26-6.35h-8.8v19.25h4.24v-6.16h3.33l4.13,6.16h4.95ZM638.37,494.39v-3.77h-10.45v-4.04h9.08v-3.77h-9.08v-3.91h10.31v-3.77h-14.52v19.25h14.66ZM617.72,494.39v-19.25h-4.24v7.62h-7.81v-7.62h-4.24v19.25h4.24v-7.73h7.81v7.73h4.24ZM592.64,481.93c0,1.65-1.24,2.92-3.36,2.92h-3.36v-5.89h3.27c2.12,0,3.44,1.02,3.44,2.92v.06ZM596.93,481.85v-.06c0-3.93-2.78-6.66-7.37-6.66h-7.87v19.25h4.24v-5.78h3.22c4.32,0,7.78-2.31,7.78-6.77M576.55,494.39v-3.77h-10.45v-4.04h9.08v-3.77h-9.08v-3.91h10.31v-3.77h-14.52v19.25h14.66ZM555.9,494.39v-19.25h-4.24v7.62h-7.81v-7.62h-4.24v19.25h4.24v-7.73h7.81v7.73h4.24ZM534.55,488.7v-.06c0-3.36-2.2-4.76-6.11-5.78-3.33-.85-4.15-1.27-4.15-2.53v-.06c0-.94.85-1.68,2.48-1.68s3.3.72,5.01,1.9l2.2-3.19c-1.95-1.57-4.35-2.45-7.15-2.45-3.93,0-6.74,2.31-6.74,5.8v.06c0,3.82,2.5,4.9,6.38,5.89,3.22.83,3.88,1.38,3.88,2.45v.06c0,1.13-1.05,1.82-2.78,1.82-2.2,0-4.02-.91-5.75-2.34l-2.5,3c2.31,2.06,5.25,3.08,8.17,3.08,4.15,0,7.07-2.15,7.07-5.97M486.32,491.67v-8.36h-8.36v3.66h4.26v2.75c-1.07.77-2.45,1.16-3.99,1.16-3.41,0-5.83-2.59-5.83-6.11v-.06c0-3.27,2.45-6,5.53-6,2.23,0,3.55.72,5.03,1.95l2.67-3.22c-2.01-1.71-4.1-2.64-7.56-2.64-5.83,0-10.09,4.48-10.09,9.96v.06c0,5.69,4.13,9.9,10.12,9.9,3.52,0,6.24-1.38,8.22-3.05M462.83,494.39v-19.25h-4.18v11.85l-9.02-11.85h-3.91v19.25h4.18v-12.24l9.32,12.24h3.6ZM439.54,475.14h-4.24v19.25h4.24v-19.25ZM429.11,494.39v-19.25h-4.18v11.85l-9.02-11.85h-3.91v19.25h4.18v-12.24l9.32,12.24h3.6ZM402.52,481.77c0,1.62-1.18,2.72-3.25,2.72h-4.29v-5.53h4.21c2.06,0,3.33.94,3.33,2.75v.06ZM407.39,494.39l-4.7-6.88c2.45-.91,4.13-2.86,4.13-5.97v-.06c0-3.96-2.72-6.35-7.26-6.35h-8.8v19.25h4.24v-6.16h3.33l4.13,6.16h4.95ZM385.6,494.39v-3.77h-10.45v-4.04h9.08v-3.77h-9.08v-3.91h10.31v-3.77h-14.52v19.25h14.66ZM366.19,491.28l-2.7-2.72c-1.51,1.38-2.86,2.26-5.06,2.26-3.3,0-5.58-2.75-5.58-6.05v-.06c0-3.3,2.34-6,5.58-6,1.93,0,3.44.83,4.92,2.17l2.7-3.11c-1.79-1.76-3.96-2.97-7.59-2.97-5.91,0-10.04,4.48-10.04,9.96v.06c0,5.53,4.21,9.9,9.87,9.9,3.71,0,5.91-1.32,7.89-3.44M344.21,488.7v-.06c0-3.36-2.2-4.76-6.11-5.78-3.33-.85-4.15-1.27-4.15-2.53v-.06c0-.94.85-1.68,2.48-1.68s3.3.72,5.01,1.9l2.2-3.19c-1.95-1.57-4.35-2.45-7.15-2.45-3.93,0-6.74,2.31-6.74,5.8v.06c0,3.82,2.5,4.9,6.38,5.89,3.22.83,3.88,1.38,3.88,2.45v.06c0,1.13-1.05,1.82-2.78,1.82-2.2,0-4.02-.91-5.75-2.34l-2.5,3c2.31,2.06,5.25,3.08,8.17,3.08,4.15,0,7.07-2.15,7.07-5.97M324.11,475.14h-4.24v19.25h4.24v-19.25ZM310.11,484.82c0,3.41-2.34,5.75-5.8,5.75h-3.27v-11.61h3.27c3.47,0,5.8,2.39,5.8,5.8v.06ZM314.54,484.77v-.06c0-5.42-4.18-9.57-10.23-9.57h-7.51v19.25h7.51c6.05,0,10.23-4.21,10.23-9.63M263.36,494.39v-3.85h-9.6v-15.4h-4.24v19.25h13.83ZM237.48,486.33h-5.12l2.56-6.24,2.56,6.24ZM245.18,494.39l-8.25-19.39h-3.91l-8.25,19.39h4.32l1.76-4.32h8.14l1.76,4.32h4.43ZM220.43,494.39v-19.25h-4.18v11.85l-9.02-11.85h-3.91v19.25h4.18v-12.24l9.32,12.24h3.6ZM193.75,484.82c0,3.3-2.37,6-5.78,6s-5.83-2.75-5.83-6.05v-.06c0-3.3,2.37-6,5.78-6s5.83,2.75,5.83,6.05v.06ZM198.18,484.77v-.06c0-5.47-4.26-9.9-10.2-9.9s-10.26,4.48-10.26,9.96v.06c0,5.47,4.26,9.9,10.2,9.9s10.26-4.48,10.26-9.96M172.38,475.14h-4.24v19.25h4.24v-19.25ZM163.34,479.05v-3.91h-15.95v3.91h5.86v15.35h4.24v-15.35h5.86ZM142.76,494.39v-19.25h-4.18v11.85l-9.02-11.85h-3.91v19.25h4.18v-12.24l9.32,12.24h3.6ZM120.52,494.39v-3.77h-10.45v-4.04h9.08v-3.77h-9.08v-3.91h10.31v-3.77h-14.52v19.25h14.66ZM101.24,479.05v-3.91h-15.95v3.91h5.86v15.35h4.24v-15.35h5.86ZM80.66,494.39v-19.25h-4.18v11.85l-9.02-11.85h-3.91v19.25h4.18v-12.24l9.32,12.24h3.6ZM57.37,475.14h-4.24v19.25h4.24v-19.25Z"/>
    <path class="st1" d="M281.14,476.6h-.99c0,3.06-1.82,6.61-6.11,6.61v.99c4.29,0,6.11,3.14,6.11,6.36h.99c0-3.22,1.9-6.36,5.87-6.36v-.99c-3.96,0-5.87-3.55-5.87-6.61"/>
    <path class="st1" d="M505.56,476.6h-.99c0,3.06-1.82,6.61-6.11,6.61v.99c4.29,0,6.11,3.14,6.11,6.36h.99c0-3.22,1.9-6.36,5.87-6.36v-.99c-3.96,0-5.87-3.55-5.87-6.61"/>
  </g>
</svg>