<?xml version="1.0" encoding="UTF-8"?>
<svg id="Layer_1" xmlns="http://www.w3.org/2000/svg" xmlns:xlink="http://www.w3.org/1999/xlink" version="1.1" viewBox="145 128 415 148">
  <!-- Generator: Adobe Illustrator 30.4.0, SVG Export Plug-In . SVG Version: 2.1.4 Build 226)  -->
  <defs>
    <style>
      .st0 {
        fill: none;
      }

      .st1 {
        fill: #10294b;
      }

      .st2 {
        fill: #faab30;
      }

      .st3 {
        clip-path: url(#clippath);
      }
    </style>
    <!-- clipPath removed -->
      
    
  </defs>
  <g >
    <path class="st1" d="M390.18,159.22l.27-5.68-.51-.08c-1.48,3.97-4.16,5.13-8.09,5.13h-3.73c-1.24,0-1.94-.7-1.94-1.94v-11.74h3.73c4.74,0,6.1.93,6.73,2.96h.54v-6.53h-.54c-.62,2.02-1.98,2.96-6.73,2.96h-3.73v-11.67h4.55c4.36,0,6.8,1.17,8.36,4.98l.51-.12-.43-5.48h-18.66v.54c1.28.43,1.56,1.59,1.56,4.39v17.34c0,2.8-.27,3.97-1.56,4.39v.54h19.68ZM336.13,159.22h7.23v-.54c-1.28-.43-1.56-1.59-1.56-4.39v-9.14h13.53v9.14c0,2.8-.27,3.97-1.56,4.39v.54h7.23v-.54c-1.28-.43-1.56-1.59-1.56-4.39v-17.34c0-2.8.27-3.97,1.56-4.39v-.54h-7.23v.54c1.28.43,1.56,1.59,1.56,4.39v7.5h-13.53v-7.5c0-2.8.27-3.97,1.56-4.39v-.54h-7.23v.54c1.28.43,1.56,1.59,1.56,4.39v17.34c0,2.8-.27,3.97-1.56,4.39v.54ZM314,159.22h7.27v-.54c-1.28-.43-1.56-1.59-1.56-4.39v-21.58h1.13c3.46,0,5.21.97,6.65,4.08l.47-.08-.23-4.7h-20.26l-.23,4.7.47.08c1.44-3.11,3.19-4.08,6.65-4.08h1.21v21.58c0,2.8-.27,3.97-1.56,4.39v.54Z"/>
    <path class="st1" d="M476.91,236.29l.57-11.94-1.06-.16c-3.11,8.34-8.75,10.79-17.01,10.79h-7.85c-2.62,0-4.09-1.47-4.09-4.09v-24.69h7.85c9.97,0,12.84,1.96,14.14,6.21h1.14v-13.74h-1.14c-1.31,4.25-4.17,6.21-14.14,6.21h-7.85v-24.53h9.57c9.16,0,14.31,2.45,17.58,10.46l1.06-.25-.9-11.53h-39.24v1.14c2.7.9,3.27,3.35,3.27,9.24v36.46c0,5.89-.57,8.34-3.27,9.24v1.14h41.37ZM394.18,234.98h-4.41c-4.5,0-5.31-2.13-5.31-5.97v-48.65h3.27c18.23,0,26.9,13.41,26.9,30.17s-7.28,24.45-20.44,24.45M394.75,236.29c17.99,0,29.6-12.02,29.51-29.76-.08-12.02-7.77-27.47-31.31-27.47h-20.44v1.14c2.7.9,3.27,3.35,3.27,9.24v36.46c0,5.89-.57,8.34-3.27,9.24v1.14h22.24ZM346.35,236.29h15.21v-1.14c-2.7-.9-3.27-3.35-3.27-9.24v-36.46c0-5.89.57-8.34,3.27-9.24v-1.14h-15.21v1.14c2.7.9,3.27,3.35,3.27,9.24v36.46c0,5.89-.57,8.34-3.27,9.24v1.14ZM313.24,237.11c11.94,0,20.52-6.62,20.52-23.06v-24.61c0-5.89.57-8.34,3.27-9.24v-1.14h-10.96v1.14c4.25,1.31,6.21,4.17,6.21,14.14v19.87c0,15.86-8.91,20.93-15.78,20.93-11.12,0-18.48-5.56-18.48-20.44v-25.26c0-5.89.57-8.34,3.27-9.24v-1.14h-15.21v1.14c2.7.9,3.27,3.35,3.27,9.24v24.61c0,17.58,12.1,23.06,23.87,23.06M253.39,237.11c6.79,0,16.84-3.35,22.97-11.36v-15.04h-12.67v1.14c3.52.98,4.25,3.27,4.25,9.65v7.44c-2.04,4.09-6.7,6.21-11.85,6.21-15.7,0-25.1-17.66-24.94-33.11.16-14.8,8.42-21.99,19.13-21.99,8.18,0,16.76,5.07,20.11,13.49l.98-.25-.33-10.79c-4.25-2.86-12.67-4.01-17.74-4.01-18.4,0-30.74,13.24-30.74,28.94,0,17.9,12.02,29.68,30.82,29.68"/>
    <path class="st1" d="M551.93,254.51h-3.32l-3.22,5.32-3.16-5.32h-3.41l5.1,8.03v5.23h2.92v-5.29l5.1-7.98ZM534.82,261.18c0,2.35-1.61,3.96-4,3.96h-2.25v-7.99h2.25c2.39,0,4,1.65,4,4v.04ZM537.87,261.14v-.04c0-3.73-2.88-6.59-7.05-6.59h-5.17v13.26h5.17c4.17,0,7.05-2.9,7.05-6.63M517.36,262.22h-3.52l1.76-4.3,1.76,4.3ZM522.66,267.77l-5.68-13.36h-2.69l-5.68,13.36h2.97l1.21-2.97h5.61l1.21,2.97h3.05ZM506.2,267.77v-2.6h-7.2v-2.78h6.25v-2.6h-6.25v-2.69h7.1v-2.6h-10v13.26h10.1ZM492.92,257.2v-2.69h-10.99v2.69h4.03v10.57h2.92v-10.57h4.03ZM479.68,263.85v-.04c0-2.31-1.52-3.28-4.21-3.98-2.29-.59-2.86-.87-2.86-1.74v-.04c0-.64.59-1.16,1.7-1.16s2.27.49,3.45,1.31l1.52-2.2c-1.34-1.08-2.99-1.69-4.93-1.69-2.71,0-4.64,1.59-4.64,4v.04c0,2.63,1.72,3.37,4.39,4.05,2.22.57,2.67.95,2.67,1.69v.04c0,.78-.72,1.25-1.91,1.25-1.52,0-2.77-.63-3.96-1.61l-1.72,2.06c1.59,1.42,3.62,2.12,5.63,2.12,2.86,0,4.87-1.48,4.87-4.11M446.45,265.9v-5.76h-5.76v2.52h2.94v1.89c-.74.53-1.69.8-2.75.8-2.35,0-4.02-1.78-4.02-4.21v-.04c0-2.25,1.69-4.13,3.81-4.13,1.53,0,2.44.49,3.47,1.34l1.84-2.22c-1.38-1.17-2.82-1.82-5.21-1.82-4.02,0-6.95,3.09-6.95,6.86v.04c0,3.92,2.84,6.82,6.97,6.82,2.42,0,4.3-.95,5.66-2.1M430.27,267.77v-13.26h-2.88v8.16l-6.21-8.16h-2.69v13.26h2.88v-8.43l6.42,8.43h2.48ZM414.23,254.51h-2.92v13.26h2.92v-13.26ZM407.05,267.77v-13.26h-2.88v8.16l-6.21-8.16h-2.69v13.26h2.88v-8.43l6.42,8.43h2.48ZM388.73,259.08c0,1.12-.81,1.88-2.24,1.88h-2.96v-3.81h2.9c1.42,0,2.29.64,2.29,1.89v.04ZM392.08,267.77l-3.24-4.74c1.69-.63,2.84-1.97,2.84-4.11v-.04c0-2.73-1.88-4.38-5-4.38h-6.06v13.26h2.92v-4.24h2.29l2.84,4.24h3.41ZM377.08,267.77v-2.6h-7.2v-2.78h6.25v-2.6h-6.25v-2.69h7.1v-2.6h-10v13.26h10.1ZM363.71,265.63l-1.86-1.88c-1.04.95-1.97,1.55-3.49,1.55-2.27,0-3.85-1.89-3.85-4.17v-.04c0-2.27,1.61-4.13,3.85-4.13,1.33,0,2.37.57,3.39,1.5l1.86-2.14c-1.23-1.21-2.73-2.05-5.23-2.05-4.07,0-6.91,3.09-6.91,6.86v.04c0,3.81,2.9,6.82,6.8,6.82,2.56,0,4.07-.91,5.44-2.37M348.57,263.85v-.04c0-2.31-1.52-3.28-4.21-3.98-2.29-.59-2.86-.87-2.86-1.74v-.04c0-.64.59-1.16,1.7-1.16s2.27.49,3.45,1.31l1.52-2.2c-1.35-1.08-2.99-1.69-4.93-1.69-2.71,0-4.64,1.59-4.64,4v.04c0,2.63,1.72,3.37,4.39,4.05,2.22.57,2.67.95,2.67,1.69v.04c0,.78-.72,1.25-1.91,1.25-1.52,0-2.77-.63-3.96-1.61l-1.72,2.06c1.59,1.42,3.62,2.12,5.63,2.12,2.86,0,4.87-1.48,4.87-4.11M334.72,254.51h-2.92v13.26h2.92v-13.26ZM325.08,261.18c0,2.35-1.61,3.96-4,3.96h-2.25v-7.99h2.25c2.39,0,4,1.65,4,4v.04ZM328.13,261.14v-.04c0-3.73-2.88-6.59-7.05-6.59h-5.17v13.26h5.17c4.17,0,7.05-2.9,7.05-6.63M292.88,267.77v-2.65h-6.61v-10.61h-2.92v13.26h9.53ZM275.05,262.22h-3.52l1.76-4.3,1.76,4.3ZM280.35,267.77l-5.68-13.36h-2.69l-5.68,13.36h2.97l1.21-2.97h5.61l1.21,2.97h3.05ZM263.31,267.77v-13.26h-2.88v8.16l-6.21-8.16h-2.69v13.26h2.88v-8.43l6.42,8.43h2.48ZM244.93,261.18c0,2.27-1.63,4.13-3.98,4.13s-4.02-1.89-4.02-4.17v-.04c0-2.27,1.63-4.13,3.98-4.13s4.02,1.89,4.02,4.17v.04ZM247.98,261.14v-.04c0-3.77-2.94-6.82-7.03-6.82s-7.07,3.09-7.07,6.86v.04c0,3.77,2.94,6.82,7.03,6.82s7.07-3.09,7.07-6.86M230.21,254.51h-2.92v13.26h2.92v-13.26ZM223.98,257.2v-2.69h-10.99v2.69h4.03v10.57h2.92v-10.57h4.03ZM209.81,267.77v-13.26h-2.88v8.16l-6.21-8.16h-2.69v13.26h2.88v-8.43l6.42,8.43h2.48ZM194.48,267.77v-2.6h-7.2v-2.78h6.25v-2.6h-6.25v-2.69h7.1v-2.6h-10v13.26h10.1ZM181.2,257.2v-2.69h-10.99v2.69h4.03v10.57h2.92v-10.57h4.03ZM167.03,267.77v-13.26h-2.88v8.16l-6.21-8.16h-2.69v13.26h2.88v-8.43l6.42,8.43h2.48ZM150.99,254.51h-2.92v13.26h2.92v-13.26Z"/>
    <path class="st2" d="M303.3,255.51h-.68c0,2.11-1.25,4.55-4.21,4.55v.68c2.96,0,4.21,2.16,4.21,4.38h.68c0-2.22,1.31-4.38,4.04-4.38v-.68c-2.73,0-4.04-2.45-4.04-4.55"/>
    <path class="st2" d="M459.18,255.51h-.68c0,2.11-1.25,4.55-4.21,4.55v.68c2.96,0,4.21,2.16,4.21,4.38h.68c0-2.22,1.31-4.38,4.04-4.38v-.68c-2.73,0-4.04-2.45-4.04-4.55"/>
  </g>
</svg>