<?xml version="1.0" encoding="UTF-8"?>
<svg id="Layer_1" xmlns="http://www.w3.org/2000/svg" xmlns:xlink="http://www.w3.org/1999/xlink" version="1.1" viewBox="0 0 792 792">
  <!-- Generator: Adobe Illustrator 30.4.0, SVG Export Plug-In . SVG Version: 2.1.4 Build 226)  -->
  <defs>
    <style>
      .st0 {
        fill: none;
      }

      .st1 {
        fill: #11294b;
      }

      .st2 {
        clip-path: url(#clippath);
      }

      .st3 {
        fill: #2d516b;
      }
    </style>
    <clipPath id="clippath">
      <rect class="st0" x="71.39" y="303.19" width="639.43" height="199.49"/>
    </clipPath>
  </defs>
  <g class="st2">
    <path class="st1" d="M450.36,343.12l.4-8.33-.74-.11c-2.17,5.82-6.1,7.53-11.86,7.53h-5.48c-1.83,0-2.85-1.03-2.85-2.85v-17.23h5.48c6.96,0,8.95,1.37,9.87,4.33h.8v-9.58h-.8c-.91,2.97-2.91,4.33-9.87,4.33h-5.48v-17.11h6.67c6.39,0,9.98,1.71,12.26,7.3l.74-.17-.63-8.04h-27.38v.8c1.88.63,2.28,2.34,2.28,6.45v25.44c0,4.11-.4,5.82-2.28,6.45v.8h28.86ZM371.08,343.12h10.61v-.8c-1.88-.63-2.28-2.34-2.28-6.45v-13.4h19.85v13.4c0,4.11-.4,5.82-2.28,6.45v.8h10.61v-.8c-1.88-.63-2.28-2.34-2.28-6.45v-25.44c0-4.11.4-5.82,2.28-6.45v-.8h-10.61v.8c1.88.63,2.28,2.34,2.28,6.45v11.01h-19.85v-11.01c0-4.11.4-5.82,2.28-6.45v-.8h-10.61v.8c1.88.63,2.28,2.34,2.28,6.45v25.44c0,4.11-.4,5.82-2.28,6.45v.8ZM338.62,343.12h10.67v-.8c-1.88-.63-2.28-2.34-2.28-6.45v-31.66h1.65c5.08,0,7.64,1.43,9.75,5.99l.68-.11-.34-6.9h-29.72l-.34,6.9.68.11c2.11-4.56,4.68-5.99,9.75-5.99h1.77v31.66c0,4.11-.4,5.82-2.28,6.45v.8Z"/>
    <path class="st1" d="M663.33,456.17h22.43v-1.68c-3.96-1.32-4.8-4.92-4.8-13.55v-23.15l18.11-32.26c4.2-7.56,8.15-10.31,11.75-11.63v-1.68h-15.47v1.68c4.92.96,5.52,4.08,1.32,11.63l-16.19,28.54-15.83-28.54c-4.2-7.56-6.6-10.31-2.64-11.63v-1.68h-22.43v1.68c2.76,1.32,6.6,4.08,10.67,11.63l17.75,32.14.12,23.27c0,8.63-.84,12.23-4.8,13.55v1.68ZM599.17,411.19h-7.68v-36.7c1.8-.24,3.6-.36,5.28-.36,14.99,0,21.23,10.43,21.23,20.15s-5.16,16.91-18.83,16.91M635.03,457.01c2.04,0,5.88-.12,8.63-.84v-1.68c-.6.12-1.2.12-1.8.12-4.44,0-5.76-2.88-12.11-18.83-6.36-15.95-8.99-21.59-22.55-23.15,15.95-1.92,23.51-10.19,23.51-21.23,0-9.71-5.4-19.19-31.54-19.19h-25.18v1.68c3.96,1.32,4.8,4.92,4.8,13.55v53.49c0,8.63-.84,12.23-4.8,13.55v1.68h22.31v-1.68c-3.96-1.32-4.8-4.92-4.8-13.55v-27.82h7.08c10.55,0,11.15,5.88,18.35,23.39,5.76,14.03,8.15,20.51,18.11,20.51M503.95,422.95l14.99-37.06,15.47,37.06h-30.46ZM483.93,456.17h13.91v-1.68c-4.08-.96-4.8-4.44-1.56-12.47l6.96-17.15h32.02l7.2,17.27c3.36,7.91,5.04,11.03,1.08,12.35v1.68h21.83v-1.68c-2.76-1.32-5.88-4.44-9.23-12.35l-29.74-70.87-11.75,5.28,1.56,3.36c1.08,2.16,1.2,4.08.24,6.48l-22.43,55.64c-3.24,8.03-6.48,11.15-10.07,12.47v1.68ZM471.1,457.13h1.56v-69.68c0-8.63.84-12.23,4.8-13.55v-1.68h-16.19v1.68c6.24,1.92,9.11,6.12,9.11,20.75v40.65l-50.37-63.08h-13.55v1.68c5.16,1.32,6.24,4.92,6.24,13.55v53.49c0,8.63-.84,12.23-4.8,13.55v1.68h16.07v-1.68c-6.24-1.92-9.11-6.12-9.11-20.75v-47.61l56.24,70.99ZM358.49,453.65c-20.39,0-35.62-23.15-37.3-47.13-1.32-19.43,7.91-32.14,24.22-32.14,20.75,0,35.14,24.1,36.94,49.65,1.08,15.83-5.52,29.62-23.86,29.62M351.65,457.37c20.15,0,42.81-13.55,42.81-42.81s-22.55-43.29-42.81-43.29c-25.42,0-42.93,18.83-42.93,42.57,0,30.1,22.55,43.53,42.93,43.53M269.51,456.17h22.31v-1.68c-3.96-1.32-4.8-4.92-4.8-13.55v-53.49c0-8.63.84-12.23,4.8-13.55v-1.68h-22.31v1.68c3.96,1.32,4.8,4.92,4.8,13.55v53.49c0,8.63-.84,12.23-4.8,13.55v1.68ZM227.05,457.37c13.79,0,28.9-9.11,28.9-25.54,0-14.39-14.51-19.79-26.74-24.46-9.59-3.84-21.71-8.15-21.71-18.83,0-9.47,7.56-15.11,17.15-15.11,11.63,0,21.83,6.72,26.74,19.07l1.32-.48-.48-15.59c-6.24-3.12-14.15-5.04-23.03-5.04-18.83,0-30.82,9.23-30.82,24.1,0,13.91,10.31,17.99,22.67,23.15,9.59,3.84,25.06,9.35,25.06,21.11,0,9.83-7.68,15.11-15.95,15.11-15.95,0-26.62-10.55-31.66-24.22l-1.56.24.48,17.99c6.12,4.56,17.27,8.51,29.62,8.51M160.02,456.17h22.31v-1.68c-3.96-1.32-4.8-4.92-4.8-13.55v-53.49c0-8.63.84-12.23,4.8-13.55v-1.68h-22.31v1.68c3.96,1.32,4.8,4.92,4.8,13.55v53.49c0,8.63-.84,12.23-4.8,13.55v1.68ZM80.39,386.37l28.18,69.8h4.56l27.1-69.8c3.12-8.03,6.24-11.15,9.83-12.47v-1.68h-13.91v1.68c4.08.96,4.92,4.44,1.8,12.47l-21.71,56-22.07-56c-3.12-8.03-4.68-11.15-.72-12.47v-1.68h-22.07v1.68c2.76,1.32,5.88,4.44,8.99,12.47"/>
    <path class="st1" d="M666.21,486.84v-3.95h-16.12v3.95h5.92v15.51h4.28v-15.51h5.92ZM645.43,502.35v-19.45h-4.22v11.98l-9.11-11.98h-3.95v19.45h4.22v-12.37l9.42,12.37h3.64ZM622.95,502.35v-3.81h-10.56v-4.08h9.17v-3.81h-9.17v-3.95h10.42v-3.81h-14.67v19.45h14.81ZM601.88,482.9h-4.28v19.45h4.28v-19.45ZM592.8,502.35v-3.89h-9.7v-15.56h-4.28v19.45h13.98ZM572.57,482.9h-4.28v19.45h4.28v-19.45ZM562.98,496.59v-.06c0-3.39-2.22-4.81-6.17-5.84-3.36-.86-4.2-1.28-4.2-2.56v-.06c0-.94.86-1.7,2.5-1.7s3.33.72,5.06,1.92l2.22-3.22c-1.97-1.58-4.39-2.47-7.22-2.47-3.97,0-6.81,2.33-6.81,5.86v.06c0,3.86,2.53,4.95,6.45,5.95,3.25.83,3.92,1.39,3.92,2.47v.06c0,1.14-1.06,1.83-2.81,1.83-2.22,0-4.06-.92-5.81-2.36l-2.53,3.03c2.33,2.08,5.31,3.11,8.25,3.11,4.2,0,7.14-2.17,7.14-6.03M543.73,502.35v-3.81h-10.56v-4.08h9.17v-3.81h-9.17v-3.95h10.42v-3.81h-14.67v19.45h14.81ZM519.33,489.59c0,1.64-1.19,2.75-3.28,2.75h-4.33v-5.59h4.25c2.08,0,3.36.94,3.36,2.78v.06ZM524.25,502.35l-4.75-6.95c2.47-.92,4.17-2.89,4.17-6.03v-.06c0-4-2.75-6.42-7.34-6.42h-8.89v19.45h4.28v-6.22h3.36l4.17,6.22h5ZM473.45,499.21l-2.72-2.75c-1.53,1.39-2.89,2.28-5.11,2.28-3.33,0-5.64-2.78-5.64-6.11v-.06c0-3.33,2.36-6.06,5.64-6.06,1.95,0,3.47.83,4.97,2.2l2.72-3.14c-1.81-1.78-4-3-7.67-3-5.97,0-10.14,4.53-10.14,10.06v.06c0,5.59,4.25,10,9.98,10,3.75,0,5.97-1.33,7.97-3.47M450.11,482.9h-4.28v19.45h4.28v-19.45ZM440.14,499.6v-8.45h-8.45v3.7h4.31v2.78c-1.08.78-2.47,1.17-4.03,1.17-3.45,0-5.89-2.61-5.89-6.17v-.06c0-3.31,2.47-6.06,5.59-6.06,2.25,0,3.58.72,5.09,1.97l2.7-3.25c-2.03-1.72-4.14-2.67-7.64-2.67-5.89,0-10.2,4.53-10.2,10.06v.06c0,5.75,4.17,10,10.23,10,3.56,0,6.31-1.39,8.31-3.08M417.27,502.35v-3.81h-10.56v-4.08h9.17v-3.81h-9.17v-3.95h10.42v-3.81h-14.67v19.45h14.81ZM397.79,486.84v-3.95h-16.12v3.95h5.92v15.51h4.28v-15.51h5.92ZM373.39,494.21h-5.17l2.58-6.31,2.58,6.31ZM381.17,502.35l-8.34-19.59h-3.95l-8.34,19.59h4.36l1.78-4.36h8.23l1.78,4.36h4.47ZM352.64,489.59c0,1.64-1.19,2.75-3.28,2.75h-4.33v-5.59h4.25c2.08,0,3.36.94,3.36,2.78v.06ZM357.55,502.35l-4.75-6.95c2.47-.92,4.17-2.89,4.17-6.03v-.06c0-4-2.75-6.42-7.34-6.42h-8.89v19.45h4.28v-6.22h3.36l4.17,6.22h5ZM336.07,486.84v-3.95h-16.12v3.95h5.92v15.51h4.28v-15.51h5.92ZM316.65,496.59v-.06c0-3.39-2.22-4.81-6.17-5.84-3.36-.86-4.2-1.28-4.2-2.56v-.06c0-.94.86-1.7,2.5-1.7s3.33.72,5.06,1.92l2.22-3.22c-1.97-1.58-4.39-2.47-7.22-2.47-3.97,0-6.81,2.33-6.81,5.86v.06c0,3.86,2.53,4.95,6.45,5.95,3.25.83,3.92,1.39,3.92,2.47v.06c0,1.14-1.06,1.83-2.81,1.83-2.22,0-4.06-.92-5.81-2.36l-2.53,3.03c2.33,2.08,5.31,3.11,8.25,3.11,4.2,0,7.14-2.17,7.14-6.03M263.74,492.68c0,3.45-2.36,5.81-5.86,5.81h-3.31v-11.73h3.31c3.5,0,5.86,2.42,5.86,5.86v.06ZM268.22,492.62v-.06c0-5.47-4.22-9.67-10.34-9.67h-7.59v19.45h7.59c6.11,0,10.34-4.25,10.34-9.73M245.1,502.35v-3.81h-10.56v-4.08h9.17v-3.81h-9.17v-3.95h10.42v-3.81h-14.67v19.45h14.81ZM225.62,486.84v-3.95h-16.12v3.95h5.92v15.51h4.28v-15.51h5.92ZM206.2,496.59v-.06c0-3.39-2.22-4.81-6.17-5.84-3.36-.86-4.2-1.28-4.2-2.56v-.06c0-.94.86-1.7,2.5-1.7s3.33.72,5.06,1.92l2.22-3.22c-1.97-1.58-4.39-2.47-7.22-2.47-3.97,0-6.81,2.33-6.81,5.86v.06c0,3.86,2.53,4.95,6.45,5.95,3.25.83,3.92,1.39,3.92,2.47v.06c0,1.14-1.06,1.83-2.81,1.83-2.22,0-4.06-.92-5.81-2.36l-2.53,3.03c2.33,2.08,5.31,3.11,8.25,3.11,4.2,0,7.14-2.17,7.14-6.03M186.94,502.35v-3.81h-10.56v-4.08h9.17v-3.81h-9.17v-3.95h10.42v-3.81h-14.67v19.45h14.81ZM167.74,482.9h-4.61l-5.09,13.7-5.09-13.7h-4.72l7.86,19.59h3.78l7.86-19.59ZM143.84,502.35v-19.45h-4.22v11.98l-9.11-11.98h-3.95v19.45h4.22v-12.37l9.42,12.37h3.64ZM120.31,482.9h-4.28v19.45h4.28v-19.45Z"/>
    <path class="st3" d="M286.36,484.37h-1c0,3.09-1.84,6.68-6.18,6.68v1c4.34,0,6.18,3.17,6.18,6.42h1c0-3.25,1.92-6.42,5.93-6.42v-1c-4.01,0-5.93-3.59-5.93-6.68"/>
    <path class="st3" d="M491.16,484.37h-1c0,3.09-1.84,6.68-6.18,6.68v1c4.34,0,6.18,3.17,6.18,6.42h1c0-3.25,1.92-6.42,5.93-6.42v-1c-4.01,0-5.93-3.59-5.93-6.68"/>
  </g>
</svg>