<?xml version="1.0" encoding="UTF-8"?>
<svg id="Layer_1" xmlns="http://www.w3.org/2000/svg" xmlns:xlink="http://www.w3.org/1999/xlink" version="1.1" viewBox="0 0 792 792">
  <!-- Generator: Adobe Illustrator 30.4.0, SVG Export Plug-In . SVG Version: 2.1.4 Build 226)  -->
  <defs>
    <style>
      .st0 {
        fill: none;
      }

      .st1 {
        fill: #6487aa;
      }

      .st2 {
        fill: #11294b;
      }

      .st3 {
        clip-path: url(#clippath);
      }
    </style>
    <clipPath id="clippath">
      <rect class="st0" x="67.92" y="304.89" width="656.16" height="182.22"/>
    </clipPath>
  </defs>
  <g class="st3">
    <path class="st2" d="M447.71,341.36l.36-7.61-.68-.1c-1.98,5.31-5.57,6.88-10.84,6.88h-5c-1.67,0-2.6-.94-2.6-2.61v-15.73h5c6.36,0,8.18,1.25,9.01,3.96h.73v-8.75h-.73c-.83,2.71-2.66,3.96-9.01,3.96h-5v-15.63h6.1c5.84,0,9.12,1.56,11.2,6.67l.68-.16-.57-7.35h-25.01v.73c1.72.57,2.08,2.14,2.08,5.89v23.24c0,3.75-.36,5.31-2.08,5.89v.73h26.36ZM375.29,341.36h9.69v-.73c-1.72-.57-2.08-2.14-2.08-5.89v-12.24h18.13v12.24c0,3.75-.36,5.31-2.08,5.89v.73h9.69v-.73c-1.72-.57-2.08-2.14-2.08-5.89v-23.24c0-3.75.36-5.31,2.08-5.89v-.73h-9.69v.73c1.72.57,2.08,2.14,2.08,5.89v10.06h-18.13v-10.06c0-3.75.36-5.31,2.08-5.89v-.73h-9.69v.73c1.72.57,2.08,2.14,2.08,5.89v23.24c0,3.75-.36,5.31-2.08,5.89v.73ZM345.65,341.36h9.74v-.73c-1.72-.57-2.08-2.14-2.08-5.89v-28.92h1.51c4.64,0,6.98,1.3,8.91,5.47l.63-.1-.31-6.3h-27.14l-.31,6.3.63.1c1.93-4.17,4.27-5.47,8.91-5.47h1.62v28.92c0,3.75-.36,5.31-2.08,5.89v.73Z"/>
    <path class="st2" d="M683.44,403.54h-7.01v-33.52c1.64-.22,3.29-.33,4.82-.33,13.69,0,19.39,9.53,19.39,18.4s-4.71,15.45-17.2,15.45M716.19,445.39c1.86,0,5.37-.11,7.89-.77v-1.53c-.55.11-1.1.11-1.64.11-4.05,0-5.26-2.63-11.06-17.2-5.81-14.57-8.22-19.72-20.59-21.14,14.57-1.75,21.47-9.31,21.47-19.39,0-8.87-4.93-17.53-28.81-17.53h-23v1.53c3.61,1.2,4.38,4.49,4.38,12.38v48.86c0,7.89-.77,11.17-4.38,12.38v1.53h20.38v-1.53c-3.61-1.2-4.38-4.49-4.38-12.38v-25.41h6.46c9.64,0,10.19,5.37,16.76,21.36,5.26,12.82,7.45,18.73,16.54,18.73M646.31,444.62l.77-15.99-1.42-.22c-4.16,11.17-11.72,14.46-22.79,14.46h-10.52c-3.51,0-5.48-1.97-5.48-5.48v-33.08h10.52c13.37,0,17.2,2.63,18.95,8.33h1.53v-18.4h-1.53c-1.75,5.7-5.59,8.33-18.95,8.33h-10.52v-32.86h12.82c12.27,0,19.17,3.29,23.55,14.02l1.42-.33-1.21-15.45h-52.58v1.53c3.61,1.2,4.38,4.49,4.38,12.38v48.86c0,7.89-.77,11.17-4.38,12.38v1.53h55.43ZM535.45,442.87h-5.92c-6.02,0-7.12-2.85-7.12-8v-65.18h4.38c24.43,0,36.04,17.97,36.04,40.42s-9.75,32.75-27.39,32.75M536.22,444.62c24.1,0,39.65-16.1,39.55-39.87-.11-16.1-10.41-36.81-41.96-36.81h-27.39v1.53c3.61,1.2,4.38,4.49,4.38,12.38v48.86c0,7.89-.77,11.17-4.38,12.38v1.53h29.8ZM487.25,445.5h1.42v-63.65c0-7.89.77-11.17,4.38-12.38v-1.53h-14.79v1.53c5.7,1.75,8.33,5.59,8.33,18.95v37.14l-46.01-57.62h-12.38v1.53c4.71,1.2,5.7,4.49,5.7,12.38v48.86c0,7.89-.77,11.17-4.38,12.38v1.53h14.68v-1.53c-5.7-1.75-8.33-5.59-8.33-18.95v-43.49l51.38,64.85ZM384.39,442.32c-18.62,0-32.53-21.14-34.07-43.05-1.2-17.75,7.23-29.36,22.13-29.36,18.95,0,32.1,22.02,33.74,45.35.99,14.46-5.04,27.06-21.8,27.06M378.14,445.72c18.4,0,39.11-12.38,39.11-39.11s-20.59-39.55-39.11-39.55c-23.22,0-39.22,17.2-39.22,38.89,0,27.5,20.59,39.76,39.22,39.76M295.33,412.75h-4.82v-42.83c.77-.11,2.3-.22,3.4-.22,17.31,0,21.91,12.93,21.91,22.35,0,12.38-6.13,20.7-20.48,20.7M274.52,444.62h20.38v-1.53c-3.61-1.2-4.38-4.49-4.38-12.38v-16.21h5.37c22.46,0,32.32-11.61,32.32-25.3,0-8.87-5.7-21.25-30.67-21.25h-23v1.53c3.61,1.2,4.38,4.49,4.38,12.38v48.86c0,7.89-.77,11.17-4.38,12.38v1.53ZM235.74,445.72c12.6,0,26.4-8.33,26.4-23.33,0-13.15-13.25-18.07-24.43-22.35-8.76-3.51-19.83-7.45-19.83-17.2,0-8.65,6.9-13.8,15.66-13.8,10.63,0,19.94,6.13,24.43,17.42l1.2-.44-.44-14.24c-5.7-2.85-12.93-4.6-21.03-4.6-17.2,0-28.15,8.43-28.15,22.02,0,12.71,9.42,16.43,20.7,21.14,8.76,3.51,22.89,8.54,22.89,19.28,0,8.98-7.01,13.8-14.57,13.8-14.57,0-24.32-9.64-28.92-22.13l-1.42.22.44,16.43c5.59,4.16,15.77,7.78,27.06,7.78M195.43,444.62l.77-15.99-1.42-.22c-4.16,11.17-11.72,14.46-22.79,14.46h-10.52c-3.51,0-5.48-1.97-5.48-5.48v-33.08h10.52c13.36,0,17.2,2.63,18.95,8.33h1.53v-18.4h-1.53c-1.75,5.7-5.59,8.33-18.95,8.33h-10.52v-32.86h12.82c12.27,0,19.17,3.29,23.55,14.02l1.42-.33-1.2-15.45h-52.58v1.53c3.61,1.2,4.38,4.49,4.38,12.38v48.86c0,7.89-.77,11.17-4.38,12.38v1.53h55.43ZM90.92,403.54h-7.01v-33.52c1.64-.22,3.29-.33,4.82-.33,13.69,0,19.39,9.53,19.39,18.4s-4.71,15.45-17.2,15.45M123.68,445.39c1.86,0,5.37-.11,7.89-.77v-1.53c-.55.11-1.1.11-1.64.11-4.05,0-5.26-2.63-11.06-17.2-5.81-14.57-8.22-19.72-20.59-21.14,14.57-1.75,21.47-9.31,21.47-19.39,0-8.87-4.93-17.53-28.81-17.53h-23v1.53c3.61,1.2,4.38,4.49,4.38,12.38v48.86c0,7.89-.77,11.17-4.38,12.38v1.53h20.38v-1.53c-3.61-1.2-4.38-4.49-4.38-12.38v-25.41h6.46c9.64,0,10.19,5.37,16.76,21.36,5.26,12.82,7.45,18.73,16.54,18.73"/>
    <path class="st2" d="M678.27,486.81v-3.55h-8.86v-14.21h-3.91v17.77h12.77ZM660.25,479.07v-10.03h-3.91v10.18c0,2.82-1.45,4.26-3.83,4.26s-3.83-1.5-3.83-4.39v-10.05h-3.91v10.15c0,5.23,2.92,7.89,7.69,7.89s7.79-2.64,7.79-8.02M640.66,472.59v-3.55h-13.53v17.77h3.91v-6.88h8.48v-3.55h-8.48v-3.78h9.62ZM622.86,472.64v-3.6h-14.72v3.6h5.41v14.16h3.91v-14.16h5.41ZM603.88,486.81v-17.77h-3.91v7.03h-7.21v-7.03h-3.91v17.77h3.91v-7.13h7.21v7.13h3.91ZM583.83,484.29v-7.72h-7.72v3.38h3.93v2.54c-.99.71-2.26,1.07-3.68,1.07-3.15,0-5.38-2.39-5.38-5.63v-.05c0-3.02,2.26-5.53,5.1-5.53,2.06,0,3.27.66,4.64,1.8l2.46-2.97c-1.85-1.57-3.78-2.44-6.98-2.44-5.38,0-9.31,4.14-9.31,9.19v.05c0,5.25,3.81,9.14,9.34,9.14,3.25,0,5.76-1.27,7.59-2.82M562.43,479.07v-10.03h-3.91v10.18c0,2.82-1.45,4.26-3.83,4.26s-3.83-1.5-3.83-4.39v-10.05h-3.91v10.15c0,5.23,2.92,7.89,7.69,7.89s7.79-2.64,7.79-8.02M538.39,477.97c0,3.05-2.18,5.53-5.33,5.53s-5.38-2.54-5.38-5.58v-.05c0-3.05,2.18-5.53,5.33-5.53s5.38,2.54,5.38,5.58v.05ZM542.48,477.92v-.05c0-5.05-3.93-9.14-9.42-9.14s-9.47,4.14-9.47,9.19v.05c0,5.05,3.93,9.14,9.42,9.14s9.47-4.14,9.47-9.19M518.85,486.81v-17.77h-3.91v7.03h-7.21v-7.03h-3.91v17.77h3.91v-7.13h7.21v7.13h3.91ZM499.56,472.64v-3.6h-14.72v3.6h5.41v14.16h3.91v-14.16h5.41ZM454.71,486.81v-3.48h-9.65v-3.73h8.38v-3.48h-8.38v-3.6h9.52v-3.48h-13.4v17.77h13.53ZM437.17,469.04h-4.21l-4.64,12.51-4.64-12.51h-4.31l7.18,17.89h3.45l7.18-17.89ZM415.16,469.04h-3.91v17.77h3.91v-17.77ZM406.81,472.64v-3.6h-14.72v3.6h5.41v14.16h3.91v-14.16h5.41ZM387.83,486.81v-17.77h-3.86v10.94l-8.33-10.94h-3.6v17.77h3.86v-11.3l8.6,11.3h3.33ZM367.29,486.81v-3.48h-9.65v-3.73h8.38v-3.48h-8.38v-3.6h9.52v-3.48h-13.4v17.77h13.53ZM349.5,472.64v-3.6h-14.72v3.6h5.41v14.16h3.91v-14.16h5.41ZM331.78,472.64v-3.6h-14.72v3.6h5.41v14.16h3.91v-14.16h5.41ZM309.5,479.37h-4.72l2.36-5.76,2.36,5.76ZM316.6,486.81l-7.61-17.89h-3.6l-7.61,17.89h3.99l1.62-3.99h7.51l1.62,3.99h4.09ZM268.43,486.81v-3.55h-8.86v-14.21h-3.91v17.77h12.77ZM244.55,479.37h-4.72l2.36-5.76,2.36,5.76ZM251.65,486.81l-7.61-17.89h-3.6l-7.61,17.89h3.99l1.62-3.99h7.51l1.62,3.99h4.09ZM229.95,483.94l-2.49-2.51c-1.4,1.27-2.64,2.08-4.67,2.08-3.05,0-5.15-2.54-5.15-5.58v-.05c0-3.05,2.16-5.53,5.15-5.53,1.78,0,3.17.76,4.54,2.01l2.49-2.87c-1.65-1.62-3.66-2.74-7.01-2.74-5.46,0-9.26,4.14-9.26,9.19v.05c0,5.1,3.88,9.14,9.11,9.14,3.43,0,5.46-1.22,7.28-3.17M208.63,469.04h-3.91v17.77h3.91v-17.77ZM200.28,472.64v-3.6h-14.72v3.6h5.41v14.16h3.91v-14.16h5.41ZM182.44,483.94l-2.49-2.51c-1.4,1.27-2.64,2.08-4.67,2.08-3.05,0-5.15-2.54-5.15-5.58v-.05c0-3.05,2.16-5.53,5.15-5.53,1.78,0,3.17.76,4.54,2.01l2.49-2.87c-1.65-1.62-3.66-2.74-7.01-2.74-5.46,0-9.26,4.14-9.26,9.19v.05c0,5.1,3.88,9.14,9.11,9.14,3.43,0,5.46-1.22,7.28-3.17M156.85,479.37h-4.72l2.36-5.76,2.36,5.76ZM163.96,486.81l-7.61-17.89h-3.6l-7.61,17.89h3.99l1.62-3.99h7.51l1.62,3.99h4.09ZM137.89,475.16c0,1.5-1.09,2.51-3,2.51h-3.96v-5.1h3.88c1.9,0,3.07.86,3.07,2.54v.05ZM142.38,486.81l-4.34-6.35c2.26-.84,3.81-2.64,3.81-5.51v-.05c0-3.66-2.51-5.86-6.7-5.86h-8.12v17.77h3.91v-5.69h3.07l3.81,5.69h4.57ZM118.91,475.31c0,1.52-1.14,2.69-3.1,2.69h-3.1v-5.43h3.02c1.95,0,3.17.94,3.17,2.69v.05ZM122.87,475.23v-.05c0-3.63-2.56-6.14-6.8-6.14h-7.26v17.77h3.91v-5.33h2.97c3.99,0,7.18-2.13,7.18-6.24"/>
    <path class="st1" d="M284.55,470.38h-.91c0,2.82-1.68,6.1-5.64,6.1v.92c3.96,0,5.64,2.9,5.64,5.87h.91c0-2.97,1.75-5.87,5.41-5.87v-.92c-3.66,0-5.41-3.28-5.41-6.1"/>
    <path class="st1" d="M472.96,470.38h-.91c0,2.82-1.68,6.1-5.64,6.1v.92c3.96,0,5.64,2.9,5.64,5.87h.91c0-2.97,1.75-5.87,5.41-5.87v-.92c-3.66,0-5.41-3.28-5.41-6.1"/>
  </g>
</svg>