<?xml version="1.0" encoding="UTF-8"?>
<svg id="Layer_1" xmlns="http://www.w3.org/2000/svg" xmlns:xlink="http://www.w3.org/1999/xlink" version="1.1" viewBox="0 0 792 792">
  <!-- Generator: Adobe Illustrator 30.4.0, SVG Export Plug-In . SVG Version: 2.1.4 Build 226)  -->
  <defs>
    <style>
      .st0 {
        fill: none;
      }

      .st1 {
        fill: #11294b;
      }

      .st2 {
        fill: #ce9a9c;
      }

      .st3 {
        clip-path: url(#clippath);
      }
    </style>
    <clipPath id="clippath">
      <rect class="st0" x="24.56" y="237.27" width="733.66" height="223.97"/>
    </clipPath>
  </defs>
  <g class="st3">
    <path class="st1" d="M457.51,282.1l.45-9.35-.83-.13c-2.43,6.53-6.85,8.45-13.32,8.45h-6.15c-2.05,0-3.2-1.15-3.2-3.2v-19.34h6.15c7.81,0,10.05,1.54,11.08,4.87h.9v-10.76h-.9c-1.02,3.33-3.27,4.87-11.08,4.87h-6.15v-19.21h7.49c7.17,0,11.21,1.92,13.77,8.2l.83-.19-.7-9.03h-30.74v.9c2.11.7,2.56,2.63,2.56,7.24v28.56c0,4.61-.45,6.53-2.56,7.24v.9h32.4ZM368.5,282.1h11.91v-.9c-2.11-.7-2.56-2.63-2.56-7.24v-15.05h22.29v15.05c0,4.61-.45,6.53-2.56,7.24v.9h11.91v-.9c-2.11-.7-2.56-2.63-2.56-7.24v-28.56c0-4.61.45-6.53,2.56-7.24v-.9h-11.91v.9c2.11.7,2.56,2.63,2.56,7.24v12.36h-22.29v-12.36c0-4.61.45-6.53,2.56-7.24v-.9h-11.91v.9c2.11.7,2.56,2.63,2.56,7.24v28.56c0,4.61-.45,6.53-2.56,7.24v.9ZM332.06,282.1h11.97v-.9c-2.11-.7-2.56-2.63-2.56-7.24v-35.54h1.86c5.7,0,8.58,1.6,10.95,6.72l.77-.13-.38-7.75h-33.36l-.38,7.75.77.13c2.37-5.12,5.25-6.72,10.95-6.72h1.99v35.54c0,4.61-.45,6.53-2.56,7.24v.9Z"/>
    <path class="st1" d="M751.08,410.1h1.75v-78.23c0-9.69.94-13.73,5.39-15.21v-1.89h-18.18v1.89c7,2.15,10.23,6.87,10.23,23.29v45.64l-56.55-70.82h-15.21v1.89c5.79,1.48,7,5.52,7,15.21v60.05c0,9.69-.94,13.73-5.39,15.21v1.88h18.04v-1.88c-7-2.15-10.23-6.87-10.23-23.29v-53.45l63.15,79.71ZM624.65,406.2c-22.89,0-39.99-25.99-41.87-52.91-1.48-21.81,8.89-36.08,27.2-36.08,23.29,0,39.45,27.06,41.47,55.74,1.21,17.77-6.19,33.26-26.79,33.26M616.98,410.37c22.62,0,48.07-15.21,48.07-48.07s-25.31-48.61-48.07-48.61c-28.54,0-48.2,21.14-48.2,47.8,0,33.8,25.31,48.88,48.2,48.88M524.75,409.03h25.05v-1.88c-4.44-1.48-5.39-5.52-5.39-15.21v-60.05c0-9.69.94-13.73,5.39-15.21v-1.89h-25.05v1.89c4.44,1.48,5.39,5.52,5.39,15.21v60.05c0,9.69-.94,13.73-5.39,15.21v1.88ZM469.68,369.84h-5.92v-52.65c.94-.13,2.83-.27,4.17-.27,21.27,0,26.93,15.89,26.93,27.47,0,15.21-7.54,25.45-25.18,25.45M444.1,409.03h25.04v-1.88c-4.44-1.48-5.39-5.52-5.39-15.21v-19.93h6.6c27.6,0,39.72-14.27,39.72-31.1,0-10.91-7-26.12-37.7-26.12h-28.27v1.89c4.44,1.48,5.39,5.52,5.39,15.21v60.05c0,9.69-.94,13.73-5.39,15.21v1.88ZM325.61,409.03h18.04v-1.88c-7-2.15-10.23-6.87-10.23-23.29v-55.88l33.8,55.47h3.1l32.31-56.68v65.17c0,9.69-.94,13.73-5.39,15.21v1.88h25.04v-1.88c-4.44-1.48-5.39-5.52-5.39-15.21v-51.97c0-16.43,2.96-21.14,9.16-23.29v-1.89h-19.12l-31.64,55.2-33.26-55.2h-20.2v1.89c6.19,2.15,9.16,6.87,9.16,23.29v51.97c0,9.69-.94,13.73-5.39,15.21v1.88ZM247.66,371.73l16.83-41.6,17.37,41.6h-34.2ZM225.17,409.03h15.62v-1.88c-4.58-1.08-5.39-4.98-1.75-14l7.81-19.25h35.95l8.08,19.39c3.77,8.89,5.65,12.39,1.21,13.87v1.88h24.5v-1.88c-3.1-1.48-6.6-4.98-10.37-13.87l-33.39-79.57-13.19,5.92,1.75,3.77c1.21,2.42,1.35,4.58.27,7.27l-25.18,62.47c-3.64,9.02-7.27,12.52-11.31,14v1.88ZM130.11,409.03h25.04v-1.88c-4.44-1.48-5.39-5.52-5.39-15.21v-31.64h46.86v31.64c0,9.69-.94,13.73-5.39,15.21v1.88h25.04v-1.88c-4.44-1.48-5.39-5.52-5.39-15.21v-60.05c0-9.69.94-13.73,5.39-15.21v-1.89h-25.04v1.89c4.44,1.48,5.39,5.52,5.39,15.21v25.99h-46.86v-25.99c0-9.69.94-13.73,5.39-15.21v-1.89h-25.04v1.89c4.44,1.48,5.39,5.52,5.39,15.21v60.05c0,9.69-.94,13.73-5.39,15.21v1.88ZM76.53,410.37c16.43,0,26.66-3.23,33.8-6.46l2.15-19.25-1.75-.27c-4.85,14-15.21,23.16-30.29,23.16-26.26,0-41.6-24.1-41.6-50.09s15.21-41.07,36.76-41.07c13.87,0,27.74,8.35,33.26,22.22l1.62-.4-.54-17.77c-7-4.71-20.87-6.6-30.83-6.6-32.99,0-54.53,22.49-54.53,49.68,0,30.16,19.79,46.86,51.97,46.86"/>
    <path class="st1" d="M726.48,460.87v-4.37h-10.89v-17.47h-4.8v21.84h15.69ZM697.12,451.73h-5.8l2.9-7.08,2.9,7.08ZM705.86,460.87l-9.36-21.99h-4.43l-9.36,21.99h4.9l2-4.9h9.23l2,4.9h5.02ZM677.78,460.87v-21.84h-4.74v13.45l-10.23-13.45h-4.43v21.84h4.74v-13.88l10.58,13.88h4.09ZM647.52,450.02c0,3.74-2.68,6.8-6.55,6.8s-6.61-3.12-6.61-6.86v-.06c0-3.74,2.68-6.8,6.55-6.8s6.61,3.12,6.61,6.86v.06ZM652.54,449.95v-.06c0-6.21-4.84-11.23-11.57-11.23s-11.64,5.09-11.64,11.29v.06c0,6.21,4.84,11.23,11.57,11.23s11.64-5.09,11.64-11.29M623.28,439.04h-4.8v21.84h4.8v-21.84ZM613.01,443.47v-4.43h-18.09v4.43h6.65v17.41h4.8v-17.41h6.65ZM585.62,451.73h-5.8l2.9-7.08,2.9,7.08ZM594.36,460.87l-9.36-21.99h-4.43l-9.36,21.99h4.9l2-4.9h9.23l2,4.9h5.02ZM567.9,460.87v-4.37h-10.89v-17.47h-4.8v21.84h15.69ZM546.38,460.87v-4.27h-11.86v-4.59h10.3v-4.27h-10.3v-4.43h11.7v-4.27h-16.47v21.84h16.63ZM518.99,446.55c0,1.84-1.34,3.09-3.68,3.09h-4.87v-6.27h4.77c2.34,0,3.77,1.06,3.77,3.12v.06ZM524.51,460.87l-5.33-7.8c2.78-1.03,4.68-3.24,4.68-6.77v-.06c0-4.49-3.09-7.21-8.24-7.21h-9.98v21.84h4.8v-6.99h3.77l4.68,6.99h5.62ZM462.02,450.02c0,3.87-2.65,6.52-6.58,6.52h-3.71v-13.17h3.71c3.93,0,6.58,2.71,6.58,6.58v.06ZM467.04,449.95v-.06c0-6.15-4.74-10.86-11.61-10.86h-8.52v21.84h8.52c6.86,0,11.61-4.77,11.61-10.92M441.09,460.87v-4.27h-11.86v-4.59h10.3v-4.27h-10.3v-4.43h11.7v-4.27h-16.47v21.84h16.63ZM417.66,460.87v-21.84h-4.74v13.45l-10.23-13.45h-4.43v21.84h4.74v-13.88l10.58,13.88h4.09ZM391.79,451.36v-12.32h-4.8v12.51c0,3.46-1.78,5.24-4.71,5.24s-4.71-1.84-4.71-5.4v-12.35h-4.8v12.48c0,6.43,3.59,9.7,9.45,9.7s9.58-3.24,9.58-9.86M367.87,443.47v-4.43h-18.09v4.43h6.65v17.41h4.8v-17.41h6.65ZM346.09,443.47v-4.43h-18.09v4.43h6.65v17.41h4.8v-17.41h6.65ZM318.7,451.73h-5.8l2.9-7.08,2.9,7.08ZM327.43,460.87l-9.36-21.99h-4.43l-9.36,21.99h4.9l2-4.9h9.23l2,4.9h5.02ZM267.57,460.87v-4.27h-11.86v-4.59h10.3v-4.27h-10.3v-4.43h11.7v-4.27h-16.47v21.84h16.63ZM246.01,439.04h-5.18l-5.71,15.38-5.71-15.38h-5.3l8.83,21.99h4.24l8.83-21.99ZM218.96,439.04h-4.8v21.84h4.8v-21.84ZM208.2,454.42v-.06c0-3.81-2.5-5.4-6.93-6.55-3.77-.97-4.71-1.44-4.71-2.87v-.06c0-1.06.97-1.9,2.81-1.9s3.74.81,5.68,2.15l2.5-3.62c-2.22-1.78-4.93-2.78-8.11-2.78-4.46,0-7.64,2.62-7.64,6.58v.06c0,4.34,2.84,5.55,7.24,6.68,3.65.94,4.4,1.56,4.4,2.78v.06c0,1.28-1.19,2.06-3.15,2.06-2.5,0-4.55-1.03-6.52-2.65l-2.84,3.4c2.62,2.34,5.96,3.49,9.27,3.49,4.71,0,8.02-2.43,8.02-6.77M186.98,454.42v-.06c0-3.81-2.5-5.4-6.93-6.55-3.77-.97-4.71-1.44-4.71-2.87v-.06c0-1.06.97-1.9,2.81-1.9s3.74.81,5.68,2.15l2.5-3.62c-2.22-1.78-4.93-2.78-8.11-2.78-4.46,0-7.64,2.62-7.64,6.58v.06c0,4.34,2.84,5.55,7.24,6.68,3.65.94,4.4,1.56,4.4,2.78v.06c0,1.28-1.19,2.06-3.15,2.06-2.5,0-4.55-1.03-6.52-2.65l-2.84,3.4c2.62,2.34,5.96,3.49,9.27,3.49,4.71,0,8.02-2.43,8.02-6.77M165.36,460.87v-4.27h-11.86v-4.59h10.3v-4.27h-10.3v-4.43h11.7v-4.27h-16.47v21.84h16.63ZM137.97,446.55c0,1.84-1.34,3.09-3.68,3.09h-4.87v-6.27h4.77c2.34,0,3.77,1.06,3.77,3.12v.06ZM143.49,460.87l-5.33-7.8c2.78-1.03,4.68-3.24,4.68-6.77v-.06c0-4.49-3.09-7.21-8.24-7.21h-9.98v21.84h4.8v-6.99h3.77l4.68,6.99h5.62ZM114.64,446.74c0,1.87-1.4,3.31-3.81,3.31h-3.81v-6.68h3.71c2.4,0,3.9,1.15,3.9,3.31v.06ZM119.5,446.65v-.06c0-4.46-3.15-7.55-8.36-7.55h-8.92v21.84h4.8v-6.55h3.65c4.9,0,8.83-2.62,8.83-7.67M97.07,460.87l-7.61-11.17,7.3-10.67h-5.46l-4.62,7.08-4.59-7.08h-5.62l7.3,10.73-7.61,11.11h5.46l4.93-7.49,4.9,7.49h5.62ZM71.99,460.87v-4.27h-11.86v-4.59h10.3v-4.27h-10.3v-4.43h11.7v-4.27h-16.47v21.84h16.63Z"/>
    <path class="st2" d="M288.15,440.69h-1.12c0,3.47-2.06,7.5-6.93,7.5v1.12c4.87,0,6.93,3.56,6.93,7.21h1.12c0-3.65,2.16-7.21,6.65-7.21v-1.12c-4.5,0-6.65-4.03-6.65-7.5"/>
    <path class="st2" d="M486.9,440.69h-1.12c0,3.47-2.06,7.5-6.93,7.5v1.12c4.87,0,6.93,3.56,6.93,7.21h1.12c0-3.65,2.16-7.21,6.65-7.21v-1.12c-4.5,0-6.65-4.03-6.65-7.5"/>
  </g>
</svg>